<svg version="1.2" xmlns="http://www.w3.org/2000/svg" viewBox="0 0 733 720" width="733" height="720">
	<title>Cloudsmall</title>
	<style>
		.s0 { fill: #f7f7f7 } 
	</style>
	<path id="&lt;Path&gt;" class="s0" d="m404.6 334.8c12.6 12.8 45.2-9.4 83.9-1 49.6 10.8 62.1 46.5 50.3 60.4-7.5 9-9 17-66 9.6-30-3.9-60.8-3.6-122.3-3-115.2 1.1-164.4 9.2-172.5-7.6-3.4-7.2 0.5-18.9 7.7-22 9.5-4.1 23.8 7.8 27.7 4.3 2.7-2.4-3.6-8.7-5.5-17-3.5-15.5 8.5-35.6 24.8-42.5 24-10.1 44.7 13.5 65.4 3.6 16.6-8 8-25.8 25.8-39.6 22.5-17.6 69.7-14.8 82.5 2.7 12.6 17-13.6 39.9-1.8 52.1z"/>
</svg>