<svg version="1.2" xmlns="http://www.w3.org/2000/svg" viewBox="0 0 1280 233" width="1920" height="350">
	<title>Clouds2-svg</title>
	<style>
		.s0 { fill: #f0f005 } 
	</style>
	<path id="&lt;Compound Path&gt;" fill-rule="evenodd" class="s0" d="m1302.1 101.3q-1.7-1-2.6-2.8-0.7-1.3-0.7-3.4 0.3-1.9 0.6-2.7 1-2.8 3.6-4 2.6-1.4 5.4-0.6 2.6 0.7 4.3 3.2 1.6 2.4 1.2 5.1-0.3 2.7-2.5 4.8-2.2 1.9-5 2.1 0.4-0.5-0.5-0.5-2 0.1-3.8-1.2zm-628.7 70.1q-9.2-10.9-13.6-21.3-4.7 9.3-10.4 17.9-31.6 46.9-75.6 46.9-40 0-72.2-24-34.7-25.9-34.7-62.7 0-12.6 0.4-17-7.1 3-17.8 3-13.1 0-24.2-10.5-9.1-8.4-10.3-15.5-2.8 15.4-6.6 26.8-7.3 21.9-23.3 21.9-16.3 0-29.2-4.9-10-3.8-18.8-10.8-4.9 11.2-18.1 24.2-24.4 24.3-57.1 24.3-35.3 0-59.3-25-5-5.1-8.8-10.4-4.6 22.4-15.1 41.7-31.4 58.1-98.3 58.1-33.6 0-61.2-14.3-12.2-6.3-19.2-12.7v-205.8h1277.5q-0.7 23 1.3 34.5 1.6 9.3 1.6 11.9 0 34.3-23.2 68-26.1 37.8-61.2 37.8-47.6 0-70-35.9-8.4-13.2-10.6-28-2.1-13 1.3-19.5-0.4 0-0.5 0.4l-0.2 0.4q-3.5 5.3-8.2 10.1-9.5 9.3-19.8 9.3-0.9 0-1.7 0 0.6 20-11.7 36-15.1 19.8-40.5 19.8-10.9 0-26.8-8.5 0 1.2 0 2.4 0 24.3-13 43.8-18.1 26.8-53.9 26.8-45.8 0-81.4-26.1-15.6-11.4-24.6-25.1-5.2-8.1-7.5-15.9-9.1 16.4-26.6 16.4-7.2 0-18.8-5-3.8-1.6-6.6-3.5-3.4 8.3-11.3 18.9-18.4 24.4-46 24.4-24.5 0-44.2-23.3zm425.8-7.6q-6.4 0.5-10.1-1.9-6.5-4.3-5.8-15.5 0.6-8.8 4.5-13.4 4.4-5 11.3-5.3 6.2-0.5 12.5 2.7 4.6 2.4 6.5 5.4 2.1 3.3 2.6 10.8 0.5 6.5-1.5 9.5-1.8 2.8-6.3 4.7-6.6 2.7-13.7 3zm-898.6 31.8q-3.8 0-6.3-3.2-2.3-3.2-1.2-7.1 1-2.7 3.7-4.4 3.7-2.4 7.7-1 4.4 1.5 5.1 5.8 0.6 4.1-2.3 7-2.6 2.7-6.7 2.9zm255.3-0.3q-1.9 2.7-5.8 2.7l-2.2-0.3q-1.9-0.5-2.8-1-3.7-2.1-3.1-7.4 0.3-2.5 1.5-4 1.1-1.3 3.4-2.1 2.2-0.8 4-0.5 2.5 0.2 4.4 2 1.8 1.7 2.3 4.2 0.6 3.7-1.7 6.4zm-12.5-36.4q-2.6 3.5-10.9 5.7-3.4 0.9-5.5 0.6-2.2-0.6-5.8-4-3-3.2-4.4-4.9-2-2.9-2.5-6-0.6-3.3 1.4-6 1.8-2.7 6.2-4.3 6.8-2.4 12.7-0.8 7.1 1.8 9.9 7.6 1.4 2.9 1.2 6.3-0.3 3.3-2.3 5.8zm709.7 11.5q0.4 2.3-0.4 4.2-1 2.1-2.7 3.4-2 1.3-4.2 1.4-0.1-0.7-1.5-0.5-1.9 0-3.5-1.3-1.6-1.5-2.3-3.6-0.4-1.3-0.3-2.9 0.1-2.2 1.5-4.1 1.3-1.7 3.4-2.6 2-0.7 4.3-0.1 2.3 0.4 3.7 2.1 1.6 1.6 2 4z"/>
</svg>