<svg version="1.2" xmlns="http://www.w3.org/2000/svg" viewBox="0 0 1280 233" width="1920" height="350">
	<title>Clouds1-svg</title>
	<style>
		.s0 { fill: #f81157 } 
	</style>
	<path id="&lt;Compound Path&gt;" fill-rule="evenodd" class="s0" d="m1305.9 132.9q0.9 0 0.5-0.5 2.8 0.2 5 2.1 2.2 2.1 2.5 4.8 0.4 2.7-1.2 5.1-1.7 2.5-4.3 3.2-2.8 0.8-5.4-0.6-2.6-1.2-3.6-4-0.3-0.8-0.6-2.7 0-2.1 0.7-3.4 0.9-1.8 2.6-2.8 1.8-1.3 3.8-1.2zm-588.3-92.2q27.6 0 46 24.4 7.9 10.6 11.3 18.9 2.8-1.9 6.6-3.5 11.6-5 18.8-5 17.5 0 26.6 16.4 2.3-7.8 7.5-15.9 9-13.7 24.6-25.1 35.6-26.1 81.4-26.1 35.8 0 53.9 26.8 13 19.5 13 43.8 0 1.2 0 2.4 15.9-8.5 26.8-8.5 25.4 0 40.5 19.8 12.3 16 11.7 36 0.8 0 1.7 0 10.3 0 19.8 9.3 4.7 4.8 8.2 10.1l0.2 0.4q0.1 0.4 0.5 0.4-3.4-6.5-1.3-19.5 2.2-14.8 10.6-28 22.4-35.9 70-35.9 35.1 0 61.2 37.8 23.2 33.7 23.2 68 0 2.6-1.6 11.9-2 11.5-1.3 34.5h-1277.5v-205.8q7-6.4 19.2-12.7 27.6-14.3 61.2-14.3 66.9 0 98.3 58.1 10.5 19.3 15.1 41.7 3.8-5.3 8.8-10.4 24-25 59.3-25 32.7 0 57.1 24.3 13.2 13 18.1 24.2 8.8-7 18.8-10.8 12.9-4.9 29.2-4.9 16 0 23.3 21.9 3.8 11.4 6.6 26.8 1.2-7.1 10.3-15.5 11.1-10.5 24.2-10.5 10.7 0 17.8 3-0.4-4.4-0.4-17 0-36.8 34.7-62.7 32.2-24 72.2-24 44 0 75.6 46.9 5.7 8.6 10.4 17.9 4.4-10.4 13.6-21.3 19.7-23.3 44.2-23.3zm395.3 33.9q4.5 1.9 6.3 4.7 2 3 1.5 9.5-0.5 7.5-2.6 10.8-1.9 3-6.5 5.4-6.3 3.2-12.5 2.7-6.9-0.3-11.3-5.3-3.9-4.6-4.5-13.4-0.7-11.2 5.8-15.5 3.7-2.4 10.1-1.9 7.1 0.3 13.7 3zm-905.6-31.9q2.9 2.9 2.3 7-0.7 4.3-5.1 5.8-4 1.4-7.7-1-2.7-1.7-3.7-4.4-1.1-3.9 1.2-7.1 2.5-3.2 6.3-3.2 4.1 0.2 6.7 2.9zm250.3 3.8q-0.5 2.5-2.3 4.2-1.9 1.8-4.4 2-1.8 0.3-4-0.5-2.3-0.8-3.4-2.1-1.2-1.5-1.5-4-0.6-5.3 3.1-7.4 0.9-0.5 2.8-1l2.2-0.3q3.9 0 5.8 2.7 2.3 2.7 1.7 6.4zm-11.9 35.8q0.2 3.4-1.2 6.3-2.8 5.8-9.9 7.6-5.9 1.6-12.7-0.8-4.4-1.6-6.2-4.3-2-2.7-1.4-6 0.5-3.1 2.5-6 1.4-1.7 4.4-4.9 3.6-3.4 5.8-4 2.1-0.3 5.5 0.6 8.3 2.2 10.9 5.7 2 2.5 2.3 5.8zm705.4-13.3q-1.4 1.7-3.7 2.1-2.3 0.6-4.3-0.1-2.1-0.9-3.4-2.6-1.4-1.9-1.5-4.1-0.1-1.6 0.3-2.9 0.7-2.1 2.3-3.6 1.6-1.3 3.5-1.3 1.4 0.2 1.5-0.5 2.2 0.1 4.2 1.4 1.7 1.3 2.7 3.4 0.8 1.9 0.4 4.2-0.4 2.4-2 4z"/>
</svg>