<svg version="1.2" xmlns="http://www.w3.org/2000/svg" viewBox="0 0 412 451" width="412" height="451">
	<title></title>
	<defs>
		<radialGradient id="g1" cx="183.7" cy="210.8" r="76.4" gradientUnits="userSpaceOnUse">
			<stop offset="0" stop-color="#b840c7"/>
			<stop offset=".7" stop-color="#750088"/>
			<stop offset=".9" stop-color="#5e1377"/>
			<stop offset="1" stop-color="#8160ff"/>
		</radialGradient>
		<linearGradient id="g2" x1="130.7" y1="237.5" x2="130.7" y2="170" gradientUnits="userSpaceOnUse">
			<stop offset="0" stop-color="#4f0e6f"/>
			<stop offset="1" stop-color="#450086"/>
		</linearGradient>
		<linearGradient id="g3" x1="179.9" y1="258.1" x2="179.9" y2="183.6" gradientUnits="userSpaceOnUse">
			<stop offset="0" stop-color="#4f0e6f"/>
			<stop offset="1" stop-color="#450086"/>
		</linearGradient>
		<linearGradient id="g4" x1="193.8" y1="280" x2="193.8" y2="264" gradientUnits="userSpaceOnUse">
			<stop offset="0" stop-color="#4f0e6f"/>
			<stop offset="1" stop-color="#450086"/>
		</linearGradient>
		<linearGradient id="g5" x1="177.2" y1="286" x2="177.2" y2="277.2" gradientUnits="userSpaceOnUse">
			<stop offset="0" stop-color="#4f0e6f"/>
			<stop offset="1" stop-color="#450086"/>
		</linearGradient>
		<linearGradient id="g6" x1="215.3" y1="290.9" x2="215.3" y2="268.9" gradientUnits="userSpaceOnUse">
			<stop offset="0" stop-color="#4f0e6f"/>
			<stop offset="1" stop-color="#450086"/>
		</linearGradient>
		<linearGradient id="g7" x1="213.8" y1="192.1" x2="213.8" y2="173.4" gradientUnits="userSpaceOnUse">
			<stop offset="0" stop-color="#4f0e6f"/>
			<stop offset="1" stop-color="#450086"/>
		</linearGradient>
		<linearGradient id="g8" x1="228.8" y1="267.5" x2="228.8" y2="258.7" gradientUnits="userSpaceOnUse">
			<stop offset="0" stop-color="#4f0e6f"/>
			<stop offset="1" stop-color="#450086"/>
		</linearGradient>
		<linearGradient id="g9" x1="201.8" y1="231.3" x2="201.8" y2="209.6" gradientUnits="userSpaceOnUse">
			<stop offset="0" stop-color="#4f0e6f"/>
			<stop offset="1" stop-color="#450086"/>
		</linearGradient>
		<linearGradient id="g10" x1="187" y1="237.7" x2="187" y2="231.8" gradientUnits="userSpaceOnUse">
			<stop offset="0" stop-color="#4f0e6f"/>
			<stop offset="1" stop-color="#450086"/>
		</linearGradient>
		<linearGradient id="g11" x1="150.2" y1="267.5" x2="150.2" y2="251.9" gradientUnits="userSpaceOnUse">
			<stop offset="0" stop-color="#4f0e6f"/>
			<stop offset="1" stop-color="#450086"/>
		</linearGradient>
		<linearGradient id="g12" x1="151.2" y1="248.6" x2="151.2" y2="243.3" gradientUnits="userSpaceOnUse">
			<stop offset="0" stop-color="#4f0e6f"/>
			<stop offset="1" stop-color="#450086"/>
		</linearGradient>
	</defs>
	<style>
		.s0 { fill: url(#g1) } 
		.s1 { fill: #9cbdff } 
		.s2 { fill: url(#g2) } 
		.s3 { fill: url(#g3) } 
		.s4 { fill: url(#g4) } 
		.s5 { fill: url(#g5) } 
		.s6 { fill: url(#g6) } 
		.s7 { fill: url(#g7) } 
		.s8 { mix-blend-mode: soft-light;fill: #a99af4 } 
		.s9 { fill: #573dae } 
		.s10 { fill: url(#g8) } 
		.s11 { mix-blend-mode: multiply;fill: #a972b0 } 
		.s12 { fill: url(#g9) } 
		.s13 { fill: url(#g10) } 
		.s14 { opacity: .9;mix-blend-mode: soft-light;fill: #a99af4 } 
		.s15 { fill: #5729ae } 
		.s16 { fill: #00e7f4 } 
		.s17 { fill: url(#g11) } 
		.s18 { fill: url(#g12) } 
	</style>
	<g id="&lt;Group&gt;">
		<path id="&lt;Path&gt;" class="s0" d="m251.2 229c0 30.7-24.9 55.6-55.6 55.6-8.5 0-16.5-1.9-23.7-5.3q-2.1-1-4.1-2.1c-5.4-3.1-10.2-7.1-14.3-11.8q-2.2-2.6-4.1-5.4-2.6-3.8-4.5-8.1c-3.1-7-4.9-14.7-4.9-22.9 0-8.1 1.8-15.9 4.9-22.9q1.6-3.4 3.5-6.5c2.8-4.5 6.2-8.5 10.2-12v-0.1c9.8-8.7 22.8-14.1 37-14.1 4.5 0 8.9 0.6 13.2 1.6 5.9 1.5 11.4 3.8 16.3 7h0.1q1.4 0.9 2.8 1.9 1.2 0.8 2.3 1.7c3.6 2.9 6.9 6.3 9.7 10 5.8 7.8 9.7 17.1 10.8 27.3q0.4 3 0.4 6.1z"/>
		<g id="&lt;Group&gt;" style="opacity: .6;mix-blend-mode: multiply">
			<path id="&lt;Path&gt;" class="s1" d="m179.2 236q0 0.1 0 0.3c0 0-0.1 0.1-0.2 0.1 0 0.2 0 0.4-0.1 0.6 0 0.1-0.1 0.2-0.2 0.3-0.1 0.1-0.3 0.3-0.5 0.2-0.2-0.2-0.4-0.5-0.4-0.7q0-0.2-0.1-0.4c-0.1-0.1-0.3-0.3-0.3-0.4-0.1-0.3 0.6-0.6 0.9-0.7 0.6 0.1 0.9 0.5 0.9 0.7z"/>
			<path id="&lt;Path&gt;" class="s1" d="m176.9 238.1q-0.1-0.2 0-0.2c0.6 0 0.8 0.6 0.3 0.7-0.6 0.2-0.7-0.3-0.5-0.5z"/>
			<path id="&lt;Path&gt;" class="s1" d="m166.9 242.2c0.3-0.1 0.5-0.2 0.8-0.1q0.4 0 0.7 0.2c0.2 0.2 0.3 0.4 0.4 0.6 0 0.1 0.1 0.1 0.1 0.2-0.2 0.4-0.9 0.7-1.5 0.8-0.3 0.1-0.6 0.1-1 0.2q-0.3 0-0.7 0c-0.2 0-0.4 0.1-0.6 0.1-0.1-0.1-0.3-0.1-0.4-0.2-0.4-0.2-0.7-0.4-0.7-0.7 0.1-0.5 1.1-0.9 1.7-1.1 0.6-0.2 1.5-0.4 1.2 0z"/>
			<path id="&lt;Path&gt;" class="s1" d="m169.2 241.5c-0.1-0.1 0.4-0.5 0.7-0.4 0.2 0 0.5 0.1 0.6 0.2 0.2 0.2-0.2 0.5-0.5 0.5-0.1 0.1-0.3 0.1-0.4 0-0.2-0.1-0.2-0.1-0.1-0.3z"/>
			<path id="&lt;Path&gt;" class="s1" d="m180.8 244.7c0-0.1 0.2-0.2 0.4-0.2 0.2 0 0.2 0.2 0.2 0.3-0.1 0.3-0.6 0-0.6-0.2z"/>
			<path id="&lt;Path&gt;" class="s1" d="m184.9 246.2c0.1-0.1 0.2-0.2 0.5-0.2q0.2 0 0.3 0.1c0.2 0.1 0.3 0.3 0.3 0.5-0.1 0.2-0.4 0.3-0.7 0.3-0.3-0.1-0.5-0.1-0.5-0.3-0.1-0.1 0-0.2 0.1-0.3z"/>
			<path id="&lt;Path&gt;" class="s1" d="m196.9 252c-0.1-0.2 0-0.3 0-0.4 0-0.1-0.1-0.1-0.1-0.2 0.1-0.1 0.2-0.2 0.3-0.3 0.4-0.2 1-0.2 1.5-0.2 0.5 0.1 1.1 0.3 1.2 0.6 0.1 0.2-0.2 0.5-0.5 0.7-0.4 0.2-1 0.4-1.6 0.4-0.2 0-0.7-0.1-0.7-0.2q0-0.1 0-0.1c0-0.1 0.1-0.1 0.2-0.2q-0.2 0-0.3-0.1z"/>
			<path id="&lt;Path&gt;" class="s1" d="m200.7 252.2c-0.1-0.1-0.1-0.2 0-0.2q0.1-0.1 0.3-0.1c0.3 0 0.4 0.2 0.3 0.3-0.1 0.1-0.2 0.1-0.4 0.1-0.1 0-0.3 0-0.3-0.1z"/>
			<path id="&lt;Path&gt;" class="s1" d="m205.6 244.1c0.2-0.1 0.3-0.1 0.6-0.1 0.3 0 0.7 0.1 0.8 0.3 0.2 0.1 0.1 0.3-0.1 0.5q-0.2 0.1-0.3 0.2c-0.2 0.1-0.3 0.3-0.5 0.3-0.2 0.1-0.5 0.1-0.7 0.1-0.3-0.1-0.6-0.3-0.8-0.5 0 0 0-0.1 0.1-0.1 0.1-0.2 0.2-0.2 0.4-0.3 0.1-0.3 0.2-0.3 0.5-0.4z"/>
			<path id="&lt;Path&gt;" class="s1" d="m203.9 245.3q0.3 0 0.5 0.1c0 0.1 0.1 0.1 0.1 0.1 0 0.1-0.3 0.1-0.4 0.1q-0.2 0-0.3-0.1c0 0-0.2-0.1-0.1-0.1z"/>
			<path id="&lt;Path&gt;" class="s1" d="m188.2 251.3c0.1-0.2 0.2-0.4 0.6-0.5 0.1 0 0.4 0.1 0.5 0.2 0.3 0.2 0 0.3 0 0.5 0 0.1 0 0.2 0 0.2 0 0.1-0.2 0.2-0.3 0.2-0.2 0.1-0.5 0.1-0.7 0-0.2-0.2-0.1-0.3 0-0.4z"/>
			<path id="&lt;Path&gt;" class="s1" d="m163 258.5c0.2-0.1 0.3-0.1 0.6 0 0.4 0.2 0.6 0.6 0.8 0.9 0.3 0.7-0.6 0.6-1.4 0.6-0.7 0-1.4 0.1-1.8-0.4-0.2-0.1-0.1-0.3 0-0.4q-0.1-0.1-0.1-0.1 0.4-0.3 1-0.4c0.2-0.1 0.6-0.1 0.9-0.2z"/>
			<path id="&lt;Path&gt;" class="s1" d="m170.7 259.5c0.1-0.2 0.3-0.4 0.6-0.4 0.2 0 0.3 0 0.4 0.1 0.4 0.2 0.8 0.4 0.4 0.7-0.2 0.1-0.6 0.2-0.8 0.2-0.3 0-0.7-0.2-0.6-0.4z"/>
			<path id="&lt;Path&gt;" class="s1" d="m205.8 219.3q0.1-0.2 0-0.4-0.1-0.2-0.1-0.4c-0.2-0.5-0.1-1 0.5-1.4 0.6-0.4 1.6-0.5 2.4-0.4 1 0.2 1.5 0.8 1.9 1.3 0.6 0.8 0.6 1.9-0.1 2.7-0.2 0.3-0.6 0.5-0.9 0.7-0.4 0.2-0.6 0.2-1.1 0.1-0.5-0.1-1.1 0-1.5-0.3-0.3-0.2-0.4-0.5-0.5-0.7-0.2-0.4-0.2-0.4 0.1-0.8-0.5 0-0.6-0.2-0.7-0.4z"/>
			<path id="&lt;Path&gt;" class="s1" d="m204.9 221.1c0.6 0.2 0.5 0.2 0.6 0.5 0 0.2 0.1 0.2 0.1 0.4-0.1 0.1-0.5 0.3-0.8 0.3-0.2 0-0.6-0.3-0.7-0.4-0.1-0.2-0.1-0.3 0.1-0.4z"/>
			<path id="&lt;Path&gt;" class="s1" d="m149.8 221.3c0-0.5 0.6-1.6 1.8-1.5 0.5 0.1 1.2 0.4 1.2 0.8-0.1 0.4-0.6 0.9-1 1.1-0.3 0.1-0.9 0.3-1.2 0.1-0.6-0.2-0.4-0.5-0.3-0.8z"/>
			<path id="&lt;Path&gt;" class="s1" d="m149.5 224.2c0-0.1-0.3-0.4-0.3-0.5 0.1 0 0.1 0 0.2 0 0.1-0.2 0.3-0.3 0.5-0.3q0.9-0.1 1.3 0.3c0.2 0.2 0.2 0.4-0.1 0.6-0.3 0.2-0.9 0.2-1.2 0z"/>
			<path id="&lt;Path&gt;" class="s1" d="m199 261.3c0.4-0.8 0.2-1.7 1-2.4 0.4-0.3 1.1-0.6 1.7-0.4 0.5 0.2 0.9 0.8 1 1.1 0.2 0.5 0.1 1.1-0.1 1.6-0.3 0.5-1.4 2.3-2.8 2-0.6-0.2-0.6-0.6-0.7-0.9-0.2-0.6-0.3-1.1 0.1-1.6z"/>
			<path id="&lt;Path&gt;" class="s1" d="m198.5 260.5c0.1 0.1 0.2 0.1 0.1 0.2 0 0.1 0 0.1-0.1 0.2q-0.1 0.2-0.3 0.4c-0.1 0.1-0.2 0.2-0.3 0.2-0.2 0-0.4 0-0.5-0.1-0.2-0.1-0.4-0.2-0.3-0.4 0-0.1 0.3-0.2 0.4-0.3 0.2-0.1 0.9-0.1 1-0.1z"/>
			<path id="&lt;Path&gt;" class="s1" d="m218.6 211.5q0 0.1 0 0.2c0 0.1-0.1 0.2-0.1 0.2-0.1 0.2-0.1 0.4-0.1 0.6 0 0.1-0.2 0.2-0.3 0.3-0.1 0.1-0.3 0.3-0.4 0.1-0.3-0.1-0.4-0.4-0.5-0.6q0-0.2-0.1-0.4c-0.1-0.1-0.2-0.3-0.3-0.4-0.1-0.4 0.6-0.6 1-0.7 0.6 0.1 0.8 0.5 0.8 0.7z"/>
			<path id="&lt;Path&gt;" class="s1" d="m216.3 213.6q-0.1-0.2 0.1-0.3c0.5 0.1 0.7 0.7 0.2 0.8-0.6 0.2-0.7-0.3-0.5-0.5z"/>
			<path id="&lt;Path&gt;" class="s1" d="m220.2 220.2c0.1-0.1 0.2-0.2 0.4-0.2 0.3 0 0.3 0.2 0.2 0.3 0 0.3-0.6 0-0.5-0.2z"/>
			<path id="&lt;Path&gt;" class="s1" d="m224.3 221.7c0.2-0.1 0.3-0.2 0.5-0.2q0.2 0 0.3 0.1c0.2 0.1 0.4 0.3 0.3 0.5-0.1 0.2-0.3 0.3-0.7 0.2-0.3 0-0.5 0-0.5-0.2-0.1-0.1 0-0.2 0.1-0.3z"/>
			<path id="&lt;Path&gt;" class="s1" d="m236.3 227.5c-0.1-0.2 0-0.3 0-0.4 0-0.1 0-0.2 0-0.2 0-0.2 0.1-0.2 0.2-0.3 0.4-0.3 1-0.2 1.5-0.2 0.5 0.1 1.1 0.3 1.2 0.6 0.1 0.2-0.2 0.5-0.4 0.7-0.5 0.2-1.1 0.3-1.7 0.3-0.2 0-0.6 0-0.7-0.1q0-0.1 0-0.1c0-0.1 0.1-0.1 0.2-0.2q-0.2 0-0.3-0.1z"/>
			<path id="&lt;Path&gt;" class="s1" d="m240.1 227.6c0 0 0-0.1 0.1-0.1q0.1-0.1 0.3-0.1c0.2 0 0.3 0.2 0.2 0.3 0 0.1-0.2 0.1-0.3 0.1-0.2 0-0.4 0-0.4-0.1z"/>
			<path id="&lt;Path&gt;" class="s1" d="m210.2 182.1c0.3-0.1 0.4-0.1 0.7-0.1 0.3-0.1 0.7 0.1 0.8 0.2 0.2 0.2 0.1 0.4-0.1 0.6q-0.2 0.1-0.4 0.2c-0.1 0.1-0.2 0.2-0.4 0.3-0.2 0.1-0.5 0.1-0.7 0-0.3 0-0.7-0.2-0.8-0.4 0-0.1 0-0.1 0.1-0.2 0.1-0.1 0.2-0.1 0.4-0.2 0-0.3 0.2-0.3 0.4-0.4z"/>
			<path id="&lt;Path&gt;" class="s1" d="m208.6 183.3q0.3 0 0.5 0.1c0 0 0.1 0.1 0.1 0.1-0.1 0.1-0.3 0.1-0.4 0.1q-0.2 0-0.3-0.1c-0.1-0.1-0.2-0.1-0.1-0.1z"/>
			<path id="&lt;Path&gt;" class="s1" d="m227.6 226.8c0.1-0.2 0.3-0.4 0.6-0.5 0.2 0 0.4 0.1 0.5 0.2 0.3 0.1 0 0.3 0 0.5 0 0.1 0 0.2 0 0.2 0 0.1-0.1 0.2-0.3 0.2-0.2 0-0.5 0.1-0.7 0-0.2-0.2-0.1-0.3 0.1-0.4z"/>
			<path id="&lt;Path&gt;" class="s1" d="m210.1 235c0.1-0.2 0.3-0.4 0.6-0.4 0.2 0 0.3 0 0.5 0.1 0.4 0.2 0.7 0.4 0.3 0.7-0.1 0.1-0.5 0.2-0.8 0.2-0.3-0.1-0.7-0.2-0.6-0.4z"/>
			<path id="&lt;Path&gt;" class="s1" d="m238.4 236.8c0.4-0.8 0.2-1.7 1.1-2.4 0.3-0.3 1-0.6 1.7-0.4 0.5 0.2 0.9 0.8 0.9 1.1 0.2 0.5 0.1 1.1-0.1 1.5-0.3 0.6-1.3 2.4-2.7 2.1-0.6-0.2-0.7-0.6-0.8-0.9-0.2-0.6-0.2-1.1 0.2-1.6z"/>
			<path id="&lt;Path&gt;" class="s1" d="m237.9 236c0.1 0.1 0.2 0.1 0.2 0.2 0 0.1-0.1 0.1-0.2 0.2q-0.1 0.2-0.3 0.4c-0.1 0.1-0.2 0.2-0.3 0.2-0.2 0-0.4 0-0.5-0.1-0.2-0.1-0.4-0.3-0.3-0.4 0.1-0.1 0.3-0.2 0.4-0.3 0.3-0.1 0.9-0.1 1-0.1z"/>
			<path id="&lt;Path&gt;" class="s1" d="m206.8 257.1c0.1-0.1 0.2-0.3 0.5-0.2 0.2 0 0.2 0.2 0.2 0.3-0.1 0.2-0.6 0-0.6-0.2z"/>
			<path id="&lt;Path&gt;" class="s1" d="m211 258.6c0.1-0.1 0.2-0.2 0.4-0.2q0.2 0 0.3 0.1c0.2 0.1 0.4 0.3 0.3 0.4 0 0.3-0.3 0.3-0.7 0.3-0.2 0-0.4-0.1-0.5-0.2 0-0.1 0-0.2 0.1-0.3z"/>
			<path id="&lt;Path&gt;" class="s1" d="m223 264.3c-0.1-0.1 0-0.2 0-0.3 0-0.1-0.1-0.2-0.1-0.3 0-0.1 0.1-0.2 0.3-0.3 0.3-0.2 1-0.2 1.4-0.1 0.5 0.1 1.1 0.2 1.2 0.6 0.1 0.2-0.1 0.5-0.4 0.7-0.4 0.2-1.1 0.3-1.7 0.3-0.2 0-0.6 0-0.7-0.1q0-0.1 0-0.2c0.1 0 0.2-0.1 0.3-0.1q-0.2-0.1-0.3-0.2z"/>
			<path id="&lt;Path&gt;" class="s1" d="m226.7 264.5c0-0.1 0-0.1 0.1-0.2q0.1-0.1 0.3 0c0.2 0 0.4 0.2 0.3 0.3-0.1 0.1-0.3 0.1-0.4 0.1-0.2 0-0.3-0.1-0.4-0.2z"/>
			<path id="&lt;Path&gt;" class="s1" d="m214.2 263.6c0.1-0.1 0.3-0.4 0.6-0.4 0.2 0 0.5 0.1 0.6 0.1 0.3 0.2-0.1 0.4-0.1 0.6 0 0 0.1 0.1 0 0.2 0 0.1-0.1 0.1-0.2 0.2-0.2 0-0.6 0-0.8-0.1-0.1-0.1 0-0.2 0.1-0.4z"/>
			<path id="&lt;Path&gt;" class="s1" d="m225 273.6c0.4-0.8 0.2-1.6 1.1-2.3 0.4-0.3 1.1-0.6 1.7-0.4 0.5 0.2 0.9 0.8 1 1.1 0.1 0.5 0 1-0.2 1.5-0.2 0.6-1.3 2.4-2.7 2.1-0.6-0.2-0.7-0.6-0.8-1-0.1-0.5-0.2-1 0.2-1.5z"/>
			<path id="&lt;Path&gt;" class="s1" d="m224.6 272.8c0 0.1 0.1 0.2 0.1 0.3 0 0.1-0.1 0.1-0.1 0.2q-0.2 0.2-0.4 0.4c0 0-0.1 0.1-0.3 0.2-0.1 0-0.4-0.1-0.5-0.1-0.1-0.1-0.3-0.3-0.3-0.4 0.1-0.1 0.3-0.2 0.5-0.3 0.2-0.1 0.8-0.1 1-0.1z"/>
			<path id="&lt;Path&gt;" class="s1" d="m197.7 265q0.3 0.1 0.5 0.1c0 0.2 0 0.3-0.1 0.4-0.2 0-0.5 0-0.6 0-0.2-0.1-0.4-0.2-0.3-0.3 0-0.1 0.2-0.2 0.4-0.2z"/>
			<path id="&lt;Path&gt;" class="s1" d="m176.2 270.9c0-0.2 0.1-0.4 0.3-0.6 0.2-0.1 0.4-0.1 0.6-0.2 0.4-0.1 0.8 0.1 0.9 0.3 0.1 0.3-0.4 0.8-0.8 1-0.3 0.1-0.7 0.1-0.9-0.1-0.2-0.1-0.2-0.2-0.1-0.3z"/>
			<path id="&lt;Path&gt;" class="s1" d="m193.7 200.8c0.3-0.2 0.6-0.2 1-0.2 0.4 0.1 0.9 0.2 1.3 0.4 0.4 0.2 0.5 0.4 0.5 0.7q-0.2 0.5-0.8 0.7c-0.3 0.2-0.7 0.2-1.1 0.1-0.5 0-1.2-0.2-1.4-0.4-0.2-0.2-0.1-0.3-0.1-0.5 0-0.1 0.1-0.1 0.3-0.2-0.3-0.2 0-0.5 0.3-0.6z"/>
			<path id="&lt;Path&gt;" class="s1" d="m197 202.4c0-0.1 0-0.2 0.2-0.2 0.1-0.1 0.5 0.1 0.6 0.1 0.1 0.1 0.2 0.3 0.2 0.3 0 0.1-0.1 0.2-0.2 0.2q-0.3 0.1-0.6 0c-0.1 0-0.4-0.1-0.3-0.2z"/>
			<path id="&lt;Path&gt;" class="s1" d="m186.6 191.2c0.7-0.1 1.5 0.2 2 0.6 0.2 0.2 0.4 0.5 0.3 0.8 0 0.2-0.4 0.4-0.7 0.4-0.5 0-1-0.1-1.4-0.2-0.3-0.2-0.6-0.3-0.7-0.5-0.2-0.1-0.2-0.2-0.2-0.4-0.2 0.1-0.2-0.7 0.7-0.7z"/>
			<path id="&lt;Path&gt;" class="s1" d="m189.8 193.8q-0.2-0.1-0.2-0.2c0.1 0 0.1-0.1 0.3-0.1 0.1-0.1 0.3 0 0.4 0q0.3 0.1 0.3 0.3c0 0.1-0.1 0.2-0.3 0.2-0.1 0.1-0.1 0.1-0.3 0 0 0-0.2-0.1-0.2-0.1z"/>
		</g>
		<path id="&lt;Path&gt;" class="s2" d="m154 191.9l0.3-4.9c0 0 16.2-13.7 39.5-17l3.2 3.4 2.2 3.5c0 0-19.9 10.6-32.7 27.8l1.5 1.3 13.9-7.8 13.7 2.5-0.3 4c0 0-16.3 19.5-34.8 32.8h-13.1l-4.4-28.9-0.8-5.7 7.9-9.3z"/>
		<path id="&lt;Path&gt;" class="s3" d="m255.2 231.8l2.4 1-4 17.3c-6.6 5.4-20.6 8-20.6 8l-1.8-3.1c10-12.2 14.6-28.7 14.6-28.7l-8.9-8.3 1.6-4.6c-9.4-4.6-36.3-11-36.3-11l5.6-2.2c14.6-14.2 26.7-16.6 26.7-16.6 19.4 11.7 20.7 48.2 20.7 48.2z"/>
		<path id="&lt;Path&gt;" class="s4" d="m179.4 272.7l9.7-8.7 25.8 1.4-2.5 6.5 4.5 1.3c0 0-7.6 9-34.3 6.3z"/>
		<path id="&lt;Path&gt;" class="s5" d="m190.1 284.3l-9.7 1.7-12.6-5.3v-3.5c8 5.1 22.3 7.1 22.3 7.1z"/>
		<path id="&lt;Path&gt;" class="s6" d="m210.2 282.5l4-5.3 10.9-8.3 8.5 0.6 4.3 4.3c0 0-7.2 10.6-23.3 17.1z"/>
		<path id="&lt;Path&gt;" class="s7" d="m211.3 192.1c0 0 5.2-14 9.1-18.7 0 0 8.2 0 12.3 5.9l-4.7 4.6c0 0-6.6 0.3-16.7 8.2z"/>
		<path id="&lt;Path&gt;" class="s8" d="m193.8 170c0 0-21.9 17.5-30.1 33.8l-8.5 11.3 26.7-16.9 13.7 2.5c0 0-23.1 24.6-38.7 34.6l-9.5 2.2-5.2-34.6 8.6-9.3 1.2 11.1 2.3-14.1v-3.6c0 0 16.2-14.3 39.5-17z"/>
		<path id="&lt;Path&gt;" class="s9" d="m214.6 290.9l9.6-14.2 13.7-2.9c0 0-6.2 10.5-23.3 17.1z"/>
		<path id="&lt;Path&gt;" class="s9" d="m234.2 257.8l17.2-21.1 6.2-3.9-4 17.3c0 0-6.6 6.5-19.4 7.7z"/>
		<path id="&lt;Path&gt;" class="s10" d="m224.2 263.8l11.3-5.1 3.4 2.3-4.7 5.3-10.2 1.2z"/>
		<path id="&lt;Path&gt;" class="s9" d="m234.2 266.3l-10.2 1.2 3.4-2.8 11.5-3.7z"/>
		<path id="&lt;Path&gt;" class="s11" d="m166.5 204.7l-11.3 10.4 8.5-11.3c0 0 14.2-23.5 30.1-33.8l9.3 6.5c0 0-24.5 12.3-36.6 28.2z"/>
		<path id="&lt;Path&gt;" class="s11" d="m195.6 200.7l-0.2 2.6 4.3 0.5c0 0-19.4 22.6-37.7 33.9l-1.5-0.2z"/>
		<path id="&lt;Path&gt;" class="s11" d="m232.7 179.3l-4.7 4.6 1.5 1.1-18.2 7.1c10.6-12.6 21.4-12.8 21.4-12.8z"/>
		<path id="&lt;Path&gt;" class="s11" d="m237.9 215.1l-33.6-12.2 23.2 3.1 19.4-1.3-8.4 8.7z"/>
		<path id="&lt;Path&gt;" class="s12" d="m185.3 224.8l21.8-15.2 21.9 3.6v7.6l-18.9 10.5z"/>
		<path id="&lt;Path&gt;" class="s13" d="m181.9 233.8l3.6-2 9.3 1-1 3.9-6 1z"/>
		<path id="&lt;Path&gt;" class="s8" d="m207.1 209.6l5.5 1.3-13.4 14.9-13.9-1z"/>
		<path id="&lt;Path&gt;" class="s14" d="m185.5 231.8l9.3 1-4.7 1-3.7 2.1-4.5-2.1z"/>
		<path id="&lt;Path&gt;" class="s11" d="m199.2 225.8l11 3.2 18.8-8.2-14.9 13.1-28.8-9.1z"/>
		<path id="&lt;Path&gt;" class="s11" d="m187.8 237.7l-1.4-1.8 3.7-2.1 4.7-1 2 4.9z"/>
		<path id="&lt;Path&gt;" class="s9" d="m254.3 229.6l-10.8 8.1 5-8.1 5.8-6.8z"/>
		<path id="&lt;Path&gt;" class="s15" d="m201.1 281.1c-8.9 1.3-18.5-1.6-18.5-1.6l-1.6-5.7 9.4-7.9 24.5-0.5-2.5 6.5 3.3 1.2c0 0-5.6 6.6-14.6 8z"/>
		<path id="&lt;Path&gt;" class="s14" d="m189.1 264l1.3 1.9-9.4 7.9-1.6-1.1z"/>
		<path id="&lt;Path&gt;" class="s11" d="m236.9 218l13.9 4.9-5 3.4z"/>
		<g id="&lt;Group&gt;">
			<g id="&lt;Group&gt;">
				<path id="&lt;Path&gt;" class="s16" d="m147.5 232.6l-0.1-0.3c0.2-0.1 23.2-11.6 30.8-17.3 7-5.3 9.6-9.6 10-10.3l-5.5-3.3-37.8 19.5-0.1-0.2 37.9-19.5 5.8 3.4v0.1c0 0.1-2.5 4.7-10.1 10.5-7.7 5.7-30.7 17.2-30.9 17.4z"/>
			</g>
			<g id="&lt;Group&gt;">
				<path id="&lt;Path&gt;" class="s16" d="m146.4 230.5l-0.1-0.3 15.4-7.9 13.4-12.6-1.3-1-28.6 13.8-0.1-0.2 28.7-13.9 1.7 1.2-0.1 0.1-13.6 12.8z"/>
			</g>
			<g id="&lt;Group&gt;">
				<path id="&lt;Path&gt;" class="s16" d="m144.6 217.7l-0.2-0.1 22.6-26 21.3-20.7 0.2 0.2-21.3 20.7z"/>
			</g>
			<g id="&lt;Group&gt;">
				<path id="&lt;Path&gt;" class="s16" d="m143.5 215l6.5-20.7 0.3 0.1-6.1 19.1 12.6-17.6 18.5-21 0.1 0.2-18.4 21z"/>
			</g>
			<g id="&lt;Group&gt;">
				<path id="&lt;Path&gt;" class="s16" d="m248.9 202.5l-17-0.5-18.7-3.2v-1.6h0.1l16.1-9.2 9.5-1.2v0.3l-9.4 1.1-16 9.1v1.2l18.5 3.3 16.9 0.4z"/>
			</g>
			<g id="&lt;Group&gt;">
				<path id="&lt;Path&gt;" class="s16" d="m232.7 199.6l-10.8-1.3v-1.2l8.6-7.1 10.7-0.8v0.2l-10.6 0.8-8.5 7.1v0.8l10.6 1.2 14.8-0.3v0.3z"/>
			</g>
			<g id="&lt;Group&gt;">
				<path id="&lt;Path&gt;" class="s16" d="m253.6 220.4l-6.2-1.7-2.3-5.5 5.3-6.7 0.2 0.2-5.3 6.5 2.3 5.3 6.1 1.6z"/>
			</g>
			<g id="&lt;Group&gt;">
				<path id="&lt;Path&gt;" class="s16" d="m253.6 219l-3.2-1.3-1.1-3.5 2.3-3.8 0.2 0.2-2.2 3.7 1 3.2 3.1 1.3z"/>
			</g>
			<g id="&lt;Group&gt;">
				<path id="&lt;Path&gt;" class="s16" d="m185.3 224.9v-0.3l19-4.2 24.7-7.3 0.1 0.2-24.8 7.3z"/>
			</g>
			<g id="&lt;Group&gt;">
				<path id="&lt;Path&gt;" class="s16" d="m210.2 231.4l-0.2-0.2 4.7-5 14.2-9.2 0.2 0.2-14.3 9.2z"/>
			</g>
			<g id="&lt;Group&gt;">
				<path id="&lt;Path&gt;" class="s16" d="m181.5 273.5l-0.1-0.2 31.6-3.1v0.2z"/>
			</g>
			<g id="&lt;Group&gt;">
				<path id="&lt;Path&gt;" class="s16" d="m214.6 266.3l-20.8-0.3v-0.3l20.8 0.4z"/>
			</g>
		</g>
		<path id="&lt;Path&gt;" class="s17" d="m165.6 258.8l-1.6 2.7 3.1 6c-7.8 0.4-18.1-3.7-18.1-3.7l-4.1-5v-6.9z"/>
		<path id="&lt;Path&gt;" class="s18" d="m146 243.3l14.2 1.6-2.1 3.7h-10.4l-3.8-2.2z"/>
		<path id="&lt;Path&gt;" class="s8" d="m146 243.3l14.2 1.6-1.8 1.5-9.4 0.9-5.1-0.9z"/>
		<path id="&lt;Path&gt;" class="s8" d="m165.6 258.8l-5.4 2.2-9.2 1.5-6.1-3.7v-6.9z"/>
		<path id="&lt;Path&gt;" class="s11" d="m159.5 249.6l-11.8-1 10.7-2.2 1.8-1.5z"/>
		<path id="&lt;Path&gt;" class="s11" d="m165.6 258.8v2.7l1.5 6-10.2-3.5 7.1-2.5z"/>
	</g>
</svg>