<svg version="1.2" xmlns="http://www.w3.org/2000/svg" viewBox="0 0 599 597" width="599" height="597">
	<title>planet1-svg</title>
	<defs>
		<radialGradient id="g1" cx="275.4" cy="256.1" r="88.1" gradientUnits="userSpaceOnUse">
			<stop offset="0" stop-color="#ff5731"/>
			<stop offset=".7" stop-color="#ba005e"/>
			<stop offset=".9" stop-color="#5e1377"/>
			<stop offset="1" stop-color="#8160ff"/>
		</radialGradient>
		<radialGradient id="g2" cx="327.7" cy="325.9" r="20.8" gradientUnits="userSpaceOnUse">
			<stop offset="0" stop-color="#2c6aff"/>
			<stop offset="1" stop-color="#000000"/>
		</radialGradient>
	</defs>
	<style>
		.s0 { fill: url(#g1) } 
		.s1 { mix-blend-mode: multiply;fill: #c4b0b8 } 
		.s2 { fill: #ff8142 } 
		.s3 { fill: #ffce42 } 
		.s4 { mix-blend-mode: screen;fill: url(#g2) } 
		.s5 { mix-blend-mode: soft-light;fill: #fffe90 } 
	</style>
	<g id="&lt;Group&gt;">
		<path id="&lt;Path&gt;" class="s0" d="m352.5 286.1q-0.3 1.7-0.6 3.3-0.5 2.5-1.2 4.9c-1.1 4.2-2.7 8.2-4.7 12q-1.1 2.1-2.3 4.1-3.4 5.5-7.8 10.3c-3.4 3.6-7.2 6.9-11.4 9.7q-3.4 2.2-7 4-1.6 0.8-3.2 1.5c-5.9 2.6-12.3 4.3-19 4.9-11.7 1.1-22.7-0.9-32.5-5.3q-0.5-0.3-1-0.5-2.4-1.1-4.8-2.5-0.7-0.4-1.5-0.9c-5.6-3.4-10.6-7.7-14.9-12.7q-2.6-2.9-4.7-6.2-0.3-0.3-0.5-0.7-1.7-2.6-3.2-5.5-0.8-1.5-1.5-3.1-0.3-0.6-0.6-1.3c-2-4.8-3.5-9.9-4.3-15.2q-0.6-3.3-0.7-6.7-0.1-1.6-0.1-3.1c0-5.2 0.6-10.2 1.8-15.1 0.9-3.9 2.3-7.7 3.9-11.4q0.6-1.3 1.2-2.5 1.3-2.6 2.8-4.9c3.2-5.2 7.2-9.9 11.7-13.9q0.3-0.3 0.7-0.6c11.2-9.8 25.9-15.7 41.9-15.7 5.3 0 10.4 0.6 15.2 1.8 6.8 1.7 13.2 4.4 18.9 8q1.7 1.1 3.3 2.2 1.3 1 2.6 2c4.2 3.4 8 7.2 11.2 11.5q1.4 1.9 2.7 3.8 1.8 2.9 3.4 6c3.3 6.6 5.6 13.9 6.4 21.6q0 0.3 0.1 0.5 0.1 1.3 0.2 2.6 0.4 6.7-0.5 13.1z"/>
		<g id="&lt;Group&gt;" style="opacity: .5">
			<path id="&lt;Path&gt;" class="s1" d="m352.5 286.1q-0.1-0.1-0.1-0.1c-1.7-2.1-3.8-3.7-5.3-5.8-0.9-1.4-1.9-2.6-3.4-3.4-1.1-0.5-2.1-1.2-3.2-1.6-0.9-0.3-2-0.4-2.9-0.7-1.4-0.4-2.3-1-3.7-1.1-1.3-0.1-2.5-0.4-3.8-0.4-0.8 0-3.5-0.5-3.6 0.8 0 0.3 0.8 1.4 1.1 1.6 1.3 0.9 3.1 1.6 4.5 2.1 2.7 1.1 5.5 1.9 8.1 3.2 2.7 1.2 5.3 3 7.6 4.8 1.5 1.2 2.9 2.5 4.1 3.9q-0.5 2.5-1.2 4.9c-0.8-0.5-1.6-1-2.4-1.6-0.8-0.7-1.6-1.5-2.4-2.3-2.4-2.1-4.7-4.3-7.4-6.1q-1.6-1-3.2-1.9c-1.1-0.6-2.4-0.9-3.5-1.5-2-1.2-4.1-2.2-6.2-3.1-2.6-1.3-5.7-1.9-8.4-2.5-4.5-1.1-9.2-2.1-13.8-2.6-5-0.5-9.9-1.3-14.7-2.8-2.4-0.7-4.8-1.4-7.2-2-2.1-0.5-4.1-1.3-6.1-1.7-4.3-0.9-8.8-1-13.1-0.6-5.3 0.5-10.5-0.8-15.8 0.2-4.7 0.9-8.9 2.6-13.1 4.6-2.1 1-3.4 3.1-4.8 4.9-1.3 1.6-2.4 3.2-3.5 4.9q-0.1-1.6-0.1-3.2c0-9.4 2-18.3 5.7-26.4q1.7-3.9 4-7.4c3.2-5.2 7.2-9.9 11.7-13.9q0.3-0.3 0.7-0.6c2.4-0.5 5-0.7 7.4-0.8 2.5-0.1 5.1 0.3 7.6-0.1 1.2-0.2 2.2-0.2 3.4-0.3 1.1 0 2.1-0.3 3.1-0.4 3.7-0.1 7.2-1.5 10.8-1.5q2.6 0 5.1 0c2.2 0 4.3 0.4 6.5 0.4 5.2 0 10.6 0.6 15.5 2.3 4.7 1.6 9.5 2.9 14.4 3.7 3.7 0.6 7.4 1.3 10.8 3.1 1.2 0.6 2.2 1.3 3.4 2.1 0.8 0.5 1.2 1 1.8 1.6 0.7 0.7 1.6 1.1 2.4 1.6 1 0.6 1.9 1.3 3 1.7q0.3 0.1 0.6 0.2 0.9 0.4 1.9 0.8c0.6 0.2 0.7 0.5 1.1 1.1 0.3 0.5 0.8 0.9 1.1 1.4 0.2 0.5 0.2 1.1 0.4 1.6 0.3 0.7 0.4 2.2 1 2.8-0.4-0.4-0.9-0.7-1.4-1.1q-0.3-0.3-0.7-0.6-0.5-0.4-1-0.6c-0.7-0.4-1.4-0.9-2.1-1.2-1.2-0.3-2.4-0.5-3.5-1-1.3-0.5-2.6-1-3.7-1.7-1.3-0.7-2.4-1.7-3.6-2.5-2.7-1.5-5.2-3.9-8.1-4.9-1.2-0.4-2.2-0.8-3.5-0.9-0.7-0.1-1.4-0.4-2.2-0.4-0.9-0.1-1.8 0.1-2.7 0-1.8-0.2-3.8-0.5-5.6-0.9-1.7-0.2-3.3-0.8-4.9-1-1.8-0.2-3.5-0.8-5.2-1.1-1.9-0.4-3.9-0.6-5.8-1-4-0.7-8.4-0.1-12.4 0.4-4.7 0.6-10 1.1-14.3 3.4-1.1 0.6-2.2 1-3.3 1.5-0.9 0.5-1.5 1.1-2.2 1.7-0.9 0.7-3.1 1.2-3 2.7 0.7 0 1.8-0.6 2.6-0.8 1.5-0.3 3-0.3 4.5-0.7 0.7-0.1 1.3 0 2-0.1 0.7-0.1 1.5-0.4 2.3-0.7 2-0.8 4.2-1.7 6.3-2.3q2.6-0.7 5.1-1.1c1.7-0.2 3.5 0 5.2 0h5.6c2.2 0 4.6-0.3 6.7 0.5 1.4 0.4 2.8 1.5 3.8 2.6 1.2 1.3 1.4 3.1 2.6 4.3 0.5 0.5 0.9 1.1 1.3 1.5 0.7 0.5 1.6 1 2.3 1.4 1.5 1.1 3.4 1.7 5.1 1.8 0.6 0.1 1.2 0.4 1.8 0.4 0.6 0 0.5 0 0.8-0.5 0.4-0.8 0.4-1.4-0.2-2.1-0.6-0.6-1.4-1.2-2.2-1.5-1-0.4-2.1-0.3-2.9-1.2-0.4-0.5-0.8-1.6-0.4-2.2 0.3-0.5 1.8-0.5 2.4-0.6 1.2-0.3 1.5-0.1 2.6 0.3 1.2 0.5 2.4 0.8 3.5 1.3 1.8 0.6 3.4 1.4 5.1 2.2 0.6 0.2 1.4 0.4 1.8 0.9 0.2 0.2 0.4 0.8 0.5 1.1 0.9 1.5 2.1 2.6 3 4.1 0.7 1.2 1.4 3.4 1.1 4.8-0.3 1.3-1 2.8-2.4 3.2-1.4 0.4-2.3-0.5-3.7-0.9-1.2-0.3-2.3-0.9-3.6-0.2-1 0.6-1.1 1.4-0.6 2.4 0.6 1.2 1.9 1.3 3.1 1.5 1.6 0.3 3.2 1 4.8 1.5 1.5 0.5 3.1 0.5 4.6 0.9 2.5 0.8 4.9 2 7.1 3.2 2.5 1.3 4.9 2.6 7.5 3.8 1.7 0.7 3.4 2 4.7 3.4q0.4 6.7-0.5 13.1z"/>
			<path id="&lt;Path&gt;" class="s1" d="m346 306.3q-1.1 2.1-2.3 4.1c-0.7-0.8-1.4-1.5-2.3-2.4-1-0.8-1.6-1.8-2.4-2.8-0.7-0.9-1.5-1.5-2.4-2.1-1.5-1.2-3.3-2.3-5.1-3-2.4-0.9-4.6-2-6.8-3.3-2.8-1.7-5.3-3.8-8.1-5.5-2.5-1.6-5.2-3.1-8-3.9-1.4-0.4-2.7-0.7-4.1-1.2-1.6-0.5-3.4-0.6-5.1-0.7-1.6-0.1-3.1-0.4-4.7-0.6-1.8-0.2-3.5-0.2-5.3-0.4-3.4-0.5-6.7-0.8-10.1-1.2-3.6-0.4-7.2-0.4-10.9-0.4-3.4 0-6.7 0-10.1 0.7-2 0.5-4 0.9-5.9 1.8-1.1 0.5-2.2 1-3.4 1.4-0.7 0.3-1.4 0.7-2.1 1-1 0.3-2 0.5-3 1-2.7 1.3-4.8 2.4-6.8 4.7-1.8 2.1-3.4 4.3-5.3 6.4-0.6 0.7-1.1 1.5-1.7 2.2-2-4.8-3.5-9.9-4.3-15.2q1-0.8 2.1-1.4c2.6-1.5 5.3-2.6 7.9-4 2.8-1.4 5.4-2.9 8.4-3.6 2.3-0.5 4.7-0.7 7-0.7 3.8 0 7.5-0.2 11.2 0.3 1.1 0.1 2.2 0 3.4 0.2 1 0.2 2 0.5 3.1 0.6 1.3 0.1 2.5 0.6 3.8 0.7q2.3 0.3 4.6 0.4c1.1 0.1 2 0.4 3 0.4 1.1 0.1 2.1-0.1 3.1 0.1 3.1 0.5 6.2 0.6 9.3 1 7 0.7 13.9 1.6 20.6 3.6 1.5 0.5 2.8 1.2 4.2 1.9 1.7 0.7 3.5 1.2 5.1 2.1 1.3 0.8 2.7 1.5 4 2.3 1.5 1 2.8 2.3 4.2 3.4 1.7 1.4 3.8 2.4 5.6 3.7 1.1 0.8 2.2 1.5 3.3 2.4 1.2 1 2.8 1.8 3.9 3q1.2 1.5 2.4 3z"/>
			<path id="&lt;Path&gt;" class="s1" d="m335.9 320.7c-3.4 3.6-7.2 6.9-11.4 9.7-2.9-1.7-6.3-2.5-9.2-4.2-2.5-1.6-5.4-2.6-8.2-3.9-2.8-1.2-5.6-2.4-8.6-3.5-2-0.6-4-1.1-6-1.4-1-0.2-2.1-0.1-3.1-0.1-1.2 0-2.6-0.1-3.7 0.1-2.9 0.5-5.6 0.7-8.5 0.7q-3.3 0-6.6 0c-1.8 0-3.5-0.4-5.3-0.4-2 0-3.9 0-5.8 0.5-1.4 0.4-2.1 0.8-3.1 1.7-1-0.1-0.6-1-0.4-1.5 0.3-0.8 1.2-1.4 2-1.7 0.9-0.4 1.7-0.3 2.6-0.5 0.5-0.1 0.9-0.3 1.4-0.4 0.7-0.1 1.3-0.1 2.1-0.3 2.2-0.5 4.2 0.7 6.4 0.7q1.5 0 3 0c0.6 0 1 0 1.5-0.2 0.8-0.2 0.9-0.2 1.4-0.7 1.2-1.5 0.4-3.6-1.5-3.7-0.9 0-1.9-0.1-2.7 0.1-1.2 0.3-2.5 0.7-3.8 0.7-1 0.1-2.8 0.3-3.8 0-0.2-0.1-0.6-0.5-0.8-0.7-0.6-0.7-0.8-1.1-1.5-1.6q-2.2-1.4-4.7-1.8c-1.5-0.3-3.4 0.4-4.9 0-3.3-1 0.7-6.6 1.9-7.7 1.7-1.6 4.3-2.5 6.3-3.4 1.6-0.6 3.4-0.3 5-0.8-0.2-1.4-4.1-0.5-4.9-0.4-1.7 0.3-3.5 0.6-5.2 0.9-2.2 0.5-4.2 1.5-6.2 2.6-2 1.2-4.3 2.4-6.2 3.8-2.6 2-4.5 4.7-6.7 7.2q-0.7 0.8-1.3 1.5-1.7-2.6-3.2-5.5 0.5-0.6 1.1-1.3 0.9-1 1.9-2c0.7-0.8 1.3-1.1 2.2-1.8 3.1-2 5.8-4.2 9.4-4.9 2.4-0.5 4.7-1.4 7.1-1.8 2.9-0.5 5.7-1.3 8.6-1.8 1.9-0.4 3.6-0.6 5.4-0.6 1.1 0 2 0.3 3 0.5 4.9 1.1 10.1 2.3 15 3.7 6 1.6 12.2 2.1 18.1 4 2.6 0.8 5.3 1.4 7.8 2.4 2.4 0.9 4.5 2.5 6.8 3.5 2.1 1 4.4 2.3 6.3 3.7 1.5 1 3.1 1.9 4.6 3.1 1.1 0.8 1.9 1.9 3 2.8 1.1 0.9 1.9 1.9 2.5 3.1 0.3 0.5 0.6 1.1 0.9 1.6z"/>
			<path id="&lt;Path&gt;" class="s1" d="m317.5 334.4q-1.6 0.8-3.2 1.5c-1.5-0.4-3.1-0.5-4.5-1-1.7-0.4-3.1-1.4-4.8-1.9-1.5-0.4-2.9-0.6-4.4-1.1-3.6-1.1-7.5-1.8-11.3-2.3-2.8-0.4-5.4-0.6-8.2-0.2-2.5 0.4-4.8 0.8-7.2 1.5-2.7 0.8-5.3 1.1-7.7 2.5-1 0.5-1.8 1.2-2.8 1.8q-0.3 0.1-0.6 0.3-0.5-0.3-1-0.5-2.4-1.1-4.8-2.5-0.7-0.4-1.5-0.9 0.9-0.3 1.8-0.6c1.9-0.6 3.8-1.5 5.7-1.9 2.1-0.6 4.4-0.8 6.5-1.2 5.4-0.9 10.7-1.2 16.1-1.8 3.1-0.4 6.4-0.6 9.5-0.4 3.4 0.3 7 0.6 10.3 1.8 0.8 0.3 1.7 0.6 2.5 0.9 0.9 0.4 1.5 1.1 2.4 1.5 0.7 0.3 1.5 0.5 2.3 0.8 1.1 0.5 1.4 0.8 2.2 1.4 1 0.8 1.9 1.4 2.7 2.3z"/>
		</g>
		<g id="&lt;Group&gt;" style="opacity: .7">
			<path id="&lt;Path&gt;" class="s1" d="m304.4 247.2c-0.2 1.4-1.4 2.6-2.3 3.7-0.6 0.7-0.9 1.6-1.6 2.3-0.2 0.2-0.4 0.4-0.7 0.6-0.4 0.3-0.3 0.2-0.8 0.1q-0.8-0.1-1.5-0.6c-0.6-0.3-1.2-0.4-2-0.5-1.2-0.3-2.3-0.5-3.5-0.7-1.4-0.4-2.7-0.7-4.1-0.9-1.9-0.4-3.6-1.2-5.3-2.3-0.5-0.3-1-0.7-1.5-0.9-0.6-0.3-1.2-0.4-1.8-0.7-0.6-0.2-1.3-0.5-1.9-0.8-0.5-0.4-0.8-1-1.1-1.5-0.3-0.4-0.6-0.8-0.9-1.1-0.4-0.5-1.1-0.8-1.6-1-0.9-0.5-1.9-0.4-2.9-0.4-0.6 0-1.2 0.2-1.7 0.2-0.3 0-0.5 0.1-0.8 0.1-0.4 0.1-0.7 0-1.1 0.1-0.6 0-1.1 0.2-1.7 0.2h-1.5c-1 0-1.9-0.1-2.7 0.4-0.2 0.1-0.7 0.4-0.7 0.6-0.1 0.2 0.1 0.5 0.4 0.6 0.5 0.5 1.1 0.8 1.8 0.8 1 0 1.9-0.2 2.8-0.2 1.5 0 3 0 4.4 0.2 0.6 0.1 1.2 0.3 1.7 0.5 0.4 0.2 0.4 0.5 0.6 0.8-0.3 0.3-0.8 0.4-1.1 0.4-0.3 0.1-0.7 0-1 0-0.6 0-1.3 0.2-1.9 0.3-1.1 0.1-2.2 0.3-3.4 0.4-0.8 0.2-1.6 0-2.5 0.1-0.8 0.2-1.5 0.2-2.3 0.2-1 0-1.8-0.3-2.8-0.1-1.8 0.5-3.3 1.6-5.1 2-2.4 0.7-4.9 1.2-7.3 2-1.5 0.4-2.7 1.1-4.1 2-1.1 0.7-2.2 1.4-3.3 2-0.6 0.3-1.1 0.6-1.6 0.9-0.4 0.3-0.9 0.4-1.3 0.7-1.2 0.7-2.5 1.2-3.7 1.8-0.6 0.4-1.3 0.7-1.9 1-0.7 0.4-1.3 0.9-2 1.3q-0.2 0.1-0.3 0.3c0.9-4 2.3-7.8 3.9-11.5q0.6-1.3 1.2-2.5c1.9-0.8 3.8-1.4 5.6-2.3 0.9-0.5 1.8-0.7 2.6-1.1 0.7-0.3 1.3-0.5 2.1-0.7 0.7-0.2 1.4-0.6 2.1-0.8 0.5-0.1 1.1-0.1 1.6-0.2 0.5-0.1 1-0.3 1.6-0.4 0.8-0.2 1.7-0.1 2.5-0.1h4.1c2.7 0 5.5-0.3 8.1-0.6 3.1-0.4 6.4-0.8 9.4-1.5 0.6-0.2 1.2-0.5 1.8-0.7 0.6-0.3 1.2-0.5 1.9-0.6 1.5-0.3 3.1-0.4 4.6-0.7 1.6-0.3 2.9-1.2 4.5-1.4 2.3-0.3 4.8 0.1 7.1 0.4 1.5 0.3 3 0.3 4.4 0.8 0.5 0.2 1.2 0.4 1.7 0.7 0.5 0.2 1.1 0.5 1.5 0.9 0.4 0.6 0.7 1.1 0.9 1.8 0.2 0.3 0.5 0.6 0.8 0.9 0.4 0.5 0.7 0.9 1.1 1.3q0.9 0.9 1.7 1.8c0.4 0.4 0.9 1 0.8 1.6z"/>
			<path id="&lt;Path&gt;" class="s1" d="m229.7 265.8c0.5-0.7 1.1-1.2 1.6-1.9 0.8-0.9 1.8-1.6 2.8-2.4q3-2.4 6.6-4.2c2-1.1 4.1-1.9 6.1-2.9 1.4-0.7 2.8-1.3 4.4-1.6 1.1-0.3 2.2-0.8 3.4-0.8 2.1-0.1 4.2 0.2 6.2 0.4 1.9 0.1 3.5 0.4 5.1 1.4 0.6 0.5 1.1 0.9 1.6 1.4 0.8 0.6 1.7 1 2.5 1.5 0.7 0.4 1.5 0.7 2.2 1.1 0.3 0.3 0.9 0.6 1.1 1 0.3 0.8-0.7 1.7-1.3 2-0.2 0.2-0.3 0.3-0.5 0.5-0.4 0.1-0.9 0.1-1.2 0.2-1.8 0.4-3.7 0.7-5.5 0.9-1.8 0.3-3.7 0.4-5.5 0.6-1.7 0.3-3.3 0.5-5 0.5-0.8 0-1.7 0.2-2.5 0.2-0.9 0.1-1.9 0.1-2.9 0.2-0.7 0.1-1.4 0.2-2.1 0.2-1 0-2 0.2-3 0.3-2 0.3-3.9 1.1-5.8 1.5q-1.6 0.3-3.1 0.7-1.6 0.3-3.1 0.6c-0.6 0.1-1.1 0.1-1.7 0.1-0.5 0-0.7-0.1-0.9-0.6-0.2-0.4-0.2-0.4 0-0.8 0.1-0.3 0.1-0.5 0.4-0.7 0.2-0.2 0.5-0.1 0.1 0.6z"/>
			<path id="&lt;Path&gt;" class="s1" d="m270.3 254.2c0-0.6 1-0.8 1.5-0.7 0.8 0 1.5 0.6 2.1 1.1 0.3 0.3 0.4 0.4 0.2 0.8-0.2 0.4-0.5 0.5-1 0.6-0.6 0-1.3 0-2-0.2-0.2-0.1-0.7-0.3-1-0.5-0.3-0.2-0.2-0.5-0.2-0.9z"/>
			<path id="&lt;Path&gt;" class="s1" d="m258.6 301.8q0.3-0.2 0.6-0.5c0.6-0.5 1.2-0.7 1.9-1 0.8-0.4 1.5-0.8 2.4-1.1 2.1-0.6 4.5-0.8 6.7-0.7 1.9 0.2 3.9 0.5 5.7 1.1 1.4 0.6 3 1.3 3.7 2.7 0.4 0.8 0.3 1.8 0 2.6-0.4 1.1-1.3 1.6-2.4 2-1.6 0.4-3.2 0.4-4.7 0.3-0.6 0-1.2-0.2-1.7-0.2-0.8-0.1-1.6 0-2.4 0-0.7 0-1.5-0.1-2.2 0.1-0.7 0.1-1.4 0.3-2.1 0.3q-1.6 0.3-3.3 0c-1-0.2-2.1-0.4-3.1-0.6-0.6-0.1-1.4-0.5-1.8-0.9-0.4-0.5-0.2-1.2 0.1-1.7 0.7-1.1 1.6-1.8 2.7-2.4-0.5 0.4-0.3 0.1-0.1 0z"/>
			<path id="&lt;Path&gt;" class="s1" d="m269.3 296.1c0.4-0.2 0.8-0.4 1.3-0.4q0.5 0.1 0.9 0.4c0.2 0.1 0.4 0.3 0.5 0.5 0 0.3-0.1 0.3-0.3 0.4-0.5 0.2-1.2 0.2-1.7 0.1-0.2-0.1-0.5-0.2-0.6-0.3-0.1-0.1-0.1-0.4 0.1-0.4z"/>
			<path id="&lt;Path&gt;" class="s1" d="m283.7 298.5c0.3-0.2 0.7-0.3 1-0.4 0.6-0.2 1.1-0.1 1.7 0.1 1.1 0.3 3.3 0.8 3 2.3-0.4 1.8-2.4 0.3-3.5 0.3-0.6 0-1.3 0.1-1.9-0.1q-0.3 0-0.7-0.1-0.1-0.1-0.2-0.1-0.2-0.2-0.4-0.6c0-0.7 0.6-1.2 1-1.4z"/>
			<path id="&lt;Path&gt;" class="s1" d="m315.3 320.4c0.7-0.2 1.2-0.5 1.9-0.5 1.1-0.1 2.2-0.1 3.3 0.2 1.2 0.4 2.6 1.2 3.2 2.4 0.2 0.5 0.4 1.3 0 1.8-0.7 0.6-2.1 0.5-2.9 0.5-1.3 0-2.4-0.4-3.6-0.8q-1.1-0.4-2.2-0.8c-0.6-0.2-1-0.5-1.4-0.9-0.3-0.4-0.6-0.9-0.4-1.3 0.1-0.4 0.6-0.7 1-0.8 0.4-0.1 0.8 0 1.1 0.2z"/>
			<path id="&lt;Path&gt;" class="s1" d="m289.2 326.8q0.7 0.1 1.4 0.3c-0.1 0.2 0.1 0.3 0.1 0.5-0.1 0.2-0.5 0.4-0.7 0.5-0.5 0.1-0.9 0.1-1.3 0.1-0.7 0-1.3 0.1-1.9-0.1-0.6-0.2-0.9-0.5-0.3-0.8 0.8-0.5 1.8-0.5 2.7-0.5z"/>
			<path id="&lt;Path&gt;" class="s1" d="m321.4 291.3c0.1-0.4 0.1-0.8 0.1-1.1 0.1-0.3 0.2-0.9 0.4-1.1 0.5-0.6 1.7 0.3 2.1 0.6 1.3 1 2.7 1.9 3.9 3 0.6 0.5 1.2 1 1.7 1.6 0.4 0.5 0.9 1 0.9 1.6 0 0.8-0.4 1.5-1.3 1.5-0.7 0-1.4-0.2-2.1-0.4-0.5-0.2-1-0.5-1.4-0.8-0.5-0.2-0.9-0.4-1.3-0.8-0.6-0.5-1.3-1.1-1.7-1.8-0.2-0.1-0.4-0.4-0.5-0.6-0.1-0.2-0.1-0.4-0.1-0.7-0.5 0.8-0.8-0.2-0.7-1z"/>
			<path id="&lt;Path&gt;" class="s1" d="m343.2 272.8c-0.5 0.2-1.4 0.2-2 0.2-0.6 0-1.2-0.1-1.8-0.1-1.3-0.1-2.6-0.3-3.8-0.6q-1.8-0.5-3.6-1.2c-1.4-0.4-2.8-0.7-4.1-1.1-1.7-0.6-3.4-1.2-5-1.7-0.7-0.3-1.3-0.6-2-0.9-0.5-0.2-1.1-0.3-1.5-0.7-1.6-1.9 2-3 3.3-3.2 2-0.4 4.2-0.5 6.3-0.6 1.1-0.1 2.2-0.2 3.3-0.1 0.6 0 1.2 0.2 1.8 0.3 0.9 0.2 1.7 0.8 2.4 1.3 1.4 1 2.7 2.1 4.2 2.9 1 0.7 2 1.2 2.8 2.2 1.1 1.4 1 2.8-0.3 3.3z"/>
			<path id="&lt;Path&gt;" class="s1" d="m345.6 269.7c0.5-0.3 1.3-0.2 1.6 0.1 0.2 0.2 0.5 0.4 0.6 0.7 0.1 0.5-0.1 0.9-0.7 0.9-0.3-0.1-0.5-0.2-0.8-0.4-0.2 0-0.4-0.1-0.5-0.2-0.2-0.2-0.1-0.5-0.2-0.7z"/>
			<path id="&lt;Path&gt;" class="s1" d="m321 233.2c1.5-0.5 3.1-0.8 4.6-0.4 0.7 0.2 1.4 0.5 2 0.9 0.6 0.4 1 0.9 1.5 1.3 0.6 0.6 1.4 0.9 1.8 1.7 0.3 0.6-0.2 1-0.8 1.2-0.6 0.1-1.2-0.1-1.7-0.3-0.8-0.2-1.4-0.4-2.1-0.7-0.7-0.2-1.3-0.4-2-0.6q-0.7-0.3-1.4-0.6-1.1-0.5-2-1.3c-0.1-0.2-0.3-0.3-0.3-0.6 0-0.2 0.1-0.5 0.4-0.6z"/>
			<path id="&lt;Path&gt;" class="s1" d="m331 238.5c0.7-0.3 1.4-0.6 2-0.1 0.4 0.2 0.7 0.7 0.5 1.2-0.2 0.4-1.1 0.4-1.5 0.3-0.7-0.1-1.1-0.5-1.6-1z"/>
			<path id="&lt;Path&gt;" class="s1" d="m258.3 229.2c0.5-0.1 0.9-0.3 1.4-0.3 0.5 0 1-0.2 1.6-0.2 1.2-0.1 2.4 0 3.6 0.1 0.7 0.1 1.4 0.1 2.2 0.1 0.5 0 1.1 0.1 1.7 0.1 0.6 0 1.2 0 1.9 0.1 0.4 0 0.9 0 1.3 0.3 0.7 0.4 0.7 1 0.4 1.7-0.3 1-1.6 1.6-2.4 2.1-1.2 0.7-2.5 1.3-3.7 1.9-0.7 0.3-1.3 0.6-2 0.8-0.8 0.1-1.5 0.4-2.2 0.6-1.3 0.3-2.6 0.7-3.9 1-0.9 0.2-1.8 0.2-2.7 0.7-1.2 0.5-2.3 0.6-3.6 0.6-1.9-0.1-3.3-2-2.2-3.8 0.9-1.5 2.3-2.6 3.9-3.5 1.2-0.8 2.6-1.6 4-2.1-1 0.3 0 0 0.7-0.2z"/>
			<path id="&lt;Path&gt;" class="s1" d="m275.4 227.1c0.8 0 1.8-0.1 2.5 0.4 0.7 0.5-0.2 1.2-0.7 1.4-0.8 0.3-1.6 0.3-2.4 0.3-0.8-0.1-1.4-0.3-2-0.7 0.5-1.1 1.7-1.4 2.6-1.4z"/>
			<path id="&lt;Path&gt;" class="s1" d="m282.2 304.1c-0.2-1.3 1.9-1.9 2.8-1.7 0.6 0.2 0.9 0.6 0.5 1.1-0.2 0.2-0.5 0.5-0.8 0.6-0.7 0.4-1.8 0-2.7 0z"/>
			<path id="&lt;Path&gt;" class="s1" d="m278.1 316.2c1.4-1.9 4-3 6.4-2.6 1.2 0.2 2.4 0.7 3.5 1.2 0.3 0.1 0.7 0.2 0.9 0.5 0.1 0.1 0.2 0.3 0.3 0.4-0.2 0.6-1.4 1.3-2 1.4-0.7 0.2-1.7 0.1-2.3 0-0.5-0.1-0.9-0.3-1.3-0.3-0.9-0.1-2-0.1-2.9 0-0.5 0-0.9 0.3-1.5 0.1-0.3-0.1-0.6-0.4-0.9-0.6 0-0.2 0.3-0.3-0.2-0.1z"/>
			<path id="&lt;Path&gt;" class="s1" d="m291.3 314.5c0.5-0.4 0.8-0.4 1.4-0.2 0.3 0.1 0.6 0.2 0.7 0.6 0.2 0.5-0.2 0.9-0.8 0.9-1 0.1-1.2 0.1-1.3-0.9z"/>
			<path id="&lt;Path&gt;" class="s1" d="m235.8 285.7c0.1-1.1 0.8-1.5 1.6-2.3 1.2-1.1 2.6-2 4.1-2.6 2.8-1.4 6.3-2 9.4-1.9 1.3 0 2.6-0.1 4 0.1 0.8 0.1 2.1 0 2.9 0.4 0.4 0.3 0.7 0.7 0.6 1.2-0.2 0.7-1.3 0.9-1.9 1.1-1 0.3-2 0.5-2.9 0.8-1.4 0.3-2.8 0.8-4.1 1.4q-3.4 1.6-6.9 2.9c-1 0.4-2 0.6-3 0.8-0.9 0.2-1.7 0.3-2.6 0-0.6-0.2-0.8-0.7-1-1.3-0.1-0.5 0.1-1.7-0.2-0.6z"/>
			<path id="&lt;Path&gt;" class="s1" d="m260.6 279.4c1.3-0.2 2.9-0.4 3.9 0.5 0.6 0.6 0.1 1.2-0.6 1.3-0.5 0-1.3-0.3-1.8-0.4-0.7-0.2-0.9-0.4-1.5-1z"/>
			<path id="&lt;Path&gt;" class="s1" d="m226.7 288.2c2-0.7 3.9-1.6 6.1-1.6 1 0.1 1.3 0.6 1.3 1.6 0 1.2-0.7 2.4-1.5 3.4-0.4 0.5-0.9 0.8-1.3 1.3-0.3 0.4-0.5 0.7-0.9 1-0.3 0.2-0.8 0.8-1.2 0.7-0.1-0.1-0.4-0.5-0.5-0.7-0.2-0.2-0.5-0.5-0.6-0.8-0.4-0.7-0.6-1.6-0.6-2.4-0.1-0.8-0.5-1.7-0.4-2.5z"/>
			<path id="&lt;Path&gt;" class="s1" d="m320.5 269.2c0.9 0 1.7 0 2.5 0.4 0.4 0.2 0.6 0.5 0.8 0.8 0.2 0.2 0.5 0.5 0.6 0.7 0 0.2 0 0.3-0.3 0.4-0.3 0.1-0.7 0.2-1 0.2-0.5-0.1-1.1-0.2-1.5-0.4-0.7-0.2-1-0.6-1.5-1q0.1-0.4 0.4-0.7z"/>
			<path id="&lt;Path&gt;" class="s1" d="m317.3 242.5c0.3 0 0.4-0.2 0.6-0.4 0.2-0.1 0.6 0 0.9 0 1.1 0 2 0.2 3 0.7 0.7 0.3 1.5 0.5 2.1 1 0.7 0.5 1.3 1 1.9 1.5 1 1.1 1.9 2.4 2.4 3.7 0.3 0.7 0.6 2.7-0.2 3.2-0.4 0.3-1.1 0.1-1.4 0.1-0.6 0-1.2 0.1-1.7-0.1-0.7-0.3-1.5-0.4-2.1-0.6-1.2-0.5-2.3-1.4-2.9-2.6-1.1-2.1-2-4.5-3.4-6.5 0.8 0.1 0.8 0.1 0.8 0z"/>
			<path id="&lt;Path&gt;" class="s1" d="m318.6 250.3c0.6-0.1 1.3 0.6 1.4 1.1 0.1 0.5-0.5 0.7-0.8 0.4-0.6-0.6-0.5-0.8 0-1.5z"/>
			<path id="&lt;Path&gt;" class="s1" d="m307.4 230.7c0.2-0.9 1.3-0.8 2-0.7 1.1 0.1 2.1 0.8 2.8 1.6 0.2 0.2 0.4 0.4 0.5 0.7 0.2 0.5-0.3 0.7-0.7 0.7-1.7 0-3.2-0.8-4.4-1.9z"/>
			<path id="&lt;Path&gt;" class="s1" d="m303.1 252.9c0.2-0.7 0.3-1 0.9-1.2 0.7-0.3 1-0.4 1.5 0.1 0.8 0.6 0.9 1.3 0.3 2-0.3 0.4-1.2 0.9-1.8 0.6-0.2-0.1-0.4-0.6-0.6-0.7-0.2-0.4-0.1-0.6-0.1-1z"/>
			<path id="&lt;Path&gt;" class="s1" d="m294.4 254.4c0.5-0.2 0.6-0.1 1.1 0 0.3 0.1 0.8 0 1.1 0.3 0.4 0.3 0 0.6-0.4 0.8-1 0.3-1.7-0.3-2.4-0.9z"/>
			<path id="&lt;Path&gt;" class="s1" d="m284.7 219.9c0-0.8 1.8-1.2 2.4-1.1 0.4 0.1 1.1 0.2 1.2 0.7 0 0.2-0.2 0.5-0.2 0.8q-1.3 0.2-2.6 0.2z"/>
			<path id="&lt;Path&gt;" class="s1" d="m294.6 315.6c0.2-0.4 0.5-0.5 1-0.6 0.4-0.1 0.8 0 1.2 0.1 0.8 0.1 1.5 0.5 2.3 0.7 0.9 0.3 1.8 0.7 2.7 1 1 0.3 2 0.4 3 0.5 1.6 0.3 3.1 0.4 4.7 0.7 0.5 0.1 0.9 0.2 1.4 0.3 0.3 0.1 0.6 0.1 0.9 0.2 0.4 0.1 0.8 0.2 1 0.5 0.2 0.3 0.3 0.5 0.2 0.8-0.1 0.2-0.3 0.5-0.4 0.7-0.2 0.4-0.3 0.8-0.2 1.3 0 0.4 0.3 0.8 0.5 1 0.4 0.4 0.8 0.8 1.1 1.2 0.2 0.2 0.2 0.4-0.2 0.3-0.5-0.1-0.9-0.4-1.3-0.6-0.9-0.4-1.7-0.9-2.5-1.3q-0.8-0.3-1.5-0.6c-0.4-0.2-0.9-0.4-1.4-0.6-0.9-0.3-1.8-0.8-2.7-1.1-1.5-0.7-3-1.3-4.5-1.9-0.6-0.3-1.4-0.6-2-1-0.3-0.2-0.6-0.5-1-0.7-0.3-0.2-0.6-0.2-1-0.3-0.2-0.1-0.3-0.2-0.5-0.3-0.3-0.2-0.6-0.5-1-0.6 0 0 0 0 0.2 0.3z"/>
			<path id="&lt;Path&gt;" class="s1" d="m282.1 305q0.6-0.1 1.1-0.1c0.4 0 0.9-0.1 1.4-0.1 1.5 0 3.1-0.6 4.5-1.3 0.4-0.2 0.8-0.4 1.2-0.5 0.6-0.1 1.2 0 1.7 0 1.1 0.1 2.1 0.2 3.1 0.3 1.2 0.1 2.5 0.4 3.7 0.6q1.6 0.3 3.2 0.6c1.1 0.3 2.2 0.4 3.2 0.8q1.6 0.6 3 1.5c0.6 0.3 1.2 0.5 1.8 0.8q0.6 0.4 1.3 0.8c1 0.6 2 1.1 3.1 1.4q1.1 0.3 2.1 0.6c0.5 0.2 1.1 0.2 1.6 0.4 1.1 0.3 2.3 0.5 3.4 0.9q1.5 0.6 3 1.2 0.8 0.3 1.5 0.6c0.5 0.3 0.8 0.6 1.2 1 0.8 0.6 1.4 1.3 1.9 2.1 0.2 0.3 0.4 0.7 0.4 1.1 0 0.4 0.2 0.7 0.5 1 0.2 0.2 0.3 0.4 0.5 0.6q0.1 0.1 0.1 0.3c-0.3-0.1-0.6-0.3-0.8-0.5-0.4-0.2-0.6-0.5-0.9-0.9q-0.3-0.5-0.6-1c-0.3-0.4-0.5-0.7-0.9-1-0.9-0.6-1.9-1-2.9-1.5-0.7-0.4-1.3-0.8-2-1.1-0.8-0.4-1.5-0.7-2.3-1-1.5-0.8-3.2-1-4.9-1.4-0.8-0.2-1.6-0.6-2.5-0.8-0.7-0.2-1.5-0.4-2.2-0.6-0.4-0.1-0.8-0.2-1.2-0.4q-0.2-0.2-0.5-0.4c-0.2-0.1-0.4-0.3-0.6-0.4-0.5-0.1-1.2-0.2-1.6 0-0.6 0.3 0.4 1.3 0.7 1.6 0.5 0.4 1.2 0.7 1.7 1.1 0.5 0.2 0.9 0.6 1.3 0.8q0.5 0.3 1 0.6c0.4 0.2 0.8 0.3 1.2 0.5 0.5 0.1 1.2 0.2 1.7 0.3q1.1 0 2.2 0.1 0.7 0.1 1.3 0.2c0.4 0.1 0.8 0.1 1.2 0.2 0.6 0.2 1.3 0.4 1.8 0.8 0.7 0.4 1.3 0.9 1.9 1.4 0.8 0.6 1.6 1.3 2.3 1.9 0.5 0.5 1.1 0.9 1.6 1.2 0.3 0.3 0.6 0.5 1 0.6 0.4 0.2 0.6 0.4 1 0.5q0.8 0.4 1.6 0.8c0.5 0.2 1 0.3 1.5 0.5 0.3 0.1 0.4 0.3 0.5 0.6 0 0.5-0.2 1.1-0.4 1.5-0.4 0.6-1 1.3-1.5 1.8q-0.3 0.2-0.6 0.4c-0.1 0 0 0-0.2 0 0 0-0.1-0.1-0.2-0.1 0-0.3-0.1-0.6-0.4-0.9-0.2-0.3-0.5-0.5-0.7-0.7-0.2-0.2-0.5-0.4-0.6-0.6-0.2-0.1-0.2-0.3-0.4-0.4-0.1-0.2-0.2-0.3-0.3-0.4-0.1-0.1-0.1-0.3-0.1-0.4-0.2-0.3-0.5-0.6-0.6-0.9-0.1-0.3-0.2-0.4-0.3-0.7-0.1-0.2-0.3-0.3-0.5-0.5q-0.3-0.3-0.6-0.6c-0.3-0.3-0.6-0.5-0.9-0.9-0.3-0.3-0.7-0.4-1-0.6-0.5-0.3-0.9-0.6-1.3-0.9q-0.7-0.4-1.4-0.8c-0.6-0.3-1.3-0.6-1.9-1-0.7-0.3-1.6-0.6-2.4-0.8q-2.8-0.8-5.6-1.4c-1.6-0.3-3.2-0.6-4.8-1-1.2-0.2-2.3-0.5-3.4-0.9-1-0.4-1.9-1-2.8-1.5-0.4-0.2-0.8-0.5-1.3-0.7q-0.8-0.2-1.6-0.5c-1.1-0.4-2.3-0.7-3.5-0.8q-1.8 0-3.6-0.2c-0.6-0.1-1.1-0.3-1.7-0.4-0.4-0.1-0.9-0.2-1.3-0.3-0.5-0.1-1.1-0.2-1.6-0.3q-0.6-0.1-1.2-0.3-0.7-0.1-1.5-0.3c-0.3 0-0.6 0-0.9-0.1-0.1 0-0.3-0.1-0.2-0.3 0.1-0.3 0.6-0.4 0.8-0.5-0.2 0 0-0.2 0.4-0.3z"/>
			<path id="&lt;Path&gt;" class="s1" d="m295.5 298.9c0.2 0.1 0.3 0.1 0.5 0.1 0.5 0.1 1 0.3 1.5 0.4 0.7 0.1 1.4 0.2 2.1 0.4 0.9 0.2 2 0.4 2.8 1 0.4 0.4 1.1 0.9 0.5 1.4-0.2 0.3-0.8 0.2-1.1 0.1q-1.2-0.2-2.4-0.6c-0.8-0.2-1.6-0.5-2.5-0.7-0.6-0.2-1.4-0.2-2-0.5-0.3-0.2-0.7-0.5-0.6-0.9 0-0.3 0.3-0.5 0.4-0.7 0.3-0.2 0.6 0 0.8 0z"/>
			<path id="&lt;Path&gt;" class="s1" d="m312.5 332.5c0.7 0.3 1.3 0.6 1.7 1.2 0.4 0.3 0.9 1.2 0.5 1.7-0.4 0.4-1.2 0-1.7-0.1q-0.8-0.2-1.6-0.4c-0.6-0.1-1.2-0.4-1.8-0.7-0.3-0.1-0.6-0.4-0.9-0.5q-0.5-0.1-1-0.3c-0.7-0.3-1.4-0.4-2.1-0.7-0.4-0.2-0.8-0.3-1.2-0.5-0.4-0.1-0.8-0.3-1.2-0.4q-1.3-0.3-2.7-0.6-1.6-0.4-3.2-0.7c-0.8-0.2-1.5-0.4-2.2-0.8-0.3-0.1-0.7-0.3-0.6-0.7 0-0.4 0.7-0.5 1.1-0.6 0.6-0.1 1.2-0.1 1.8-0.1q0.8-0.1 1.5-0.1c0.5 0 1.1 0 1.6 0.1 0.5 0 0.9 0 1.4 0q1.2 0.1 2.4 0.3c1 0.3 2.1 0.7 3 1.2 0.9 0.5 1.9 0.9 2.8 1.5 0.5 0.3 0.9 0.5 1.2 0.9 0.5-0.1 0.9 0.1 1.2 0.3z"/>
		</g>
		<g id="&lt;Group&gt;">
			<path id="&lt;Path&gt;" class="s2" d="m272.9 263c0.1-0.7 0.6-1.3 1.3-1.4 0.5-0.2 1.7-0.2 1.9 0.5 0.1 0.8-0.8 1.5-1.4 1.6-0.5 0.2-1.3 0.2-1.7-0.2-0.4-0.3-0.2-0.6 0-0.9z"/>
			<path id="&lt;Path&gt;" class="s2" d="m233.2 265.8c0-0.7 0.5-1.2 1.2-1.4 0.5-0.2 1.8-0.2 1.9 0.6 0.1 0.7-0.8 1.4-1.4 1.6-0.5 0.1-1.3 0.1-1.7-0.3-0.4-0.3-0.2-0.6 0.1-0.9z"/>
			<path id="&lt;Path&gt;" class="s2" d="m308.9 218.9c1.3-0.6 3.2-0.5 4.1 0.7 0.5 0.6 0.9 1.4 0.5 2.1-0.4 0.6-1.2 0.7-1.8 0.8-0.4 0.1-0.7 0.1-1.1 0-0.4 0-0.8 0-1.2-0.1-0.4-0.2-0.9-0.5-1.1-0.9-0.2-0.3-0.2-0.3 0-0.7-0.5-0.6-0.2-1.5 0.6-1.9z"/>
			<path id="&lt;Path&gt;" class="s2" d="m315.2 223.5q-0.1-0.1-0.1-0.3c0.5-0.3 1.1 0.1 1.3 0.5 0 0.2 0.1 0.4 0 0.6 0 0.1-0.2 0.3-0.4 0.4-0.4 0.2-0.9 0-1.1-0.3-0.1-0.2-0.3-0.7 0-0.8z"/>
			<path id="&lt;Path&gt;" class="s2" d="m292.7 266.9q-0.1-0.2-0.1-0.3c0.5-0.3 1.1 0 1.3 0.5 0 0.2 0.1 0.4 0 0.6 0 0.1-0.3 0.3-0.4 0.4-0.4 0.2-0.9 0-1.1-0.3-0.2-0.2-0.3-0.7 0-0.8z"/>
			<path id="&lt;Path&gt;" class="s2" d="m343 260.4c-0.4-0.4-0.6-1-0.9-1.6-0.2-0.6-0.1-1.4 0.1-2 0.2-0.6 0.5-1.7 1.2-1.7 0.4 0 0.6 0.2 0.8 0.4 0.5 0.3 0.8 0.6 1.2 1 0.7 0.8 1 2.2 0.8 3.2-0.1 0.7-0.6 1.6-1.3 1.8-0.7 0.2-1.1-0.4-1.3-0.9-0.2 0.3-0.4 0.1-0.6-0.2z"/>
			<path id="&lt;Path&gt;" class="s2" d="m302.1 224.6c-0.4-0.5-0.7-1.1-0.9-1.7-0.3-0.6-0.2-1.4 0-2 0.2-0.6 0.5-1.7 1.3-1.7 0.3 0 0.5 0.2 0.8 0.4 0.4 0.3 0.7 0.6 1.1 1 0.7 0.8 1.1 2.2 0.9 3.2-0.2 0.8-0.6 1.6-1.4 1.8-0.6 0.2-1-0.4-1.2-0.9-0.2 0.3-0.5 0.1-0.6-0.1z"/>
			<path id="&lt;Path&gt;" class="s2" d="m340.7 261.4q0.6 0.1 1.2 0.3c0 0.1 0 0.3 0 0.4 0 0.1 0.1 0.2 0.1 0.3-0.1 0.2-0.5 0.2-0.7 0.2-0.3-0.1-0.5-0.3-0.7-0.4-0.2-0.1-0.3-0.2-0.4-0.4 0.1 0 0.2-0.1 0.2-0.2z"/>
			<path id="&lt;Path&gt;" class="s2" d="m339.8 289.9q0.6 0 1.2 0.3c0 0.1 0 0.3 0 0.4 0 0 0.1 0.1 0.1 0.2-0.1 0.3-0.5 0.3-0.7 0.2-0.3 0-0.5-0.2-0.7-0.4-0.2-0.1-0.3-0.1-0.4-0.3 0.1-0.1 0.2-0.1 0.2-0.2z"/>
			<path id="&lt;Path&gt;" class="s2" d="m342.7 251.4c-0.5 0-0.8-0.3-1.1-0.6-0.4-0.4-0.7-0.8-1-1.3-0.1-0.4-0.4-0.9 0-1.2 0.3-0.3 0.9-0.1 1.2 0 0.6 0.3 1.2 0.6 1.7 1 0.3 0.2 0.5 0.6 0.5 0.9 0 0.4-0.1 0.7-0.4 0.9-0.2 0.1-0.5 0.3-0.7 0.3-0.2 0-0.4-0.3-0.5-0.4z"/>
			<path id="&lt;Path&gt;" class="s2" d="m328.2 307.6c0.3-0.3 0.4-0.6 0.7-0.8 0.2-0.1 0.5-0.1 0.7-0.2 0.5-0.1 1.3-0.1 1.6 0.2 0.2 0.2 0.6 0.5 0.6 0.8 0 0.3-0.4 0.7-0.6 0.9-0.4 0.5-1.3 0.6-1.9 0.5-0.5-0.1-0.8-0.3-1.2-0.6q0-0.4 0.1-0.7z"/>
			<path id="&lt;Path&gt;" class="s2" d="m334.1 310.9q0.7 0 1.3 0.4c-0.2 0.2-0.2 0.5-0.4 0.6-0.1 0.1-0.6 0.1-0.8 0-0.1 0-0.4-0.3-0.4-0.4-0.1-0.2 0.1-0.6 0.3-0.5z"/>
			<path id="&lt;Path&gt;" class="s2" d="m275.7 324.4q0.6 0 1.2 0.3c-0.1 0.2-0.1 0.5-0.4 0.6-0.1 0.1-0.6 0.1-0.8 0.1 0-0.1-0.3-0.3-0.4-0.4-0.1-0.3 0.1-0.6 0.4-0.5z"/>
			<path id="&lt;Path&gt;" class="s2" d="m343.5 292.8q-0.3-0.3-0.6-0.6c-0.1-0.3-0.2-0.7-0.2-1-0.1-0.3-0.2-0.6-0.2-0.9 0-0.3 0.1-0.5 0.1-0.8 0.2-0.9 1-1.8 1.9-1.2 0.5 0.4 0.8 1.3 0.9 1.8 0.1 0.6 0.1 1.6-0.2 2.1-0.2 0.5-0.5 0.9-1.1 0.7-0.6-0.1-0.9-0.6-1.2-1z"/>
			<path id="&lt;Path&gt;" class="s2" d="m279.2 323.6c-0.3-0.4-0.5-1-0.3-1.6 0.2-0.5 0.7-0.8 1.2-1.1 0.6-0.4 1.1-0.2 1.8-0.1 0.7 0.1 1.4 0.5 2 0.9 0.6 0.5 1.9 1.2 1.7 2.1-0.1 0.8-1.4 0.9-2 1-0.6 0.1-1.1 0.3-1.7 0.3-0.8 0.1-1.2 0-1.9-0.3-0.1-0.4-0.4-0.7-0.8-1.2z"/>
			<path id="&lt;Path&gt;" class="s2" d="m286 324.9c0-0.4-0.1-0.5 0.2-0.7 0.1 0 0.4 0 0.5 0.1 0.3 0.1 0.4 0.4 0.4 0.6 0 0.3-0.1 0.6-0.4 0.5-0.2 0-0.6-0.3-0.6-0.5z"/>
			<path id="&lt;Path&gt;" class="s2" d="m294.9 219.3c0-0.4-0.1-0.6 0.3-0.7 0.1 0 0.3 0 0.4 0 0.3 0.2 0.4 0.5 0.4 0.7 0 0.3-0.1 0.5-0.4 0.5-0.1-0.1-0.6-0.4-0.6-0.5z"/>
			<path id="&lt;Path&gt;" class="s2" d="m234.3 271.4c0.1-0.4 0-0.5 0.3-0.6 0.1 0 0.4 0 0.5 0 0.2 0.1 0.4 0.5 0.4 0.7 0 0.2-0.1 0.5-0.4 0.4-0.2 0-0.7-0.3-0.6-0.5z"/>
			<path id="&lt;Path&gt;" class="s2" d="m331.2 306.2c0-0.4 0-0.5 0.3-0.7 0.1 0 0.4 0 0.5 0.1 0.2 0.1 0.3 0.4 0.3 0.6 0 0.3 0 0.5-0.3 0.5-0.2 0-0.7-0.4-0.7-0.5z"/>
			<path id="&lt;Path&gt;" class="s2" d="m295.6 336.3c-0.6-0.5 0.4-1 0.8-1.2 0.7-0.2 1.4-0.1 2.1 0.1 0.7 0.1 1 0.5 0.5 1-0.3 0.4-0.8 0.6-1.3 0.7-0.3 0.1-0.6 0.1-0.9 0.1-0.5 0.1-1-0.2-1.4-0.3z"/>
			<path id="&lt;Path&gt;" class="s2" d="m284.5 281c0.5-0.6 1.4-0.5 2-0.3 0.8 0.2 1.4 0.5 1.7 1.3 0.5 1-0.9 0.7-1.4 0.6-0.6-0.1-1.6 0-2.1-0.4-0.4-0.3-0.3-0.7-0.2-1.1z"/>
			<path id="&lt;Path&gt;" class="s2" d="m254.4 283.6c0-0.1 0.1-0.2 0.2-0.3q0.3-0.2 0.6-0.3c0.3-0.1 0.7-0.2 1-0.2 0 0 0.3 0 0.3 0.1-0.1 0.1-0.1 0.1-0.1 0.1q-0.2 0.1-0.3 0.2-0.1 0-0.2 0.1-0.2 0.1-0.3 0.1-0.2 0-0.3 0.1-0.2 0.1-0.3 0.2-0.3 0.1-0.6 0.1c0 0-0.1 0-0.1-0.1 0 0 0-0.1 0.1-0.1z"/>
			<path id="&lt;Path&gt;" class="s2" d="m260.8 282.1q0.7 0 1.5 0.2c0 0.4-0.5 0.5-0.8 0.6-0.2 0-0.4 0-0.6-0.1-0.1-0.1-0.2-0.3-0.4-0.3z"/>
			<path id="&lt;Path&gt;" class="s2" d="m260.6 254.5c0 0.4-0.3 0.9-0.6 1-1 0.3-2 0-2.9-0.2-1.2-0.2-2.5-0.3-3.7-0.4-0.4 0-2 0.1-2-0.6 0-0.6 0.9-0.9 1.3-1.1 1.3-0.7 2.6-0.9 4.1-0.6 1.2 0.1 2.2 0.7 3.2 1.2 0.1-0.1 0.7 0.4 0.6 0.7z"/>
			<path id="&lt;Path&gt;" class="s2" d="m261.3 253.5c0.2-0.3 0.3-0.2 0.7-0.1 0.3 0 0.3 0.1 0.4 0.3 0.2 0.3 0.3 0.4 0.2 0.7-0.2 0.6-0.9-0.1-1.2-0.2z"/>
			<path id="&lt;Path&gt;" class="s2" d="m342.9 273.4c0.3 0 1.4-0.2 1.9-0.1 0.3 0 0.5 0.1 0.7 0.2 0.6 0.2 1.1 0.4 1.5 0.8 0.1 0.2 0.3 0.5 0.3 0.7 0 0.2-0.3 0.5-0.5 0.6-0.4 0.2-0.8 0.2-1.1 0.2-0.7 0-1.3-0.1-1.9-0.4-0.3-0.2-1.6-1.2-0.9-1.6z"/>
			<path id="&lt;Path&gt;" class="s2" d="m330.7 295.5c0.7 0 1.3 0 1.8 0.5 0.4 0.4 1.3 1.1 1.4 1.7 0 0.8-0.9 0.8-1.4 0.6-0.7-0.3-1.3-0.6-1.6-1.2-0.4-0.6-0.3-0.6 0-1.2z"/>
			<path id="&lt;Path&gt;" class="s3" d="m286.6 286.6c0.1-0.3-0.2-0.5-0.2-0.8 0.1-0.2 0.3-0.4 0.5-0.5 0.5-0.3 1-0.2 1.5 0.1 0.6 0.3 1.1 0.8 0.6 1.4-0.4 0.4-1 0.6-1.5 0.6-0.8-0.1-1.1-0.5-1.7-1.1z"/>
			<path id="&lt;Path&gt;" class="s3" d="m301.2 268.3c-0.5-0.7-1.2-1.5-0.4-2.1 0.4-0.2 1-0.2 1.4-0.2 0.5 0 1.1-0.1 1.6 0 0.7 0.2 1.6 0.4 1.9 1 0.4 0.6 0.7 1.2 0.8 1.9 0.1 1.3-1 2.2-2.2 2-0.4-0.1-0.9-0.3-1.3-0.4-0.4-0.2-0.5-0.5-0.9-0.7-0.4-0.4-0.9-0.6-1.1-1.2z"/>
			<path id="&lt;Path&gt;" class="s3" d="m307.2 265.8c0.1-0.5 0.1-1 0.7-1.1 0.4-0.1 0.9 0.4 1.2 0.7q-0.6 0.6-1.5 0.8z"/>
			<path id="&lt;Path&gt;" class="s3" d="m293.3 243.7c0.1-0.5 0.1-1 0.7-1.1 0.5-0.1 0.9 0.4 1.2 0.7q-0.6 0.6-1.5 0.8z"/>
			<path id="&lt;Path&gt;" class="s3" d="m259.7 256.7c0.4-0.3 0.9-0.9 1.4-1 0.4 0 0.9 0 1.2 0.2 0.2 0.1 0.6 0.3 0.6 0.5 0.1 0.4-0.2 0.4-0.5 0.5-0.4 0.2-0.8 0.3-1.3 0.4-0.3 0-1.2 0.4-1-0.4z"/>
			<path id="&lt;Path&gt;" class="s3" d="m276 234.3c0-0.7 0.1-0.8 0.7-1 0.6-0.1 1.3 0.2 1.7 0.6q-0.8 0.6-1.9 0.8z"/>
			<path id="&lt;Path&gt;" class="s3" d="m280.1 313.5q-0.3-0.4-0.3-0.9c0.3-0.2 0.4-0.5 0.7-0.7 0.4-0.3 0.9-0.3 1.4-0.3 0.4 0.1 1.2 0.4 1.1 1 0 0.5-0.7 1-1.1 1.2-0.4 0.1-0.9 0.1-1.4 0.1z"/>
			<path id="&lt;Path&gt;" class="s3" d="m296.2 245.8q-0.3-0.4-0.3-0.9c0.3-0.2 0.4-0.6 0.7-0.8 0.4-0.2 0.9-0.2 1.4-0.2 0.4 0.1 1.2 0.4 1.1 1 0 0.5-0.7 1-1.1 1.2-0.4 0.1-0.9 0.1-1.4 0.1z"/>
			<path id="&lt;Path&gt;" class="s3" d="m301.4 327.2c0.3-0.3 1.1-0.9 1.5-0.4 0.3 0.2 0.2 0.5 0 0.8-0.1 0.3-0.2 0.5-0.6 0.5-0.4 0.1-0.5-0.2-0.9-0.2q0-0.1 0-0.1z"/>
			<path id="&lt;Path&gt;" class="s3" d="m273.4 301.6q0.1 0 0.1-0.1c0.4-0.1 0.6 0 0.9 0.2 0.3 0.3 0.4 0.4 0.2 0.8-0.5 1.1-1.2 0.4-1.7-0.3z"/>
		</g>
		<path id="&lt;Path&gt;" class="s4" d="m347.5 313.2c3.4 5.3-2.7 15.3-13.7 22.3-10.9 7-22.5 8.4-25.9 3.1-3.4-5.3 2.7-15.3 13.7-22.3 10.9-7 22.5-8.4 25.9-3.1z"/>
		<g id="&lt;Group&gt;">
			<path id="&lt;Path&gt;" class="s5" d="m280.6 239.5c0.4-0.3 0.8-0.4 1.2-0.6 0.7-0.3 1.6-0.7 2.5-0.5 0.8 0.1 1.5 0.1 2.3 0q1.5-0.2 3-0.3c0.6 0 1.2 0.1 1.7 0.2q0.9 0.1 1.7 0.5c0.4 0.2 0.9 0.5 1.4 0.7q0.9 0.5 1.8 1c0.5 0.3 1 0.4 1.5 0.7q0.5 0.3 0.9 0.9c0.5 0.6 1.1 1.2 1.5 2 0.4 0.7 0.7 1.6 0.8 2.4 0 0.6 0 1.5-0.8 1.6-0.2 0-0.5 0-0.7 0q-0.4-0.1-0.7-0.1c-0.4-0.1-0.8 0.1-1.1 0.2-0.4 0.1-0.8 0.2-1.2 0.2-0.6 0.1-1.2 0.1-1.7 0q-0.5-0.2-1-0.4c-0.4-0.2-0.8-0.5-1.2-0.6-0.4-0.2-0.7-0.3-1-0.4q-0.6 0-1.2 0-1.7 0-3.3-0.3c-1.7-0.3-3.4-0.8-4.9-1.5-0.7-0.3-1.3-0.6-1.8-1.1q-0.6-0.6-1-1.3c-0.4-0.7-0.7-1.6-0.1-2.2 0.2-0.2 0.5-0.4 0.8-0.6 0.1-0.1 0.3-0.2 0.6-0.5z"/>
			<path id="&lt;Path&gt;" class="s5" d="m278.1 240.5c-0.1 0.3-0.4 0.7-0.6 1-0.3 0.4-0.7 0.6-1.1 0.5-0.4 0-0.8-0.2-1.2-0.3q-0.3-0.1-0.6-0.3c-0.1-0.1-0.4-0.3-0.4-0.4-0.1-0.4 0.4-0.5 0.6-0.7 0.4-0.1 0.6-0.3 1-0.4q0.4-0.1 0.8-0.2 0.4-0.1 0.8-0.1c0.3 0 0.6 0.1 0.9 0.2-0.5 0.1-0.2 0.3-0.2 0.7z"/>
			<path id="&lt;Path&gt;" class="s5" d="m264.9 246.2c0.4-0.1 1-0.1 1.4 0 0.3 0 0.6 0 0.8 0.2 0.1 0.2 0 0.4-0.2 0.5q-0.3 0.1-0.6 0.2-0.4 0-0.7 0c-0.6 0-1.1 0.2-1.6 0.1-0.2 0-0.5 0-0.7-0.1-0.1-0.1-0.2-0.2-0.1-0.3 0.1-0.1 0.4-0.2 0.5-0.2q0.4-0.2 0.8-0.2c-0.1 0 0.2-0.1 0.4-0.2z"/>
			<path id="&lt;Path&gt;" class="s5" d="m265.7 259c0.7-0.2 1.3-0.2 2-0.2 0.4 0 0.7 0 1 0.3 0.4 0.2 0.4 0.5 0.4 0.9-0.1 0.5-0.5 0.8-0.9 1-0.4 0.1-0.7 0.2-1.1 0.3-0.2 0-0.5-0.1-0.8 0-0.6 0.1-1.2 0.2-1.9 0.1-0.4-0.1-1.2-0.3-1-0.9 0.2-0.3 0.5-0.5 0.8-0.7 0.5-0.4 1-0.5 1.6-0.6z"/>
			<path id="&lt;Path&gt;" class="s5" d="m261.2 261.4q0.3 0.1 0.5 0.4c-0.3 0.5-1.1 0.5-1.6 0.4-0.2-0.1-0.4-0.2-0.2-0.4 0.1-0.2 0.4-0.2 0.5-0.2z"/>
			<path id="&lt;Path&gt;" class="s5" d="m250.1 280.5q0.2-0.1 0.3-0.2c0.4-0.2 0.8-0.4 1.2-0.5 1.2-0.4 3.1-0.5 4.2 0.4 0.3 0.3 0.3 0.9-0.1 1.1-0.3 0.1-0.6 0.1-0.9 0.2-0.6 0.2-1.2 0.4-1.9 0.6-0.7 0.2-1.5 0.3-2.3 0.3-0.5-0.1-1.2-0.1-1.4-0.6-0.2-0.3-0.1-0.5 0-0.8 0.1-0.1 0.1-0.2 0.1-0.3 0.2-0.1 0.5-0.2 0.7-0.3-0.2 0.4 0 0.1 0.1 0.1z"/>
			<path id="&lt;Path&gt;" class="s5" d="m323.7 290.6c0.5-0.1 0.8 0.6 1.1 0.9 0.4 0.4 1.5 1.5 0.6 2.1-0.2 0.1-0.5 0.1-0.7 0-0.5-0.2-0.9-0.4-1.3-0.7-0.4-0.3-0.7-0.8-0.7-1.3 0-0.1-0.1-0.3 0-0.4 0-0.2 0.5-0.5 0.6-0.6z"/>
			<path id="&lt;Path&gt;" class="s5" d="m314.9 287.9c-0.3 0.1-0.7 0.1-1 0.1-0.8 0-1.6-0.3-2.3-0.4-1.2-0.2-2.3-0.6-3.4-0.8-1.2-0.2-2.5-0.4-3.7-0.7q-1.5-0.3-3-0.9-0.6-0.2-1.3-0.4c-0.3-0.1-0.8-0.2-1.1-0.4-0.2-0.1-0.6-0.3-0.5-0.5 0.3 0 0.6-0.2 1-0.2 0.6-0.1 1.3-0.2 2-0.3 1.7-0.2 3.4-0.3 5 0 1.2 0.1 2.2 0.4 3.3 0.8 1 0.3 1.9 0.9 2.9 1.4 1 0.5 2.1 0.9 3 1.6-0.5 0.4-0.8 0.6-0.9 0.7z"/>
			<path id="&lt;Path&gt;" class="s5" d="m298.5 282.8c-0.4 0.1-0.9 0.1-1.2 0.3q-0.4 0.2-0.8 0.3c-0.6 0.1-1.2 0.1-1.9 0-0.1 0-2.8-0.3-1.9-1 0.5-0.4 1.3-0.6 1.9-0.6 0.8 0 1.5 0 2.2 0.1 0.4 0.1 0.7 0.1 1 0.3 0.1 0.1 0.1 0.1 0.2 0.2 0 0.1 0 0.2 0.5 0.4z"/>
			<path id="&lt;Path&gt;" class="s5" d="m296.6 284.3q-0.2 0.1-0.5 0.3c0.1 0 0.1-0.1 0.2-0.2 0.2 0 0.4-0.1 0.5-0.1 0.2 0 0.7 0.1 0.7 0.3 0 0.6-1.1 0.3-1.3 0.1z"/>
			<path id="&lt;Path&gt;" class="s5" d="m282.5 281.3c0.5 0.2 1 0.7 0.9 1.3q-0.2 0.3-0.6 0.3-0.5 0.2-1 0.3c-0.5 0.1-1 0-1.4 0-0.5-0.1-1 0-1.4-0.1-1.1 0-2.1-0.1-3.1-0.4-0.4-0.2-1.4-0.5-1.1-1.1 0-0.3 0.4-0.4 0.6-0.4 0.8-0.3 1.5-0.4 2.3-0.4 0.7-0.1 1.4-0.1 2.1 0.1q0.7 0.1 1.4 0.2c0.1-0.3 0.7 0 1.3 0.2z"/>
			<path id="&lt;Path&gt;" class="s5" d="m261.4 303.1c0-0.3-0.1-0.3 0.1-0.5 0.2-0.3 0.5-0.5 0.7-0.7 0.6-0.5 1.4-1 2.2-0.9 0.8 0.2 1 1.2 0.5 1.7-0.4 0.4-0.8 0.7-1.3 0.9-0.4 0.2-0.8 0.4-1.3 0.5-0.3 0.1-0.7 0-0.9-0.2-0.1-0.2-0.2-0.4-0.2-0.6 0.1-0.2 0.3-0.3 0.2-0.2z"/>
			<path id="&lt;Path&gt;" class="s5" d="m326 275.5q0.6 0.5 1.2 0.6c0.7 0.3 1.3 0.8 1.7 1.3 0.3 0.4 0.7 0.8 0.4 1.2-0.1 0.2-0.3 0.1-0.6 0.1-0.5-0.2-0.9-0.5-1.4-0.7q-1.8-0.8-3.6-1.6-1-0.4-1.9-0.8c-0.4-0.2-1.1-0.5-1.2-0.9-0.2-0.8 1.7-0.5 2-0.4 1.2 0.2 2.2 0.4 3.1 1.3-0.2-0.3 0-0.2 0.3-0.1z"/>
			<path id="&lt;Path&gt;" class="s5" d="m331.2 279.3q0.1 0 0.1 0c0-0.3 0.7-0.5 0.9-0.5 0.3 0 0.6-0.1 0.8 0 0.3 0 0.5 0.3 0.7 0.5 0.3 0.5 0.5 1.3-0.3 1.2-0.7-0.2-1.5-0.4-1.9-1.1z"/>
			<path id="&lt;Path&gt;" class="s5" d="m334.7 281.2c-0.1-0.1-0.3-0.5-0.2-0.8 0.1-0.2 0.4-0.3 0.7-0.3 0.9-0.3 2.1-0.2 2.8 0.6 0.4 0.5 0.7 1.5 0.1 2-0.3 0.3-1 0.2-1.4 0.1-0.6-0.3-1.2-0.7-1.6-1.3z"/>
			<path id="&lt;Path&gt;" class="s5" d="m340.1 283c-0.1-0.1-0.7-0.7-0.3-0.8 0.4-0.1 0.6 0.2 0.8 0.4 0.2 0.1 0.5 0.3 0.3 0.5-0.1 0.1-0.5 0-0.7 0z"/>
			<path id="&lt;Path&gt;" class="s5" d="m308.7 309.5c0.3 0.1 0.5 0.3 0.9 0.5 0.5 0.3 1.1 0.3 1.7 0.5 0.4 0.1 0.7 0.2 1.1 0.4q0.2 0.1 0.5 0.2 0.2 0.1 0.3 0.2c0.2 0.1 0.4 0.4 0.3 0.6 0 0.2-0.3 0.2-0.5 0.3-0.5 0-0.9-0.1-1.4-0.2-0.4-0.2-0.8-0.3-1.3-0.5-0.3-0.1-0.6-0.3-0.9-0.5q-0.5-0.1-0.9-0.3c-0.3-0.2-0.6-0.4-0.8-0.7q-0.1-0.1-0.2-0.3c0-0.1 0-0.1 0.1-0.3 0.3-0.1 0.7 0 1.1 0.1z"/>
			<path id="&lt;Path&gt;" class="s5" d="m312.3 312.8c0-0.1-0.1-0.2 0-0.2 0.1-0.1 0.2-0.1 0.3-0.1 0.2 0 0.4-0.1 0.5 0q0.2 0 0.4 0c0.1 0.1 0.3 0.2 0.4 0.2q0.2 0.1 0.1 0.3c-0.1 0.2-0.6 0.2-0.8 0.1-0.2 0-0.4 0-0.6-0.1-0.1 0-0.3-0.1-0.3-0.2z"/>
			<path id="&lt;Path&gt;" class="s5" d="m317.8 312c0.6 0.1 1.3 0.3 1.9 0.6q0.6 0.2 1.2 0.5 0.7 0.2 1.4 0.5c0.3 0.2 0.6 0.3 0.9 0.5q0.4 0.3 0.6 0.6c0 0.2-0.2 0.3-0.3 0.4-0.3 0.1-0.8 0-1.1-0.1-0.7-0.1-1.5-0.5-2.2-0.8-0.2-0.1-0.4-0.1-0.6-0.2q-0.3-0.1-0.5-0.1-0.2-0.1-0.4-0.2-0.3-0.1-0.5-0.2c-0.3-0.2-0.6-0.4-0.9-0.7 0-0.1-0.2-0.2-0.2-0.2q0-0.1 0-0.3c0-0.3 0.3-0.3 0.7-0.3z"/>
			<path id="&lt;Path&gt;" class="s5" d="m319.9 310.2c0.3-0.2 0.7-0.3 1 0 0.2 0.1 0.3 0.3 0.1 0.4-0.3 0.1-1 0.1-1.2-0.2z"/>
			<path id="&lt;Path&gt;" class="s5" d="m331.2 298.3q0.6 0 1.2 0.2c0.4 0 0.7 0.2 1.1 0.3q0.6 0.2 1.3 0.4c0.5 0.2 1 0.3 1.5 0.6 0.5 0.2 0.9 0.5 1.3 0.9 0.3 0.3 1 1.2 0.5 1.6-0.3 0.2-0.8 0.1-1.1 0-0.2 0-0.4-0.1-0.6-0.2q-0.4-0.2-0.7-0.4-0.7-0.4-1.4-0.8c-0.6-0.3-1.2-0.5-1.7-0.8-0.6-0.2-1.1-0.4-1.7-0.6-0.3-0.1-0.8-0.2-1-0.5-0.2-0.1-0.2-0.3-0.1-0.5 0.2-0.2 0.8-0.1 1-0.1-0.2-0.1 0-0.2 0.4-0.1z"/>
			<path id="&lt;Path&gt;" class="s5" d="m334.9 298.1q0.3 0 0.5 0.1c0.1 0.1 0.1 0.1 0.2 0.1q0.1 0.1 0.1 0.3c0 0.1 0 0.2-0.1 0.2-0.3 0.1-0.5 0-0.7-0.2-0.2 0-0.5-0.3-0.3-0.5z"/>
			<path id="&lt;Path&gt;" class="s5" d="m286.3 228.4c1.5 0 3-0.1 4.6-0.1 0.4 0 0.9 0 1.2 0.4 0.2 0.3 0 0.5-0.4 0.7-0.6 0.3-1.4 0.6-2.2 0.7-0.6 0.1-1.2 0.3-1.8 0.3-0.5 0.1-1.1 0.1-1.6 0.2-0.7 0.1-1.4 0.1-2.1 0.2q-1.1 0-2.2 0.1c-1.2 0-2.4 0.3-3.7 0.3q-1.1 0-2.1-0.1c-0.3 0-0.6 0-0.6-0.4 0.1-0.4 0.9-0.8 1.3-0.9 0.8-0.4 1.7-0.5 2.6-0.8 0.4-0.1 0.8-0.2 1.3-0.3 0.5-0.1 1.1-0.3 1.7-0.3 0.4-0.1 0.8 0 1.2 0q0.3 0 0.6 0 0.5 0.1 1 0.3c-0.9-0.4 0.9-0.3 1.2-0.3z"/>
			<path id="&lt;Path&gt;" class="s5" d="m289 227.3c0.7-0.3 1.5-0.6 2.3-0.4 0.3 0.1 0.8 0.3 0.5 0.6-0.2 0.1-0.4 0.1-0.6 0.1q-0.4 0-0.8 0c-0.5 0-1-0.2-1.4-0.3z"/>
			<path id="&lt;Path&gt;" class="s5" d="m293.3 229.4c0.3 0 0.8-0.2 1.2-0.2 0.1 0.1 0.3 0.1 0.4 0.2 0.3 0.1 0.6 0.2 0.8 0.4 0.4 0.4 0.1 0.5-0.3 0.7-0.4 0.1-0.9 0.1-1.3 0-0.2 0-0.5-0.1-0.6-0.2-0.1 0-0.5-0.4-0.2-0.4z"/>
			<path id="&lt;Path&gt;" class="s5" d="m317.7 232.6c0.5-0.1 1-0.1 1.4 0 0.5 0.2 0.8 0.3 1.1 0.5 0.4 0.2 0.6 0.5 0.8 0.9 0.9 1.9-2.6 1.4-3.5 1.3-0.3 0-0.6-0.1-0.9-0.1-0.3 0-0.5 0-0.8 0-0.5-0.1-1.1-0.1-1.6-0.2q-0.8-0.3-1.6-0.6c-0.2-0.1-1.1-0.3-1.2-0.6-0.1-0.3 0.2-0.4 0.4-0.4q0.3 0 0.6 0c0.4 0 0.7 0 1-0.1 0.3 0 0.7 0 1 0q0.5-0.1 1-0.2c0.7-0.2 1.4-0.3 2.1-0.5-1.1 0.4-0.5 0.1 0.2 0z"/>
			<path id="&lt;Path&gt;" class="s5" d="m334.2 240.2c0.4 0.1 0.7 0.3 1.1 0.5 0.4 0.3 0.8 0.6 1.2 0.8 0.4 0.2 1 0.4 1.3 0.7 0.2 0.3 0.5 1 0.2 1.4-0.3 0.4-0.8 0.2-1.2 0.1-0.8-0.3-1.3-0.8-1.9-1.5-0.4-0.5-0.9-1-0.8-1.7-0.3-0.2-0.3-0.4 0.1-0.3z"/>
			<path id="&lt;Path&gt;" class="s5" d="m252.1 234.3c0.2-0.2 0.4-0.2 0.6-0.3 0.6-0.2 1.1-0.4 1.7-0.3 0.6 0 1.3 0.3 1.7 0.8 0.3 0.5 0.2 1.1-0.1 1.6-0.4 0.6-1.1 0.9-1.8 1-0.4 0.1-0.7 0.2-1.1 0.2-0.4 0-0.9 0.1-1.3 0.1-0.6-0.1-1.3-0.4-1.2-1.1 0.1-0.9 0.9-1.5 1.6-1.9-0.7 0.3-0.2 0.1-0.1-0.1z"/>
			<path id="&lt;Path&gt;" class="s5" d="m254.4 231.8c0-0.6 2.1-0.8 2.1-0.1 0 0.6-1 0.8-1.4 0.7-0.2 0-0.6 0.1-0.8-0.1-0.1-0.2 0.1-0.5 0.2-0.7z"/>
			<path id="&lt;Path&gt;" class="s5" d="m235.8 242.3c0.6-0.5 1.1-0.9 1.8-1.3 1.2-0.7 2.4-1.2 3.7-1.5 0.8-0.3 2-0.4 2.9 0 0.3 0.1 0.8 0.4 0.7 0.8-0.1 0.4-0.5 0.7-0.7 0.9-0.5 0.3-0.9 0.5-1.4 0.7q-0.7 0.3-1.3 0.5c-0.5 0.1-0.9 0.4-1.4 0.6q-0.8 0.4-1.7 0.8c-0.6 0.4-1.2 0.6-1.8 1-0.4 0.3-0.8 0.6-1.2 0.8-0.1 0.1-0.5 0.2-0.6 0.2-0.3 0-0.5-0.4-0.5-0.6-0.1-0.5 0.1-0.9 0.3-1.4 0.6-0.9 1.4-2.2 1.2-1.5z"/>
			<path id="&lt;Path&gt;" class="s5" d="m235.1 246.9c0.1-0.4 0.9-0.5 1.2-0.4q0.5 0 0.9 0.3c0.2 0.2 0.4 0.4 0.3 0.7-0.1 0.4-0.4 0.5-0.7 0.6-0.3 0.1-0.5 0.2-0.7 0.3-0.3 0.1-0.5 0.1-0.8 0.1-0.2 0.1-0.9 0.4-1.2 0-0.1-0.2 0.1-0.6 0.2-0.8 0.3-0.4 0.7-0.6 1-0.9z"/>
			<path id="&lt;Path&gt;" class="s5" d="m253.3 246.8c0.1-0.4 0.7-0.5 1-0.5 0.2 0 0.4 0.1 0.7 0.1 0.1 0 0.5 0 0.5 0.2 0.2 0.3-0.3 0.5-0.6 0.6-0.2 0.1-0.4 0.1-0.6 0.1-0.3 0-0.4-0.1-0.6-0.4z"/>
			<path id="&lt;Path&gt;" class="s5" d="m246.5 263.6c0.6-0.5 1.4-1 2.2-0.8 0.2 0 0.4 0 0.5 0.2 0 0.2-0.1 0.3-0.2 0.3-0.3 0.2-0.5 0.2-0.8 0.2-0.2 0.1-0.4 0.2-0.6 0.2-0.2 0.1-0.4-0.1-0.6-0.1z"/>
			<path id="&lt;Path&gt;" class="s5" d="m234.3 305.8c0.8-1.1 2-2.3 3.2-2.9 0.7-0.2 2.1-0.4 2.5 0.3 0.4 0.5 0.1 1.4-0.2 2-0.2 0.6-0.7 1-1 1.5-0.2 0.3-0.3 0.7-0.6 0.9-0.8 0.8-2.3 1.6-3.5 1.1-0.6-0.3-0.8-0.9-0.8-1.5 0-0.9 0.4-1.4 1-2z"/>
			<path id="&lt;Path&gt;" class="s5" d="m243.2 300.3c0.4-0.5 0.7-0.7 1.1-0.4 0.4 0.2 0.7 0.4 0.6 1-0.1 1.1-1.7 1.6-2.6 0.9q0-0.4 0.3-0.8z"/>
		</g>
	</g>
</svg>