<svg version="1.2" xmlns="http://www.w3.org/2000/svg" viewBox="0 0 599 597" width="599" height="597">
	<title>planet2-svg</title>
	<defs>
		<radialGradient id="g1" cx="289.4" cy="277.4" r="63.4" gradientUnits="userSpaceOnUse">
			<stop offset=".8" stop-color="#008bc4"/>
			<stop offset="1" stop-color="#000000"/>
		</radialGradient>
		<radialGradient id="g2" cx="276.9" cy="258.2" r="80.9" gradientUnits="userSpaceOnUse">
			<stop offset="0" stop-color="#7cc5ff"/>
			<stop offset=".8" stop-color="#482088"/>
			<stop offset=".9" stop-color="#403b77"/>
			<stop offset="1" stop-color="#4d79d1"/>
		</radialGradient>
		<radialGradient id="g3" cx="322.9" cy="323.5" r="25.6" gradientUnits="userSpaceOnUse">
			<stop offset="0" stop-color="#2c6aff"/>
			<stop offset="1" stop-color="#000000"/>
		</radialGradient>
	</defs>
	<style>
		.s0 { mix-blend-mode: screen;fill: url(#g1) } 
		.s1 { fill: url(#g2) } 
		.s2 { mix-blend-mode: multiply;fill: #c4b0b8 } 
		.s3 { mix-blend-mode: soft-light;fill: #c4b0b8 } 
		.s4 { mix-blend-mode: soft-light;fill: #c4b0ff } 
		.s5 { mix-blend-mode: screen;fill: url(#g3) } 
	</style>
	<g id="&lt;Group&gt;">
		<path id="&lt;Path&gt;" class="s0" d="m352.8 277.4c0 35-28.4 63.4-63.4 63.4-9.6 0-18.8-2.2-27-6q-2.4-1.1-4.7-2.5c-6.1-3.5-11.6-8.1-16.3-13.4q-2.5-3-4.7-6.2-2.9-4.3-5.1-9.2c-3.6-7.9-5.6-16.8-5.6-26.1 0-9.3 2-18.2 5.6-26.2q1.8-3.8 4-7.3c3.2-5.2 7.1-9.8 11.6-13.8 11.2-10 26-16.1 42.2-16.1q7.8 0 15 1.8c6.8 1.6 13 4.3 18.7 7.9q1.7 1.1 3.3 2.2 1.3 1 2.6 2c4.1 3.3 7.9 7.1 11.1 11.4 6.6 8.8 11 19.5 12.3 31.1q0.4 3.4 0.4 7z"/>
		<path id="&lt;Path&gt;" class="s1" d="m348.2 277.4c0 32.5-26.3 58.8-58.8 58.8-8.9 0-17.4-2-25-5.6q-2.3-1-4.4-2.2c-5.7-3.3-10.8-7.6-15.1-12.5q-2.3-2.7-4.3-5.7-2.8-4.1-4.8-8.6c-3.4-7.4-5.2-15.6-5.2-24.2 0-8.6 1.9-16.9 5.2-24.3q1.6-3.5 3.7-6.8c3-4.8 6.6-9.1 10.8-12.8 10.4-9.3 24.1-14.9 39.1-14.9 4.8 0 9.5 0.6 14 1.7 6.2 1.5 12 4 17.3 7.3q1.5 1 3 2 1.2 0.9 2.4 1.9c3.9 3 7.3 6.6 10.3 10.5 6.2 8.3 10.3 18.1 11.5 28.9q0.3 3.2 0.3 6.5z"/>
		<g id="&lt;Group&gt;" style="opacity: .5">
			<path id="&lt;Path&gt;" class="s2" d="m347.9 270.9q-0.4 0.6-0.6 1.2c-0.2 0.6-0.5 1.1-0.8 1.7-0.4 0.6-0.6 1.4-0.9 2.1-0.7 1.6-1.2 3.3-1.8 4.9-0.6 1.9-1.2 3.7-2 5.4-0.3 0.8-0.8 1.5-1.2 2.3-0.4 0.8-0.7 1.6-1.1 2.3-1.1 1.9-2.1 3.7-3.2 5.5-2.1 3.3-4.5 6.2-6.9 9.2-1.2 1.5-2.6 2.8-4 4.2-1.5 1.6-2.9 3.3-4.5 4.8-1.3 1.2-2.6 2.3-4 3.3-0.8 0.5-1.6 1.1-2.4 1.7-1 0.6-2.3 1-3.4 1.6-3.7 1.7-7.6 2.8-11.5 4.1-3.8 1.2-7.4 2.9-11.3 3.8-0.8 0.2-1.6 0.3-2.4 0.5-0.9 0.1-1.7 0.4-2.6 0.5-1.8 0.2-3.5 0.8-5.3 0.9-1.3 0-2.4-0.2-3.7-0.3-1.6 0-3.1 0.1-4.7 0.2-1.7 0.2-3.5 0.1-5.2-0.2q-2.3-1-4.4-2.2 0.1 0 0.2 0c1 0.3 1.9 0.9 3 1.2q1.7 0.3 3.3 0.6c1.6 0.3 3 0.2 4.5 0 0.8-0.1 1.6-0.2 2.4-0.4 0.9-0.2 1.8 0.1 2.6-0.1 1.2-0.3 2.6-0.1 3.8-0.1 2.1-0.1 4.2-0.9 6.2-1.3 2.3-0.5 4.5-1.3 6.8-1.6 1.3-0.1 2.3-0.6 3.6-1 1-0.3 1.7-0.9 2.6-1.6 1.7-1.2 3.5-2.5 5.5-3.4 2-0.8 4.1-1.4 6.2-1.8 1.7-0.3 3.6-1.2 4.9-2.4q0.9-0.8 1.8-1.6c0.7-0.6 1.4-1.2 2.1-2 0.7-0.8 1.5-1.5 2.3-2.4 0.8-0.9 1.4-1.9 2.2-2.9 1.2-1.4 3.2-2.2 4.4-3.7 0.3-0.3 0.4-0.7 0.7-1 0.3-0.3 0.6-0.5 0.7-0.9 0.3-0.5 0.8-1.6 0.5-2.2-0.6-1.1-3.5 1.8-4 2.2-0.7 0.7-1.3 1.4-2.2 1.9-0.5 0.3-1 0.6-1.6 0.9-0.9 0.3-2 0.4-3 0.6-2.7 0.6-5.5 0.9-8.3 1.3-3.7 0.6-7.5 1.4-11.2 2.3-3.5 0.8-6.9 1.8-10.3 2.6-1.9 0.5-3.7 0.9-5.5 1.3-2.3 0.5-4.5 1.2-6.8 1.7-3.7 0.7-7.4 1.5-11.2 1.6-3 0.1-5.9 0.2-8.9 0.2-4 0-8.3 0.4-12.2-0.5q-0.1 0-0.2 0-2.3-2.7-4.3-5.7c1.4 0.6 2.9 1.1 4.5 1.4 1.1 0.2 2.3 0.4 3.2 1.1 0.6 0.5 1.2 0.9 2 1.1 2.5 0.8 4.8 0.8 7.4 0q1.4-0.4 2.8-0.9c0.7-0.2 1.4-0.6 2.1-0.8 1.9-0.5 4-0.9 6-1.3 0.9-0.3 1.9-0.4 2.9-0.7 1-0.4 2-0.9 3-1.3 2-0.8 3.8-1.6 5.8-2 1.3-0.2 2.9-0.4 4.1-1 0.3-0.2 0.9-0.4 0.9-0.9-0.1-0.7-0.9-0.5-1.4-0.4-1.3 0.2-2.7 0.3-4 0.7-2.4 0.6-4.8 0.9-7.2 1.1-3.7 0.2-7.4 0.4-11.1 0.2-2.9-0.1-5.8-0.4-8.7-0.3-2.8 0-5.6-0.2-8.2-1.1-3-1-6.1-1.9-8.9-3.5-3.4-7.4-5.2-15.6-5.2-24.2 0-8.6 1.9-16.9 5.2-24.3-0.4 1.1-0.7 2.2-1.2 3.2-0.8 2.1-1.4 4.2-1.4 6.4 0 0.9 0.1 1.8 0 2.6-0.1 1.1-0.2 1.8 0.1 2.9 0.2 0.8 0.3 1.6 0.6 2.3 0.2 0.3 0.3 0.5 0.5 0.7 0.2 0.2 0.3 0.5 0.5 0.8 0.4 0.7 1.1 1.8 1.9 2.2 0.6 0.3 1.2 0.5 1.8 0.7 0.6 0.2 0.9 0.3 1.6 0 0.5-0.2 1.2-0.4 1.8-0.4 0.3-0.1 0.6 0.1 0.9 0.2 0.4 0 0.8 0 1.3 0.1 1.7 0.4 3.4 0.8 5.2 0.8 1.4-0.1 2.7 0.2 4.1 0.2 1.7 0 3.4 0 5.1-0.2 1.1-0.1 2.3-0.4 3.5-0.5 1.1-0.1 2.3 0 3.5 0 4 0 8.2-1 11.6-3 1.9-1.1 3.9-2 6-2.6 2.7-0.7 5.4-1.5 8.2-2 2.5-0.5 5-1.4 7.4-2.4 1-0.5 2-1.1 2.9-1.8 0.9-0.6 1.8-1 2.7-1.6 2.4-1.8 4.5-3.9 6.7-6 1.2-1.3 2.4-2.5 3.7-3.6 1-1 2.1-1.4 3.5-1.7 2.1-0.5 3.3-2.9 4.4-4.7 1.5-2.1 2.7-4.6 2.8-7.3q0-1.6-0.3-3.3c-0.1-0.5-0.2-1-0.4-1.4-0.1-0.3-0.3-0.6-0.4-0.9-0.1-0.2-0.1-0.5-0.1-0.7-0.1-0.2-0.2-0.5-0.3-0.7-0.1-0.5-0.3-1.2-0.3-1.7v-0.1q1.2 0.9 2.4 1.9c0 0.2 0.1 0.4 0 0.7 0 0.2-0.1 0.5-0.2 0.7-0.1 0.4-0.2 0.7-0.2 1.1 0 0.5 0 0.9 0.1 1.4 0.3 1.1 1 2.1 1 3.2 0 1.2-0.3 2.3-0.8 3.4-0.4 1-0.8 2-1.4 3-0.3 0.7-0.6 1.3-1.1 1.9-0.4 0.5-0.9 1.1-1.2 1.7q-0.4 0.7-0.7 1.4c-0.4 0.9-1 1.4-1.7 2.1-1.4 1.4-3.2 2.5-4.7 3.8-1.2 1-2.5 2.2-3.4 3.5-0.4 0.6-2.6 2.3-2 3.2 0.2 0.4 1.1 0.3 1.4 0.3 0.9 0 1.8-0.2 2.6-0.6 2.1-1 4.3-2.1 6.5-2.8 1.1-0.3 2.1-0.5 3.1-0.9 1.2-0.5 2.3-1.2 3.4-1.8 0.8-0.6 1.4-1.3 2-2 0.4-0.4 0.9-0.7 1.3-1.1 0.4-0.5 0.7-1 1.2-1.4 1.3-1 2.4-2.2 3.4-3.6 0.8-1.2 1.1-2.7 1.5-4.1 0.1-0.4 0.2-0.7 0.2-1.1q0-0.7 0-1.4v-0.1c6.2 8.3 10.3 18.1 11.5 28.9z"/>
			<path id="&lt;Path&gt;" class="s2" d="m321 232.6c-0.2 1.3-0.3 2.6-0.6 3.9-0.2 1.4-0.3 2.9-0.8 4.1-0.9 2.1-1.2 4.5-2.7 6.3-0.6 0.8-1 1.7-1.8 2.3-0.3 0.3-0.6 0.4-1 0.6-0.3 0.2-0.6 0.5-0.9 0.7-1.5 1.1-3.1 2.3-4.5 3.6-1.5 1.4-2.9 2.8-4.6 4-0.5 0.3-1.1 0.6-1.6 0.9-0.4 0.2-0.8 0.5-1.3 0.7-0.6 0.2-1 0.3-1.5 0.7-0.4 0.3-0.9 0.6-1.4 0.8-0.8 0.3-1.6 0.7-2.5 1-0.3 0.2-0.7 0.3-1.1 0.4-1.1 0.4-1.9 0.4-3.3 0.5-0.5-0.2-0.1-0.2 0.2-0.4 0.3-0.1 0.4-0.2 0.6-0.4 0.3-0.3 0.7-0.7 1-0.9 0.7-0.5 1.5-0.7 2.2-1.1 0.8-0.6 1.7-1.2 2.5-1.8 0.7-0.5 1.2-1.2 1.8-1.8 0.6-0.7 1.4-1.3 2.1-1.9 0.7-0.7 1.4-1.5 2.2-2.2 0.9-0.8 1.5-1.6 2.1-2.6 0.2-0.4 0.6-0.7 0.8-1.1 0.2-0.4 0.5-0.8 0.6-1.2 0.2-0.5 0.5-0.9 0.7-1.4 0.3-0.6 0.3-1.2 0.4-1.8q0.5-2.6 1-5.2c0.3-1.5 0.3-3 0.3-4.5 0.1-1.4 0.5-2.8 0.5-4.2 0-0.6 0-1.1-0.2-1.6-0.3-0.7-0.7-1.3-0.9-2-0.7-2.1-2.1-4.1-3.9-5.4-0.3-0.2-1.2-0.7-2-1.3 6.2 1.5 12 4 17.3 7.3 0.5 1.6 0.6 3.4 0.3 5z"/>
			<path id="&lt;Path&gt;" class="s2" d="m304 232.7c-0.1 0.7-0.6 1.3-0.8 2q-0.3 1.2-0.5 2.4c-0.2 1.3-0.1 2.5-0.2 3.8-0.3 2.4-1.1 4.8-2.2 6.9-1 2.2-2.8 3.9-4.8 5.3-2 1.4-4.3 2.4-6.5 3.4-1.3 0.6-2.6 0.9-3.9 1.4-1.1 0.4-2.2 0.8-3.3 1.3-1.1 0.4-2 1.1-3.1 1.5q-1 0.3-2 0.6c-1.1 0.4-2.2 1.1-3.3 1.5q-2.4 1-4.9 1.6c-1.6 0.4-3.2 0.2-4.9 0-1.4-0.2-2.8-0.3-4.2-0.6-2.5-0.6-5.2-0.5-7.8-0.5-1.9 0-4.2 0.2-5.9-0.8-0.5-0.3-1-0.7-1.3-1.2-0.3-0.6-0.4-1.4-0.5-2.1-0.3-1.5-1.7-2.4-2.6-3.5-1.2-1.3-1.7-3.1-1.9-4.8-0.2-1.4-0.2-3.2 0.1-4.6 3-4.8 6.6-9.1 10.8-12.8-1 1.9-1.8 3.9-2.6 5.8-1.3 2.9-2.5 6-2.4 9.3 0.1 1.2 0.2 2.6 0.8 3.7 0.6 0.9 1.4 1.5 2.2 2 1.4 0.8 2.8 1.7 4.2 2.3q2.5 0.9 5 1.9c0.9 0.3 1.9 0.7 2.9 0.9 1.2 0.1 2.6 0 3.8 0 4.6-0.1 8.7-2.2 13-3.5 1.4-0.4 2.8-0.6 4.1-1.1 0.9-0.3 1.6-0.6 2.4-1 1.9-1 4-1.8 5.7-3 1.8-1.2 3.4-2.7 4.8-4.3 1-1.3 1.5-2.5 2-4.1 1.1-3.1 1.4-6 1.7-9.2 0.1-1.4 0.6-2.6 0.9-3.9 0.2-0.9 0.1-1.9-0.6-2.5-1.4-1.2-3.5-2-5.2-2.4-1.1-0.3-2.2-0.7-3.3-0.6q-1.7 0-3.3 0c-1.1 0-2.1-0.3-3.2-0.3-1.2 0-2.4 0.4-3.6 0.5q-2 0.1-3.9 0.5c-1.5 0.2-3 0.8-4.5 1.3-2.8 0.8-5.7 2.2-8.1 4.1-0.6 0.4-1.2 0.8-1.9 1.2-0.5 0.4-0.7 0.8-1.1 1.4-0.8 1.2-1.2 2.2-1.5 3.6-0.3 0.9-0.2 1.8-0.2 2.8 0 1.2-0.2 2.6-0.4 3.8-0.3 1.7-2 4.4-0.1 5.8 0.5 0.4 1.1 0.5 1.8 0.4 0.9-0.1 1.9-0.4 2.8-0.7 2.6-0.7 5.3-1.5 8-1.9 0.8-0.1 1.5 0 2.4-0.2 0.5-0.2 0.9-0.3 1.4-0.4 1.2-0.2 2.4-1 3.3-1.8 0.4-0.3 0.8-0.8 1.2-1.1 0.6-0.5 1.3-0.8 1.9-1.3 0.8-0.8 1.6-1.6 2.3-2.4 1.6-1.6 2.7-3.7 4-5.4 0.8-1.2 1.7-2.4 2-3.8 0.1-1.1-1.2-1.7-2-2-0.8-0.4-1.9-0.6-2.8-0.4-1.3 0.2-2.5 1-3.8 1.5-2.7 1.2-5.7 1.5-8 3.4-0.9 0.7-0.9 1.3-1.1 2.3-0.2 0.4-0.5 0.9-0.7 1.3-0.4 0.7-0.4 0.8-0.2 1.5 0.2 0.7 0.3 1.6 1.1 1.9 0.7 0.3 1.8 0.1 2.4-0.3 0.3-0.2 0.6-0.5 1.1-0.6 0.2-0.1 0.8-0.4 1.1-0.3 0.4 0.1 0.1 0.4-0.1 0.6-0.2 0.3-0.3 0.4-0.4 0.7-0.1 0.2-0.1 0.5-0.2 0.7-0.7 0.8-2.1 1.2-3.1 1.5-0.8 0.3-1.4 0.6-2.4 0.6-1.2 0-0.7-0.9-0.9-1.8-0.2-1.1-1.5-1.5-1.7-2.7-0.1-1.2 0.2-2.6 0.7-3.6 0.2-0.5 0.5-0.8 0.8-1.3 0.5-0.7 1.1-1.1 1.8-1.5 2.1-1.4 4.7-2.1 7-2.8 2.3-0.8 4.9-1 7.2-1.8 1.6-0.5 3.2-0.7 4.8-1 1.5-0.3 2.8 0.3 3.5 1.7 0.6 1.4 1.4 3 0.9 4.6-0.6 2.2-1.3 4.4-2.5 6.4-1.4 2.4-3.1 4.7-5.7 6.1-1.8 1-3.8 1.5-5.7 2.2-1.5 0.6-3 1-4.5 1.3-2.4 0.3-4.6 1.7-7 2.3q-4.8 1.2-9.7 1.9c-1.3 0.2-2.3 0.3-3.6 0.1-0.5 0-1 0-1.6-0.2q-0.5-0.3-1.1-0.5c-1.3-0.6-2.5-1.5-2.3-3 0.1-1.5 0.6-3 0.9-4.4 0.2-1 0.2-1.9 0.4-2.8q0.3-1.1 0.6-2.2c0.1-0.6 0.4-1.3 0.7-1.8 0.7-1 1.2-2.1 2-3 0.3-0.4 0.6-0.7 0.8-1.1 0.2-0.4 0.3-0.6 0.6-0.9 0.3-0.3 0.5-0.7 0.8-1 0.5-0.6 1.2-1 1.8-1.4 1.4-1.1 3-2 4.5-2.7 1.6-0.7 3.2-1.1 4.8-1.7 1.4-0.5 2.8-1.2 4.2-1.8 1.5-0.6 3.3-1 5-1.2 3.4-0.4 6.8-0.7 10.2-0.7 4.3 0 9-1.6 13.1 0.4 1.1 0.6 1.8 1.3 2.3 2.4 0.7 1.7 1.1 3.7 1 5.5 0 0.8 0.1 1.6 0 2.4z"/>
		</g>
		<g id="&lt;Group&gt;" style="opacity: .6">
			<path id="&lt;Path&gt;" class="s3" d="m237.5 251.1c0.3 0.8 0.7 1.5 1 2.3 0.2 0.6 0.3 1.1 0.7 1.7 0.3 0.5 0.5 1.1 0.8 1.6 0.3 0.6 0.6 1.3 0.8 1.9 0.1 0.5 0.1 1 0.3 1.5q0.2 0.9 0.5 1.9c0.1 0.4 0.3 0.7 0.5 1.1 0.3 0.3 0.5 0.9 0.9 1.2 1.1 0.8 2.8 0.4 4.1 0.3 1.3-0.1 2.5-0.1 3.7-0.3 0.6-0.1 1.3-0.1 2-0.1 0.5 0.1 1.2 0.1 1.8 0.3 0.5 0.1 1 0.1 1.6 0.2 0.7 0.1 1.5 0.3 2.2 0.3 0.9 0.1 1.8 0.2 2.6 0.2 1.2 0.1 2.5-0.1 3.7 0.1 1.1 0.1 2.1 0.3 3.2 0.3 1.4 0 2.8-0.5 4.1-0.9 2.1-0.8 4.4-1.5 6.5-2.2 0.8-0.3 1.6-0.8 2.3-1.2 0.6-0.4 1.4-0.7 2-1.1 1.1-0.8 2.6-1.3 3.9-1.6 1.4-0.3 2.7-0.8 4-1.1 0.9-0.2 1.8-0.6 2.7-0.8-0.1 0.7-1.7 1-2.2 1.2-1.3 0.5-2.7 0.7-4 1.3-0.8 0.3-1.3 1-2 1.6-0.6 0.6-1 1.1-1.7 1.6-0.7 0.5-1.3 0.7-2.2 0.9-1.7 0.4-3.4 1-5.2 1.4-1.7 0.3-3.4 0.7-5 1.5-0.4 0.2-1.7 0.7-1.8 1.3 0 0.5 0.6 0.4 1 0.4 0.7 0 1.8-0.2 2.5 0.1 0.6 0.2 1 0.5 1.6 0.6 1.2 0.3 2.8 0 4-0.4 1.6-0.7 3.4-1 5.2-1.3q1.8-0.5 3.6-0.9c0.9-0.2 1.8-0.2 2.8-0.3q2.1-0.2 4.1-0.5c1.1-0.2 2.3-0.3 3.3-0.8 0.8-0.4 1.8-0.6 2.5-1.2 0.2-0.2 1.3-1.1 1.6-0.9 0.5 0.5-2.6 2.2-2.8 2.3-1 0.7-2 1.1-3.1 1.6-1.4 0.5-2.8 0.8-4.2 1.2-1.7 0.4-3.3 0.7-5 1.1-1.6 0.4-3.3 0.6-4.9 1.2-0.9 0.3-1.7 0.5-2.4 0.9-0.7 0.4-1.5 0.6-2.2 1-1.5 0.8-2.9 2-4.6 2.5-1.4 0.5-2.9 0.8-4.4 1-1.9 0.1-3.9-0.2-5.8-0.4q-3-0.3-6-0.3c-1.9 0-3.7 0.4-5.6 0.5-1.3 0.1-2.3-0.4-3.5-0.8-1.3-0.5-2.4-1.1-3.6-1.9-1-0.6-2.2-1-3.5-0.9-0.2 0-0.4 0.1-0.7 0.2-0.3 0-0.6-0.1-0.8-0.3-1.1-0.5-2.2-1.3-2.8-2.4-0.5-1.2-0.8-2.5-1-3.8-0.1-0.8 0-1.6 0-2.3 0-1-0.2-2-0.2-3 0-1.6-0.2-3.3 0.3-4.8 0.5-1.5 1.5-2.8 2.4-4.1 0.5-0.7 0.9-1.4 1.4-2.1 0.2 0.4-0.3 1.1-0.4 1.5-0.1 0.5-0.3 1.5-0.6 0.9z"/>
			<path id="&lt;Path&gt;" class="s3" d="m312.3 259.1c0.2-0.3 0.5-0.6 0.7-0.8 0.5-0.5 0.9-0.8 1.4-1 0.4-0.2 0.8-0.6 1.1-0.8 0.5-0.3 1-0.6 1.4-0.9 0.4-0.4 0.7-0.8 1.1-1.2 0.5-0.5 1-0.8 1.5-1.2q1.5-1 3-1.9c1-0.6 1.7-1.4 2.5-2.1 0.9-0.8 1.8-1.4 3-1.6 0.9-0.1 2 0 2.2 1.1 0 0.4 0 1-0.1 1.4-0.1 0.9-0.3 1.9-0.6 2.7-0.3 0.6-0.7 1.2-1 1.8-0.5 0.8-1.1 1.3-1.7 1.9-1 0.9-2 1.8-3.2 2.3-1.3 0.6-2.7 0.9-4.1 1.5-0.6 0.2-1.2 0.3-1.7 0.5-0.7 0.3-1.3 0.7-2 1-1.2 0.5-2.4 0.6-3.6 0.8-0.6 0.1-1.5 0.2-1.3-0.6 0.1-0.8 0.9-1.6 1.4-2.2-0.3 0.7-0.3-0.1 0-0.7z"/>
			<path id="&lt;Path&gt;" class="s3" d="m325.7 243.8c0.2-0.7 0.4-0.9 0.9-1.2 0.4-0.2 0.7-0.2 0.9 0.2 0.5 0.7 0.1 1.7-0.2 2.4-0.2 0.5-1 1.1-1.4 0.4-0.3-0.5-0.3-1.8 0.3-2z"/>
			<path id="&lt;Path&gt;" class="s3" d="m276.6 266.5c0.3-0.5 0.3-0.6 0.9-0.8 0.4-0.1 0.6-0.3 1-0.3 0.5 0 1-0.3 1.5-0.1 0.7 0.2 0.6 0.9 0.1 1.3-0.3 0.2-0.5 0.4-0.8 0.4-0.3 0.1-0.7 0.2-1.1 0.2-0.7 0-1.2 0-1.8-0.4q0-0.1 0.2-0.3z"/>
			<path id="&lt;Path&gt;" class="s3" d="m249 308c1.9 0.7 3.9 1 5.9 1 2.3 0.1 4.7 0 7-0.2 1.6-0.1 3.1-0.1 4.7-0.3 0.8-0.1 1.5-0.1 2.2-0.1 0.5-0.1 0.9-0.3 1.3-0.2 1.7 0.5-1.2 1.5-1.6 1.6-1.1 0.6-2.5 0.8-3.7 1.2q-0.8 0.2-1.5 0.4c-0.4 0.2-0.8 0.4-1.3 0.5-2 0.4-3.9 0.6-5.8 1-0.7 0.2-1.5 0.3-2.2 0.2-0.8-0.2-1.5-0.6-2.2-1-0.8-0.4-1.7-0.8-2.5-1.3-0.3-0.3-0.8-0.6-1.1-0.9-0.2-0.3-0.2-0.4-0.3-0.7-0.2-0.5-0.2-0.7 0.2-1.1q0.6-0.4 1.2-0.2c0 0 0 0.1-0.3 0.1z"/>
			<path id="&lt;Path&gt;" class="s3" d="m300.3 326.7c0.4-0.2 0.9-0.4 1.3-0.5q0.6-0.3 1.2-0.5c0.4-0.1 0.8-0.4 1.3-0.6 0.9-0.3 1.8-0.8 2.7-1.2 0.6-0.3 1.4-0.5 2.1-0.7 1.5-0.6 3.3-1.1 4.9-1.3 0.5-0.1 2.7-0.4 2.4 0.6-0.3 1.3-1.6 1.9-2.5 2.7-0.7 0.6-1.5 1-2.3 1.5q-1.2 0.7-2.5 1.1c-1.1 0.4-2.3 0.8-3.5 1-0.9 0.2-1.8 0.3-2.7 0.5-1.4 0.1-2.7 0.4-4.1 0.5-0.8 0.1-2 0.3-2.7-0.1-0.6-0.4-0.1-0.8 0.3-1.1 0.8-0.6 1.7-0.9 2.7-1.2-0.6-0.1 0.4-0.4 1.4-0.7z"/>
			<path id="&lt;Path&gt;" class="s3" d="m317.1 319.7c0.1-0.5 0.5-0.8 0.9-1.2 0.3-0.3 0.6-0.7 1.1-0.7 0.4-0.1 0.9 0.3 0.8 0.7-0.1 0.2-0.4 0.4-0.5 0.6-0.2 0.3-0.3 0.5-0.6 0.6-0.6 0.3-1.1 0.3-1.6 0.1z"/>
			<path id="&lt;Path&gt;" class="s3" d="m322.6 307.6c-0.2 0.4-0.5 0.6-0.7 1-0.5 0.6-1.1 1.2-1.6 1.8-0.6 0.8-1.3 1.6-2.1 2.2-0.3 0.3-0.6 0.7-0.9 1q-0.4 0.3-0.7 0.5c-0.5 0.5-1.1 0.8-1.6 1.2q-1.2 0.8-2.4 1.5c-0.9 0.5-1.7 0.8-2.6 1.1-1.3 0.5-2.7 0.6-4 0.5-1.3-0.1-2.7-0.2-3.9-0.4q-1.9-0.3-3.8-0.5c-0.8-0.2-1.7-0.2-2.4-0.7-0.5-0.3-0.7-0.6-0.5-1.2 0.2-0.3 0.4-0.6 0.7-0.9q0.6-0.6 1.2-1.2c1.4-1 2.8-1.9 4.3-2.7 1.7-0.9 3.5-1.7 5.3-2.3 2.2-0.7 4.6-0.9 6.9-1.1 1.3-0.1 2.6-0.2 3.9-0.4 1-0.1 2-0.1 3-0.3 0.3 0 0.7-0.1 1-0.2 0.4-0.1 0.8-0.4 1.3-0.6-0.1 0.6-0.3 1.5-0.4 1.7z"/>
			<path id="&lt;Path&gt;" class="s3" d="m325.7 304.1c0.2-0.5 0.4-0.7 0.8-1 0.3-0.3 0.7-0.7 1-0.9 0.3 0 0.5 0 0.6 0.1 0.2 0.2 0.2 0.4 0.2 0.6-0.1 0.5-0.5 0.8-0.9 1-0.5 0.3-0.8 0.1-1.3 0.1z"/>
			<path id="&lt;Path&gt;" class="s3" d="m342 288.5c0-0.2 0.1-0.5 0.2-0.7 0.1-0.2 0.1-0.5 0.2-0.8 0.1-0.4 0.2-0.9 0.4-1.3q0.2-0.3 0.4-0.7c0.1-0.2 0.2-0.5 0.3-0.8 0.3-0.8 0.3-1.7 0.7-2.5q0.5-1 1.4-1.7c0.2-0.1 0.4-0.3 0.6-0.1 0.2 0.1 0.3 0.4 0.3 0.7 0.2 0.8 0.1 1.6 0.1 2.5-0.1 1.2-0.4 2.3-0.6 3.5-0.1 1.1-0.2 2.2 0 3.3 0.3 2.5-1 4.9-2.2 6.9-1.3 2-2.9 3.9-4.8 5.4-0.7 0.5-1.7 1.4-2.7 1.2-0.7-0.1-0.6-1.1-0.5-1.7 0.1-0.8 0.4-1.6 0.8-2.3q0.4-1.1 0.9-2.1c0.6-1.4 1.2-2.9 1.9-4.3 0.4-0.6 0.8-1.2 1.1-1.8 0.3-0.5 0.6-1 1-1.4 0.3-0.4 0.6-0.9 0.9-1.3 0.2-0.3 0.4-0.5 0.7-0.7-1.1 1.1-1.1 0.9-1.1 0.7z"/>
			<path id="&lt;Path&gt;" class="s3" d="m333.9 302.3c0.4-0.1 0.8-0.2 0.7 0.4 0 0.3 0 0.5-0.3 0.8-0.2 0.1-0.4 0.3-0.6 0.4-0.2 0.1-0.5 0.2-0.6 0.1-0.5-0.3 0.7-1.5 0.9-1.7z"/>
			<path id="&lt;Path&gt;" class="s3" d="m336.8 305.1c0.3-0.4 0.4-0.5 0.7-0.7 0.3-0.1 0.5-0.3 0.8-0.3 0.4-0.1 0.6 0.1 0.6 0.4 0.1 0.7-0.7 1.5-1.1 2-0.4 0.6-0.9 1.2-1.5 1.6-0.8 0.7-1.4-0.4-1.1-1.1 0.2-0.5 0.2-1.1 0.5-1.5 0.5-0.6 1.2-0.6 1.9-0.8z"/>
			<path id="&lt;Path&gt;" class="s3" d="m272.9 234c0.1-0.4 0.3-0.8 0.5-1.1 0.9-1.1 2.5-1.9 3.7-2.5 2.2-1 4.4-1.7 6.7-2.2 1.1-0.3 3.4-0.2 3.2 1.5 0 0.8-0.6 1.3-1 1.9-0.7 1-1.5 1.9-2.5 2.6-1.7 1.2-3.8 1.4-5.8 1.9-1.1 0.2-2.1 0.8-3.1 1.2-0.5 0.2-2 0.8-2.5 0.2-0.3-0.3-0.2-1.1 0-1.4 0.2-1 0.5-1.3 1.3-1.9-0.8 0.8-0.6 0-0.5-0.2z"/>
			<path id="&lt;Path&gt;" class="s3" d="m277.7 238.8c-0.3-0.6-0.4-0.6 0.1-1 0.3-0.2 0.8-0.6 1.2-0.7 0.4-0.2 1.1-0.5 1.6-0.4 1.2 0.1 0.6 1.4 0.3 2-0.2 0.4-0.4 0.8-0.8 1-0.4 0.2-0.7 0.4-1.2 0.2-0.3-0.1-0.7-0.3-0.9-0.6-0.2-0.1-0.7-0.5-0.6-0.8q0.1 0 0.1 0z"/>
			<path id="&lt;Path&gt;" class="s3" d="m269.7 252.9c0-0.5 0-0.6 0.3-1 0.5-0.5 1.2-0.9 1.8-1.3 1.4-0.8 2.8-1.5 4.4-2 1.3-0.4 2.7-0.7 4.1-0.9 1.1-0.2 2.1-0.6 3.1-0.7 1.7-0.2 3.7-1 5 0.5 1 1.3-0.9 2.9-1.8 3.6-0.8 0.6-1.7 0.9-2.7 1.2q-1.6 0.4-3.3 0.9c-2.1 0.5-4.1 1.5-6.1 2.3-1.4 0.5-2.4 0.5-3.6-0.3-0.7-0.5-1.8-1.7-1.2-2.3z"/>
			<path id="&lt;Path&gt;" class="s3" d="m288.5 243.8c0.6-0.7 1.1-1.7 2.1-1.2 0.5 0.2 0.7 0.7 0.4 1.2-0.3 0.4-0.8 0.7-1.2 1-0.3 0.3-0.7 0.7-1.2 0.5-0.9-0.3-0.2-1.2 0.1-1.7z"/>
			<path id="&lt;Path&gt;" class="s3" d="m304.4 233.8c0.2-0.8 0.5-1.5 0.9-2.2 0.2-0.4 0.4-0.5 0.8-0.8 0.3-0.3 0.7-0.7 1.1-0.4 0.4 0.3 0.6 0.9 0.7 1.3 0.2 0.8 0.1 1.7 0.1 2.5 0.1 0.9-0.2 1.7-0.7 2.3-0.3 0.4-0.5 0.8-0.8 1-0.2 0.2-0.6 0.4-0.9 0.5-1.1 0.6-2 0.3-2.2-1-0.1-1.4 0.5-2.5 1.4-3.4z"/>
			<path id="&lt;Path&gt;" class="s3" d="m286.2 261.8c0.1-0.6 0.1-0.7 0.5-1 0.3-0.3 0.7-0.6 1-0.8 0.6-0.3 1.6-0.6 2.3-0.7 0.6 0 1.3 0 1.8 0.3 0.4 0.2 0.4 0.6 0.3 1-0.1 0.6-0.7 1-1.1 1.4-0.5 0.3-1.1 0.8-1.6 0.9-0.7 0.2-1.4 0.3-2.1 0.1-0.4-0.1-1.2-0.3-1.2-0.9z"/>
			<path id="&lt;Path&gt;" class="s3" d="m294.3 256.1c0.4-0.6 0.6-1.1 1.2-1.5 0.3-0.2 1-0.7 1.3-0.7 0.2 0 0.5 0.3 0.6 0.6 0 0.3-0.3 0.7-0.4 0.9-0.4 0.5-0.9 1-1.4 1.2-0.3 0.1-0.5 0.2-0.8 0.1-0.3-0.1-0.5-0.4-0.7-0.5z"/>
			<path id="&lt;Path&gt;" class="s3" d="m265.2 229.3c0.9-0.5 1.9-0.8 2.9-0.8 0.7 0 1.7 0.3 2.1 0.9 0.4 0.8-0.1 1.4-0.5 2-0.9 1.1-2.4 1.3-3.5 2-1.2 0.8-2.5 1.7-3.9 2.1-0.5 0.2-1.1 0.4-1.5 0-0.3-0.2-0.3-0.6-0.2-0.9 0.2-1.2 0.9-2 1.7-2.8 0.3-0.5 1.4-1.6 2.9-2.5z"/>
			<path id="&lt;Path&gt;" class="s3" d="m257.5 228.7c0.4-0.5 0.7-1.2 1.2-1.6 0.2-0.1 0.5-0.3 0.8-0.4 0.5-0.3 1-0.6 1.5-0.8 0.4-0.1 2.1-0.5 2.3 0.1-0.2 0.2-0.3 0.4-0.5 0.5-0.3 0.2-0.6 0.2-0.9 0.4-1.3 0.8-2.6 1.2-4.2 1.4z"/>
		</g>
		<g id="&lt;Group&gt;" style="opacity: .5">
			<path id="&lt;Path&gt;" class="s2" d="m307.8 264.1c0.2 1.4-0.1 2.6-0.8 3.8-0.5 0.9-1.3 1.8-2.2 2.4-0.5 0.3-0.9 0.6-1.4 0.8q-0.7 0.2-1.3 0.4c-0.6 0.3-1.1 0.5-1.7 0.7-0.4 0.3-0.9 0.6-1.4 0.9-0.9 0.4-1.9 0.8-2.9 1-0.8 0.2-1.6 0.4-2.4 0-0.5-0.2-0.9-0.6-1.1-1.1-0.4-0.7-0.3-1.7 0.1-2.5 0.6-1.3 1.7-2.3 2.9-3.1 1.3-0.7 2.5-1.2 3.8-1.7 1-0.3 2-0.6 2.9-1 0.7-0.3 1.4-0.7 2.2-1.1 0.5-0.1 1-0.5 1.4-0.7 0.9-0.4 1.7 0.2 1.9 1.2z"/>
			<path id="&lt;Path&gt;" class="s2" d="m290.5 271.9c-0.5 0.9-0.8 1.8 0.2 2.5 0.7 0.5 1.6 0.9 2.4 1.2 1.1 0.5 2.3 0.3 3.4 0.1 2.8-0.6 5.3-2.3 7.8-3.6 1-0.5 2-0.9 3.1-1.2 0.6-0.2 1.2-0.5 1.9-0.6 0.6-0.1 1.3 0 1.8 0.2 0.6 0.3 0.6 0.9 0.6 1.5-0.1 0.8-0.6 1.7-1.1 2.4-0.9 1.1-2 2.1-2.9 3.2-0.5 0.6-1 1.1-1.4 1.6-0.4 0.6-0.7 1.2-1.1 1.8-0.5 0.9-0.9 1.8-1.5 2.6-0.4 0.5-0.8 1-1.3 1.4-0.5 0.5-1.2 0.8-1.8 1.2-0.7 0.4-1.5 0.9-2.3 1.3-0.9 0.4-1.8 0.7-2.8 0.9-1.7 0.5-3.5 1-5.2 1.3-2.2 0.5-4.3 0.8-6.5 1.2q-2.6 0.5-5.3 1c-3.9 0.8-8 1.1-12 0.6-3.1-0.3-6.4-0.5-9.2-2-2-1-4.4-2.2-5.6-4.2-0.3-0.5-0.6-1.1-0.6-1.8 0-0.9 0.8-1.8 1.4-2.4 1.3-1.2 2.8-1.7 4.4-2.3 1.5-0.6 3-0.9 4.6-1.3q1.4-0.3 2.7-0.6c0.9-0.2 1.8-0.3 2.6-0.5q2.2-0.4 4.4-0.9 3.6-0.8 6.6-2.7c0.9-0.5 1.9-1 2.8-1.5 0.9-0.4 1.9-0.7 2.9-1 1.8-0.4 3.6-0.6 5.4-1 0.4-0.1 0.8-0.2 1.2-0.2 0.4 0 0.6-0.1 0.9 0.3 0.2 0.1-0.3 1.1-0.5 1.5z"/>
			<path id="&lt;Path&gt;" class="s2" d="m345.9 263.5c0.2 0.8 0.1 1.6 0.1 2.4 0 2-0.1 3.9-0.8 5.7-0.8 2.3-1.4 4.6-2.3 6.9-0.5 1.1-1.3 2.2-2 3.2-0.6 0.7-1.4 1.2-1.9 2-1 1.4-1.7 3.5-3.3 4.4-0.4 0.2-1.2 0.6-1.6 0.2-0.4-0.5 0.2-1.3 0.4-1.8 0.7-1.3 1.4-2.5 2-3.7 0.7-1.4 1.2-2.9 1.8-4.3 1.2-2.9 2-6 3.2-8.9 0.5-1 0.8-2.1 1.2-3.1 0.5-1 1-1.9 1.2-2.9 0.2-0.6 0.5-1.2 0.6-1.8q0.1-0.7 0.2-1.3c0.1-1.1 0.2-2 0.2-3.1 0.5 4.1 0.7 5.3 1 6.1z"/>
			<path id="&lt;Path&gt;" class="s2" d="m342.1 260.3c0 0.2 0.3 0.3 0.4 0.5 0.1 0.3 0 0.7 0 1 0 0.5 0.1 1.2-0.2 1.7-0.4 0.5-1.5 0.8-1.9 0.2-0.6-1.1 0.8-2.8 1.5-3.4z"/>
			<path id="&lt;Path&gt;" class="s2" d="m330.5 296c0.2 3.3-3.6 5.5-6.3 6.5q-4.5 1.8-9 3.3c-1.6 0.5-3.3 0.5-4.9 0.6-1.4 0.2-2.5 0.2-3.9 0-1-0.1-2.1 0-3.1 0-2.2 0-4.4 0.1-6.6 0-0.7 0-2.7-0.1-3-1.1-0.2-0.6 0.4-1.1 0.9-1.4 1.9-1.2 4.2-1.7 6.3-2.5q3.3-1.2 6.7-2.3c2.9-1 6-1.4 9.1-1.9 2.4-0.4 4.6-1.1 6.8-2.1 0.9-0.4 1.7-0.8 2.5-1.4 0.8-0.6 1.6-1.2 2.5-1.7 1 0.6 1.9 2.6 2 4z"/>
			<path id="&lt;Path&gt;" class="s2" d="m332.9 294.6c-0.4-0.9-0.6-1.2-0.1-2 0.3-0.5 1.2-1.3 1.9-1.3 1.4 0 1.4 1.5 1.1 2.5-0.3 0.8-0.6 2-1.6 2.1-0.4 0-0.5 0-0.9-0.3-0.3-0.2-0.7-1-1.1-1z"/>
			<path id="&lt;Path&gt;" class="s2" d="m236.5 296.1c0.2-0.6 0.5-1.1 1-1.3 1.6-0.8 3.6-0.8 5.3-0.6 4.2 0.4 7.9 2 11.9 3.1 1.9 0.6 3.8 1.3 5.7 1.8 1.4 0.3 2.7 0.7 4.1 1.2 0.9 0.3 2.1 0.5 2.9 1.1 0.8 0.7 1.2 1.2 0.7 2.1-0.6 1.3-2 1.4-3.2 1.6-1.5 0.2-3 0.3-4.5 0.1-1.4-0.2-2.7-0.2-4.1-0.5-0.7-0.1-1.3-0.2-2-0.3-0.8-0.1-1.7-0.4-2.5-0.5-1.6-0.2-3-0.3-4.6-0.3-1.1-0.1-2.1-0.2-3.1-0.3-1 0-1.8-0.1-2.8-0.4-1.4-0.4-2.9-1.4-3.6-2.7-0.5-1-0.4-2-0.1-3-1.1 0.2-1.5-0.3-1.1-1.1z"/>
			<path id="&lt;Path&gt;" class="s2" d="m237.4 289.3c0.5-1.2 1.4-1.2 2.4-0.6 0.6 0.3 1.2 0.7 1.1 1.4-0.1 0.6-0.8 1-1.3 1.2-0.5 0.1-0.9 0-1.4-0.2-0.6-0.2-0.6-0.4-0.8-1.1z"/>
			<path id="&lt;Path&gt;" class="s2" d="m283.5 241.7c0-0.5 0-0.7 0.2-1.2 0.3-0.4 0.5-0.9 0.8-1.4 0.2-0.3 0.3-0.6 0.5-0.9 0.3-0.5 0.6-0.9 0.8-1.3 0.3-0.6 0.8-1.1 1.2-1.7 0.3-0.3 0.6-0.6 0.8-1.1 0.2-0.3 0.4-0.5 0.6-0.9q0.3-0.6 0.6-1.2c0.2-0.5 0.4-0.9 0.7-1.4 0.2-0.3 0.4-0.6 0.7-0.8 0.2-0.2 0.4-0.5 0.6-0.6 0.6-0.2 0.8 0 1.1 0.5 0.4 0.7 0.6 1.9 0.6 2.7-0.1 1-0.2 2-0.6 2.9-0.2 0.7-0.6 1.3-0.9 1.9-0.7 1.2-1.4 2.2-2.2 3.3-0.4 0.6-1.2 1.1-1.8 1.6-0.4 0.3-0.8 0.5-1.3 0.7-0.2 0.1-0.6 0.2-0.9 0.2-0.2-0.1-0.5-0.2-0.7-0.3-0.7-0.3-1-0.8-0.8-1z"/>
			<path id="&lt;Path&gt;" class="s2" d="m281.1 242.3c0.2-0.2 0.7-0.2 0.9 0.1 0.2 0.3-0.1 0.7-0.3 1-0.2 0.2-1.3 0.8-1.6 0.4-0.1-0.2 0-0.4 0.1-0.5 0.1-0.4 0.5-0.6 0.9-0.7z"/>
			<path id="&lt;Path&gt;" class="s2" d="m300.8 225.7c0.3 0 0.7 0.1 1 0.3 0.4 0.3 0.7 0.7 1 1.1 0.6 0.8 1.2 1.8 1.1 2.8-0.1 1.9-2.5 3-4.1 2.5-0.9-0.3-0.8-1.6-0.8-2.3q0.2-1.1 0.5-2.2c0.1-0.1 0.1-0.4 0.3-0.5 0.1-0.2 0.4-0.3 0.6-0.5-0.6-0.5-0.1-1.1 0.4-1.2z"/>
			<path id="&lt;Path&gt;" class="s2" d="m300.1 235.9c0-0.4 0-0.5 0.2-0.7 0.2-0.1 0.4-0.3 0.6-0.4 0.4-0.1 0.6 0.2 0.6 0.5 0.1 0.3 0.1 0.9-0.2 1.1-0.2 0.2-1.3 0-1.2-0.4z"/>
			<path id="&lt;Path&gt;" class="s2" d="m312.8 227c0.4 0 0.8-0.1 1.2-0.1 0.5 0 0.8 0.1 1.3 0.2 0.5 0.1 1 0.1 1.5 0.4 0.6 0.3 1.1 0.6 1.6 1.1 0.6 0.7 0.9 1.4 1.1 2.3 0.3 1.3-0.1 2.8-0.5 4-0.5 1.8-1.7 3.1-3 4.3q-0.4 0.4-0.9 0.8c-0.4 0.2-0.9 0.6-1.3 0.8-0.6 0.2-1.2 0.4-1.7-0.1-0.6-0.8-0.7-1.8-0.8-2.7-0.1-0.8 0-1.5 0-2.2 0.1-0.6 0.1-1.2 0.1-1.8 0-1.1 0.1-2.3 0.4-3.5 0.1-0.7 0.1-1.4 0.2-2-0.3-0.2-0.1-1.3 0.8-1.5z"/>
			<path id="&lt;Path&gt;" class="s2" d="m313.3 242.7c0.2-0.5 0.5-1 1.1-0.7 0.4 0.1 0.6 0.6 0.4 1.1-0.1 0.2-0.5 0.4-0.8 0.3-0.2 0-0.4-0.2-0.6-0.4-0.2-0.3 0-0.5 0-0.8z"/>
			<path id="&lt;Path&gt;" class="s2" d="m314.5 254.2c0.1-0.4 0.8-0.6 1.2-0.6 0.3 0 0.5 0.2 0.3 0.5 0 0.1-0.3 0.3-0.4 0.4-0.2 0.2-0.4 0.3-0.7 0.4-0.4 0.3-1.2 0.7-1.8 0.4 0-0.1 0.2-0.3 0.3-0.4q0.1-0.1 0.2-0.3 0.6-0.2 1.3-0.2z"/>
			<path id="&lt;Path&gt;" class="s2" d="m333.9 251.8c0.3-0.3 0.5-0.7 0.9-0.9 0.6-0.4 1.2-0.7 1.9-0.7 1.6 0 1.4 1.8 1.2 2.9-0.1 0.7-0.3 1.1-0.8 1.6-0.7 0.6-1.5 0.8-2.3 0.9-0.8 0.1-2.2 0.3-2.3-0.7-0.1-0.5 0.1-0.9 0.3-1.3 0.1-0.5 0.2-0.6 0.2-1.1 0.1 0.1 0.5-0.2 0.9-0.7z"/>
			<path id="&lt;Path&gt;" class="s2" d="m321.6 312c0.5-1.6 1.3-2.9 2.7-3.7 0.3-0.2 0.6-0.5 1-0.3 0.3 0.2 0.2 0.5 0.1 0.9-0.1 0.4-0.5 1-0.8 1.3-0.3 0.4-0.7 0.7-1 1.1-0.3 0.1-0.5 0.4-0.8 0.4-0.3 0.1-0.6 0-1.2 0.3z"/>
			<path id="&lt;Path&gt;" class="s2" d="m266 313.7c0-0.6 0.4-0.9 0.8-1.2 1-0.9 2.3-1.4 3.5-1.8 1.1-0.3 2.4-0.6 3.5-0.3 0.5 0.2 1.1 0.4 1.3 0.9 0.4 0.9-0.6 2.2-1.3 2.7-0.9 0.6-2.1 0.8-3.1 1.1-0.9 0.3-2 0.3-2.9 0.2-0.4 0-0.8 0-1.1-0.2-0.3-0.1-0.6-0.1-0.9-0.3-0.3-0.1-0.6-0.3-0.7-0.7 0-0.1 0.1-0.4 0.2-0.5 0.1-0.3 0.5-0.3 0.7 0.1z"/>
		</g>
		<g id="&lt;Group&gt;">
			<path id="&lt;Path&gt;" class="s4" d="m332.3 249.6q0 0.3 0 0.5c-0.1 0.1-0.2 0.2-0.2 0.3-0.1 0.3-0.1 0.6-0.1 0.9 0 0.2-0.1 0.4-0.2 0.6-0.1 0.1-0.3 0.3-0.5 0.1-0.2-0.2-0.4-0.7-0.4-1q0-0.3-0.1-0.6c-0.1-0.3-0.2-0.5-0.3-0.7-0.1-0.6 0.6-0.9 0.9-1.1 0.6 0.1 0.9 0.7 0.9 1z"/>
			<path id="&lt;Path&gt;" class="s4" d="m325.6 279.1c0-0.2 0.1-0.3 0.1-0.4 0-0.1 0-0.2 0.1-0.3q0-0.1 0.2-0.2c0.3-0.2 0.6-0.1 0.9 0.1 0.2 0.1 0.5 0.4 0.5 0.8-0.1 0.2-0.3 0.5-0.5 0.6-0.3 0.2-0.7 0.2-1 0.1-0.2 0-0.4-0.1-0.4-0.3q0 0 0-0.1c0.1 0 0.2-0.1 0.2-0.1q-0.1-0.1-0.1-0.2z"/>
			<path id="&lt;Path&gt;" class="s4" d="m327.7 279.9c0-0.1 0-0.1 0.1-0.2q0.1-0.1 0.2 0c0.1 0 0.1 0.2 0 0.3 0 0.1-0.2 0.1-0.2 0.1-0.1 0-0.2-0.1-0.2-0.2z"/>
			<path id="&lt;Path&gt;" class="s4" d="m332.8 272.2c0.2 0 0.3 0 0.4 0 0.2 0 0.4 0.2 0.4 0.4 0.1 0.3-0.1 0.4-0.2 0.6q-0.1 0.1-0.3 0.2c-0.1 0-0.2 0.2-0.3 0.2-0.2 0-0.3 0-0.4-0.1q-0.3-0.2-0.3-0.6-0.1-0.1 0-0.1c0.1-0.1 0.2-0.2 0.3-0.2 0.2-0.3 0.3-0.3 0.4-0.4z"/>
			<path id="&lt;Path&gt;" class="s4" d="m331.6 273.2q0.1 0.1 0.2 0.2c0 0.1 0 0.1 0 0.2h-0.2q-0.1-0.1-0.2-0.2v-0.1z"/>
			<path id="&lt;Path&gt;" class="s4" d="m320.9 276.9c0.1-0.1 0.3-0.3 0.5-0.3 0.1 0 0.2 0.1 0.2 0.2 0.1 0.3-0.1 0.4-0.1 0.6q-0.1 0.1-0.1 0.2c-0.1 0.1-0.1 0.1-0.2 0.1-0.2 0.1-0.4 0-0.4-0.1-0.1-0.2 0-0.3 0.1-0.4z"/>
			<path id="&lt;Path&gt;" class="s4" d="m292.1 297.7c0-0.1 0.1-0.3 0.3-0.4 0.2-0.1 0.3 0 0.5 0 0.3 0.1 0.6 0.2 0.4 0.5-0.1 0.1-0.4 0.3-0.6 0.3-0.2 0.1-0.6 0-0.6-0.2z"/>
			<path id="&lt;Path&gt;" class="s4" d="m312 227.5c0.1-0.6 0.5-1.8 1.2-1.7 0.4 0.1 0.9 0.5 0.8 0.9 0 0.4-0.4 0.9-0.6 1.2-0.3 0.1-0.6 0.3-0.9 0.1-0.3-0.2-0.2-0.6-0.1-0.9z"/>
			<path id="&lt;Path&gt;" class="s4" d="m310.5 294.4c0.3-0.6 0.3-1.3 0.9-1.9 0.2-0.2 0.6-0.4 1-0.3 0.2 0.1 0.4 0.5 0.4 0.7 0.1 0.4 0 0.8-0.2 1.2-0.2 0.4-1 1.9-1.7 1.7-0.4-0.1-0.4-0.4-0.4-0.7 0-0.4 0-0.8 0.2-1.2z"/>
			<path id="&lt;Path&gt;" class="s4" d="m310.4 293.8c0 0.1 0 0.1 0 0.2q0 0-0.1 0.1-0.1 0.2-0.2 0.3c-0.1 0.1-0.1 0.2-0.2 0.2q-0.1 0-0.3 0c-0.1-0.1-0.2-0.2-0.1-0.3 0-0.1 0.2-0.2 0.3-0.3 0.1 0 0.5-0.1 0.5-0.1z"/>
			<path id="&lt;Path&gt;" class="s4" d="m309.5 297.2q0.1 0.1 0.2 0.1c0 0.1 0 0.2-0.1 0.3q-0.2 0-0.3 0-0.2 0-0.2-0.2c0-0.1 0.2-0.1 0.3-0.2z"/>
			<path id="&lt;Path&gt;" class="s4" d="m296.7 300.1c-0.1-0.2-0.1-0.3 0-0.4q0.2-0.1 0.3-0.3c0.2-0.1 0.4 0 0.5 0.1 0.1 0.2 0 0.5-0.2 0.7-0.2 0.1-0.4 0.1-0.5 0.1-0.1-0.1-0.2-0.1-0.1-0.2z"/>
			<path id="&lt;Path&gt;" class="s4" d="m283.4 277.7c0.1-0.1 0.3-0.2 0.5-0.2 0.2 0.1 0.5 0.2 0.7 0.4 0.3 0.1 0.3 0.3 0.3 0.6q-0.1 0.4-0.4 0.7c-0.2 0.1-0.4 0.1-0.7 0.1-0.2-0.1-0.6-0.2-0.7-0.5-0.1-0.1-0.1-0.2-0.1-0.3 0.1-0.2 0.1-0.2 0.2-0.3-0.2-0.1 0-0.4 0.2-0.5z"/>
			<path id="&lt;Path&gt;" class="s4" d="m285.2 279.1c0 0 0-0.1 0-0.2 0.2 0 0.3 0.1 0.4 0.2 0.1 0 0.1 0.2 0.1 0.3l-0.1 0.1q-0.2 0.1-0.3 0.1c-0.1-0.1-0.2-0.2-0.2-0.3z"/>
			<path id="&lt;Path&gt;" class="s4" d="m247.2 271.4q-0.9-1.2-0.8-2.7c0-0.4 0-1.1 0.5-1.1 0.8 0.1 1.2 1.3 1.4 1.9 0.4 0.9 0.7 1.8 0.6 2.8-0.2 1.3-1.9-1.3-2.1-1.6z"/>
			<path id="&lt;Path&gt;" class="s4" d="m248.8 266.7c0-0.6 0.9-0.4 1.1-0.1 0.1 0.1 0.1 0.2 0.1 0.3 0.1 0.1 0.2 0.2 0.2 0.3 0.2 0.2 0.3 0.4 0.4 0.6 0.1 0.3 0 0.6-0.1 0.9-0.2 0.3-0.3 0.5-0.6 0.4-0.8-0.2-1.2-1.3-1.1-2.1z"/>
			<path id="&lt;Path&gt;" class="s4" d="m257.4 321.7c0.2-0.5 0.4-0.8 0.9-1.2 0.5-0.3 1.1-0.6 1.7-0.7 0.4-0.1 1.2-0.1 1.6 0.1 0.5 0.3 1 0.7 1.5 1 0.4 0.3 0.8 0.5 1.2 0.9 0.4 0.3 0.6 0.8 0.8 1.2 0.3 0.7 0.5 1.8 0.2 2.5-0.3 0.7-0.7 0.7-1.3 0.6-1 0-1.8-0.7-2.4-1.4-0.3-0.3-0.5-0.7-0.9-0.9q-0.6-0.5-1.3-1c-0.4-0.2-0.8-0.4-1.2-0.7-0.2-0.2-0.7-0.6-0.8-0.4z"/>
			<path id="&lt;Path&gt;" class="s4" d="m273 280.4c-0.1-0.5 1.2-0.5 1.3 0 0 0.2-0.4 0.6-0.6 0.7q-0.2 0.2-0.5 0c-0.2-0.2-0.2-0.3-0.1-0.7z"/>
			<path id="&lt;Path&gt;" class="s4" d="m296 296.1c-0.2-0.9 0.8-2.2 1.8-3 1.5-1 3.8-1.3 5.4-1 1.4 0.1 2.6 0.9 2.9 1.9 0 0.3 0 0.5 0.1 0.8 0 0.2 0.1 0.3-0.2 0.5-0.8 0.4-2 0.7-2.8 0.8-1 0.2-2 0.4-2.9 0.3-0.8 0-1.6-0.1-2.4-0.1-0.4 0-0.8 0-1.2-0.1-0.1-0.1-0.6 0-0.7-0.1z"/>
			<path id="&lt;Path&gt;" class="s4" d="m303.8 290.3c-0.2-0.4 1.2-0.6 1.4-0.3 0.1 0.2-0.2 0.5-0.5 0.6-0.1 0.1-0.4 0.2-0.6 0.2-0.2 0-0.3-0.1-0.4-0.3z"/>
			<path id="&lt;Path&gt;" class="s4" d="m324.5 272.9c0-0.1 0.1-0.5 0.2-0.7 0.1-0.1 0.3-0.1 0.5 0 0.3 0 0.5 0.1 0.6 0.4 0.2 0.1 0.3 0.2 0.3 0.4 0.3 1-1.4 0.5-1.6-0.1z"/>
		</g>
		<path id="&lt;Path&gt;" class="s5" d="m347.4 307.8c4.2 6.6-3.4 18.9-16.9 27.5-13.5 8.7-27.8 10.4-32 3.9-4.2-6.6 3.4-18.9 16.9-27.5 13.5-8.7 27.8-10.4 32-3.9z"/>
	</g>
</svg>