<svg version="1.2" xmlns="http://www.w3.org/2000/svg" viewBox="0 0 384 509" width="384" height="509">
	<title>spaceship1</title>
	<defs>
		<linearGradient id="g1" x1="211.3" y1="265.6" x2="208.1" y2="323.6" gradientUnits="userSpaceOnUse">
			<stop offset="0" stop-color="#fbf9c5"/>
			<stop offset=".5" stop-color="#ffc101"/>
			<stop offset="1" stop-color="#d1592b"/>
		</linearGradient>
		<linearGradient id="g2" x1="208.9" y1="285.9" x2="206.6" y2="324.9" gradientUnits="userSpaceOnUse">
			<stop offset="0" stop-color="#fbf9c5"/>
			<stop offset=".5" stop-color="#ffc101"/>
			<stop offset="1" stop-color="#d1592b"/>
		</linearGradient>
	</defs>
	<style>
		.s0 { fill: url(#g1) } 
		.s1 { mix-blend-mode: screen;fill: url(#g2) } 
		.s2 { fill: #ff0000 } 
		.s3 { fill: #ffffff } 
		.s4 { fill: #00acdb } 
		.s5 { opacity: .1;mix-blend-mode: multiply;fill: #000000 } 
	</style>
	<g id="&lt;Group&gt;">
		<g id="&lt;Group&gt;">
			<path id="&lt;Path&gt;" class="s0" d="m190.4 281.9c14.8 0.9 24 23.5 3.2 38.6 4.6-7.2 7.9-14.9 4.5-22.6 0.9 16.5-7.1 17-9.1 34.5-2.8-9 2.1-22.7-4.1-27.7q-0.2-0.1-0.2-0.2 0 0 0.1 0.2c3.2 4.8 1.7 10.5 1.1 16.3-0.3-0.4-1.6-3.7-2.9-5.3-4.5-6-5.9-9.1-5.4-16.6-1.4 4.4-1.7 8.2 0.2 14.7q0 0.2 0.1 0.3c-11.1-15.9-0.2-32.9 12.5-32.2z"/>
			<path id="&lt;Path&gt;" class="s1" d="m179 294.2c-4.8 5.1-3.6 13-3.6 13 0 0-0.6-2.1-0.8-6-0.5-8.6 6-18.5 15.1-18 5.1 0.3 9.2 3.4 10.8 6.3 2.2 4.2 3.1 11.4 0.9 14.6 0 0 0.6-10.2-6.9-11.2 0 0 2.1 3 0.4 10.4-1.1 4.8-2.9 7.5-4.6 13.2-0.7-6.9-0.2-14.3-8-16.3 0 0-1 1.2 1.8 6.9 1.5 3.1 1 8.3 0.8 9.1 0 0-0.6-2.5-3.9-6.6-4.4-5.5-2-15.4-2-15.4z"/>
		</g>
		<g id="&lt;Group&gt;">
			<path id="&lt;Path&gt;" class="s2" d="m197.5 193.3q-1.8 0.2-3.7 0.3-2.5 0.1-5.1 0.1c-3.1 0-6.1-0.1-8.9-0.4 3.1-12.4 6.2-22.2 8.9-27.4q0 0 0 0c2.6 5.7 5.7 15.4 8.8 27.4z"/>
			<g id="&lt;Group&gt;">
				<path id="&lt;Path&gt;" class="s2" d="m182.8 291.4h-23.3c11-34.4 23.3-41.4 23.3-41.4z"/>
				<path id="&lt;Path&gt;" class="s2" d="m195 250c0 0 12.3 7 23.2 41.4h-23.2z"/>
			</g>
			<path id="&lt;Path&gt;" class="s3" d="m199.4 279.5c0 3.4-3.1 5.6-6.9 6.4-6.3 1.3-14.5-0.8-14.5-6.4-13-29-5-58.6 0.8-82.1 3 0.4 6.4 0.5 9.9 0.5 1.4 0 3.4 0 5.7-0.1 1.3-0.1 2.7-0.2 4.1-0.4 5.8 23.3 14.7 52.9 0.9 82.1z"/>
			<path id="&lt;Path&gt;" class="s4" d="m196.8 240.6c0 4.3-3.5 7.9-7.9 7.9-4.4 0-8-3.6-8-7.9 0-4.4 3.6-8 8-8 4.4 0 7.9 3.6 7.9 8z"/>
			<path id="&lt;Path&gt;" class="s4" d="m193.5 218.7c0 2.6-2.1 4.7-4.6 4.7-2.6 0-4.7-2.1-4.7-4.7 0-2.5 2.1-4.6 4.7-4.6 2.5 0 4.6 2.1 4.6 4.6z"/>
			<path id="&lt;Path&gt;" class="s5" d="m193.8 193.6c-2.3-16-4.9-27.1-5.1-27.7 2.6 5.7 5.7 15.4 8.8 27.4q-1.8 0.2-3.7 0.3z"/>
			<path id="&lt;Path&gt;" class="s5" d="m199.4 279.5c0 3.4-3.1 5.6-6.9 6.4 7.9-27.1 5.4-62.8 1.9-88.1 1.3-0.1 2.7-0.2 4.1-0.4 5.8 23.3 14.7 52.9 0.9 82.1z"/>
		</g>
	</g>
</svg>