<svg version="1.2" xmlns="http://www.w3.org/2000/svg" viewBox="0 0 4000 4000" width="4000" height="4000">
	<title>3800_2_06-ai</title>
	<style>
		.s0 { fill: #ffda22 } 
		.s1 { fill: #371a45 } 
		.s2 { fill: #ffffff } 
		.s3 { fill: #22a7f0 } 
		.s4 { fill: #293856 } 
		.s5 { fill: #21102b } 
	</style>
	<g id="Layer 1">
		<g id="&lt;Group&gt;">
			<g id="&lt;Group&gt;">
				<g id="&lt;Group&gt;">
					<g id="&lt;Group&gt;">
						<g id="&lt;Group&gt;">
							<g id="&lt;Group&gt;">
								<g id="&lt;Group&gt;">
									<path id="&lt;Path&gt;" class="s0" d="m3434.4 1656.3c-260 181.8-618.1 118.4-799.9-141.7-31.5-45-55.6-93-72.6-142.6-7.4-21.5-13.5-43.4-18.3-65.4-45.5-211.6 31.6-439 212.8-577.4q9.7-7.4 19.8-14.4c19.5-13.7 39.6-26 60.1-36.8 71.2-37.9 147.8-59.4 224.7-65.3q7.5-0.5 15-0.9c82-4.2 164.1 9.4 240.5 39.5 101.4 39.9 192.5 109.1 259.6 205.1 37 53 63.9 110 81 168.8 66.8 229.8-15.6 486.4-222.7 631.1z"/>
								</g>
							</g>
						</g>
					</g>
					<g id="&lt;Group&gt;">
						<g id="&lt;Group&gt;" style="opacity: .3">
							<g id="&lt;Group&gt;">
								<g id="&lt;Group&gt;">
									<g id="&lt;Group&gt;">
										<path id="&lt;Path&gt;" class="s1" d="m2534.1 1245.6c-2.8-22.8-4.3-45.6-4.4-68.5q0.6 2.7 1.1 5.4c4.8 22 10.8 43.9 18.3 65.4 17 49.5 41.1 97.5 72.6 142.6 181.8 260 539.9 323.5 799.9 141.7 160.4-112.2 246-291.4 245.3-473.4 3.7 17.7 6.3 35.5 8.3 53.3 17.7 198.2-68.3 400-243 522.2-260 181.8-618.2 118.4-800-141.6-31.5-45.1-55.6-93.1-72.6-142.7-7.4-21.5-13.5-43.4-18.2-65.3-4-18.4-7-36.9-9.1-55.5q0.8 8.2 1.8 16.4z"/>
									</g>
								</g>
							</g>
						</g>
					</g>
					<g id="&lt;Group&gt;" style="opacity: .4">
						<g id="&lt;Group&gt;">
							<g id="&lt;Group&gt;">
								<g id="&lt;Group&gt;">
									<path id="&lt;Path&gt;" class="s2" d="m3040.5 660.1v0.1c11.7 32.2-19.3 72.9-69.2 91.1-49.9 18.2-99.8 6.8-111.5-25.3q-0.8-2.3-1.4-4.6c-20.6 11-40.7 23.3-60.3 37-206.5 144.4-291.3 398-230.9 628.2-1.8-4.8-3.6-9.7-5.3-14.6-7.4-21.5-13.5-43.4-18.3-65.4-45.5-211.6 31.6-439 212.8-577.4 6.5-4.9 13.1-9.7 19.8-14.4 19.5-13.7 39.6-26 60.1-36.8 71.2-37.9 147.8-59.4 224.7-65.3q7.5-0.5 15-0.9c82-4.2 164.1 9.4 240.5 39.5 98.6 38.8 187.5 105.5 254.1 197.5-135.3-152.3-337.1-219.6-530.1-188.7z"/>
								</g>
							</g>
						</g>
					</g>
					<g id="&lt;Group&gt;">
						<g id="&lt;Group&gt;">
							<g id="&lt;Group&gt;">
								<g id="&lt;Group&gt;">
									<path id="&lt;Compound Path&gt;" fill-rule="evenodd" class="s1" d="m3108.8 1779c-34.7 0-69.5-3.1-104.2-9.2-76-13.5-147.6-41-212.7-81.9-67.4-42.3-124.9-97.1-170.8-162.8-46-65.8-77.7-138.6-94.3-216.5-16-75.1-17.3-151.8-3.9-227.8 13.5-76 41-147.5 81.9-212.6 42.3-67.4 97.1-124.9 162.9-170.9 65.7-46 138.5-77.7 216.4-94.3 75.1-16 151.8-17.3 227.8-3.8 76 13.4 147.5 41 212.6 81.8 67.4 42.3 124.9 97.1 170.9 162.9 46 65.7 77.7 138.6 94.3 216.4 16 75.2 17.3 151.8 3.8 227.8-13.4 76-41 147.6-81.8 212.7-42.3 67.4-97.1 124.9-162.9 170.8-65.7 46-138.6 77.7-216.4 94.3-40.9 8.7-82.2 13.1-123.6 13.1zm-1.7-1149.1c-112.6 0-222.3 34.3-316.5 100.2-121.4 84.8-202.5 211.9-228.3 357.7-25.8 145.8 6.7 293 91.5 414.3 84.9 121.4 211.9 202.5 357.8 228.3 32.6 5.8 65.3 8.6 97.8 8.6 112.6 0 222.3-34.3 316.5-100.1 121.4-84.9 202.4-211.9 228.3-357.7 25.8-145.9-6.7-293-91.6-414.4-84.8-121.4-211.9-202.4-357.7-228.3-32.6-5.7-65.4-8.6-97.8-8.6z"/>
								</g>
							</g>
						</g>
					</g>
					<g id="&lt;Group&gt;" style="opacity: .3">
						<g id="&lt;Group&gt;">
							<g id="&lt;Group&gt;">
								<g id="&lt;Group&gt;">
									<path id="&lt;Path&gt;" class="s1" d="m2933.9 929.6c-69.2 8.3-123.1-21.7-120.5-66.9 2.7-45.2 60.9-88.6 130-96.9 69.2-8.2 123.1 21.7 120.5 66.9-2.7 45.2-60.9 88.6-130 96.9z"/>
								</g>
							</g>
						</g>
					</g>
					<g id="&lt;Group&gt;">
						<g id="&lt;Group&gt;">
							<g id="&lt;Group&gt;">
								<g id="&lt;Group&gt;">
									<path id="&lt;Path&gt;" class="s0" d="m2934.7 925.4c-60 9.2-104.8-6.9-99.9-36.1 4.8-29.1 57.3-60.3 117.3-69.5 60-9.2 104.7 7 99.9 36.1-4.8 29.2-57.4 60.3-117.3 69.5z"/>
								</g>
							</g>
						</g>
					</g>
					<g id="&lt;Group&gt;">
						<g id="&lt;Group&gt;">
							<g id="&lt;Group&gt;">
								<g id="&lt;Group&gt;">
									<path id="&lt;Path&gt;" class="s1" d="m3039.1 777.2c5.3 2.9 10.2 6.4 14.8 10.7 2.2 2.2 4.3 4.5 6.2 7q2.9 3.7 5.2 7.9 2.2 4.3 3.8 8.9l0.7 2.3c0.2 0.8 0.4 1.6 0.6 2.3l0.6 2.4q0.2 1.2 0.3 2.4c1 6.4 0.9 13-0.1 19.4-1.1 6.3-3 12.5-5.5 18.2-2.6 5.8-5.7 11.2-9.2 16.3-3.5 5.2-7.5 9.8-11.7 14.3-2.1 2.2-4.3 4.3-6.5 6.4l-3.4 3c-1.1 1-2.3 2-3.5 2.9-4.7 3.9-9.5 7.5-14.6 10.7-2.5 1.7-5.1 3.1-7.7 4.7-2.6 1.5-5.2 3-7.9 4.3-10.6 5.5-21.7 10-33.1 13.5-2.9 0.9-5.8 1.7-8.6 2.5-2.9 0.7-5.8 1.4-8.8 2-5.8 1.4-11.7 2.3-17.6 3.1-11.9 1.4-24 2-36.1 1.1-12.1-0.9-24.3-3-36.1-6.9-11.8-3.9-23.4-9.5-33.5-18-5-4.2-9.6-9.2-13.5-14.8-3.8-5.6-6.7-12-8.5-18.6-1.9-6.6-2.5-13.5-2.1-20.2 0.5-6.8 1.9-13.3 4.2-19.4 2.2-6.1 5.1-11.7 8.5-17 0.9-1.3 1.7-2.6 2.6-3.9l2.8-3.7 2.9-3.6c1-1.1 2.1-2.2 3.1-3.4q6.2-6.7 13.2-12.4 7-5.6 14.4-10.4c5.1-3.1 10.2-6 15.4-8.7 5.3-2.5 10.6-4.9 16.1-6.9 10.9-4.2 22.1-7.2 33.4-9.3 2-0.3 3.9 1 4.3 3 0.3 1.8-0.7 3.5-2.4 4.1h-0.1c-5.2 1.9-10.4 3.7-15.5 6-2.5 1-5 2.2-7.5 3.3-1.3 0.6-2.5 1.2-3.7 1.8-1.3 0.6-2.5 1.2-3.7 1.8l-3.6 2-3.6 2-1.8 1-1.7 1c-1.2 0.7-2.4 1.4-3.5 2.2-4.6 2.9-9 6-13.3 9.2-4.2 3.4-8.3 6.8-12.1 10.5-3.8 3.7-7.4 7.6-10.6 11.6-6.5 8.1-11.7 17.1-14.4 26.3-1.4 4.6-2.2 9.2-2.2 13.8 0 4.5 0.6 8.9 2 13.1 2.6 8.5 8.2 15.8 15.6 21.6 7.4 5.8 16.5 10.2 26.1 13.2 9.7 2.9 20 4.7 30.4 5.3 10.4 0.6 21 0.3 31.5-1 10.4-1.3 20.9-3.3 31.1-6.3 2.6-0.8 5.1-1.5 7.6-2.4 2.6-0.8 5-1.7 7.5-2.6 5-1.9 9.9-3.9 14.7-6.2 2.4-1.1 4.7-2.3 7.1-3.5 2.3-1.3 4.6-2.5 6.9-3.9q6.8-4 13.1-8.7c4.3-3 8.3-6.4 12-9.9 3.8-3.6 7.4-7.3 10.6-11.3 3.1-4 6-8.2 8.3-12.6 2.4-4.3 4.3-8.9 5.5-13.6 1.2-4.7 1.7-9.5 1.5-14.3l-0.1-1.8-0.3-1.8c0-0.6-0.1-1.2-0.2-1.8l-0.3-1.8q-0.8-3.5-2.1-7-1.4-3.4-3.3-6.6c-1.3-2.2-2.7-4.2-4.3-6.2-1.6-2.1-3.4-4-5.2-5.8-1.9-1.8-3.9-3.5-6-5.2l-0.1-0.1c-2-1.5-2.3-4.4-0.7-6.4 1.4-1.7 3.8-2.1 5.7-1.1z"/>
								</g>
							</g>
						</g>
					</g>
					<g id="&lt;Group&gt;">
						<g id="&lt;Group&gt;">
							<g id="&lt;Group&gt;">
								<g id="&lt;Group&gt;">
									<path id="&lt;Path&gt;" class="s1" d="m2979.8 969.3c-4.1 3.4-8.6 6.3-13.3 8.9-4.6 2.6-9.6 4.9-14.6 6.8-10.1 3.9-20.7 6.4-31.5 7.6-10.8 1.3-21.7 1.3-32.4 0.2-10.8-1.2-21.5-3.4-31.8-6.7-10.3-3.4-20.4-7.7-29.8-13.2q-3.6-2.1-7-4.3-3.4-2.3-6.7-4.8c-4.4-3.2-8.5-6.9-12.4-10.8-7.8-7.8-14.6-16.9-19.2-27.1-4.6-10.1-6.9-21.5-5.7-32.3 0.2-2.1 2-3.5 4.1-3.3 1.6 0.2 2.8 1.3 3.2 2.8v0.1c4.5 18.8 16.5 33.4 31.1 44.7 14.6 11.2 31.8 19.4 49.7 24.8 17.9 5.5 36.7 8.3 55.6 8.3 9.4 0 18.8-0.8 28.2-2.4q7.1-1.2 14.1-3c4.6-1.2 9.3-2.7 14-4.2h0.1c2.4-0.8 5 0.5 5.8 2.9 0.6 1.8 0 3.8-1.5 5z"/>
								</g>
							</g>
						</g>
					</g>
					<g id="&lt;Group&gt;" style="opacity: .3">
						<g id="&lt;Group&gt;">
							<g id="&lt;Group&gt;">
								<g id="&lt;Group&gt;">
									<path id="&lt;Path&gt;" class="s1" d="m2806.6 1283.4c1.6 69.8-33.4 120.7-78.2 113.8-44.9-7-82.6-69.1-84.3-138.9-1.6-69.8 33.4-120.7 78.2-113.8 44.9 6.9 82.6 69.1 84.3 138.9z"/>
								</g>
							</g>
						</g>
					</g>
					<g id="&lt;Group&gt;">
						<g id="&lt;Group&gt;">
							<g id="&lt;Group&gt;">
								<g id="&lt;Group&gt;">
									<path id="&lt;Path&gt;" class="s0" d="m2802.2 1282c3.4 60.6-16.9 103.5-45.5 96-28.5-7.6-54.5-62.9-58-123.5-3.5-60.6 16.9-103.6 45.4-96 28.6 7.6 54.6 62.9 58.1 123.5z"/>
								</g>
							</g>
						</g>
					</g>
					<g id="&lt;Group&gt;">
						<g id="&lt;Group&gt;">
							<g id="&lt;Group&gt;">
								<g id="&lt;Group&gt;">
									<path id="&lt;Path&gt;" class="s1" d="m2664.6 1163.9c3.3-5 7.3-9.6 12-13.7 2.4-2 4.9-3.8 7.5-5.5q4-2.5 8.5-4.4 4.4-1.9 9.1-3l2.4-0.5c0.8-0.1 1.6-0.2 2.4-0.3l2.4-0.4q1.2-0.1 2.4-0.1c6.5-0.4 13.1 0.4 19.3 2 6.2 1.6 12.1 4.1 17.7 7.2 5.5 3.1 10.6 6.7 15.3 10.7 4.8 4 9 8.4 13.1 13 2 2.3 3.9 4.6 5.8 7l2.6 3.7c0.9 1.2 1.7 2.5 2.6 3.8 3.3 5 6.5 10.2 9.2 15.5 1.4 2.7 2.7 5.4 4 8.1 1.2 2.8 2.4 5.5 3.5 8.3 4.5 11.1 7.8 22.6 10.3 34.3 0.6 2.9 1.1 5.9 1.6 8.8 0.4 3 0.9 5.9 1.2 8.9 0.8 5.9 1.2 11.9 1.4 17.9 0.3 12-0.3 24-2.3 36-2 11.9-5.3 23.8-10.3 35.2-5 11.4-11.7 22.4-21.1 31.7-4.7 4.6-10.1 8.7-16 12-6 3.2-12.6 5.6-19.3 6.7-6.8 1.2-13.7 1.2-20.4 0.1-6.7-1-13-3.1-18.9-5.9-5.8-2.8-11.2-6.3-16.1-10.1-1.2-1-2.4-2-3.6-3l-3.5-3.1-3.2-3.3c-1.1-1.1-2.1-2.2-3.1-3.3q-6.1-6.9-11.1-14.4-5-7.5-9-15.4c-2.6-5.2-5.1-10.6-7.2-16.1-2-5.5-3.9-11-5.4-16.7-3.1-11.2-5-22.6-6-34.1-0.2-2 1.3-3.8 3.3-4 1.8-0.1 3.5 1.1 3.9 2.8v0.1c1.4 5.3 2.7 10.7 4.5 16 0.7 2.6 1.7 5.2 2.6 7.8 0.4 1.3 0.9 2.6 1.4 3.9 0.5 1.3 0.9 2.5 1.5 3.8l1.6 3.8 1.6 3.7 0.9 1.9 0.8 1.8c0.6 1.3 1.2 2.5 1.8 3.7 2.5 4.8 5.1 9.6 8 14.1 2.9 4.5 6 8.9 9.3 13.1 3.3 4.1 6.8 8 10.5 11.7 7.5 7.2 15.9 13.1 24.8 16.8 4.4 1.8 9 3 13.5 3.5 4.5 0.4 9 0.2 13.3-0.7 8.6-1.9 16.5-6.8 23-13.6 6.5-6.8 11.6-15.4 15.6-24.7 3.8-9.4 6.6-19.4 8.2-29.7 1.6-10.3 2.2-20.9 2-31.5-0.4-10.5-1.4-21.1-3.4-31.6-0.5-2.6-1-5.2-1.6-7.8-0.5-2.6-1.2-5.1-1.9-7.7-1.4-5.1-3-10.2-4.8-15.2-0.8-2.5-1.9-4.9-2.8-7.4-1.1-2.4-2.1-4.8-3.2-7.2q-3.4-7.2-7.4-13.9c-2.7-4.5-5.6-8.8-8.8-12.9-3.1-4.1-6.5-8-10.2-11.6-3.6-3.5-7.5-6.7-11.7-9.5-4.1-2.8-8.5-5.1-13.1-6.7-4.5-1.7-9.3-2.7-14.1-2.9h-1.8-1.8c-0.6 0-1.2 0-1.8 0.1l-1.8 0.2q-3.6 0.4-7.1 1.4-3.6 1-7 2.6c-2.2 1-4.4 2.3-6.6 3.7-2.1 1.4-4.2 3-6.2 4.7-2 1.7-3.9 3.5-5.8 5.4v0.1c-1.8 1.8-4.7 1.8-6.5 0.1-1.6-1.6-1.8-4.1-0.5-5.8z"/>
								</g>
							</g>
						</g>
					</g>
					<g id="&lt;Group&gt;">
						<g id="&lt;Group&gt;">
							<g id="&lt;Group&gt;">
								<g id="&lt;Group&gt;">
									<path id="&lt;Path&gt;" class="s1" d="m2850.1 1241.2c3 4.4 5.5 9.1 7.7 14 2.1 5 3.9 10.1 5.4 15.3 2.9 10.4 4.3 21.2 4.5 32 0.3 10.9-0.8 21.7-2.9 32.4-2.2 10.6-5.4 21-9.7 30.9-4.3 10-9.6 19.6-16 28.4q-2.3 3.4-4.9 6.6-2.6 3.2-5.4 6.2c-3.7 4.1-7.7 7.8-11.9 11.4-8.6 7-18.2 12.9-28.8 16.4-10.6 3.7-22.1 4.9-32.8 2.7-2-0.4-3.3-2.4-2.9-4.4 0.4-1.6 1.6-2.7 3.2-2.9 19.2-2.7 34.9-13.2 47.5-26.7 12.6-13.5 22.3-29.9 29.5-47.2 7.1-17.3 11.7-35.7 13.5-54.5 0.8-9.4 1-18.8 0.3-28.3q-0.5-7.2-1.7-14.3c-0.8-4.8-1.7-9.5-2.9-14.4v-0.1c-0.5-2.4 1-4.9 3.5-5.5 1.9-0.4 3.8 0.4 4.8 2z"/>
								</g>
							</g>
						</g>
					</g>
					<g id="&lt;Group&gt;" style="opacity: .3">
						<g id="&lt;Group&gt;">
							<g id="&lt;Group&gt;">
								<g id="&lt;Group&gt;">
									<path id="&lt;Path&gt;" class="s1" d="m3136.4 1074.2c57.1-16.5 115.1 9.5 129.6 58 14.5 48.6-19.9 101.4-77 117.9-57.1 16.5-115.1-9.5-129.6-58-14.5-48.6 20-101.3 77-117.9z"/>
								</g>
							</g>
						</g>
					</g>
					<g id="&lt;Group&gt;">
						<g id="&lt;Group&gt;">
							<g id="&lt;Group&gt;">
								<g id="&lt;Group&gt;">
									<path id="&lt;Path&gt;" class="s0" d="m3157.7 1134.1c44.4 4 76.9 36.3 72.6 72.1-4.3 35.8-43.9 61.6-88.3 57.6-44.4-4-76.9-36.2-72.6-72.1 4.4-35.8 43.9-61.6 88.3-57.6z"/>
								</g>
							</g>
						</g>
					</g>
					<g id="&lt;Group&gt;">
						<g id="&lt;Group&gt;">
							<g id="&lt;Group&gt;">
								<g id="&lt;Group&gt;">
									<path id="&lt;Path&gt;" class="s1" d="m3188.9 1249.7l3.8-1.6c1.3-0.5 2.6-0.9 3.8-1.5l3.7-1.8c1.2-0.6 2.5-1.1 3.6-1.8l3.6-1.9 1.8-1 1.7-1c2.3-1.5 4.6-2.8 6.8-4.4l3.3-2.3 3.1-2.5 1.6-1.2q0.8-0.6 1.5-1.3l3-2.6 1.5-1.3 1.4-1.4 2.8-2.8c1-0.9 1.8-2 2.7-2.9 0.8-1 1.8-1.9 2.6-3l2.4-3q0.6-0.8 1.2-1.6l1.2-1.6 2.2-3.2c0.7-1 1.3-2.2 2-3.3 1.5-2.1 2.6-4.4 3.8-6.7 0.6-1.1 1.1-2.3 1.6-3.5 0.5-1.1 1.1-2.3 1.6-3.5l1.3-3.5c0.2-0.6 0.4-1.2 0.6-1.8l0.6-1.8 1.1-3.7c0.2-1.2 0.6-2.4 0.8-3.6 1-4.9 1.6-9.9 1.7-14.8 0.1-9.9-1.7-19.7-5.4-28.7-3.6-9-9.2-17.2-16-24.2-6.8-7.1-15.1-12.7-24.1-17.2-4.4-2.2-9.1-4-14-5.5l-1.8-0.6-1.8-0.5c-1.2-0.3-2.4-0.7-3.7-0.9l-3.7-0.9-3.7-0.6c-40.1-6.7-84.8 9-110.3 41.4-3.2 4-6.1 8.2-8.6 12.7-2.6 4.4-4.7 9.1-6.4 13.9-3.4 9.6-5.1 19.9-4.6 30.1 0.2 5.2 1 10.3 2.2 15.4 1.3 5 3.1 10 5.3 14.7 2.3 4.8 5 9.4 8.2 13.7 3.1 4.3 6.8 8.3 10.7 12.1 1.5 1.5 1.5 3.8 0.1 5.2-1.3 1.3-3.3 1.5-4.7 0.5-4.9-3.4-9.4-7.3-13.5-11.5-4.2-4.3-7.9-9.1-11.1-14.3-6.5-10.3-10.7-22.1-12.4-34.3-1.7-12.3-0.7-24.9 2.6-36.9 3.2-12.1 8.8-23.3 15.9-33.5 14.3-20.2 34.8-35.7 57.6-44.8 5.7-2.2 11.6-4.2 17.5-5.8 6-1.4 12.1-2.6 18.2-3.4 6.2-0.7 12.4-1.1 18.6-1q9.3 0.2 18.5 1.6c6.2 0.9 12.3 2.4 18.3 4.3 5.9 1.9 11.8 4.2 17.5 7 5.6 2.8 11 6.1 16.2 9.8 5.1 3.8 10 8 14.4 12.7 4.3 4.6 8.3 9.8 11.7 15.2 3.4 5.5 6.3 11.3 8.5 17.4 4.4 12.1 6.3 25.1 5.4 37.8-0.4 6.4-1.4 12.7-3.1 18.8-0.4 1.5-0.9 3-1.4 4.5l-1.6 4.4-0.8 2.3c-0.3 0.7-0.6 1.4-0.9 2.1l-2 4.3c-5.4 11.2-12.8 21.2-21.4 29.9-8.6 8.6-18.4 15.7-29 21.3-2.6 1.5-5.3 2.7-8 4l-2 0.9-2.1 0.8-4.2 1.6c-1.3 0.6-2.8 1-4.2 1.4l-4.2 1.3c-2.8 0.8-5.7 1.5-8.5 2.1-2.5 0.6-4.9-0.9-5.5-3.3-0.5-2.2 0.6-4.4 2.7-5.3z"/>
								</g>
							</g>
						</g>
					</g>
					<g id="&lt;Group&gt;">
						<g id="&lt;Group&gt;">
							<g id="&lt;Group&gt;">
								<g id="&lt;Group&gt;">
									<path id="&lt;Path&gt;" class="s1" d="m3019.3 1147.2c-1 5.3-1.8 10.6-2.2 15.9q-0.7 7.9-0.4 15.7c0.6 10.5 2.4 20.8 5.6 30.5 0.8 2.5 1.8 4.9 2.7 7.3 0.4 1.2 1 2.3 1.5 3.5l1.6 3.5c2.3 4.5 4.7 9 7.7 13.2 0.7 1 1.4 2.1 2.1 3.2l2.3 3 1.1 1.5 1.3 1.5 2.4 2.9c0.8 1 1.7 1.8 2.6 2.8 0.9 0.9 1.7 1.9 2.6 2.7l2.8 2.7c0.4 0.4 0.9 0.9 1.4 1.3l1.4 1.2 2.9 2.5c1 0.8 2 1.6 3 2.4 1.9 1.6 4.1 3 6.1 4.5 1.1 0.8 2.1 1.4 3.2 2.1l3.2 2.1 3.4 1.9c1.1 0.6 2.1 1.3 3.3 1.8 9 4.8 18.6 8.7 28.4 11.5 9.9 2.9 20 4.7 30.3 5.6 10.3 1 20.6 0.9 30.9 0 20.6-1.8 41-7.3 59.8-16 18.9-8.7 36.1-20.8 50.5-35.8l1.4-1.4 1.2-1.5 2.6-2.9c1.7-2 3.3-4 5-6 3.1-4.2 6.1-8.4 8.8-12.8 5.4-8.9 10-18.3 13.2-28.3 3.2-9.9 5.3-20.3 5.8-30.8 0.1-2.6 0.3-5.3 0.2-7.9l-0.1-4-0.3-4c-0.1-2.6-0.5-5.3-0.8-7.9-0.2-1.4-0.5-2.7-0.7-4l-0.7-4-0.1-0.2c-0.3-2 1-3.9 3-4.3 1.8-0.3 3.5 0.8 4.1 2.4 0.9 2.8 1.9 5.4 2.7 8.2 0.8 2.8 1.6 5.6 2.2 8.4l0.8 4.3 0.6 4.3c0.5 2.8 0.7 5.7 0.9 8.6 0.2 1.5 0.1 3 0.2 4.4 0 1.5 0.1 2.9 0.1 4.4l-0.2 4.4-0.1 2.2-0.2 2.2-0.4 4.3c-0.1 1.5-0.4 2.9-0.6 4.4-0.4 2.9-1 5.8-1.7 8.6-0.2 1.5-0.6 2.9-1 4.3l-1.2 4.3-1.3 4.2c-0.5 1.4-0.9 2.8-1.5 4.2-1 2.7-2 5.5-3.3 8.1l-1.8 4.1-2 3.9c-5.4 10.5-12.1 20.3-19.7 29.3-7.7 9-16.2 17.2-25.6 24.4-1.1 0.9-2.3 1.8-3.5 2.7l-3.6 2.5c-2.4 1.7-4.9 3.3-7.3 5q-3.8 2.2-7.6 4.5c-2.7 1.3-5.2 2.8-7.9 4.1-10.5 5.3-21.6 9.6-32.9 12.8-11.3 3.3-22.9 5.5-34.7 6.7-23.5 2.2-47.6 0.1-70.4-7-11.4-3.6-22.4-8.3-32.8-14.3-10.3-5.9-20-13.2-28.6-21.6-8.6-8.3-16-18-22-28.4-3.1-5.2-5.5-10.6-7.8-16.2q-0.8-2.1-1.5-4.2c-0.5-1.4-1.1-2.8-1.5-4.2-0.8-2.9-1.7-5.7-2.3-8.6-5.4-23.3-3.5-47.8 4.7-69.2 1-2.4 3.6-3.5 5.9-2.6 2.1 0.8 3.3 3 2.9 5.1z"/>
								</g>
							</g>
						</g>
					</g>
					<g id="&lt;Group&gt;" style="opacity: .3">
						<g id="&lt;Group&gt;">
							<g id="&lt;Group&gt;">
								<g id="&lt;Group&gt;">
									<path id="&lt;Path&gt;" class="s1" d="m3326 768.6c31.5-1.9 58.5 18.2 60.4 45.1 1.9 26.8-22 50.1-53.5 52.1-31.5 1.9-58.5-18.2-60.4-45.1-1.9-26.8 22.1-50.1 53.5-52.1z"/>
								</g>
							</g>
						</g>
					</g>
					<g id="&lt;Group&gt;">
						<g id="&lt;Group&gt;">
							<g id="&lt;Group&gt;">
								<g id="&lt;Group&gt;">
									<path id="&lt;Path&gt;" class="s0" d="m3330.1 802.1c22.6 7.2 35.7 27.7 29.3 45.7-6.4 18.1-29.9 26.9-52.4 19.6-22.6-7.2-35.7-27.6-29.3-45.7 6.4-18 29.9-26.8 52.4-19.6z"/>
								</g>
							</g>
						</g>
					</g>
					<g id="&lt;Group&gt;">
						<g id="&lt;Group&gt;">
							<g id="&lt;Group&gt;">
								<g id="&lt;Group&gt;">
									<path id="&lt;Path&gt;" class="s1" d="m3332.9 865.1c11.4-1.9 22.1-6.2 30.7-13 1.1-0.9 2.2-1.7 3.2-2.7l1.4-1.4c0.5-0.4 1-0.9 1.4-1.4 1.9-1.9 3.5-4.1 5.1-6.2 0.6-1.2 1.4-2.2 2-3.4l0.9-1.7c0.3-0.6 0.6-1.2 0.9-1.8q1.5-3.5 2.4-7.2c2.3-9.9 0.5-20.4-4.9-28.9-5.3-8.6-14-15.2-23.7-19.2-19.5-7.9-44-5.1-60.7 8.3-8.4 6.6-14.6 15.9-16.6 26.4q-0.8 4-0.7 8.1c0 2.7 0.3 5.4 0.9 8.1 1.1 5.4 3.4 10.6 6.5 15.5 0.7 1.1 0.3 2.5-0.7 3.2-1 0.6-2.2 0.5-3-0.3-2.2-2.3-4.1-4.9-5.8-7.6-1.7-2.7-3.1-5.6-4.3-8.7-2.2-6.1-3-12.8-2.6-19.5 0.5-6.7 2.5-13.3 5.6-19.2 3-6 7.3-11.3 12.2-15.8 9.9-9 22.5-14.8 35.6-17 13.1-2.1 26.8-0.9 39.4 4 3.1 1.2 6.2 2.7 9.1 4.4 2.9 1.7 5.7 3.6 8.4 5.8 5.3 4.3 10 9.5 13.5 15.5 3.5 6 6 12.8 6.9 19.8 0.9 6.9 0.3 14-1.7 20.7-1 3.3-2.3 6.5-4 9.5-0.3 0.8-0.8 1.5-1.2 2.2l-1.4 2.2c-0.9 1.4-2 2.7-3 4.1-4.2 5.2-9.3 9.6-14.8 13.1-11.2 6.9-24.1 10.3-36.7 9.9-1.6-0.1-2.8-1.4-2.8-3 0.1-1.4 1.1-2.6 2.4-2.8z"/>
								</g>
							</g>
						</g>
					</g>
					<g id="&lt;Group&gt;">
						<g id="&lt;Group&gt;">
							<g id="&lt;Group&gt;">
								<g id="&lt;Group&gt;">
									<path id="&lt;Path&gt;" class="s1" d="m3257.4 793.1c-4.5 10.4-6.4 21.5-5.2 32.2 0.6 5.4 1.9 10.6 3.9 15.5 1.9 4.9 4.5 9.6 7.7 13.8 6.3 8.6 14.6 15.5 24 20.7 9.4 5.1 19.9 8.4 30.6 9.8 10.7 1.4 21.8 0.9 32.4-1.3 10.6-2.3 20.8-6.4 29.9-12.4 4.6-2.9 8.8-6.4 12.6-10.3 3.8-3.9 7.3-8.1 10.1-12.8 2.9-4.7 5.1-9.7 6.7-15.1 1.6-5.3 2.5-10.8 2.6-16.5v-0.1c0.1-1.3 1.2-2.3 2.5-2.2 1.1 0 2 0.9 2.2 1.9 1 6.1 1 12.4 0.1 18.5q-0.4 2.4-0.9 4.7l-0.6 2.2q-0.2 1.2-0.6 2.3l-0.7 2.3c-0.3 0.7-0.6 1.4-0.8 2.2-0.6 1.5-1.2 2.9-1.9 4.3-2.6 5.8-6.1 11.1-10.1 16-4 4.9-8.6 9.3-13.7 13.2-10 7.6-21.7 13.2-34 16.2-12.3 3.1-25.1 3.9-37.8 2.4-12.6-1.6-25-5.5-36.1-12-5.5-3.2-10.8-7-15.5-11.3-4.7-4.4-8.9-9.4-12.4-14.8-3.6-5.4-6.3-11.4-8.2-17.6-1-3.1-1.6-6.3-2.2-9.4-0.1-1.6-0.4-3.2-0.5-4.8-0.1-1.6-0.2-3.2-0.2-4.8 0.1-6.4 1-12.8 2.9-18.8q1.4-4.5 3.4-8.8c1.4-2.8 3-5.5 4.7-8 0.9-1.3 2.7-1.7 4.1-0.7 1.1 0.8 1.5 2.3 1 3.5z"/>
								</g>
							</g>
						</g>
					</g>
					<g id="&lt;Group&gt;">
						<g id="&lt;Group&gt;">
							<g id="&lt;Group&gt;">
								<g id="&lt;Group&gt;">
									<path id="&lt;Path&gt;" class="s1" d="m3471.1 950.8c-5.9 3.8-11.4 8.2-16.3 13-4.9 4.9-9.4 10.1-13.1 15.7-7.5 11.2-12.5 23.9-14.9 36.9-2.3 13.1-2.2 26.6 0.2 39.8 2.3 13.1 6.8 25.9 13.2 37.8 6.4 11.9 14.5 22.9 24.1 32.6 4.8 4.7 9.9 9.4 15.3 13.4l4.1 3.1 4.3 2.9c2.8 1.9 5.8 3.5 8.8 5.3 1.5 0.9 3 1.6 4.5 2.4l4.7 2.3 4.7 2 2.4 1c0.8 0.3 1.6 0.6 2.4 0.9l4.9 1.7c0.8 0.3 1.6 0.5 2.5 0.8l2.5 0.7 2.5 0.7c0.8 0.2 1.6 0.5 2.5 0.6q2.5 0.6 5.1 1.2c1.7 0.4 3.4 0.6 5.1 0.8 1.7 0.3 3.4 0.6 5.2 0.8l5.2 0.5c0.9 0 1.8 0.1 2.6 0.2h2.7l5.3 0.1 5.3-0.2 2.6-0.1 2.7-0.3q2.6-0.4 5.3-0.6l0.3-0.1c2.1-0.2 3.8 1.3 4 3.3 0.2 1.7-0.8 3.3-2.4 3.8q-2.7 1-5.4 1.9l-2.8 1-2.8 0.7-5.6 1.4c-1.9 0.3-3.9 0.6-5.8 0.9l-2.9 0.5c-1 0.1-1.9 0.1-2.9 0.2l-5.9 0.5c-1.9 0-3.9 0-5.8 0-2 0-4 0-5.9-0.2q-2.9-0.2-5.9-0.4c-1-0.1-2-0.2-2.9-0.4l-2.9-0.4-3-0.5c-0.9-0.1-1.9-0.3-2.9-0.5l-5.8-1.3c-0.9-0.3-1.9-0.4-2.8-0.7l-2.9-0.9-5.6-1.7-5.6-2.2c-1.8-0.7-3.7-1.3-5.5-2.2-14.5-6.5-27.9-15.4-39.6-26.2-11.8-10.8-21.7-23.6-29.5-37.7-3.9-7-7.1-14.4-9.7-22.1-2.7-7.6-4.5-15.5-5.8-23.5-2.3-16-1.7-32.6 2.5-48.4 4.1-15.7 11.8-30.6 22.6-42.6 1.2-1.5 2.7-2.9 4.1-4.4 1.4-1.4 2.9-2.7 4.4-4.1 1.5-1.3 3-2.5 4.6-3.8q2.3-1.8 4.8-3.5 4.9-3.4 10.2-6c3.5-1.8 7.1-3.4 10.8-4.6 2.4-0.8 5 0.5 5.8 2.9 0.7 2-0.1 4.1-1.8 5.3z"/>
								</g>
							</g>
						</g>
					</g>
					<g id="&lt;Group&gt;" style="opacity: .3">
						<g id="&lt;Group&gt;">
							<g id="&lt;Group&gt;">
								<g id="&lt;Group&gt;">
									<path id="&lt;Path&gt;" class="s1" d="m3598.1 1021.5c21.9 44 10.3 94.7-26 113.3-36.3 18.5-83.5-2.2-105.4-46.2-22-44-10.3-94.7 26-113.2 36.3-18.6 83.5 2.1 105.4 46.1z"/>
								</g>
							</g>
						</g>
					</g>
					<g id="&lt;Group&gt;">
						<g id="&lt;Group&gt;">
							<g id="&lt;Group&gt;">
								<g id="&lt;Group&gt;">
									<path id="&lt;Path&gt;" class="s0" d="m3554.8 1127.7c-25.3 7.2-55.7-3.1-76.8-28.5-28.1-33.8-28.9-81.7-1.9-106.9 3.8-3.6 8-6.5 12.4-8.8 20.7 2.6 41.6 14 57.7 33.4 28.5 34.3 31.6 81.8 8.6 110.8z"/>
								</g>
							</g>
						</g>
					</g>
					<g id="&lt;Group&gt;">
						<g id="&lt;Group&gt;">
							<g id="&lt;Group&gt;">
								<g id="&lt;Group&gt;">
									<path id="&lt;Path&gt;" class="s1" d="m3587.2 1010.1c-6-5.2-12.5-9.7-19.3-13.3-6.8-3.6-13.9-6.4-21.2-8-14.6-3.4-29.8-2.4-42.5 3.3l-2.3 1.1-1.2 0.6-1.1 0.6q-2.3 1.3-4.4 2.7-2.1 1.5-4 3.1c-1.3 1.1-2.5 2.3-3.7 3.5-4.7 4.9-8.4 10.6-10.9 16.9-2.6 6.3-3.9 13.1-4.2 20-0.2 6.9 0.7 14 2.6 20.8 3.8 13.7 11.7 26.4 22.2 36.5l2 1.9c0.7 0.6 1.4 1.2 2.1 1.7l2.1 1.8 2.2 1.6 2.1 1.7 2.3 1.4c0.8 0.5 1.6 1.1 2.3 1.5l2.4 1.3c6.4 3.5 13.3 6.3 20.4 7.9 7.1 1.7 14.4 2.1 21.6 1.5 0.9-0.1 1.8-0.1 2.7-0.3l2.7-0.4c1.8-0.3 3.6-0.7 5.3-1.2 3.6-0.9 7-2.2 10.3-3.8 6.6-3.2 12.6-7.7 17.7-13.3 5.1-5.6 9.1-12.2 12-19.6v-0.1c0.8-1.8 2.9-2.8 4.8-2 1.6 0.6 2.6 2.3 2.3 4-1.5 8.7-4.7 17.3-9.7 24.9-5 7.6-11.7 14.3-19.5 19.4-3.9 2.5-8.1 4.7-12.4 6.4-2.2 0.9-4.4 1.7-6.7 2.2l-3.4 1c-1.1 0.2-2.3 0.4-3.4 0.7-9.2 1.8-18.7 1.9-28 0.5-18.5-2.8-35.9-11.2-49.9-23.6-0.8-0.8-1.7-1.5-2.6-2.3l-2.5-2.5q-1.2-1.2-2.4-2.5l-2.3-2.6c-3.1-3.6-5.9-7.3-8.5-11.3-2.5-3.9-4.8-8.1-6.8-12.4q-2.9-6.4-4.9-13.3c-1.4-4.6-2.3-9.3-2.9-14-0.6-4.8-0.8-9.6-0.6-14.5 0.4-9.6 2.5-19.3 6.4-28.4 4-9 9.8-17.3 17-24 7.1-6.7 15.7-12.1 24.8-15.2 9.1-3.4 18.7-4.8 28.1-4.7 1.2 0 2.4 0.1 3.5 0.2l3.5 0.3c1.2 0 2.3 0.2 3.5 0.4l3.4 0.6c4.6 0.9 9 2.1 13.3 3.6 17.3 6.2 32.1 17.6 42.4 31.7 1.5 2 1.1 4.9-0.9 6.4-1.8 1.2-4.2 1.1-5.7-0.3z"/>
								</g>
							</g>
						</g>
					</g>
					<g id="&lt;Group&gt;">
						<g id="&lt;Group&gt;">
							<g id="&lt;Group&gt;">
								<g id="&lt;Group&gt;">
									<path id="&lt;Path&gt;" class="s0" d="m3424.6 1426.1c28.4 11.4 51.5 29.8 65.9 55 26.2 45.6 16.6 99.9-17.5 150.4-22.3 33.1-55.8 63.4-98 85.8-106.4 56.5-227.8 41.1-271.2-34.4-16.1-28.1-19.2-60.5-11.2-93.1 13.5-55 59.9-107.6 126.7-143.1"/>
								</g>
							</g>
						</g>
					</g>
					<g id="&lt;Group&gt;">
						<g id="&lt;Group&gt;">
							<g id="&lt;Group&gt;">
								<g id="&lt;Group&gt;">
									<path id="&lt;Path&gt;" class="s1" d="m3495.2 1478.4c7.2 10.7 12.8 22.9 16 35.7 3.2 12.8 4.2 26.2 3.2 39.4-1 13.2-3.8 26.2-8 38.7-2.1 6.2-4.5 12.3-7.3 18.2-2.7 6-5.6 11.8-8.9 17.4-6.4 11.3-13.7 22.2-22 32.2-8.1 10.1-17.1 19.5-26.7 28.3-2.4 2.2-4.9 4.3-7.3 6.4-2.5 2.1-5 4.1-7.5 6.1-5.1 4-10.3 7.9-15.6 11.5-10.7 7.3-21.9 13.9-33.3 19.8-23 11.7-47.5 20.6-72.8 25.9q-9.5 2-19.1 3.4c-6.4 0.9-12.9 1.5-19.3 1.9-13 0.9-26 0.7-38.9-0.5-6.5-0.6-12.9-1.6-19.3-2.8q-9.6-1.7-19-4.5c-12.5-3.7-24.7-8.7-36.1-15.1-11.4-6.4-22-14.3-31.1-23.7-4.5-4.6-8.7-9.7-12.4-15-3.7-5.3-7-10.8-9.7-16.7-1-2.1-0.1-4.7 2.1-5.7 1.9-0.9 4.1-0.2 5.3 1.4v0.1c3.5 4.8 7.2 9.5 11.2 13.7 4 4.3 8.3 8.3 12.9 11.9 9.2 7.2 19.2 13.2 29.9 17.9 21.3 9.3 44.5 13.7 67.8 14.5 23.3 0.9 46.8-1.9 69.6-7.5q8.5-2.1 16.9-4.7 8.4-2.6 16.7-5.7c5.5-2.2 10.9-4.3 16.3-6.7q8-3.6 15.8-7.7c10.5-5.4 20.6-11.3 30.3-17.9 9.8-6.5 19.1-13.6 28-21.3 8.8-7.6 17.1-15.9 24.8-24.6q11.6-13.1 21.1-27.8c6.3-9.8 11.8-20.1 16.4-30.7 4.4-10.6 7.8-21.7 9.7-32.9 1.9-11.3 2.2-22.8 0.8-34.2-1.5-11.4-4.8-22.6-9.8-33.4-1.2-2.7-0.1-5.8 2.6-7.1 2.4-1.1 5.2-0.3 6.7 1.8z"/>
								</g>
							</g>
						</g>
					</g>
					<g id="&lt;Group&gt;" style="opacity: .3">
						<g id="&lt;Group&gt;">
							<g id="&lt;Group&gt;">
								<g id="&lt;Group&gt;">
									<path id="&lt;Path&gt;" class="s1" d="m3265.7 1464.5c87-27.9 171.7 1.8 189 66.1 17.3 64.4-39.2 139.2-126.3 167-87.1 27.8-171.7-1.8-189-66.2-17.4-64.4 39.2-139.1 126.3-166.9z"/>
								</g>
							</g>
						</g>
					</g>
					<g id="&lt;Group&gt;">
						<g id="&lt;Group&gt;">
							<g id="&lt;Group&gt;">
								<g id="&lt;Group&gt;">
									<path id="&lt;Path&gt;" class="s0" d="m3277.9 1527.6c75.3-18 143 6.6 151.1 55 8.2 48.5-46.3 102.3-121.7 120.4-75.3 18-143-6.7-151.1-55.1-8.1-48.4 46.3-102.3 121.7-120.3z"/>
								</g>
							</g>
						</g>
					</g>
					<g id="&lt;Group&gt;">
						<g id="&lt;Group&gt;">
							<g id="&lt;Group&gt;">
								<g id="&lt;Group&gt;">
									<path id="&lt;Path&gt;" class="s1" d="m3198 1705.3c-3.8-1.3-7.6-2.7-11.3-4.4-1.9-0.8-3.7-1.7-5.6-2.6-1.8-1-3.6-1.9-5.4-3-7.1-4.2-13.8-9.3-19.8-15.2-12-11.7-20.9-27.1-25.3-43.7-2.2-8.4-3.3-17-3.3-25.6-0.1-8.5 0.9-17.1 2.6-25.4 1.8-8.3 4.4-16.3 7.6-24.1l1.2-2.9q0.6-1.5 1.3-2.9c0.9-1.9 1.8-3.8 2.7-5.6l3-5.5c1-1.9 2.1-3.6 3.2-5.4 1-1.8 2.2-3.6 3.3-5.3 1.2-1.7 2.3-3.5 3.5-5.2 1.2-1.6 2.4-3.4 3.7-5l3.8-4.9c5.3-6.4 10.9-12.5 16.8-18.2 11.9-11.4 25.1-21.5 39.1-30 28-17 59.6-28.6 92.5-32.5 8.3-0.9 16.6-1.4 24.9-1.4 8.4 0 16.7 0.6 25.1 1.8 16.6 2.4 33.2 7.4 48.5 15.5 7.6 4.1 14.9 9 21.5 14.8 6.7 5.8 12.6 12.5 17.6 19.8 5 7.3 9 15.3 11.9 23.6 2.9 8.4 4.6 17.1 5.2 25.8 0.7 8.7 0.2 17.4-1.2 25.8-1.3 8.4-3.7 16.6-6.6 24.4-3 7.8-6.6 15.3-10.7 22.4-4.2 7.2-8.9 13.9-13.9 20.2-5.1 6.4-10.6 12.4-16.4 18-2.9 2.8-5.9 5.4-8.9 8.1-1.5 1.3-3.1 2.5-4.7 3.8q-1.1 1-2.3 1.9l-2.4 1.8c-6.4 4.8-13 9.2-19.8 13.3l-5.2 3c-1.7 0.9-3.5 1.8-5.3 2.8-3.4 1.9-7.1 3.5-10.6 5.2-2.1 1-4.7 0.1-5.7-2-1-2-0.3-4.3 1.5-5.5l0.2-0.1c6.4-4.1 12.7-8.3 18.7-12.9 6-4.6 11.9-9.3 17.3-14.4l2.1-1.9q1-1 2-2l4-4c2.5-2.7 5.1-5.3 7.5-8.2l1.8-2.1c0.6-0.7 1.2-1.4 1.8-2.1 1.1-1.5 2.3-2.9 3.5-4.4l3.3-4.4c1.1-1.5 2.1-3 3.1-4.5 4.1-6.1 7.9-12.4 11.1-18.9 3.1-6.5 5.8-13.2 7.9-20 2.1-6.8 3.6-13.7 4.3-20.6 0.8-6.9 0.7-13.8-0.1-20.5-0.8-6.7-2.4-13.2-4.9-19.4-2.4-6.2-5.7-12-9.6-17.3-3.9-5.3-8.5-10.1-13.7-14.4-5.1-4.2-10.8-7.9-16.9-10.9-6.1-3.1-12.6-5.5-19.2-7.5-6.7-1.9-13.6-3.4-20.6-4.2-7-0.9-14.1-1.3-21.2-1.3-7.1 0-14.3 0.5-21.4 1.4-28.5 3.5-56.4 13.5-81.5 28.2-6.3 3.6-12.3 7.7-18.2 11.9-5.9 4.2-11.4 8.9-16.8 13.7-5.4 4.8-10.4 10-15.2 15.4q-7.1 8.1-13 17c-4 5.9-7.6 12.1-10.6 18.5-3 6.4-5.5 13-7.4 19.8-1.9 6.7-3.1 13.6-3.4 20.5-0.5 6.9-0.1 13.8 1.1 20.5 1.3 6.8 3.4 13.4 6.3 19.7l1.1 2.3 1.3 2.3q0.6 1.2 1.3 2.3c0.4 0.8 0.9 1.5 1.3 2.2 1 1.5 1.9 3 3 4.4 1 1.4 2.1 2.8 3.2 4.2 4.6 5.4 9.8 10.4 15.6 14.7 5.8 4.4 12.2 8.1 18.8 11.4l0.1 0.1c2.7 1.3 3.7 4.5 2.4 7.1-1.2 2.4-4 3.5-6.5 2.7z"/>
								</g>
							</g>
						</g>
					</g>
				</g>
				<g id="&lt;Group&gt;">
					<g id="&lt;Group&gt;">
						<g id="&lt;Group&gt;">
							<g id="&lt;Group&gt;">
								<g id="&lt;Group&gt;">
									<path id="&lt;Path&gt;" class="s2" d="m1668.4 2996.2c-365.7 401.9-629.3 225.2-629.3 225.2 0 0-116.8 175.4-228.6 121.7-158.5-76.1 8.1-344.3 31.1-372.6 6.8-8.4 46.3-51.9 149-31.6 102.6 20.3 154.7-5.4 165.3-70.1"/>
								</g>
							</g>
						</g>
					</g>
					<g id="&lt;Group&gt;">
						<g id="&lt;Group&gt;">
							<g id="&lt;Group&gt;">
								<g id="&lt;Group&gt;">
									<path id="&lt;Path&gt;" class="s1" d="m1327.6 3220.3c-31.3 0-61.3-5.3-88.9-15.8-88.8-34.1-154.2-120.4-194.6-256.5-2.7-8.9 2.4-18.4 11.4-21 9-2.7 18.4 2.4 21 11.4 37.3 125.5 95.9 204.4 174.3 234.4 109.5 42 221.9-25.7 223-26.4 8-4.9 18.4-2.4 23.3 5.5 4.9 8 2.4 18.4-5.6 23.3-1.3 0.8-32.4 19.7-78.7 32.8-29 8.2-57.6 12.3-85.2 12.3z"/>
								</g>
							</g>
						</g>
					</g>
					<g id="&lt;Group&gt;" style="opacity: .3">
						<g id="&lt;Group&gt;">
							<g id="&lt;Group&gt;">
								<g id="&lt;Group&gt;">
									<path id="&lt;Path&gt;" class="s1" d="m744.8 3197.5c10.7 19.2 3.5 74.7 48.6 89 167.3 53 231.8-163.6 231.8-163.6 0 0 189.1 8.5 307.9-210l335.3 83.3c-365.7 401.9-629.3 225.2-629.3 225.2 0 0-116.8 175.4-228.6 121.8-60-28.9-73.4-85.2-65.7-145.7z"/>
								</g>
							</g>
						</g>
					</g>
					<g id="&lt;Group&gt;">
						<g id="&lt;Group&gt;">
							<g id="&lt;Group&gt;">
								<g id="&lt;Group&gt;">
									<path id="&lt;Path&gt;" class="s1" d="m854.8 3370.2c-17.9 0-35.2-3.9-51.6-11.8-39.2-18.8-63.8-49.5-73.1-91.3-11.2-49.8-0.1-113.6 32.7-189.6 24.2-55.9 54.7-104.2 65.7-117.7 11.6-14.2 57.7-58.8 165.4-37.5 54.9 10.9 94.7 8.1 118.2-8.3 14.6-10.1 23.5-25.8 27.1-47.9 1.5-9.2 10.2-15.5 19.4-14 9.3 1.6 15.5 10.3 14 19.5-5.1 31.2-18.9 54.8-41.2 70.2-31.8 22.1-78.9 26.6-144.1 13.7-91.5-18-126.5 18.2-132.6 25.7-14.3 17.6-114.6 175.6-91.6 278.6 7 31.5 24.9 53.8 54.7 68.1 97.2 46.7 206.1-114.3 207.2-115.9l9.4-14.1 14.1 9.4c0.6 0.4 64.2 41.6 169.7 35.2 98.1-6 253.7-55.5 437.7-257.7 6.3-6.9 17-7.4 23.9-1.1 6.9 6.3 7.4 17 1.1 23.9-84.7 93.1-171.3 163.2-257.3 208.3-69.5 36.5-138.8 56.9-206.1 60.5q-11.2 0.6-21.9 0.6c-75.2 0-127.7-21.3-151.6-33.4-12.2 16.3-35.8 45.4-66.3 71.6-42.4 36.5-84.1 55-122.9 55z"/>
								</g>
							</g>
						</g>
					</g>
					<g id="&lt;Group&gt;">
						<g id="&lt;Group&gt;">
							<g id="&lt;Group&gt;">
								<g id="&lt;Group&gt;">
									<g id="&lt;Group&gt;">
										<path id="&lt;Path&gt;" class="s2" d="m1170.7 2844.2c0 0-217.9-94.1-257.1-197.7-42.2-111.7 197.7-537 323.6-538.8 151.1-2.1 376.2 103.8 386.9 105.7z"/>
									</g>
								</g>
							</g>
						</g>
						<g id="&lt;Group&gt;">
							<g id="&lt;Group&gt;">
								<g id="&lt;Group&gt;">
									<g id="&lt;Group&gt;">
										<path id="&lt;Path&gt;" class="s2" d="m1624.1 2213.4l-73.7 102.5-379.8 528.3c0 0-105.6-45.6-183-108.3-33.7-27.3-62.1-57.9-74-89.4-42.2-111.7 197.7-537 323.6-538.8 151.1-2.1 376.2 103.8 386.9 105.7z"/>
									</g>
								</g>
							</g>
						</g>
						<g id="&lt;Group&gt;" style="opacity: .3">
							<g id="&lt;Group&gt;">
								<g id="&lt;Group&gt;">
									<g id="&lt;Group&gt;">
										<path id="&lt;Path&gt;" class="s1" d="m1550.4 2315.9l-379.8 528.3q0 0-0.1 0c-0.5-0.3-2.1-0.9-4.6-2.1q-0.7-0.3-1.6-0.7-0.1 0-0.3-0.1c-0.5-0.3-1.1-0.6-1.7-0.8-1.4-0.7-3-1.4-4.8-2.2-0.4-0.2-0.9-0.4-1.3-0.6-0.4-0.2-0.8-0.4-1.2-0.6-0.6-0.3-1.1-0.5-1.7-0.8-5.6-2.6-12.4-6-20.2-9.8q-1.4-0.7-2.8-1.5-4.4-2.2-9.1-4.6-1.6-0.8-3.2-1.6c-1.2-0.6-2.5-1.3-3.7-2-1.6-0.8-3.2-1.6-4.8-2.5q-0.7-0.4-1.4-0.7c-1.1-0.7-2.3-1.3-3.5-1.9-3.3-1.8-6.7-3.6-10.1-5.5-0.1-0.1-0.2-0.2-0.3-0.2-2.4-1.3-4.8-2.7-7.3-4.1q-0.1 0-0.2-0.1-2.6-1.5-5.3-3-1.6-0.9-3.4-1.9c-4.2-2.5-8.5-5-12.9-7.6-2.8-1.7-5.6-3.5-8.5-5.2-2.6-1.6-5.2-3.2-7.8-4.8q-3.8-2.5-7.8-5-3.9-2.6-7.8-5.1-3.9-2.6-7.8-5.3c-2.6-1.8-5.1-3.5-7.7-5.4q0 0.1 0 0-3.9-2.7-7.7-5.5-3.8-2.8-7.6-5.6c-0.4-0.3-0.8-0.6-1.1-0.9q-3.2-2.4-6.3-4.8-3.7-2.9-7.4-5.8c-33.7-27.3-62.1-57.9-74-89.4-22-58.3 32.8-202 108.1-326.3-33.4 79-50.4 150.3-36.4 187.3 4.9 12.9 12.6 25.7 22.3 38.2 11.3 14.5 24 27.2 37.7 37.9 84.9-151.5 242.3-327.8 326.6-319.4 48.7 4.9 103.9 21.9 156.6 42.8 7.4 2.9 14.7 5.9 21.9 8.9z"/>
									</g>
								</g>
							</g>
						</g>
						<g id="&lt;Group&gt;">
							<g id="&lt;Group&gt;">
								<g id="&lt;Group&gt;">
									<g id="&lt;Group&gt;">
										<path id="&lt;Compound Path&gt;" fill-rule="evenodd" class="s1" d="m1176.4 2865.2l-12.5-5.4c-2.2-1-56.2-24.5-115.9-61.2-82.1-50.4-132.6-99.6-150.2-146.1-16.8-44.4 5.1-119.4 26.4-174.5 26.9-69.7 68.8-148.4 114.7-215.9 43.2-63.5 126.5-170.3 198.1-171.3 55.6-0.8 126.9 12.4 212 39.1 68.5 21.5 127.9 46.1 159.8 59.3 8.5 3.4 16.5 6.7 19 7.6l25.8 4.5zm65.4-740.5q-2.2 0-4.3 0c-40 0.6-105.3 60.5-170.6 156.5-44.6 65.4-85.1 141.7-111.2 209.1-26.7 69-36.3 123.8-26.3 150.3 14.7 38.7 61.7 83.3 135.9 129 41.2 25.4 80.4 44.5 99.7 53.5l432.6-601.9q-0.8-0.3-1.7-0.7c-57.7-23.9-231.8-95.8-354.1-95.8zm386.4 72.3q0 0 0 0 0 0 0 0z"/>
									</g>
								</g>
							</g>
						</g>
						<g id="&lt;Group&gt;">
							<g id="&lt;Group&gt;">
								<g id="&lt;Group&gt;">
									<g id="&lt;Group&gt;">
										<path id="&lt;Path&gt;" class="s1" d="m1228.8 2100.5c5.5 6 10.8 11.9 16.1 17.9q7.9 9 15.7 18.1c10.4 12.2 20.6 24.5 30.6 37 10 12.6 19.8 25.3 29.1 38.5 1.1 1.6 2.3 3.3 3.5 4.9l3.4 5c2.2 3.4 4.6 6.7 6.7 10.2 2.1 3.4 4.3 6.8 6.4 10.4l6.1 10.7c2.7 4.6 1 10.5-3.6 13.2-4.5 2.6-10.3 1.1-13-3.4l-0.2-0.3c-7.9-12.9-17.3-25.3-26.9-37.5-9.7-12.2-19.9-24.1-30.3-35.8-10.4-11.7-21.1-23.2-32-34.6q-8.1-8.5-16.4-16.9c-5.5-5.5-11.1-11.2-16.6-16.5l-0.1-0.1c-5.9-5.7-6-15.2-0.3-21.1 5.8-5.9 15.3-6 21.2-0.3 0.2 0.2 0.4 0.4 0.6 0.6z"/>
									</g>
								</g>
							</g>
						</g>
						<g id="&lt;Group&gt;">
							<g id="&lt;Group&gt;">
								<g id="&lt;Group&gt;">
									<g id="&lt;Group&gt;">
										<path id="&lt;Path&gt;" class="s2" d="m1007.2 2335.6l106.4 83.3c9.5 7.5 12.8 20.4 8 31.4-17.6 40.5-63.2 132-116.9 136.3-44.7 3.6-90.2-30.8-102.3-72.8-13.5-47.1 38.7-131.8 66.6-172.3 8.7-12.7 26.2-15.3 38.2-5.9z"/>
									</g>
								</g>
							</g>
						</g>
						<g id="&lt;Group&gt;" style="opacity: .3">
							<g id="&lt;Group&gt;">
								<g id="&lt;Group&gt;">
									<g id="&lt;Group&gt;">
										<path id="&lt;Path&gt;" class="s1" d="m1121.6 2450.3c-17.6 40.5-63.2 132-116.9 136.3-44.7 3.6-90.2-30.8-102.3-72.8-8.3-29 8.3-72.2 28.7-110.5-6.9 21.3-8.8 41.2-5.3 57.4 19.8 92.6 105.2 56.1 105.2 56.1 0 0-3.2 20.6 2.1 25.4 21.8 20 67.8-59.7 90.7-101.5-0.1 3.2-0.8 6.5-2.2 9.6z"/>
									</g>
								</g>
							</g>
						</g>
						<g id="&lt;Group&gt;">
							<g id="&lt;Group&gt;">
								<g id="&lt;Group&gt;">
									<g id="&lt;Group&gt;">
										<path id="&lt;Compound Path&gt;" fill-rule="evenodd" class="s1" d="m998.3 2603.8c-49 0-98.3-36.9-112.2-85.4-14.4-50.2 29.6-129.2 68.9-186.5 6.8-9.9 17.5-16.6 29.3-18.4 11.8-1.8 23.9 1.4 33.3 8.8l106.5 83.3c15.6 12.2 20.9 33.4 13.1 51.5-9.9 22.6-26 55.8-46.7 84.8-27.6 38.6-56 59.3-84.5 61.6q-3.8 0.3-7.7 0.3zm-7.4-256.9q-0.9 0-1.5 0.1c-1.5 0.2-4.4 1.1-6.4 4-48.4 70.5-72.5 129.6-64.3 158.1 9.7 34.1 45.4 60.9 79.5 60.9q2.6 0 5.1-0.2c36.6-3 77.1-67.2 102.8-126.2 1.7-4 0.5-8.7-2.9-11.4l-106.4-83.3c-2.1-1.6-4.3-2-5.9-2z"/>
									</g>
								</g>
							</g>
						</g>
						<g id="&lt;Group&gt;">
							<g id="&lt;Group&gt;">
								<g id="&lt;Group&gt;">
									<g id="&lt;Group&gt;">
										<path id="&lt;Path&gt;" class="s1" d="m940.4 2550.4c0 0-0.1 0-0.1 0 0.1 0 0.1 0 0.1 0l0.4 0.1c0.4 0.1 0.7 0.1 1 0.1q1 0.1 2.2 0.2c1.5 0.1 3 0.1 4.6 0 3.2-0.1 6.5-0.4 9.7-1 3.3-0.5 6.6-1.3 9.9-2.2 3.2-1 6.5-2.1 9.7-3.4 12.8-5.2 24.9-13.1 35.7-22.8 5.5-4.8 10.6-10.1 15.5-15.6l3.6-4.3 3.6-4.4q1.8-2.2 3.5-4.4c1.2-1.5 2.4-3 3.5-4.5 4.5-6.1 8.9-12.3 12.9-18.6 1.9-3.2 3.9-6.4 5.6-9.7q1.3-2.4 2.5-4.9c0.4-0.8 0.8-1.7 1.1-2.5q0.3-0.6 0.5-1.2l0.4-1 0.2-0.6c0.9-2.3 3.5-3.4 5.8-2.5 2.1 0.8 3.2 3 2.7 5.1l-0.2 1-0.2 0.8q-0.2 0.8-0.4 1.5c-0.3 1-0.6 2-1 2.9q-0.9 2.9-2.1 5.7c-1.4 3.8-3.1 7.4-4.8 11-3.4 7.1-7.2 14-11.2 20.8-1 1.7-2.1 3.4-3.1 5.1q-1.5 2.5-3.1 5l-3.2 5-3.3 5c-4.6 6.6-9.6 13-15.1 19-10.8 12.2-23.8 23.1-38.7 31.3-3.8 2-7.7 3.9-11.7 5.6-3.9 1.7-8.1 3.1-12.3 4.3-4.2 1.3-8.6 2.3-13 2.9-2.3 0.4-4.6 0.7-6.9 0.8q-1.8 0.1-3.6 0.2c-0.7 0-1.3 0-2 0h-1l-0.6-0.1h-0.3-0.5c-8.2-1.1-14-8.6-13-16.8 1.1-8.1 8.5-13.9 16.7-12.9z"/>
									</g>
								</g>
							</g>
						</g>
					</g>
					<g id="&lt;Group&gt;">
						<g id="&lt;Group&gt;">
							<g id="&lt;Group&gt;">
								<g id="&lt;Group&gt;">
									<path id="&lt;Path&gt;" class="s2" d="m1873.5 2488.7l-18.2-172.7c73.8-7.2 134.7-19.9 185.6-36.6 152.2-50.1 216.6-136.1 277.9-218.8 39.3-53.1 77.4-104.8 136.6-144.8 62.8-42.4 166-118.2 216.3-98.9 17.7 6.8 37.6 32.6 31.3 61.2-9.1 40.7-50.3 84-50.3 84 0 0 122.9-29 138 38.6 9.5 42.7-31.6 59.6-31.6 59.6 0 0 28.1 4.9 38.8 28 35.3 76.1-99.9 91.1-127.8 127.6-214.2 280.5-492.9 345.3-654.9 357.4-81 6-132.9-1.2-132.9-1.2z"/>
								</g>
							</g>
						</g>
					</g>
					<g id="&lt;Group&gt;" style="opacity: .3">
						<g id="&lt;Group&gt;">
							<g id="&lt;Group&gt;">
								<g id="&lt;Group&gt;">
									<path id="&lt;Path&gt;" class="s1" d="m1873.5 2488.7l-18.2-172.7q8.7-0.8 17.1-1.8l7.6 72.2 8.9 83.3c0 0 51.8 7.2 132.8 1.2 137.2-10.2 359 23.6 505.7-192.5 49.2-72.3-34.9-147.9 14.1-258.4 1.7-3.8 12.4 49.6 55.6 48.7 136.7-2.7 194.8-98.7 191.9-44.2-2.3 42.8-183.3 68.3-175.7 117.1 2 12.9 12.6 42.2 60.8 28.6 24.8-7 117.9-74.5 128.9-50.8-9 50.1-109.3 65.6-132.9 96.5-214.2 280.5-492.9 345.3-654.9 357.4-81 6-132.9-1.2-132.9-1.2z"/>
								</g>
							</g>
						</g>
					</g>
					<g id="&lt;Group&gt;">
						<g id="&lt;Group&gt;">
							<g id="&lt;Group&gt;">
								<g id="&lt;Group&gt;">
									<path id="&lt;Path&gt;" class="s1" d="m1951.9 2592.7c-43.3 0-69.6-3.6-71.9-3.9-9.3-1.2-15.7-9.8-14.4-19.1 1.2-9.2 9.8-15.7 19.1-14.4 1.1 0.2 116.4 15.3 268.6-20.3 139.9-32.7 340.8-116.5 503.3-329.4 12-15.6 35.6-26.4 60.5-37.8 28.6-13.1 61-27.9 68.2-47.3 2.6-7.2 1.7-15.4-2.8-25.1-6.6-14.2-25.2-18.2-26.3-18.5-7.6-1.2-13.4-7.2-14.2-14.8-0.8-7.6 3.6-14.7 10.7-17.5 3.1-1.4 27.5-12.9 21.4-40.2-2-9.1-6.7-15.7-14.8-20.8-27.8-17.4-83.6-9.6-102.7-5-7.3 1.7-14.8-1.6-18.5-8.1-3.8-6.5-2.8-14.6 2.4-20.1 0.3-0.4 38-40.4 45.9-76 4.6-20.4-11.1-38-20.8-41.7-10.5-4.1-32.7-3.9-78.9 19.9-35 18-73.2 44.1-103.9 65-6.3 4.3-12.3 8.4-18 12.3-56.3 37.9-92.8 87.2-131.5 139.4-41.8 56.4-85 114.8-156.3 163.1-80.2 54.5-184.9 87.3-320.1 100.4-9.3 0.9-17.5-5.9-18.5-15.2-0.9-9.3 6-17.5 15.3-18.4 288-28.1 371.6-140.9 452.4-250 38.7-52.2 78.7-106.2 139.8-147.4 5.6-3.8 11.6-7.9 17.8-12.1 31.5-21.5 70.6-48.3 107.6-67.3 47.3-24.3 81.1-31.1 106.5-21.3 26.5 10.2 49.6 45 41.7 80.7-4.6 20.5-16.1 41.2-27.4 57.7q1.3 0 2.5-0.1c35.3-2 63.1 3.2 82.6 15.5 15.9 9.9 26 24.1 30 42.1 5.8 26.1-2.9 46-14.9 59.6 8 5.6 15.8 13.5 20.9 24.6 8.4 18 9.7 35.2 3.8 51-12 32.6-51.2 50.5-85.8 66.4-20.1 9.2-40.8 18.6-47.7 27.6-74.6 97.7-163.2 177.6-263.4 237.4-80.1 47.9-167.8 83.1-260.5 104.7-84.7 19.7-157.6 24.4-207.7 24.4z"/>
								</g>
							</g>
						</g>
					</g>
					<g id="&lt;Group&gt;">
						<g id="&lt;Group&gt;">
							<g id="&lt;Group&gt;">
								<g id="&lt;Group&gt;">
									<path id="&lt;Path&gt;" class="s2" d="m498.8 2656.4c20.9-33 50.8-65.3 85-90.5 54.9-40.2 120.7-62 178.1-38 39.7 16.7 56.5 67.9 78.6 112.6 12.5 25.3 26.7 48.6 47.6 62.2 60.3 39.4 133.3-13.2 156.4-31.5 0 0 9.1-24.8 30.7-59.9 12.1-19.6 28.1-42.5 48.6-66 37.2-42.7 112.4-91.8 181.9-164.5 54.7-57.3 105.8-129.2 131.8-224.2q1.3-4.9 2.6-10l15 1.4 60.4 5.4 523.9 47.3q1.5 40.5 1.5 78.7c0 48.7-1.7 94.6-5 137.9-4.3 56.3-11.4 108.2-20.7 156-136.3 696.7-768.2 521.3-768.2 521.3 0 0-185.1 98.1-334.3 57.2-177.6-48.7-262.2-283.5-262.2-283.5 0 0-111 107.3-187.2 17.5-55.8-65.5-0.5-172.7 35.5-229.4z"/>
								</g>
							</g>
						</g>
					</g>
					<g id="&lt;Group&gt;" style="opacity: .3">
						<g id="&lt;Group&gt;">
							<g id="&lt;Group&gt;">
								<g id="&lt;Group&gt;">
									<path id="&lt;Path&gt;" class="s1" d="m637.8 2767.5c76.6 19.4 120.5 249.1 298.1 297.8 105.5 29 229-11.6 292.3-37.9 27.5-11.4 57.7-14.8 87.1-9.9 136.6 22.8 545.6 49 694.1-416.5-147.5 664.3-762.4 493.6-762.4 493.6 0 0-185.1 98.1-334.3 57.2-177.6-48.7-262.2-283.5-262.2-283.5 0 0-111 107.3-187.2 17.5-5.3-6.1-9.5-12.7-12.9-19.5 133.9 89.7 169.5-103.4 187.4-98.8z"/>
								</g>
							</g>
						</g>
					</g>
					<g id="&lt;Group&gt;">
						<g id="&lt;Group&gt;">
							<g id="&lt;Group&gt;">
								<g id="&lt;Group&gt;">
									<path id="&lt;Path&gt;" class="s1" d="m992.1 3178.7c-30.1 0-58.2-3.5-83.9-10.6-43-11.8-84.2-34.8-122.6-68.4-30.2-26.5-58.7-59.6-84.7-98.5-28.2-42.2-47.2-81.5-57.4-105-22.7 17.2-63.5 42.4-107.5 42.4q-2.7 0-5.5-0.2c-31-1.5-58-15.5-80.2-41.6-28.2-33.2-34.9-78.1-20-133.4 9.5-35.3 27.8-74.4 54.2-116.1 30.1-47.5 74.9-90 123-116.7 26.7-14.8 53.4-24.2 79.2-27.9 29.2-4.1 56.6-0.9 81.7 9.6 38.9 16.3 57.9 57.5 76.2 97.3 14.5 31.3 29.4 63.7 52.8 79 21 13.7 46.9 15.1 77 4.1 18-6.6 37.2-17.6 56-32 6.6-15.8 30.8-69.3 80.6-126.5 18.4-21.1 44.7-42.9 75.1-68.1 83.4-69.3 197.7-164.1 237.5-323.6 2.3-9.1 11.5-14.6 20.6-12.3 9 2.3 14.6 11.5 12.3 20.5-42.6 170.2-161.8 269.2-248.8 341.4-29.3 24.3-54.6 45.3-71.2 64.3-53.9 62-76 120.2-76.2 120.7l-1.6 4.5-3.8 2.9c-22.6 17.9-46.4 31.8-68.8 40-40.1 14.7-77.2 12.1-107.3-7.6-31.4-20.6-48.4-57.5-64.9-93.1-16.4-35.5-31.8-69.1-58.6-80.3-80.5-33.7-188.4 37.1-242.2 121.9-24.6 38.9-41.5 74.8-50.1 106.8-11.9 43.9-7.4 78.5 13.1 102.7 16.1 18.9 34.4 28.6 55.9 29.7 52.9 2.7 106.2-47.9 106.7-48.4l18.9-18.1 8.8 24.5c0.2 0.6 21.2 58.1 63.1 120.4 37.9 56.5 101.2 128.8 187.7 152.5 73 20 156.2 4 213.1-13 62.7-18.7 108.3-42.6 108.8-42.9l5.9-3.1 6.5 1.8c0.8 0.2 76.3 20.7 178.5 18.9 93.4-1.6 229.1-22.8 345-114.4 178.2-141 261.5-403.9 247.5-781.5-0.4-9.3 6.9-17.2 16.3-17.5 9.3-0.4 17.2 6.9 17.5 16.3 7.7 208.4-14.2 385.3-65.3 525.8-43.8 120.4-109.5 215.9-195.3 283.6-54.6 43.2-117.8 75.4-187.7 95.7-55.8 16.2-115.8 24.9-178.6 25.9q-6.2 0.1-12.3 0.1c-84.3 0-148.1-13.8-168.1-18.6-14.7 7.3-55.3 26.3-108.3 42.2-38.8 11.6-76.3 19-111.3 22.2q-19.1 1.7-37.3 1.7z"/>
								</g>
							</g>
						</g>
					</g>
					<g id="&lt;Group&gt;">
						<g id="&lt;Group&gt;">
							<g id="&lt;Group&gt;">
								<g id="&lt;Group&gt;">
									<path id="&lt;Path&gt;" class="s2" d="m2433.2 1955.2c41.9-65.7 131.1-81.5 148.7-78.1 13.3 2.5 45 45.2 12.4 71.1-32.6 25.8-59.7 25.1-59.3 38.1 0.5 12.9 22.6 58.9-13 104"/>
								</g>
							</g>
						</g>
					</g>
					<g id="&lt;Group&gt;">
						<g id="&lt;Group&gt;">
							<g id="&lt;Group&gt;">
								<g id="&lt;Group&gt;">
									<path id="&lt;Path&gt;" class="s1" d="m2428.4 1952.1c8.1-17.6 20.8-33.3 35.7-46.2 14.9-12.9 32-23.1 50.1-30.8 9-3.8 18.3-7.2 27.9-9.7 4.8-1.3 9.7-2.4 14.7-3.4 5-0.9 10-1.6 15.6-1.9l2.1-0.1c0.7-0.1 1.5 0 2.2-0.1 1.5 0 3.3 0.1 5 0.2q1.5 0.2 3.1 0.4c1.3 0.3 3.2 0.8 4.4 1.2 2.5 1 4.5 2.1 6.2 3.1 3.4 2.1 5.9 4.2 8.2 6.4 2.3 2.2 4.3 4.5 6.1 6.8 3.7 4.7 6.8 9.7 9.3 15 2.5 5.4 4.5 11.2 5.5 17.5 1.1 6.3 1.2 13.1-0.3 19.9-1.4 6.7-4.3 13.3-8.3 18.7-0.9 1.5-2 2.7-3.1 4-1 1.3-2.2 2.3-3.3 3.5-1.2 1.1-2.4 2.1-3.6 3.1l-0.9 0.7c-0.3 0.3-0.6 0.6-0.8 0.7l-1.6 1.2q-6.2 4.5-12.7 8.5c-8.7 5.2-18 9.5-26.9 13.1-4.4 1.7-8.8 3.3-12.1 4.8-1.6 0.7-2.9 1.4-3.2 1.5 0 0 0.2-0.2 0.5-0.9 0.5-0.7 0.8-1.9 0.8-2.8q0-0.3 0-0.6v-0.1c0 0 0 0 0 0v0.1h-0.1c0 0.1 0 0.1 0 0.2l0.1 0.4c0 0.7 0.1 1.6 0.3 2.6 0.3 2 0.8 4.2 1.2 6.5 0.8 4.6 1.7 9.5 2.3 14.5 1.1 9.9 1.4 20.2-0.1 30.4-1.3 10.2-4.3 20.2-8.9 29.2-4.5 9.1-10.5 17.2-17.3 24.1-2.2 2.3-5.8 2.3-8 0.1-1.9-1.9-2.2-4.7-1-6.9l0.1-0.1c4.5-7.6 8.1-15.4 10.4-23.5 1.1-4 2-8.1 2.5-12.2q0.8-6.1 0.8-12.2-0.1-6.2-0.9-12.3c-0.6-4.1-1.4-8.2-2.4-12.3-1-4.2-2.1-8.3-3.4-12.6-0.7-2.2-1.3-4.4-2-6.9-0.3-1.3-0.7-2.6-1-4.2l-0.2-1.3c0-0.2-0.1-0.5-0.1-0.7l-0.1-0.8v-0.8c-0.1-0.2-0.1-0.2-0.1-0.4v-0.6q0-1.1 0.1-2.3c0.2-3.2 1.3-6.6 2.9-9.3 1.6-2.7 3.4-4.5 5.1-6.1 3.3-2.8 6-4.3 8.5-5.7 5-2.7 9.1-4.5 13.1-6.5 4-2 7.8-3.8 11.5-5.9 3.6-2 7.1-4.2 10.6-6.5q5.1-3.4 9.9-7.3l1.2-1c0.2-0.1 0.3-0.3 0.5-0.4l0.4-0.4c0.5-0.5 1.1-0.9 1.5-1.5 1-1 1.8-2 2.5-3 1.4-2.1 2.2-4.2 2.6-6.4 0.1-0.6 0.1-1.2 0.2-1.8 0-0.6 0.1-1.2 0.1-1.8-0.1-0.7-0.1-1.3-0.2-2l-0.1-1-0.1-1c-1-5.6-4.1-12-8.2-17.2-1-1.3-2.1-2.4-3.1-3.4-1-1.1-2-1.9-2.6-2.2-0.2-0.2-0.3-0.2 0.1-0.1l0.2 0.1q0.2 0 0.3 0.1 0.2 0 0.4 0c0.1 0.1 0.3 0.1 0.2 0.1q-0.2 0-0.3-0.1c-0.6 0-1.1-0.1-2-0.1-0.4 0-0.8-0.1-1.2 0h-1.3c-3.7 0.1-7.8 0.5-11.9 1.1-4.1 0.5-8.2 1.2-12.4 2.1-4.1 0.9-8.3 1.9-12.4 3q-6.2 1.6-12.4 3.7c-16.3 5.3-32.2 12.3-46.9 21.4-14.7 9-28.1 20.1-39.9 33.5l-0.1 0.1c-2.1 2.3-5.7 2.5-8 0.5-2-1.7-2.5-4.5-1.5-6.7z"/>
								</g>
							</g>
						</g>
					</g>
					<g id="&lt;Group&gt;">
						<g id="&lt;Group&gt;">
							<g id="&lt;Group&gt;">
								<g id="&lt;Group&gt;">
									<g id="&lt;Group&gt;">
										<path id="&lt;Path&gt;" class="s2" d="m2012 2672.5l-187.8 247.3-189.6 18.5-100.2 9.8c0 0-77.3-29.7-96-37.1-25.3-10.1-15-40.8-3.3-57.8 20.2-29.2 36.1-58.2 49.2-86 21.1-44.8 35-86.6 47.8-120.7 10.5-28 38.5-45.5 68.3-42.3 177.6 19.1 352.4 18.2 352.4 18.2z"/>
									</g>
								</g>
							</g>
						</g>
						<g id="&lt;Group&gt;">
							<g id="&lt;Group&gt;">
								<g id="&lt;Group&gt;">
									<g id="&lt;Group&gt;">
										<path id="&lt;Compound Path&gt;" fill-rule="evenodd" class="s1" d="m1534.3 2963.1c-1.8 0-3.6-0.4-5.3-1-3.2-1.2-77.6-29.8-96.1-37.2-11.9-4.7-19.9-13.2-23.4-24.6-5.6-18.7 3.2-41 13.3-55.7 44.5-64.3 67.8-128.3 86.5-179.7 3-8.3 5.9-16.1 8.7-23.7 12.9-34.5 47.5-55.9 84-51.9 174.6 18.7 348.9 18.2 350.7 18.2 3.5-0.1 7 1.2 9.7 3.5l59.3 50c6.1 5.2 7.1 14.2 2.3 20.6l-187.8 247.3c-2.6 3.3-6.4 5.4-10.5 5.8l-289.9 28.3q-0.7 0.1-1.5 0.1zm59.1-344.3c-20.8 0-39.8 13-47.3 33-2.8 7.4-5.6 15.1-8.6 23.3-19.3 53.1-43.3 119.1-90 186.6-7.3 10.5-11.2 23.3-9.2 30 0.5 1.7 1.6 3.7 5.7 5.3 16.1 6.5 77.5 30 92.4 35.8l279.8-27.3 175.3-230.7-44.2-37.3c-31.3-0.1-189.7-1.3-348.5-18.4q-2.7-0.3-5.4-0.3z"/>
									</g>
								</g>
							</g>
						</g>
						<g id="&lt;Group&gt;" style="opacity: .3">
							<g id="&lt;Group&gt;">
								<g id="&lt;Group&gt;">
									<g id="&lt;Group&gt;">
										<path id="&lt;Path&gt;" class="s1" d="m1634.6 2938.3l-100.2 9.8c0 0-77.3-29.7-96-37.1-19.3-7.7-17.9-27.5-10.9-43.9 2.2-5.1 4.9-9.9 7.6-13.9 20.2-29.2 36.1-58.2 49.2-86 4.1 12.7 16-0.5 47.8-10.4 37.6-11.7 55.7-43.5 77.7-51 64.1-21.9 41 160.9 24.8 232.5z"/>
									</g>
								</g>
							</g>
						</g>
						<g id="&lt;Group&gt;">
							<g id="&lt;Group&gt;">
								<g id="&lt;Group&gt;">
									<g id="&lt;Group&gt;">
										<path id="&lt;Path&gt;" class="s2" d="m1893.1 2833.5c-8.7 23.6-16.9 53.8-16.9 53.8 0 0-49.6-13.1-53.5-14.5-12.9-4.8-13.1-36.1-0.6-70 12.5-33.9 33.1-57.5 46-52.7 9.4 3.4 49.3 13.6 49.3 13.6 0 0-20.9 60.7-24.3 69.8z"/>
									</g>
								</g>
							</g>
						</g>
						<g id="&lt;Group&gt;">
							<g id="&lt;Group&gt;">
								<g id="&lt;Group&gt;">
									<g id="&lt;Group&gt;">
										<path id="&lt;Path&gt;" class="s2" d="m1927.1 2836.7c-12.5 33.9-36.6 56.2-53.7 49.9-17.1-6.4-20.8-39-8.3-72.8 12.6-33.9 36.6-56.2 53.7-49.9 17.1 6.3 20.8 38.9 8.3 72.8z"/>
									</g>
								</g>
							</g>
						</g>
						<g id="&lt;Group&gt;">
							<g id="&lt;Group&gt;">
								<g id="&lt;Group&gt;">
									<g id="&lt;Group&gt;">
										<path id="&lt;Path&gt;" class="s2" d="m2007.5 2686c-13.5 24.1-34.8 62.6-58.4 102.2-33.7 56.6-71.9 115.4-98.3 137.6-45.9 38.6-211.1 36.3-316.5 22.3-27.6-3.7-43.5-32.8-28-56 25.4-37.9 47.2-75.7 64.9-108.7 16.7-31.3 29.8-58.4 38.6-77.6 8-17.6 26.9-27.7 46-24.8 166.7 25.2 285.7 1.6 337.6-12.9 10.6-3 19.4 8.3 14.1 17.9z"/>
									</g>
								</g>
							</g>
						</g>
						<g id="&lt;Group&gt;" style="opacity: .3">
							<g id="&lt;Group&gt;">
								<g id="&lt;Group&gt;">
									<g id="&lt;Group&gt;">
										<path id="&lt;Path&gt;" class="s1" d="m1905.7 2857.5c-16.3 24.3-32.1 45.5-45.7 59.5-3.2 3.4-6.3 6.3-9.2 8.8-45.9 38.6-211.1 36.3-316.5 22.3-27.6-3.7-43.5-32.8-28-56 25.4-37.9 47.2-75.7 64.9-108.7 5.3 29.9 29.2 94.3 134.9 116.7 27.3 5.8 55.9 2.2 84.3-7.2-4.1-12.9-1.7-35.8 7.3-60.1 12.5-33.9 33.1-57.5 45.9-52.7 7.9 2.9 37 10.4 46.4 12.8q2.3 0.2 4.4 1c9 3.3 14.3 14.1 15.5 28.6 0.7 10.3-0.6 22.4-4.2 35z"/>
									</g>
								</g>
							</g>
						</g>
						<g id="&lt;Group&gt;" style="opacity: .3">
							<g id="&lt;Group&gt;">
								<g id="&lt;Group&gt;">
									<g id="&lt;Group&gt;">
										<path id="&lt;Path&gt;" class="s1" d="m1905.7 2857.5c3.6-12.6 4.9-24.7 4.2-35 14-11.4 27.3-23.1 39.2-34.3-14 23.6-28.9 47.7-43.4 69.3z"/>
									</g>
								</g>
							</g>
						</g>
						<g id="&lt;Group&gt;">
							<g id="&lt;Group&gt;">
								<g id="&lt;Group&gt;">
									<g id="&lt;Group&gt;">
										<path id="&lt;Compound Path&gt;" fill-rule="evenodd" class="s1" d="m1678 2972.4c-47.5 0-99.7-3.3-145.7-9.5-19.1-2.5-35-14.1-42.7-31-7.1-15.9-5.6-33.4 4.2-48.1 49.3-73.8 85.3-147.1 102.3-184.2 10.8-23.6 36.3-37.3 62-33.4 161.7 24.4 277 2.6 331.3-12.6 10.7-2.9 22 0.8 28.8 9.4 6.9 8.7 7.8 20.6 2.4 30.3l-3.3 5.9c-36.2 64.8-111.4 199.8-156.9 238-23.5 19.8-72.3 31.4-144.9 34.4-12 0.5-24.6 0.8-37.5 0.8zm-28.6-276.9c-11 0-21.3 6.4-26 16.6-17.4 37.9-54.2 112.8-104.6 188.4-5.4 8.1-3.5 15.4-1.8 19 3.3 7.4 10.5 12.5 19.3 13.7 117.2 15.6 267.1 12.8 304.8-18.9 41.3-34.7 117.5-171.4 150-229.8l0.2-0.3c-58.9 15.7-176.3 36-337.7 11.6q-2.1-0.3-4.2-0.3z"/>
									</g>
								</g>
							</g>
						</g>
						<g id="&lt;Group&gt;">
							<g id="&lt;Group&gt;">
								<g id="&lt;Group&gt;">
									<g id="&lt;Group&gt;">
										<g id="&lt;Group&gt;">
											<path id="&lt;Path&gt;" class="s3" d="m1893.1 2833.5c-8.7 23.6-16.9 53.8-16.9 53.8 0 0-49.6-13.1-53.5-14.5-12.9-4.8-13.1-36.1-0.6-70 12.5-33.9 33.1-57.5 46-52.7 9.4 3.4 49.3 13.6 49.3 13.6 0 0-20.9 60.7-24.3 69.8z"/>
										</g>
									</g>
								</g>
							</g>
							<g id="&lt;Group&gt;" style="opacity: .8">
								<g id="&lt;Group&gt;">
									<g id="&lt;Group&gt;">
										<g id="&lt;Group&gt;">
											<path id="&lt;Path&gt;" class="s2" d="m1917.4 2763.7c0 0-20.9 60.7-24.3 69.8-8.8 23.6-16.9 53.8-16.9 53.8 0 0-1-0.3-2.7-0.7 3-9.8 6.8-21.7 10.7-32.1 3.4-9.1 24.3-69.9 24.3-69.9 0 0-39.9-10.1-49.3-13.6-10.5-3.9-26 11-38.2 34.9 0.4-1 0.7-2.1 1.1-3.1 12.5-33.9 33.1-57.5 46-52.7 9.4 3.4 49.3 13.6 49.3 13.6z"/>
										</g>
									</g>
								</g>
							</g>
							<g id="&lt;Group&gt;" style="opacity: .3">
								<g id="&lt;Group&gt;">
									<g id="&lt;Group&gt;">
										<g id="&lt;Group&gt;">
											<path id="&lt;Path&gt;" class="s1" d="m1889.1 2844.8c-7.1 21-12.9 42.5-12.9 42.5 0 0-49.6-13.1-53.5-14.6-12.9-4.7-13.1-36-0.6-69.9 4.2-11.4 9.4-21.7 14.8-30.1-8.7 29.5-7.2 54.8 4.2 59 3.1 1.2 35 9.7 48 13.1z"/>
										</g>
									</g>
								</g>
							</g>
							<g id="&lt;Group&gt;">
								<g id="&lt;Group&gt;">
									<g id="&lt;Group&gt;">
										<g id="&lt;Group&gt;">
											<path id="&lt;Compound Path&gt;" fill-rule="evenodd" class="s1" d="m1876.2 2899.8q-1.6 0-3.2-0.4c-15.1-4-50.6-13.4-54.7-14.9-24-8.9-20.9-50.8-7.9-86 6.6-17.8 15.5-33.7 25.1-44.8 16.7-19.1 30.3-17.8 36.9-15.4 7.2 2.7 37.2 10.5 48.1 13.2 3.4 0.9 6.2 3.1 7.9 6.2 1.7 3.1 2 6.7 0.8 10-0.8 2.5-21 61-24.4 70.1-8.4 22.9-16.5 52.5-16.6 52.8-1.5 5.5-6.5 9.2-12 9.2zm-48.6-38.6c4.2 1.3 21.6 6 39.9 10.9 3.2-11.2 8.4-28.2 13.9-42.9 2.3-6.3 13.4-38.5 19.8-56.8-12.5-3.3-29.9-7.9-36.9-10.4-4.7 1.1-19.3 14.9-30.5 45.1-11.1 30.1-9.1 50.1-6.2 54.1zm65.5-27.7z"/>
										</g>
									</g>
								</g>
							</g>
							<g id="&lt;Group&gt;">
								<g id="&lt;Group&gt;">
									<g id="&lt;Group&gt;">
										<g id="&lt;Group&gt;">
											<path id="&lt;Path&gt;" class="s3" d="m1927.1 2836.7c-12.5 33.9-36.6 56.2-53.7 49.9-17.1-6.4-20.8-39-8.3-72.8 12.6-33.9 36.6-56.2 53.7-49.9 17.1 6.3 20.8 38.9 8.3 72.8z"/>
										</g>
									</g>
								</g>
							</g>
							<g id="&lt;Group&gt;" style="opacity: .8">
								<g id="&lt;Group&gt;">
									<g id="&lt;Group&gt;">
										<g id="&lt;Group&gt;">
											<path id="&lt;Path&gt;" class="s2" d="m1927.1 2836.7q-1.3 3.3-2.6 6.4c5.8-26.9 0.7-50.1-13.4-55.4-16-5.9-38 13.3-51.1 43.5 1.3-5.7 3-11.5 5.1-17.4 12.6-33.9 36.6-56.3 53.7-49.9 17.1 6.3 20.8 38.9 8.3 72.8z"/>
										</g>
									</g>
								</g>
							</g>
							<g id="&lt;Group&gt;" style="opacity: .3">
								<g id="&lt;Group&gt;">
									<g id="&lt;Group&gt;">
										<g id="&lt;Group&gt;">
											<path id="&lt;Path&gt;" class="s1" d="m1926 2839.6c-12.8 32.2-36 53.1-52.6 47-17.1-6.4-20.8-38.9-8.3-72.8 6.6-17.7 16.2-32.3 26.4-41.3q-0.5 1.5-1 2.9c-12.5 33.8-8.8 66.4 8.3 72.8 8.1 3 17.8-0.5 27.2-8.6z"/>
										</g>
									</g>
								</g>
							</g>
							<g id="&lt;Group&gt;">
								<g id="&lt;Group&gt;">
									<g id="&lt;Group&gt;">
										<g id="&lt;Group&gt;">
											<path id="&lt;Compound Path&gt;" fill-rule="evenodd" class="s1" d="m1879.6 2900.2q-5.4 0-10.5-1.9c-24.4-9-31.1-47.2-15.7-88.9 6.7-18.2 16.8-34.1 28.3-44.8 13.8-12.8 28.5-17.2 41.4-12.4 24.4 9 31.1 47.2 15.7 88.8-6.7 18.2-16.8 34.1-28.3 44.9-10.2 9.4-20.8 14.3-30.9 14.3zm33.1-124.9c-3.6 0-8.8 2.8-13.9 7.6-8.7 8-16.6 20.8-22 35.2-5.3 14.4-7.6 29.3-6.2 41 0.9 8.3 3.7 14.5 7.2 15.7 3.4 1.3 9.5-1.6 15.7-7.3 8.6-7.9 16.6-20.8 21.9-35.1 5.3-14.4 7.6-29.4 6.2-41-0.9-8.3-3.7-14.5-7.1-15.8q-0.8-0.3-1.8-0.3z"/>
										</g>
									</g>
								</g>
							</g>
						</g>
						<g id="&lt;Group&gt;">
							<g id="&lt;Group&gt;">
								<g id="&lt;Group&gt;">
									<g id="&lt;Group&gt;">
										<path id="&lt;Path&gt;" class="s1" d="m1657 2969.7c-2.1 0-4.2-0.5-6.2-1.7-6-3.4-8-11-4.6-17l59.4-103.5-28.4-25.4c-4-3.6-5.3-9.4-3.2-14.3l53.1-122.7c2.7-6.4 10.1-9.3 16.4-6.6 6.4 2.8 9.3 10.1 6.5 16.5l-49.4 114.4 29.2 26.2c4.4 4 5.5 10.4 2.5 15.6l-64.4 112.2c-2.3 4-6.5 6.3-10.9 6.3z"/>
									</g>
								</g>
							</g>
						</g>
					</g>
					<g id="&lt;Group&gt;">
						<g id="&lt;Group&gt;">
							<g id="&lt;Group&gt;">
								<g id="&lt;Group&gt;">
									<path id="&lt;Path&gt;" class="s1" d="m869.9 3150.8c-3.9 0-7.8-1.5-10.7-4.5-32.5-32.9-51.1-77.4-55.1-132.2-3.2-42.6 2.4-91.5 16.6-145.5 23.9-90.8 63.4-163.9 65.1-167 4-7.3 13.1-9.9 20.4-6 7.2 4 9.9 13.1 5.9 20.4-0.5 0.9-39.7 73.5-62.6 160.8-20.5 78.3-31.7 184.9 31 248.5 5.9 5.8 5.8 15.3-0.1 21.2-2.9 2.9-6.7 4.3-10.5 4.3z"/>
								</g>
							</g>
						</g>
					</g>
					<g id="&lt;Group&gt;">
						<g id="&lt;Group&gt;">
							<g id="&lt;Group&gt;">
								<g id="&lt;Group&gt;">
									<path id="&lt;Path&gt;" class="s1" d="m2361 2492q-0.5 0-1 0c-82.8-5.8-141.2-58.5-169.1-152.6-20.3-68.6-17.1-134.4-17-137.2 0.4-8.3 7.5-14.6 15.8-14.2 8.2 0.4 14.6 7.5 14.2 15.8-0.1 1-3 64.3 16 127.8 24.4 81.7 72.2 125.6 142.2 130.4 8.2 0.6 14.5 7.8 13.9 16-0.6 8-7.2 14-15 14z"/>
								</g>
							</g>
						</g>
					</g>
					<g id="&lt;Group&gt;">
						<g id="&lt;Group&gt;">
							<g id="&lt;Group&gt;">
								<g id="&lt;Group&gt;">
									<path id="&lt;Path&gt;" class="s1" d="m2766.4 2073.4c-2.4 1.8-5 3.4-7.5 4.9-1.3 0.9-2.6 1.5-4 2.2-1.3 0.7-2.6 1.4-4 2.1-2.7 1.4-5.5 2.4-8.3 3.5-2.7 1.2-5.6 2-8.4 2.9-11.5 3.6-23.1 5.2-34 6.6-11 1.3-21.6 2.4-32.1 4.1-10.6 1.7-21.1 4.2-32 7-1.2 0.3-2.4-0.4-2.7-1.5-0.3-0.8 0-1.7 0.6-2.2 8.3-7.9 17.9-14.7 28.2-20.2 10.3-5.5 21.2-9.8 31.6-13.6 10.5-3.8 20.4-7.4 29.8-11 2.4-1 4.8-1.8 7.1-2.8l3.5-1.4 1.7-0.6q0.9-0.4 1.8-0.8c2.3-0.9 4.6-1.8 7-2.8 2.3-0.9 4.7-1.9 7.1-2.6l1.1-0.4c8-2.5 16.5 1.9 19 9.9 2 6.3-0.4 13-5.5 16.7z"/>
								</g>
							</g>
						</g>
					</g>
					<g id="&lt;Group&gt;">
						<g id="&lt;Group&gt;">
							<g id="&lt;Group&gt;">
								<g id="&lt;Group&gt;">
									<path id="&lt;Path&gt;" class="s1" d="m2664.5 1971.4l-1 1.7q-0.5 0.8-1 1.5c-0.6 0.9-1.3 1.9-1.9 2.7-1.3 1.8-2.7 3.5-4.1 5.1q-4.2 4.8-8.9 9c-6.2 5.6-13.1 10.5-20 15.1-7 4.6-14.2 8.8-21.6 12.7-3.7 2-7.4 3.8-11.3 5.6q-2.8 1.3-5.8 2.5-2.9 1.2-6 2.3c-1.2 0.4-2.5-0.2-2.9-1.4-0.2-0.6-0.1-1.3 0.2-1.9q1.7-2.8 3.4-5.4 1.8-2.7 3.6-5.2c2.3-3.5 4.8-6.8 7.2-10.1 4.9-6.6 10-13 15-19.2 5-6.3 10-12.5 15.3-18.2 2.6-2.9 5.3-5.7 8.1-8.3q2-2 4.1-3.9c0.7-0.6 1.4-1.2 2.1-1.8q0.5-0.4 1.1-0.8l0.5-0.4 0.2-0.2c0.1 0 0.1 0 0.1 0l7.2-2.3c7.5-2.3 15.4 1.8 17.8 9.3 1.3 4 0.6 8.2-1.4 11.6z"/>
								</g>
							</g>
						</g>
					</g>
					<g id="&lt;Group&gt;">
						<g id="&lt;Group&gt;">
							<g id="&lt;Group&gt;">
								<g id="&lt;Group&gt;">
									<path id="&lt;Path&gt;" class="s2" d="m1114 2530.8c80.9 193.7 389.4 192.4 389.4 192.4 0 0 32 24.8 20.2 64.4-34.7 117-398.9 80.3-469.1-147.4-24.3-78.9 59.5-109.4 59.5-109.4z"/>
								</g>
							</g>
						</g>
					</g>
					<g id="&lt;Group&gt;" style="opacity: .3">
						<g id="&lt;Group&gt;">
							<g id="&lt;Group&gt;">
								<g id="&lt;Group&gt;">
									<path id="&lt;Path&gt;" class="s1" d="m1071.1 2560c0.6 3 2.1 5.9 2.4 9.2 18.6 212.1 376.4 295 448.2 178.9 4.4 10.4 6.6 23.8 1.9 39.5-34.7 117-398.9 80.3-469.1-147.4-11.2-36.4 0.6-62.6 16.6-80.2z"/>
								</g>
							</g>
						</g>
					</g>
					<g id="&lt;Group&gt;">
						<g id="&lt;Group&gt;">
							<g id="&lt;Group&gt;">
								<g id="&lt;Group&gt;">
									<path id="&lt;Compound Path&gt;" fill-rule="evenodd" class="s1" d="m1384.5 2869.4c-67.7 0-141-19.5-201.5-53.6-72.9-41.1-122.9-100.1-144.7-170.6-15-48.9 5.3-82.2 25-101.4 20.3-19.8 43.9-28.6 44.9-28.9 8.5-3.1 18 1 21.5 9.3 31.3 75.1 103 128.6 213.1 158.9 84 23.2 159.7 23.2 160.5 23.2q0 0 0.1 0c3.7 0 7.4 1.2 10.3 3.5 1.7 1.3 41 32.5 26.1 82.7-14.2 47.7-71.6 76.5-153.5 76.9q-0.9 0-1.8 0zm-278.6-315.8c-6 3.6-13.1 8.6-19.6 15.1-18.6 18.5-23.7 40.3-15.6 66.5 40.2 130.4 191.3 200.4 313.8 200.4q0.8 0 1.6 0c65.2-0.4 111.7-20.6 121.3-52.8 6.2-20.8-4.7-36.2-10.8-42.7-21.1-0.5-87.6-3.7-162-24.1-52.5-14.4-97.9-34.4-135.1-59.4-41.8-28.1-73.2-62.7-93.6-103z"/>
								</g>
							</g>
						</g>
					</g>
					<g id="&lt;Group&gt;">
						<g id="&lt;Group&gt;">
							<g id="&lt;Group&gt;">
								<g id="&lt;Group&gt;">
									<path id="&lt;Path&gt;" class="s2" d="m467.9 2409c0.2-32.2 31.5-54.4 31.5-54.4 0 0-43.4-50.7-7.4-88.8 35.5-37.4 102.5-3.1 244.2 43.9 121.8 40.4 290.8 6.1 443.6-46 98.1-33.3 189.7-74.1 257.7-107.1q9.1-4.4 17.6-8.6c59.9-29.6 97.6-51.1 99.3-52.1l-38.9 57.5-171.2 253.2-48.3 71.5-35.4 52.3c-49.8 33.5-114.7 61.5-185.4 80.9-75.2 20.7-157.1 31.7-234.7 29.2-56.7-1.7-111.1-10.7-158.9-28.3-22.8-8.4-61.3-25.7-97.8-46.3-16.5-9.3-32.6-19.3-46.7-29.4-15.8-11.3-29-22.8-37.1-33.7-16.3-21.7-12.1-50.3-12.1-50.3 0 0-20.2-17.9-20-43.5z"/>
								</g>
							</g>
						</g>
					</g>
					<g id="&lt;Group&gt;" style="opacity: .3">
						<g id="&lt;Group&gt;">
							<g id="&lt;Group&gt;">
								<g id="&lt;Group&gt;">
									<path id="&lt;Path&gt;" class="s1" d="m681.4 2415.8c0 0 1.3 8.2 7.7 20.8-4.1-12.5-7.7-20.8-7.7-20.8z"/>
								</g>
							</g>
						</g>
					</g>
					<g id="&lt;Group&gt;" style="opacity: .3">
						<g id="&lt;Group&gt;">
							<g id="&lt;Group&gt;">
								<g id="&lt;Group&gt;">
									<path id="&lt;Path&gt;" class="s1" d="m661.8 2557.4c55.4-12.8 39.3-84.7 27.3-120.8 16.4 32.1 65.9 93.2 210.8 124.4 81.9 17.7 240.2-28.7 336.9-61.7 18.7-6.5 34.9 14.7 23.8 31.1-49.8 33.5-114.7 61.5-185.4 80.9-75.2 20.7-157.1 31.7-234.7 29.2-56.7-1.7-111.1-10.7-158.9-28.3-22.8-8.4-61.3-25.7-97.8-46.3-16.5-9.3-32.6-19.3-46.7-29.4 38.9 16.4 103.5 25.8 124.7 20.9z"/>
								</g>
							</g>
						</g>
					</g>
					<g id="&lt;Group&gt;">
						<g id="&lt;Group&gt;">
							<g id="&lt;Group&gt;">
								<g id="&lt;Group&gt;">
									<path id="&lt;Path&gt;" class="s1" d="m1557.2 2100.8c-4.9 4.3-10 8.3-15.1 12.2q-7.7 5.9-15.7 11.3-15.8 11-32.3 20.9c-21.9 13.3-44.7 25.1-67.5 36.5-45.8 22.9-93.2 42.4-140.9 61-23.9 9.3-47.8 18.5-71.9 27.1-24.2 8.7-48.5 16.9-73 24.5-49.1 15.1-99 28.1-149.9 37.3-25.4 4.5-51.1 8.2-77 10.3-26 2.2-52.1 3.1-78.4 1.9l-9.8-0.5-5-0.3c-1.6-0.2-3.3-0.3-4.9-0.5l-9.8-0.9c-3.3-0.3-6.6-0.8-9.9-1.2-6.6-0.8-13.1-2-19.7-3.1-1.6-0.2-3.2-0.6-4.9-0.9l-4.9-1.1-4.8-1q-1.3-0.2-2.5-0.5l-2.4-0.6-9.7-2.5c-0.8-0.2-1.7-0.4-2.5-0.7l-2.4-0.7-4.8-1.5c-6.6-1.9-12.4-4-18.5-6q-18.2-6.1-36.2-12.4c-24.1-8.3-48.1-16.8-71.9-24.7-11.9-3.9-23.7-7.7-35.5-10.8-2.9-0.8-5.9-1.6-8.8-2.2-2.9-0.8-5.8-1.3-8.7-2-5.8-1.1-11.5-2.1-17-2.5-5.4-0.4-10.7-0.5-15.4 0.1-4.8 0.6-8.9 1.8-12.5 3.7-3.7 1.8-6.8 4.4-9.8 7.8q-4.5 5.1-6.6 10.9c-1.4 3.8-2 8-1.9 12.5 0.1 4.4 1.1 9.2 2.6 14 1.5 4.8 3.7 9.7 6.3 14.4q2 3.5 4.2 6.9 1.1 1.7 2.3 3.3 0.6 0.8 1.2 1.6l1 1.2 11 13.9-14.1 10.9-0.8 0.6-1 0.8q-1.1 0.9-2.2 1.9-2.2 2-4.3 4.1c-2.7 2.8-5.2 5.9-7.3 9-4.4 6.2-7.3 12.7-8.3 19.1-0.2 0.8-0.3 1.6-0.3 2.3-0.1 0.8-0.2 1.6-0.2 2.4q0 0.6 0 1.2l0.1 1.1v1.2c0 0.4 0.1 0.8 0.2 1.2 0.1 0.8 0.1 1.5 0.3 2.3q0.3 1.2 0.6 2.4c0.5 1.5 0.9 3.1 1.6 4.7 1.3 3.2 3 6.3 5.1 9.3l0.7 1.1 0.9 1.1c0.5 0.8 1.1 1.5 1.7 2.2 0.6 0.6 1.2 1.3 1.7 2q0.5 0.4 0.9 0.9l0.4 0.3c0.1 0.1 0.3 0.3 0.2 0.2l5.5 15.2v-0.1q0 0 0 0.1v0.2q-0.1 0.2-0.1 0.6c0 0.4-0.1 0.8-0.1 1.2q-0.1 1.3-0.1 2.6c0 0.9 0 1.8 0 2.7l0.1 2.8c0.2 3.6 0.7 7.2 1.5 10.6 0.3 1.7 0.9 3.3 1.4 5 0.6 1.5 1.1 3.1 1.8 4.6 0.6 1.5 1.5 2.9 2.2 4.3 0.4 0.7 0.9 1.3 1.3 1.9l0.7 1c0.2 0.3 0.5 0.7 0.8 1 4.5 5.7 10.3 11.4 16.6 16.8 6.4 5.4 13.3 10.5 20.3 15.5 14.3 9.8 29.4 18.9 44.9 27.5 15.4 8.6 31.3 16.6 47.3 24.2q12.1 5.6 24.2 10.8 6.1 2.6 12.2 5c4.1 1.6 8 3.1 12.2 4.5 4.1 1.4 8.2 2.9 12.3 4.2l12.5 3.7 3.1 0.9 3.2 0.8 6.3 1.6 6.4 1.5c2.1 0.6 4.2 1 6.4 1.4 34.1 7.5 69.3 10.9 104.6 11.8 8.8 0.1 17.6 0.3 26.5 0.1l6.6-0.1c2.2-0.1 4.4-0.1 6.6-0.2l13.3-0.6c17.7-1 35.4-2.4 53-4.7 35.2-4.2 70.1-11 104.5-19.6 17.2-4.5 34.2-9.6 50.9-15.6l3.1-1.1 3.1-1.1 6.2-2.3c4.2-1.6 8.3-3.1 12.4-4.7q6.2-2.5 12.4-4.8c4.1-1.6 8.2-3.3 12.3-4.9 2-0.8 4.1-1.5 6.2-2.3l6.1-2.5 6.1-2.5 3.1-1.2 3.1-1.2q6.1-2.6 12.2-5c4.1-1.6 8.2-3.3 12.3-4.9 4.2-1.6 8.2-3.3 12.4-4.9q3.1-1.2 6.3-2.4c1-0.3 2.1-0.8 3.1-1.2l3.1-1.2c2.1-0.8 4.2-1.6 6.3-2.4 1.1-0.3 2.2-0.7 3.3-1.1 1-0.3 2.1-0.8 3.1-1.2 4.3-1.6 8.6-3 13.1-4.4h0.2c3.1-0.9 6.4 0.9 7.3 4 0.6 1.9 0 4-1.2 5.4-3.1 3.6-6.4 7-9.7 10.4-1.7 1.7-3.5 3.2-5.2 4.8-1.8 1.5-3.6 3.1-5.4 4.6-3.5 3-7.3 5.9-11.1 8.6-3.7 2.8-7.5 5.5-11.5 8-3.9 2.5-7.9 5-11.9 7.4q-6.1 3.4-12.3 6.6l-3.1 1.7q-1.5 0.8-3.1 1.5l-6.3 3.1-6.3 3c-2.1 1-4.3 1.8-6.4 2.7-17 7.6-34.7 13.4-52.3 18.9l-13.3 4c-4.5 1.3-9 2.5-13.4 3.7l-6.7 1.9c-2.2 0.6-4.4 1.2-6.7 1.8l-13.4 3.6c-35.8 9-72.1 16.1-108.8 20.4-18.4 2.4-36.8 3.8-55.3 4.9l-13.9 0.6c-2.3 0.1-4.6 0.2-6.9 0.2l-7 0.1c-9.2 0.3-18.5 0.1-27.8 0-37.1-1-74.3-4.6-111-12.6-2.3-0.5-4.6-0.9-6.9-1.5l-6.8-1.7-6.8-1.7-3.5-0.8-3.4-1-13.5-4c-4.5-1.5-9-3.1-13.4-4.6-4.5-1.5-9-3.2-13.3-4.9q-6.6-2.6-13-5.3-12.8-5.5-25.4-11.4c-16.7-7.9-33.1-16.2-49.4-25.2-16.2-9-32.1-18.6-47.7-29.3-7.7-5.5-15.4-11.2-22.9-17.5-7.4-6.3-14.7-13.3-21.5-21.8-0.4-0.6-0.8-1.1-1.2-1.7l-1.3-1.8c-0.8-1.2-1.7-2.4-2.4-3.7-1.5-2.6-3-5.1-4.1-7.8-1.3-2.6-2.2-5.3-3.2-7.9-0.8-2.7-1.6-5.4-2.2-8.1q-1.9-8.2-2.3-16.3l-0.2-4.1c0-1.3 0-2.7 0.1-4q0-2.1 0.1-4.2c0.1-0.7 0.1-1.4 0.2-2.1q0.1-0.6 0.1-1.2l0.1-0.6 0.1-0.8 5.5 15.2c-0.5-0.6-0.8-0.8-1.1-1.1l-0.9-0.9q-0.8-0.8-1.6-1.6c-1.1-1.1-2-2.3-3-3.4-0.9-1.1-1.9-2.2-2.7-3.4l-1.4-1.8-1.2-1.8c-3.3-4.8-6.2-10.1-8.6-15.7-1.1-2.8-2.1-5.8-2.9-8.8l-1.1-4.6c-0.3-1.5-0.5-3.1-0.7-4.7-0.1-0.8-0.2-1.6-0.3-2.4l-0.1-2.4-0.1-2.4q-0.1-1.2 0-2.4c0-1.6 0.1-3.2 0.3-4.7 0.1-1.6 0.3-3.2 0.6-4.7 0.9-6.3 2.9-12.2 5.2-17.7 2.4-5.5 5.4-10.6 8.7-15.3 3.3-4.7 6.9-9 10.7-13.1q2.9-3 6.1-5.8 1.5-1.4 3.2-2.8l1.7-1.4 0.9-0.7 1.2-0.8-3.1 24.8-1.1-1.4-0.9-1.1q-0.9-1.2-1.7-2.3-1.6-2.2-3.1-4.5-3.1-4.5-5.7-9.3c-3.6-6.4-6.6-13.2-9-20.5-2.3-7.3-3.9-15.1-4.1-23.3-0.3-8.3 0.9-16.9 3.8-25 3-8.1 7.6-15.5 12.9-21.6 5.4-6.2 12.2-11.8 19.9-15.7 7.7-4 15.9-6.2 23.8-7.2 7.8-1 15.3-0.8 22.5-0.2 14.4 1.3 27.5 4.3 40.3 7.7 12.8 3.4 25.2 7.3 37.4 11.4 24.5 8 48.4 16.6 72.3 24.9q18 6.2 36 12.2c5.9 2 12 4.1 17.7 5.8l4.3 1.3 2.1 0.7c0.7 0.2 1.5 0.3 2.2 0.5l8.7 2.3 2.2 0.5q1.1 0.3 2.2 0.5l4.5 0.9 4.4 1c1.5 0.3 2.9 0.6 4.4 0.8 6 1 12 2.1 18 2.8 3.1 0.4 6.1 0.8 9.1 1.1l9.1 0.9c1.5 0.1 3.1 0.3 4.6 0.4l4.6 0.3 9.1 0.5c24.5 1.1 49.3 0.3 74-1.8 24.7-2.1 49.4-5.6 73.9-10 49.2-8.8 97.9-21.4 145.9-36.3 24-7.4 47.8-15.5 71.5-24 23.7-8.5 47.3-17.4 70.6-27l17.5-7.3 17.3-7.5c11.6-5.1 23.1-10.2 34.6-15.4l68.9-31.3c23-10.4 45.9-21.1 69.2-31q17.4-7.5 35.2-14.4c5.9-2.3 11.9-4.6 17.9-6.8 6-2.2 12-4.3 18.1-6.2l0.1-0.1c3-0.9 6.3 0.7 7.2 3.8 0.8 2.2 0 4.6-1.7 6.1z"/>
								</g>
							</g>
						</g>
					</g>
					<g id="&lt;Group&gt;">
						<g id="&lt;Group&gt;">
							<g id="&lt;Group&gt;">
								<g id="&lt;Group&gt;">
									<g id="&lt;Group&gt;">
										<path id="&lt;Path&gt;" class="s2" d="m2373.1 2004.4c-390.4 807.5-1531 305.4-1240.9-508.2 380.1-836.1 1558.6-316 1240.9 508.2z"/>
									</g>
								</g>
							</g>
						</g>
						<g id="&lt;Group&gt;">
							<g id="&lt;Group&gt;">
								<g id="&lt;Group&gt;">
									<g id="&lt;Group&gt;">
										<path id="&lt;Path&gt;" class="s2" d="m2373.1 2004.4c-390.4 807.5-1531 305.4-1240.9-508.2 380.1-836.1 1558.6-316 1240.9 508.2z"/>
									</g>
								</g>
							</g>
						</g>
						<g id="&lt;Group&gt;" style="opacity: .3">
							<g id="&lt;Group&gt;">
								<g id="&lt;Group&gt;">
									<g id="&lt;Group&gt;">
										<path id="&lt;Path&gt;" class="s1" d="m1421.5 2150.9q1.3-5 2.6-10.2l15.3 1.4c60.9-30.1 99.2-51.9 100.9-52.9l-39.5 58.4 532.3 48.1q1.5 41.1 1.6 79.9c0 49.5-1.8 96.2-5.1 140.2-52.7 33-108.2 56.9-165 72.5-183 50.4-379.6 14.7-537.8-83.4q-20-12.5-39.2-26.2c-47.4-34-90.5-73.9-127.9-118.9 99.7-34 192.7-75.4 261.8-108.9z"/>
									</g>
								</g>
							</g>
						</g>
						<g id="&lt;Group&gt;">
							<g id="&lt;Group&gt;">
								<g id="&lt;Group&gt;">
									<g id="&lt;Group&gt;">
										<path id="&lt;Path&gt;" class="s2" d="m2373.1 2004.4c-390.4 807.5-1531 305.4-1240.9-508.2 380.1-836.1 1558.6-316 1240.9 508.2z"/>
									</g>
								</g>
							</g>
						</g>
						<g id="&lt;Group&gt;">
							<g id="&lt;Group&gt;">
								<g id="&lt;Group&gt;">
									<g id="&lt;Group&gt;">
										<path id="&lt;Compound Path&gt;" fill-rule="evenodd" class="s1" d="m1767.4 2426.3c-91.1 0-183.5-18.6-271.5-55.4-77.1-32.3-147.1-76.9-207.9-132.7-62.8-57.5-113.1-124.4-149.4-198.8-80.6-164.9-86.8-354.2-17.9-547.3l0.4-1c89.2-196.2 229-332.9 404.3-395.1 78.8-28 162.3-40.1 248.3-36.1 82.7 3.8 164.2 22.4 242.3 55.2 78.3 32.8 149.3 78.3 210.8 135.1 63.6 58.7 114.1 126.9 150.2 202.7 80.2 168.3 82.9 360.5 7.6 555.9l-0.4 0.9c-91.8 189.8-231.8 321.7-404.8 381.4-68.1 23.5-139.7 35.2-212 35.2zm-623.8-925.5c-148.1 416.2 83.6 731 361.8 847.4 82.8 34.7 173.4 54.1 264.9 54.1 223 0 452.1-114.8 591.6-402.8 162.2-421.6-70.5-742.3-355.4-861.8-282.2-118.4-672.5-55.2-862.9 363.1zm1229.5 503.6z"/>
									</g>
								</g>
							</g>
						</g>
						<g id="&lt;Group&gt;" style="opacity: .3">
							<g id="&lt;Group&gt;">
								<g id="&lt;Group&gt;">
									<g id="&lt;Group&gt;">
										<path id="&lt;Path&gt;" class="s1" d="m2373.1 2004.3c-325.1 703.4-1326.4 432-1285.9-311.6 64.9 234 147.9 236.4 283.9 346.6 419.6 364 998.6 19.3 1033.2-468 38.6 145.9 25.9 298.3-31.2 433z"/>
									</g>
								</g>
							</g>
						</g>
						<g id="&lt;Group&gt;">
							<g id="&lt;Group&gt;">
								<g id="&lt;Group&gt;">
									<g id="&lt;Group&gt;">
										<path id="&lt;Compound Path&gt;" fill-rule="evenodd" class="s4" d="m2004.6 1142.2c282.7 118.7 513.6 436.9 352.7 855.3-195.3 403.2-567.6 464.4-850 346.2-276-115.5-506-428-359.1-841 189.1-415.2 576.4-477.9 856.4-360.5zm-23.6 1253.5c174.3-60.1 315.3-192.9 407.6-383.9l0.3-0.6 0.3-0.7c75.8-196.6 73.1-390.2-7.7-559.8-36.4-76.3-87.3-145-151.4-204.1-61.9-57.2-133.3-103-212.2-136.1-78.6-33-160.7-51.7-244-55.6-86.6-4-170.7 8.2-250.1 36.4-176.6 62.7-317.4 200.3-407.2 397.8l-0.3 0.6-0.3 0.7c-69.3 194.5-63 385 18.1 551.1 36.7 75 87.3 142.4 150.6 200.4 61.2 56.1 131.6 101 209.3 133.5 88.6 37.1 181.6 55.8 273.4 55.8 72.9 0 145-11.8 213.6-35.5zm392.1-391.3z"/>
									</g>
								</g>
							</g>
						</g>
						<g id="&lt;Group&gt;">
							<g id="&lt;Group&gt;">
								<g id="&lt;Group&gt;">
									<g id="&lt;Group&gt;">
										<path id="&lt;Compound Path&gt;" fill-rule="evenodd" class="s1" d="m2004.6 1142.2c282.7 118.7 513.6 436.9 352.7 855.3-195.3 403.2-567.6 464.4-850 346.2-276-115.5-506-428-359.1-841 189.1-415.2 576.4-477.9 856.4-360.5zm-23.6 1253.5c174.3-60.1 315.3-192.9 407.6-383.9l0.3-0.6 0.3-0.7c75.8-196.6 73.1-390.2-7.7-559.8-36.4-76.3-87.3-145-151.4-204.1-61.9-57.2-133.3-103-212.2-136.1-78.6-33-160.7-51.7-244-55.6-86.6-4-170.7 8.2-250.1 36.4-176.6 62.7-317.4 200.3-407.2 397.8l-0.3 0.6-0.3 0.7c-69.3 194.5-63 385 18.1 551.1 36.7 75 87.3 142.4 150.6 200.4 61.2 56.1 131.6 101 209.3 133.5 88.6 37.1 181.6 55.8 273.4 55.8 72.9 0 145-11.8 213.6-35.5zm392.1-391.3z"/>
									</g>
								</g>
							</g>
						</g>
						<g id="&lt;Group&gt;">
							<g id="&lt;Group&gt;">
								<g id="&lt;Group&gt;">
									<g id="&lt;Group&gt;">
										<path id="&lt;Path&gt;" class="s1" d="m2286.4 2152.7c-614.1 493-1297-208.1-853.4-736 532.8-561 1314.3 80.8 853.4 736z"/>
									</g>
								</g>
							</g>
						</g>
						<g id="&lt;Group&gt;">
							<g id="&lt;Group&gt;">
								<g id="&lt;Group&gt;">
									<g id="&lt;Group&gt;">
										<path id="&lt;Path&gt;" class="s5" d="m2399.2 1665.2c104.6 704-894.4 908.1-1095.6 280.1 377.5 332.6 956 88 1095.6-280.1z"/>
									</g>
								</g>
							</g>
						</g>
						<g id="&lt;Group&gt;">
							<g id="&lt;Group&gt;">
								<g id="&lt;Group&gt;">
									<g id="&lt;Group&gt;">
										<path id="&lt;Compound Path&gt;" fill-rule="evenodd" class="s1" d="m1833 2405.2c-64.7 0-129.6-10.6-192.9-31.6-69.9-23.1-135.1-57.9-193.6-103.3-59.8-46.5-110.1-102-149.3-165-41.3-66.4-69-139.1-82.4-216-14.3-82.2-11.9-168 7.1-255.1l0.1-0.4c21.9-89.1 63.4-172.1 123.3-246.7 56.6-70.3 129.3-131.5 210.2-176.8 81.3-45.5 171.7-75.6 261.6-87 95.5-12.1 188.6-4 276.9 24.2l1.4 0.4 1.3 0.7c148.8 77.3 260.1 213.5 313.4 383.6 50.2 160.6 42.5 335.2-21.3 479.1v0.1c-39.3 86.9-89.2 161.3-148.3 221.2-55.2 56.1-118.4 99.3-187.7 128.6-65.2 27.5-134.8 42.3-206.9 43.9q-6.4 0.1-12.9 0.1zm-577.5-763.5c-75.9 347.9 141.4 615.1 395.4 699.3 221.1 73.2 538.8 27.2 706.5-343.6 117.2-264.6 34.5-655.8-275.3-817.6-163.1-51.6-348.8-29.6-509.8 60.5-160.7 90-276.2 236.3-316.8 401.4zm1117.6 362.7z"/>
									</g>
								</g>
							</g>
						</g>
						<g id="&lt;Group&gt;">
							<g id="&lt;Group&gt;">
								<g id="&lt;Group&gt;">
									<g id="&lt;Group&gt;">
										<path id="&lt;Compound Path&gt;" fill-rule="evenodd" class="s1" d="m2215.6 1337.1c190.1 155.7 289.1 473.5 58.1 803.7-315.5 252-637.3 180.3-816.4-2.9-162.6-166.4-229.2-450.3-11.5-709.7 266.5-280.3 578.6-247.8 769.8-91.1zm81.6 829l1.9-1.5 1.4-2c110.6-157.3 158.5-325.5 138.5-486.4-17.9-144-89.5-273.9-201.6-365.7-109.6-89.8-246.9-134-386.7-124.5-155.4 10.5-304.2 86.2-430.2 218.9l-0.7 0.8c-103.4 123-153.6 263.5-145.1 406.3 7.7 129.3 63.8 253.6 158 349.9 102 104.4 238.5 166.3 384.2 174.6q16.7 0.9 33.5 0.9c152.9 0 306.7-58.8 446.8-171.3zm-10.8-13.4z"/>
									</g>
								</g>
							</g>
						</g>
						<g id="&lt;Group&gt;">
							<g id="&lt;Group&gt;">
								<g id="&lt;Group&gt;">
									<g id="&lt;Group&gt;">
										<path id="&lt;Path&gt;" class="s2" d="m1023.1 1987.3c87.2 304.1 399.2 242.3 345.3-56.3-79.7-322-413.2-256-345.3 56.3z"/>
									</g>
								</g>
							</g>
						</g>
						<g id="&lt;Group&gt;" style="opacity: .3">
							<g id="&lt;Group&gt;">
								<g id="&lt;Group&gt;">
									<g id="&lt;Group&gt;">
										<path id="&lt;Path&gt;" class="s1" d="m1131.4 1790.8c18.7 63.2 192.3 269 233.3 124.7 34.2 127.9-18.9 252.2-112.6 270.1-171.3 36.4-354.8-301.1-120.7-394.8z"/>
									</g>
								</g>
							</g>
						</g>
						<g id="&lt;Group&gt;">
							<g id="&lt;Group&gt;">
								<g id="&lt;Group&gt;">
									<g id="&lt;Group&gt;">
										<path id="&lt;Compound Path&gt;" fill-rule="evenodd" class="s1" d="m1224 2204.6c-37.6 0-75.5-13.5-109.6-39.5-48.7-37.1-86-96.9-107.8-173l-0.3-1.1c-16.2-74.4-11.5-141.3 13.6-193.4 23.2-48 62.2-80.6 109.9-91.7 24.5-5.7 49.9-5.4 75.3 0.9 26 6.5 50.7 18.9 73.6 37.1 49.7 39.4 86.5 102.7 106.4 182.9l0.2 1.1c12.9 71.4 6.5 135.3-18.6 184.8-23.3 45.9-61.4 77.1-107.4 87.8-11.6 2.7-23.4 4.1-35.3 4.1zm-184.2-221.5c43.3 150.2 140 200.6 211.7 183.9 35.9-8.4 65.9-33.2 84.5-69.9 21.6-42.6 27-98.8 15.6-162.5-18.1-72.6-50.7-129.2-94.3-163.8-37.3-29.5-79.8-40.7-119.7-31.4-37.4 8.7-68.2 34.7-86.7 73.1-21.7 45-25.5 104-11.1 170.6z"/>
									</g>
								</g>
							</g>
						</g>
						<g id="&lt;Group&gt;">
							<g id="&lt;Group&gt;">
								<g id="&lt;Group&gt;">
									<g id="&lt;Group&gt;">
										<path id="&lt;Path&gt;" class="s2" d="m1013.3 2006.3c70.9 246.3 305.4 203.9 261.8-37.6-64-264.2-318.9-217.9-261.8 37.6z"/>
									</g>
								</g>
							</g>
						</g>
						<g id="&lt;Group&gt;">
							<g id="&lt;Group&gt;">
								<g id="&lt;Group&gt;">
									<g id="&lt;Group&gt;">
										<path id="&lt;Compound Path&gt;" fill-rule="evenodd" class="s1" d="m1171.5 2188.9c-30.3 0-61.1-11.8-88.9-34.5-38.2-31.2-67.9-80.8-85.9-143.4l-0.2-1c-13.6-60.9-11.1-115.5 7.2-157.7 17.2-39.8 47.3-66.4 84.8-75.2 39.3-9.1 82.6 3.3 118.6 34.2 39.3 33.6 68.5 86.6 84.7 153.3l0.2 1c10.5 57.9 6.3 109.4-12.1 149.1-17.4 37.6-46.7 62.8-82.4 71.2-8.6 2-17.3 3-26 3zm-141.6-186.9c16.1 55.6 41.9 99.1 74.5 125.7 27.4 22.4 57.7 31.1 85.3 24.7 48.2-11.3 88.1-71.3 68.6-180.2-30.2-123.8-104.3-175-162-161.6-26.6 6.2-48.3 25.9-61.1 55.4-15.3 35.4-17.2 82.4-5.3 136z"/>
									</g>
								</g>
							</g>
						</g>
						<g id="&lt;Group&gt;" style="opacity: .5">
							<g id="&lt;Group&gt;">
								<g id="&lt;Group&gt;">
									<g id="&lt;Group&gt;">
										<path id="&lt;Path&gt;" class="s2" d="m1410.9 1792.7c52.6 122.3 192.5 64.6 164.8-48.8-43-141-209-75.6-164.8 48.8z"/>
									</g>
								</g>
							</g>
						</g>
						<g id="&lt;Group&gt;" style="opacity: .5">
							<g id="&lt;Group&gt;">
								<g id="&lt;Group&gt;">
									<g id="&lt;Group&gt;">
										<path id="&lt;Path&gt;" class="s2" d="m1514.4 1982c22.9 45.6 84.5 21.5 64.3-30.4-22.8-45.6-84.5-21.5-64.3 30.4z"/>
									</g>
								</g>
							</g>
						</g>
						<g id="&lt;Group&gt;" style="opacity: .5">
							<g id="&lt;Group&gt;">
								<g id="&lt;Group&gt;">
									<g id="&lt;Group&gt;">
										<path id="&lt;Path&gt;" class="s2" d="m2336.7 1729.4c22.1-508.2-502-508.5-645.3-383.3 333.6-18.6 505.5 167.4 645.3 383.3z"/>
									</g>
								</g>
							</g>
						</g>
						<g id="&lt;Group&gt;" style="opacity: .3">
							<g id="&lt;Group&gt;">
								<g id="&lt;Group&gt;">
									<g id="&lt;Group&gt;">
										<path id="&lt;Path&gt;" class="s1" d="m1009.6 1924.7c55 117 235.4 170.6 258.9-5 16.7 32.1 26.5 68.3 26.4 104.4-21.2 242.2-291.5 156.8-285.3-99.4z"/>
									</g>
								</g>
							</g>
						</g>
						<g id="&lt;Group&gt;">
							<g id="&lt;Group&gt;">
								<g id="&lt;Group&gt;">
									<g id="&lt;Group&gt;">
										<path id="&lt;Path&gt;" class="s1" d="m1322.3 1745.3c-7.9 0-17.5-2.4-29-9.2-8.2-4.8-11-15.3-6.2-23.5 4.9-8.2 15.4-10.9 23.6-6.1 7.4 4.3 10.9 4.5 11.7 4.4 1.1-1.1 3.8-6.3 4.5-18.4 0.6-9.8-0.4-18.5-0.4-18.6-1.2-9.4 5.5-18 15-19.2 9.4-1.1 18 5.6 19.1 15 0.1 0.5 1.5 12.4 0.6 25.9-1.5 21.6-8.2 36.5-20 44.2-4.6 3-10.8 5.5-18.9 5.5z"/>
									</g>
								</g>
							</g>
						</g>
					</g>
					<g id="&lt;Group&gt;">
						<g id="&lt;Group&gt;">
							<g id="&lt;Group&gt;">
								<g id="&lt;Group&gt;">
									<path id="&lt;Path&gt;" class="s2" d="m733.8 2496c-35.1-26.5-56.9-92.1-56.9-92.1 0 0-42 1.8-71.3-7.9-42.9-14.2-49.2-47.3-41.7-67.8 10.2-27.9 91.6-33.2 196.4-3.3"/>
								</g>
							</g>
						</g>
					</g>
					<g id="&lt;Group&gt;">
						<g id="&lt;Group&gt;">
							<g id="&lt;Group&gt;">
								<g id="&lt;Group&gt;">
									<path id="&lt;Path&gt;" class="s1" d="m755.7 2341.2c-28.8-7.8-57.9-14.1-87.1-17.4-14.6-1.6-29.2-2.6-43.4-2.1-7.1 0.2-14.1 0.7-20.7 1.7-6.6 1-13 2.5-18.1 4.7-1.3 0.5-2.4 1.1-3.4 1.7-1 0.6-1.9 1.2-2.5 1.7-0.7 0.6-1.1 1-1.4 1.4q-0.2 0.1-0.2 0.3-0.1 0.1-0.2 0.2 0 0.1-0.1 0.1c0 0.1 0 0.1 0 0.1l-0.2 0.5c-1.7 4.5-2.3 9.9-1.6 15 0.7 5.2 2.7 10.2 5.8 14.7 3.1 4.6 7.3 8.6 12.5 12 10.3 6.8 23.6 10.6 37.8 13.1 7.1 1.1 14.3 2 21.7 2.6q5.5 0.5 11 0.7 2.7 0.1 5.5 0.2h2.7 2.6l9 0.1 2.4 7.8 0.9 3 1.1 3.1q1 3.1 2.1 6.2 2.2 6.3 4.6 12.5 4.8 12.4 10.3 24.5c3.7 8 7.7 15.9 12.2 23.5q0.9 1.5 1.8 2.8c0.5 1 1.1 1.9 1.7 2.9l1.9 2.8 1.9 2.7c2.6 3.6 5.3 7.1 8.4 10.6 0.5 0.6 0.5 1.5-0.1 2-0.5 0.4-1.1 0.5-1.6 0.2-8.5-4.3-16-10.4-22.7-17.2-6.7-6.8-12.6-14.2-18-22q-2-3-3.9-5.9c-1.3-2-2.5-4-3.7-6.1-2.5-4-4.7-8.2-6.9-12.3q-3.3-6.3-6.2-12.8-1.5-3.2-2.9-6.5l-1.3-3.3c-0.5-1.1-0.9-2.2-1.4-3.5l11.4 7.9-3.1 0.2-3 0.1q-3 0.1-6 0.2-5.9 0.1-11.9 0c-8-0.2-16-0.6-24-1.5-8.1-0.9-16.3-2.3-24.6-4.5-4.2-1.1-8.3-2.5-12.4-4.1q-6.2-2.5-12.1-6c-7.9-4.6-15.4-10.7-21.4-18.6-6-7.7-10.3-17.2-12-27.1-0.9-5-1.3-10-0.9-15.1 0.3-5.1 1.2-10.1 2.8-15.1l0.4-1c0.1-0.3 0.3-0.8 0.4-1.2q0.5-1.2 1.1-2.4 0.6-1.2 1.2-2.3 0.7-1.2 1.4-2.2c1.9-2.7 4.1-5.1 6.3-7.1 2.2-2 4.5-3.6 6.7-5q3.4-2.1 6.8-3.7c8.9-4.1 17.5-6.3 25.9-7.9 8.4-1.6 16.7-2.4 24.9-2.8 16.4-0.8 32.4-0.1 48.3 1.5 31.7 3.3 62.6 9.8 92.7 18.8 9 2.7 14.1 12.1 11.4 21.1-2.6 8.8-11.7 13.8-20.6 11.5z"/>
								</g>
							</g>
						</g>
					</g>
					<g id="&lt;Group&gt;">
						<g id="&lt;Group&gt;">
							<g id="&lt;Group&gt;">
								<g id="&lt;Group&gt;">
									<path id="&lt;Path&gt;" class="s1" d="m979.4 2646.7c-4.1 0-8.1-1.7-11.1-4.9-5.6-6.1-5.2-15.6 0.9-21.2 46.1-42.1 59.4-103.9 39.8-183.8-15.3-61.8-45.5-111.5-45.8-112-4.3-7-2.1-16.3 4.9-20.6 7.1-4.3 16.3-2.1 20.7 4.9 1.3 2.2 32.7 53.6 49.1 119.8 9.8 39.6 12.2 76.2 7.2 108.9-6.5 41.9-25.2 77.2-55.6 105-2.9 2.6-6.5 3.9-10.1 3.9z"/>
								</g>
							</g>
						</g>
					</g>
					<g id="&lt;Group&gt;">
						<g id="&lt;Group&gt;">
							<g id="&lt;Group&gt;">
								<g id="&lt;Group&gt;">
									<path id="&lt;Path&gt;" class="s1" d="m509.8 2343.8q4 2.8 7.7 5.9c2.4 2 4.9 3.8 7.4 5.8 1.2 1 2.4 1.9 3.6 2.8l3.7 2.8c1.2 1 2.5 1.8 3.7 2.7 1.2 0.9 2.4 1.8 3.7 2.7 5 3.3 10 6.7 15.5 9.9 2.6 1.6 5.5 3.2 8.3 4.8l8.7 4.8c11.9 6.4 24.1 13.4 35.5 21.3q4.3 2.9 8.5 6c2.8 2 5.5 4.2 8.2 6.3l4.1 3.2c1.3 1.1 2.6 2.3 3.9 3.4q3.9 3.4 7.8 6.9c0.8 0.8 0.9 2.2 0.1 3.1-0.6 0.6-1.5 0.8-2.3 0.6h-0.1c-6.5-2.2-12.8-4.7-19.2-6.9l-9.6-3.4q-4.7-1.6-9.4-3.3c-12.7-4.3-25.3-8.2-38.2-12.3-3.3-1.1-6.5-2.1-9.8-3.4l-5-1.8c-1.7-0.5-3.3-1.3-5-1.9l-2.5-1.1c-0.9-0.3-1.7-0.7-2.5-1.1l-5-2.4c-1.7-0.7-3.3-1.7-4.9-2.6q-2.5-1.3-4.9-2.8c-1.5-1-3.1-2-4.6-3l-2.4-1.6q-1.1-0.7-2.2-1.6c-2.9-2.3-5.9-4.4-8.6-6.9-1.3-1.2-2.7-2.4-4-3.6-1.3-1.3-2.7-2.5-3.9-3.8q-3.7-3.9-7.2-8c-5.3-6.3-4.5-15.8 1.9-21.2 5.3-4.5 12.9-4.6 18.4-0.7z"/>
								</g>
							</g>
						</g>
					</g>
					<g id="&lt;Group&gt;">
						<g id="&lt;Group&gt;">
							<g id="&lt;Group&gt;">
								<g id="&lt;Group&gt;">
									<path id="&lt;Path&gt;" class="s1" d="m499.7 2443.1c2.9 2.4 5.7 4.4 8.9 6.2 3.3 1.7 7 3.4 11.2 5 8.4 3.1 18.6 5.9 29.3 9.5 10.7 3.5 21.1 7.9 31 12.8 10 4.9 19.7 10.4 28.9 16.8 1 0.7 1.3 2.1 0.6 3.1-0.5 0.7-1.3 1-2 1h-0.1c-11-1.1-21.8-2.4-32.5-3.7-10.7-1.2-21.3-2.4-31.6-3.3-10.4-1.1-21.6-1.7-33.7-5.2-6-1.8-12.4-4.4-18.3-8.3-5.9-3.8-11.4-9.1-15.2-15.2-4.3-7.1-2.1-16.4 5-20.7 5.5-3.4 12.4-2.8 17.2 1z"/>
								</g>
							</g>
						</g>
					</g>
					<g id="&lt;Group&gt;">
						<g id="&lt;Group&gt;">
							<g id="&lt;Group&gt;">
								<g id="&lt;Group&gt;">
									<path id="&lt;Path&gt;" class="s1" d="m646.7 2703.8c-2.2 13.8-3 27.6-3.1 41.4 0.1 3.5 0 6.9 0.2 10.3l0.4 10.3 0.8 10.2c0.1 1.7 0.3 3.4 0.5 5.1l0.7 5.1 0.6 5 0.8 5c0.6 3.4 1 6.7 1.7 10 1.4 6.6 2.7 13.2 4.5 19.6 3.3 13 8 25.4 12.9 37.6l0.2 0.5c3.5 8.7-0.7 18.6-9.5 22.1-8.7 3.5-18.6-0.7-22.1-9.4-0.5-1.1-0.8-2.2-1-3.3-2.7-14.5-4.9-29-5.5-43.6-0.6-7.2-0.5-14.5-0.6-21.7 0-3.6 0.3-7.2 0.4-10.8l0.2-5.3 0.4-5.4 0.5-5.3c0.1-1.8 0.3-3.6 0.5-5.4l1.3-10.5 1.7-10.6c0.6-3.5 1.4-6.9 2-10.4 2.9-13.8 6.6-27.4 11.5-40.5z"/>
								</g>
							</g>
						</g>
					</g>
				</g>
			</g>
		</g>
	</g>
</svg>