<svg version="1.2" xmlns="http://www.w3.org/2000/svg" viewBox="0 0 4000 4000" width="4000" height="4000">
	<title>4000_2_03-ai</title>
	<style>
		.s0 { fill: #ffd400 } 
		.s1 { fill: #232323 } 
		.s2 { fill: #ffffff } 
		.s3 { fill: #3185ff } 
		.s4 { fill: #f26e25 } 
		.s5 { fill: #22a7f0 } 
		.s6 { fill: #020202 } 
	</style>
	<g id="Layer 1">
		<g id="&lt;Group&gt;">
			<g id="&lt;Group&gt;">
				<g id="&lt;Group&gt;">
					<path id="&lt;Path&gt;" class="s0" d="m3384 2018.5c0 743.9-599.9 1349.6-1348.6 1372-14.2 0.4-28.6 0.6-42.9 0.6-95.6 0-188.9-9.5-279-27.6-547.1-109.8-977.5-536.3-1086-1076.9-9.8-48.7 30.2-85.7 72.1-83.9 15 0.6 30.3 6.3 43.6 18.2 108 96.5 229 171.6 355.3 224.2 137.4 57.4 281.1 88.3 420.9 91.6 544 13.1 1030.3-390.5 869-1272.6 0 0 36.9-209-68.7-409.8-40.6-77.1 32.7-164.8 115.4-137.5 100.1 33.1 195.1 77.1 283.5 130.7 120.6 72.8 229.1 163.3 321.7 267.8 53.1 59.9 101 124.3 143 192.7 127.3 207.2 200.7 450.4 200.7 710.5z"/>
				</g>
				<g id="&lt;Group&gt;">
					<g id="&lt;Group&gt;" style="opacity: .3">
						<path id="&lt;Path&gt;" class="s1" d="m2273.8 2570.4c-95.7 50.7-190.5 37.7-211.7-29.1-21.2-66.8 39.2-162 134.9-212.7 95.7-50.7 190.5-37.7 211.7 29.1 21.2 66.8-39.2 162-134.9 212.7z"/>
					</g>
					<g id="&lt;Group&gt;">
						<path id="&lt;Path&gt;" class="s0" d="m2272.7 2564.7c-81.7 46.8-155.5 48.3-164.8 3.4-9.2-44.9 49.5-119.3 131.3-166.1 81.7-46.8 155.5-48.3 164.8-3.4 9.2 44.9-49.5 119.3-131.3 166.1z"/>
					</g>
					<g id="&lt;Group&gt;">
						<path id="&lt;Path&gt;" class="s0" d="m2285.3 3004.5c5.3 68.3-32.6 141.6-102 183.6-92.3 55.9-205.3 35.2-252.4-46.3-6.7-11.5-11.7-23.6-15-36.1z"/>
					</g>
					<g id="&lt;Group&gt;">
						<path id="&lt;Path&gt;" class="s1" d="m1920.6 3104.5c3.8 10.4 8.5 20.2 14.2 29.4 6.1 9 12.4 17.8 20 25.3 14.8 15.4 32.9 27.3 52.5 35.1 19.6 7.8 40.7 11.9 61.9 12.1 21.2 0.5 42.5-3 62.8-9.4 40.9-12.5 77.8-38.1 105-71.6 27-33.5 44-76 44.4-120.6v-0.1c0-2.1 1.7-3.9 3.9-3.9 2 0.1 3.6 1.5 3.9 3.4 3.4 23.1 1.9 47.2-4.4 70.1-6.4 22.8-16.5 44.8-30.6 64.1-13.8 19.6-31 36.7-50.2 50.9-19.3 14.3-41.2 25.1-64 32.6-23 7.4-47.3 10.9-71.5 10.2-24.2-1-48.4-6.2-70.5-16.6-44.3-20-78.6-61.8-86.8-108.5-0.5-2.6 1.3-5.2 3.9-5.7 2.4-0.4 4.7 1 5.5 3.2z"/>
					</g>
					<g id="&lt;Group&gt;" style="opacity: .3">
						<path id="&lt;Path&gt;" class="s1" d="m1402.9 2724.2c85.5 8 150.4 69.8 144.8 138-5.6 68.2-79.5 117.1-165 109.2-85.6-8-150.4-69.7-144.8-138 5.5-68.2 79.4-117.1 165-109.2z"/>
					</g>
					<g id="&lt;Group&gt;">
						<path id="&lt;Path&gt;" class="s0" d="m1400.6 2810.1c57.8 27.4 84.9 84.2 60.5 127-24.4 42.7-91.1 55.2-148.9 27.9-57.9-27.4-85-84.2-60.6-126.9 24.4-42.8 91.1-55.3 149-28z"/>
					</g>
					<g id="&lt;Group&gt;">
						<path id="&lt;Path&gt;" class="s1" d="m1382.7 2972.3l11.6 0.1c3.8-0.2 7.7-0.3 11.5-0.6 7.7-0.6 15.3-1.4 22.8-2.9 15-2.8 29.6-7.5 43.1-14 13.7-6.3 26.1-14.7 36.9-24.7 10.8-9.9 19.7-21.6 25.6-34.5 12.2-25.9 11.4-56.3-0.7-81.8-1.7-3.2-3.1-6.5-4.9-9.5l-5.8-9.1-6.7-8.4c-2.3-2.9-5-5.3-7.4-8-10.4-10.2-22.3-18.9-35.1-26.2-13-7-26.8-12.5-41.1-16.5-14.4-3.5-29.2-5.7-44.2-6.4-14.8-0.2-29.8 0.6-44.4 3.8-14.5 3.3-28.6 7.9-41.9 14.6-26.1 13.7-48.5 35.3-58.7 63-5.3 13.7-7.3 28.8-5.9 43.6 0.7 7.5 2.3 14.9 4.6 22.1 2 7.3 5.7 14.1 8.8 21.1l0.2 0.6c0.9 1.9 0 4.1-1.9 4.9-1.7 0.8-3.8 0.1-4.7-1.5-4.1-7-8.8-13.9-11.9-21.6-3.2-7.6-5.5-15.7-7-23.9-2.9-16.5-2-33.8 2.8-50.2 4.8-16.4 13.5-31.5 24.6-44.4 11-12.9 24.5-23.6 39.1-32 14.8-8.2 30.6-14.4 46.9-18.4 16.4-4 33.2-5.5 50-5.6 16.7 0.1 33.4 2.5 49.8 6.4 16.2 4.3 32.1 10.4 47.1 18.3 14.8 8.1 28.6 18.5 40.7 30.6 2.9 3.2 6.1 6.1 8.7 9.5l8 10.2 7 11c2.2 3.7 3.9 7.8 5.9 11.6 14.3 31.8 14.7 70.9-1.8 102-8 15.5-19.2 29.1-32.2 40-13.2 10.8-27.8 19.5-43.4 25.6-15.5 6-31.8 9.8-48.1 11.5-8.1 1-16.3 1.2-24.5 1.2-4.1-0.2-8.2-0.5-12.2-0.7l-12.1-1.4c-2.6-0.3-4.4-2.7-4.1-5.2 0.3-2.4 2.3-4.2 4.6-4.2z"/>
					</g>
					<g id="&lt;Group&gt;">
						<path id="&lt;Path&gt;" class="s1" d="m1205.5 2756.2c-17.8 24.4-29 53-30.3 82.3-1.6 29.2 6.3 58.2 20.9 83.2 14.8 25 35.5 46.7 59.9 63.2 24.1 16.9 51.5 29 80.1 36.7 57.1 15.3 119.8 13 174.5-10.2 27.3-11.5 52.4-28.4 72-50.7 9.8-11.1 18-23.6 24.5-37 6.3-13.5 10.7-28 12.8-43 0.3-2.1 2.3-3.5 4.3-3.2 2 0.3 3.3 2 3.3 3.9-0.5 15.9-3.6 31.8-9.1 47-5.7 15.1-13.8 29.4-23.5 42.3-19.9 25.7-46.4 46-75.7 59.8-29.2 14-61.2 21.9-93.4 24.3-32.3 2.5-64.8-0.7-96.2-8.8-31.4-8.2-61.3-22-88-40.8-13.2-9.5-25.6-20.3-36.6-32.5-10.9-12.2-20.8-25.5-28.4-40.1-7.7-14.6-13.6-30.2-16.9-46.4-3.2-16.3-4-32.9-2.1-49.3 3.9-32.7 18.8-63.5 40.7-86.7 1.7-1.9 4.7-2 6.6-0.2 1.8 1.6 2 4.3 0.6 6.2z"/>
					</g>
					<g id="&lt;Group&gt;" style="opacity: .3">
						<path id="&lt;Path&gt;" class="s1" d="m2219.4 3021.8c3.6 40.2-20.7 83.3-65.1 107.9-59.2 32.7-131.8 20.3-162.2-27.8-4.3-6.7-7.5-13.9-9.7-21.2-26.2-81.3 34.5-137.3 92.9-154.4 65.9-19.3 132.6 7.4 144.1 95.5z"/>
					</g>
					<g id="&lt;Group&gt;">
						<path id="&lt;Path&gt;" class="s0" d="m2214.1 3028.2c3.6 40.2-20.6 83.3-65.1 107.9-59.1 32.7-131.8 20.3-162.2-27.8-4.3-6.8-7.5-13.9-9.7-21.3 9.8-30.4 33-58.9 67-77.7 60.1-33.2 132.8-24.2 170 18.9z"/>
					</g>
					<g id="&lt;Group&gt;">
						<path id="&lt;Path&gt;" class="s1" d="m2044.5 2943.7c-20 14.5-36.4 33.4-46.3 55.1-10.1 21.5-13.6 45.8-8.6 67.9 2.5 11.1 6.7 21.5 13.3 30.6 6.3 9.2 14.4 17 23.7 23.1 18.7 12.3 42.1 17 64.9 15.1 46-3.8 89.6-35.3 107.8-78.4 8.9-21.5 11.6-46 4.8-68.5-6.6-22.6-22.5-42.5-43.9-54.8-1.9-1-2.6-3.4-1.5-5.3 1-1.7 3.1-2.4 4.9-1.7 12.3 4.9 23.9 12.3 33.5 22.1 9.7 9.6 17.3 21.4 22.4 34.3 10.3 25.9 9.3 55.6-0.1 81.6-18.8 52.6-69.4 91.3-125.5 96.7-28 2.6-57.4-3.7-81.5-19.7-11.9-8.2-22.2-18.8-30-30.9-8-11.9-13.3-25.8-15.5-39.8-2.4-14-2.1-28.4 0.6-42.1 2.7-13.7 7.8-26.7 14.5-38.6 13.6-23.7 33.9-43 57.5-55 2.4-1.3 5.3-0.3 6.6 2.1 1.1 2.1 0.4 4.7-1.5 6.1z"/>
					</g>
					<g id="&lt;Group&gt;">
						<path id="&lt;Path&gt;" class="s0" d="m2911.6 2069.5c45.1-19 92.3-24 137.2-11.7 81.2 22.4 131.6 95.2 149.7 191.2 11.9 63 7.9 135.3-14.9 208.3-57.5 184.4-213.3 303.9-347.9 266.8-50-13.8-90.1-47.3-117.8-93.5-46.6-77.9-53.2-190.2-17-306z"/>
					</g>
					<g id="&lt;Group&gt;">
						<path id="&lt;Path&gt;" class="s1" d="m3048.8 2057.8c22.6 4.4 44.6 13.6 64.1 26.9 19.6 13.2 36.5 30.4 50.5 49.7 27.5 39 43.5 85.1 51.1 131.8 7.8 47 6.3 95.3-2.1 142-8.5 46.7-23.9 92.1-45.7 134.5-21.9 42.2-50 81.5-84.8 114.5-34.7 32.8-75.8 60.1-122.4 74.2-5.7 2-11.7 3.2-17.5 4.8-6 1.1-11.8 2.6-17.9 3.3-12 2-24.1 2.6-36.3 2.4-24.2-0.9-48.3-5.7-70.5-15.1-22-9.5-42.2-23-58.9-39.6-16.7-16.6-30.2-35.9-40.5-56.6 13.5 18.7 29 35.7 46.7 49.6 17.7 13.8 37.5 24.6 58.5 31.1 20.9 6.8 42.9 9.4 64.5 8.5 21.7-1.3 43.2-5.4 63.6-13.2 40.8-15.3 77.4-41.2 108.4-72.3 15.6-15.5 29.9-32.4 42.7-50.4 12.9-18 24.4-36.9 34.5-56.6 20.4-39.4 35.3-81.7 44.4-125.2 4.6-21.7 7.3-43.8 8.8-65.9 0.5-11.1 0.9-22.2 0.6-33.3-0.2-11.1-0.8-22.1-2-33.2-2.2-22-6.9-43.9-13-65.2-6.2-21.4-14.8-42-26-61.2-11.1-19.2-25.4-36.6-42.3-51.3-17-14.6-36.9-26.2-58.5-34.2z"/>
					</g>
					<g id="&lt;Group&gt;" style="opacity: .3">
						<path id="&lt;Path&gt;" class="s1" d="m2773.7 2292.6c67.9-130 197.7-191.7 290.1-137.8 92.4 53.8 112.2 202.7 44.4 332.7-67.8 129.9-197.7 191.6-290.1 137.8-92.3-53.8-112.2-202.8-44.4-332.7z"/>
					</g>
					<g id="&lt;Group&gt;">
						<path id="&lt;Path&gt;" class="s0" d="m2859 2350.4c67-107.8 174.3-157.1 239.6-110.1 65.3 47 64 172.6-3 280.4-66.9 107.9-174.2 157.2-239.5 110.2-65.3-47-64-172.6 2.9-280.5z"/>
					</g>
					<g id="&lt;Group&gt;">
						<path id="&lt;Path&gt;" class="s1" d="m2967.5 2641.2c-11.6 5.4-23.8 10-36.4 13-12.7 3-25.8 4.5-39 4.5-26.4-0.2-53-7.8-76-21.5-23-14-42.1-33.8-56.2-56.3-14.1-22.5-23.9-47.4-29.7-72.9-6.1-25.5-8.2-51.7-7.6-77.7 0.9-25.9 4.4-51.8 10.7-76.9 12.9-50.1 35.2-98.2 67.8-139.1 8.2-10.1 16.9-19.9 26.2-29.1 9.4-9.1 19.4-17.7 30-25.6 21.1-15.8 44.9-28.6 70.8-36.3 25.8-7.9 53.8-10.1 80.8-4.9 27 4.9 52.5 17.6 72.9 35.4 20.5 17.7 36.2 40.1 46.8 64.1 10.9 23.9 17.5 49.3 20.4 74.9 5.8 51.2-1.6 102.7-18.8 150-0.9 2.6-3.8 3.9-6.4 3-2.4-0.9-3.8-3.5-3.2-5.9l0.1-0.1c12.1-47.4 15.9-96.8 7.6-144-4.1-23.5-11.2-46.4-21.9-67.2-10.7-20.8-24.8-39.5-42.4-53.6-17.5-14.2-38.4-23.4-60.3-27-21.9-3.6-44.7-1.4-66.3 5.6-43.2 14.2-81.3 44.6-110.1 81.5-29.1 37-50.1 80.6-62 126.5-12.3 45.7-15.2 94.1-6.2 140.1 4.5 23 12.5 45.2 23.9 65.3 11.3 20 26.8 37.7 45.7 50.4 18.8 12.9 41.1 20.8 64.2 22.6 23.2 1.9 47.1-2.1 69.7-10.3h0.1c3.2-1.2 6.8 0.5 8 3.7 1.1 3.1-0.4 6.4-3.2 7.8z"/>
					</g>
					<g id="&lt;Group&gt;">
						<path id="&lt;Path&gt;" class="s1" d="m2341.1 2293.6c12.5 1.6 25.1 5.4 36.7 11.9 11.5 6.4 21.9 15.8 29.5 27.1 7.7 11.3 12.4 24.5 14.6 37.9 2 13.4 1.6 26.9-0.6 39.9-2.1 13-6 25.6-11 37.5-5 12-11 23.4-17.9 34.3-13.9 21.5-30.7 40.9-49.6 57.7-19 16.8-39.7 31.6-62.1 43.4-22.4 11.7-46.3 21-71.3 26.1-24.9 5.2-51.1 6.4-76.5 0.6-12.5-3-24.9-7.8-35.8-15-5.5-3.6-10.5-7.9-15-12.5-4.5-4.8-8.3-10-11.6-15.5-1.2-2-0.6-4.6 1.4-5.8 1.8-1.1 4.2-0.6 5.5 1v0.1c14.7 18.1 36.4 27.6 58.7 30.4 22.5 3 45.7 0.1 67.9-5.9 22.3-6.1 43.7-15.3 63.8-26.8 20.1-11.6 39.2-25.2 56.3-40.9 17-15.6 32.6-32.8 45.2-52 12.8-18.9 22.7-39.8 27.6-61.4 2.5-10.8 3.4-21.8 2.5-32.4-0.8-10.7-3.6-21.2-8.8-30.4-9.9-19.1-29.5-32.4-51.7-39.1-2.8-0.9-4.4-3.8-3.5-6.5 0.7-2.5 3.2-4 5.7-3.7z"/>
					</g>
					<g id="&lt;Group&gt;">
						<path id="&lt;Path&gt;" class="s1" d="m2361.2 2601.9c-17.7 27.4-44.1 49.2-73.5 64.1-14.7 7.5-30.3 13.2-46.2 17.6-16 4.2-32.4 6.8-48.9 7.7-33 1.8-66.8-2.4-97.7-15.6-15.4-6.5-30-15.4-42.3-27.1-12.1-11.7-22-26-26.9-41.8-0.7-2.3 0.5-4.6 2.7-5.3 1.9-0.6 3.9 0.2 4.9 1.7v0.1c16.1 25.8 41.9 41.9 69.8 50.7 28 8.8 58.1 11.4 87.7 9.3 29.6-2.1 59-8.6 86.6-19.9 27.5-11.3 53.2-27.2 75.8-48.1v-0.1c2.2-2 5.5-1.8 7.4 0.3 1.7 1.8 1.9 4.4 0.6 6.4z"/>
					</g>
					<g id="&lt;Group&gt;">
						<path id="&lt;Path&gt;" class="s0" d="m2778.9 1629c-20.3-34.7-36.3-77.1-45.5-124.3-27.7-141.7 16.5-273.4 98.7-294.2 82.2-20.8 171.2 77.1 198.8 218.8 27.7 141.7-16.6 273.5-98.7 294.3z"/>
					</g>
					<g id="&lt;Group&gt;">
						<path id="&lt;Path&gt;" class="s1" d="m2857.6 1202.6c27.4 3.8 52.9 16.8 73.9 34.2 21.2 17.4 38.7 38.5 53.5 61.1 14.8 22.6 27.3 46.6 37.6 71.5 5.1 12.4 9.7 25.1 13.7 38.1 2 6.6 3.8 13.2 5.2 20.1 1.6 6.6 3.2 13.1 4.4 19.8 1.4 6.6 2.3 13.4 3.4 20.1 0.9 6.7 1.7 13.4 2.2 20.2 1.1 13.6 1.7 27.2 1.1 40.8-0.6 27.3-4.7 54.6-12.3 81.2-4 13.2-8.8 26.2-14.8 38.7-6.2 12.5-13.5 24.5-22.3 35.5-8.9 10.9-19.1 20.9-31 28.6-11.8 7.8-25.3 13-39 15.1-2.3 0.3-4.4-1.3-4.8-3.6-0.3-1.9 0.9-3.8 2.6-4.5h0.1c11.9-4.7 22.4-11.5 31.6-19.5 9.1-8.3 17-17.9 23.5-28.4 6.7-10.4 12.3-21.5 16.8-33.2 4.8-11.5 8.5-23.5 11.5-35.8 6.3-24.4 9.3-49.7 10.5-75.1 1.1-25.4 0.3-51-2.3-76.6-0.7-6.4-1.6-12.8-2.3-19.2-1-6-2.6-12.2-4.2-18.4-3.4-12.3-7.5-24.5-12.1-36.6-9.3-24.1-20.3-47.6-33.7-69.6-13.4-21.9-29.1-42.5-48.1-59.5-18.9-16.9-41.4-30-66.4-34.8-2.8-0.5-4.6-3.2-4.1-6 0.5-2.7 3.1-4.5 5.8-4.2z"/>
					</g>
					<g id="&lt;Group&gt;" style="opacity: .3">
						<path id="&lt;Path&gt;" class="s1" d="m2958.9 1405.2c13.2 41.3 16.6 84.4 11.6 122-5.9 44.1-23.3 80.6-50.2 97.8-50 31.7-113.6-15.1-142.2-104.6-27.2-85.4-12.7-178.9 32.1-215q3.2-2.6 6.6-4.7c49.9-31.8 113.6 15 142.1 104.5z"/>
					</g>
					<g id="&lt;Group&gt;">
						<path id="&lt;Path&gt;" class="s0" d="m2808.2 1522.7c6.6-75.3 45.8-130.3 87.6-122.9 41.8 7.5 70.3 74.5 63.7 149.8-6.6 75.2-45.8 130.3-87.6 122.8-41.7-7.4-70.2-74.4-63.7-149.7z"/>
					</g>
					<g id="&lt;Group&gt;">
						<path id="&lt;Path&gt;" class="s1" d="m2800.5 1579.1c-17.5-26-29-55.9-35.4-86.7l-2.3-11.6-1.7-11.7-0.7-5.9-0.5-5.9-0.9-11.9c-0.4-15.8 0.4-31.8 2.7-47.8 2.5-15.9 6.8-31.7 13.5-46.9 6.8-15.1 16.1-30 29.8-41.7 7-5.6 14.8-10.7 23.7-13.8 8.6-3.6 18.2-5 27.6-4.7 18.9 0.6 36.1 8.3 49.8 18.6 13.8 10.2 25 22.9 34.4 36.2 9.3 13.5 17 27.8 23 42.7 12.2 29.8 18.6 61.3 20.3 92.9 0.6 15.9 0.4 31.8-1.8 47.6-2.3 15.7-5.8 31.3-11.4 46.4-5.8 14.9-13.5 29.3-24.3 41.6-5.4 6.1-11.6 11.5-18.6 15.9-1.6 1.3-3.5 2.2-5.4 3l-5.5 2.7c-3.8 1.5-7.9 2.4-11.8 3.5-2.2 0.7-4.5-0.6-5.2-2.8-0.6-2.1 0.6-4.4 2.7-5.1l0.5-0.2c13.5-4.5 24.6-14.1 32.8-25.5 8.3-11.5 14.3-24.8 18.3-38.7 4-14 6.3-28.4 7.4-42.9 1-14.6 0.6-29.3-0.6-43.8-3.3-29-9.9-57.9-21.7-84.3-5.9-13.1-12.8-25.7-21-37.3-8.2-11.4-17.7-21.7-28.5-29.5-10.7-7.7-22.6-12.9-34.4-13.3-5.8-0.2-11.7 0.5-17.1 2.9-5.6 1.8-10.8 5.1-15.6 9-9.8 7.8-17.7 19.1-23.6 31.6-5.9 12.5-10 26.2-13.1 40.2-2.7 14.2-4 28.7-4.4 43.3l0.1 10.9v5.5l0.4 5.5 0.8 11 1.4 11c3.7 29.3 12.2 58 25.2 84.8h0.1c1.2 2.6 0.1 5.7-2.4 7-2.4 1.1-5.2 0.3-6.6-1.8z"/>
					</g>
					<g id="&lt;Group&gt;">
						<path id="&lt;Path&gt;" class="s0" d="m2773.6 1854c4.6 58.9-28.1 122-87.9 158.2-79.6 48.2-177 30.4-217.6-39.8-5.7-9.9-10-20.4-12.9-31.1z"/>
					</g>
					<g id="&lt;Group&gt;">
						<path id="&lt;Path&gt;" class="s1" d="m2479.7 1980.1c3.3 8.9 7.5 17.3 12.4 25.2 5.3 7.7 10.7 15.1 17.3 21.5 12.7 13.2 28.2 23.2 45 29.9 16.8 6.5 34.8 10.1 53 10.1 18.1 0.5 36.3-2.6 53.8-8 35-10.7 66.6-32.5 90-61.1 23.3-28.8 38-65 38.7-103.4v-0.1c0-2 1.7-3.7 3.8-3.7 1.8 0.1 3.3 1.4 3.6 3.2 3.1 19.9 1.9 40.8-3.4 60.7-5.5 19.7-14.1 38.9-26.3 55.6-23.8 33.9-59 59.8-98.9 72.5-19.9 6.5-40.9 9.4-62 8.8-20.9-0.9-42-5.4-61.1-14.4-38.5-17.5-68.1-54-74.9-94.4-0.4-2.6 1.3-5 3.8-5.4 2.3-0.4 4.4 0.9 5.2 3z"/>
					</g>
					<g id="&lt;Group&gt;" style="opacity: .3">
						<path id="&lt;Path&gt;" class="s1" d="m2716.8 1868.9c3.1 34.7-17.8 71.8-56.1 93-51 28.2-113.6 17.5-139.8-23.9-3.7-5.8-6.5-12-8.4-18.3-22.5-70.1 29.8-118.4 80.1-133.1 56.8-16.7 114.3 6.4 124.2 82.3z"/>
					</g>
					<g id="&lt;Group&gt;">
						<path id="&lt;Path&gt;" class="s0" d="m2712.3 1874.4c3.1 34.7-17.8 71.8-56.1 93-51 28.2-113.6 17.5-139.8-23.9-3.7-5.9-6.5-12-8.4-18.3 8.4-26.3 28.5-50.9 57.7-67 51.8-28.7 114.5-20.9 146.6 16.2z"/>
					</g>
					<g id="&lt;Group&gt;">
						<path id="&lt;Path&gt;" class="s1" d="m2566.3 1801.9c-17.1 12.7-31.1 28.9-39.4 47.6-8.6 18.4-11.4 39.1-7.1 57.9 4 18.8 15.7 35.3 31.5 45.5 15.9 10.4 35.8 14.4 55.2 12.8 39.1-3.2 76.4-30 92.1-66.7 7.6-18.4 10-39.2 4.3-58.5-5.5-19.3-18.9-36.4-37.3-47.1-1.7-1-2.3-3.3-1.3-5.1 0.9-1.6 2.9-2.3 4.5-1.6h0.1c21.5 8.2 39.9 26.2 48.7 48.7 9 22.5 8.3 48.3 0.2 71-16.3 45.7-60.2 79.4-109.1 84.1-24.3 2.3-49.9-3.2-71-17.2-10.4-7.1-19.3-16.4-26.1-27-7-10.3-11.6-22.5-13.5-34.7-2-12.2-1.7-24.7 0.6-36.6 2.5-11.9 6.9-23.2 12.7-33.5 11.9-20.6 29.7-37.2 50.1-47.5 2.3-1.1 5.1-0.2 6.3 2.1 1 2 0.4 4.5-1.4 5.8z"/>
					</g>
				</g>
				<g id="&lt;Group&gt;" style="opacity: .6">
					<g id="&lt;Group&gt;">
						<path id="&lt;Path&gt;" class="s2" d="m678.1 2470c-21-59.4-38-120.6-50.6-183.4-9.8-48.7 30.2-85.7 72.1-83.9 15 0.6 30.3 6.3 43.6 18.2 108 96.5 229 171.6 355.3 224.2 137.4 57.4 281.1 88.3 420.9 91.6 544 13.1 1030.3-390.5 869-1272.6 0 0 24.1-136.4-22.3-294.6 66.1 176.5 37.3 339.6 37.3 339.6 161.3 882.1-325 1285.7-869 1272.6-139.8-3.3-283.5-34.2-420.9-91.6-126.3-52.6-247.3-127.7-355.3-224.2-13.3-11.9-28.6-17.6-43.6-18.2-41.9-1.8-81.9 35.2-72.1 83.9 9.4 47 21.4 93.2 35.6 138.4z"/>
					</g>
					<g id="&lt;Group&gt;">
						<path id="&lt;Path&gt;" class="s2" d="m2319.7 854.3c-40.6-77.1 32.7-164.8 115.4-137.5 100.1 33.1 195.1 77.1 283.5 130.7 120.6 72.8 229.1 163.3 321.7 267.8 53.1 59.9 101 124.3 143 192.7 58 94.5 104.8 196.4 138.6 304-32.1-91.1-73.7-177.8-123.6-259-42-68.4-89.9-132.8-143-192.7-92.6-104.5-201.1-195-321.7-267.8-88.4-53.6-183.4-97.6-283.5-130.7-69.4-22.9-132.1 35.2-126.5 100q-1.9-3.8-3.9-7.5z"/>
					</g>
				</g>
				<g id="&lt;Group&gt;" style="opacity: .3">
					<path id="&lt;Path&gt;" class="s1" d="m3331.2 1976.1c0 743.9-599.9 1349.6-1348.5 1372-14.3 0.4-28.6 0.6-43 0.6-95.5 0-188.8-9.5-279-27.6-145.6-29.2-282.9-80.9-408.1-151.2-223.9-141.5-404-344.6-515.7-584.9q-19.4-41.7-36-84.9c94.4 133 214.6 247.9 354.6 336.9 81.8 51.9 170.3 95 264.3 127.7 79.2 27.6 162.2 47.8 248.5 59.6 12.9 1.8 25.9 3.4 38.9 4.8 678.6 72.6 1295.4-399.8 1387.7-1071.4 32.3-234.8-3.8-463.5-93-666.4-16.2-36.8-34.2-72.8-53.8-107.7 5 34.2 7.4 69.7 5.9 105.8-6.1 147.3-77.3 303.4-299.7 410.9l-59.2 205.4c0 0 205 111.8-65 439.4-270 327.6-395 202.6-395 202.6 0 0-244.8 169-491.7-5.7-4.7-3.3-9.3-6.7-14-10.3 544 13.1 1030.3-390.5 869-1272.6 0 0 36.9-209-68.7-409.8-30.3-57.5 2.8-121 56-138.1 1.1-0.4 2.2-0.7 3.4-1 0.8-0.3 1.7-0.5 2.6-0.7 1-0.3 2-0.5 3-0.7q1.9-0.5 3.9-0.8c1.5-0.2 3.1-0.5 4.6-0.6 0.9-0.1 1.8-0.2 2.6-0.3 1.1-0.1 2.2-0.2 3.3-0.2q2.5-0.2 5-0.2c10 0 20.4 1.6 31 5.1 6.2 2.1 12.5 4.2 18.7 6.4 3.6 1.2 7.3 2.5 10.9 3.8 3.8 1.3 7.6 2.7 11.4 4.1 3.2 1.2 6.4 2.3 9.5 3.5 2.8 1 5.5 2.1 8.2 3.1 4.7 1.8 9.4 3.6 14.1 5.5 1.4 0.5 2.8 1.1 4.2 1.7 4.5 1.7 8.9 3.5 13.3 5.3q4.7 1.9 9.3 3.9c3.6 1.4 7.2 2.9 10.8 4.5 6.6 2.8 13.2 5.7 19.7 8.6 6.8 3 13.6 6.1 20.3 9.2 0.6 0.3 1.2 0.6 1.8 0.9 5.8 2.7 11.7 5.5 17.5 8.3 1.5 0.7 3 1.5 4.5 2.2 4.7 2.3 9.4 4.6 14.1 7 2.5 1.2 5 2.5 7.4 3.8q24.4 12.4 48.3 25.8c111.3 70.3 211.8 155.8 298.5 253.5 53 59.9 100.9 124.3 142.9 192.7 127.4 207.2 200.7 450.4 200.7 710.5z"/>
				</g>
				<g id="&lt;Group&gt;" style="opacity: .3">
					<path id="&lt;Path&gt;" class="s1" d="m1098.5 2445.1c-144 305-425.1-199.9-425.1-199.9l26.2-42.5c15 0.6 30.3 6.3 43.6 18.2 108 96.5 229 171.6 355.3 224.2z"/>
				</g>
				<g id="&lt;Group&gt;">
					<path id="&lt;Compound Path&gt;" fill-rule="evenodd" class="s1" d="m1992.5 3408.6c-95.2 0-190.2-9.4-282.5-28-271.8-54.5-519.5-186.5-716.3-381.6-196.9-195.2-329.4-440.3-383.4-709-7.5-37.5 9.1-74 42.2-93 33.4-19.1 73.6-14.9 102.4 10.8 361.2 322.9 867 406.1 1230.1 202.5 343.1-192.5 483.9-609.1 386.2-1143.1-0.3-2-0.3-4.1 0-6.2 0.4-2 34.5-205.7-67-398.6-22.3-42.3-16.9-91.3 14-127.7 30.6-36.1 77.5-49.3 122.4-34.5 236.1 78 448 217.6 612.8 403.5 53.9 60.7 102.6 126.4 144.8 195.1 133 216.5 203.3 465.3 203.3 719.7 0 363.9-141.5 708-398.6 968.8-256.4 260.3-599.8 409.7-966.9 420.7-13.9 0.4-28.5 0.6-43.5 0.6zm-1295.7-1188.5c-10 0-19.4 3-26.9 7.3-15.8 9-30.7 28.4-25.2 55.7 107.7 536.8 528.6 954.1 1072.2 1063.2 90 18.1 182.8 27.3 275.6 27.3 14.6 0 28.9-0.2 42.4-0.6 746.7-22.4 1331.6-617.3 1331.6-1354.5 0-247.9-68.5-490.4-198.1-701.4-41.2-67-88.7-131-141.1-190.2-160.8-181.3-367.5-317.4-597.7-393.5-37.2-12.2-68.1 4.3-84.7 23.9-16.8 19.9-28.2 53.6-9.7 88.8 101.3 192.7 75.4 389.5 71 417.8 52.5 289.4 38.8 541.6-40.9 749.6-71.4 186.3-197 334.1-363.2 427.3-179.8 100.9-405.1 136.2-634.4 99.4-230.6-36.9-456.5-145.7-636.2-306.3-11.1-10-23.3-13.8-34.7-13.8z"/>
				</g>
				<g id="&lt;Group&gt;">
					<g id="&lt;Group&gt;">
						<path id="&lt;Path&gt;" class="s2" d="m2182.6 2447.6c-14.1 14.8-28.1 26.7-41.6 35.1-121.7 75-295.7 30-342-36.7l182.8-299.6 173.5-284.4 59.8-98c6 0.9 116.2 43.8 167.5 113.9q0.2 0.3 0.2 0.3c13 17.8 22.1 37.4 24.8 58.5 11.9 92.7-111.9 392.6-225 510.9z"/>
					</g>
					<g id="&lt;Group&gt;" style="opacity: .3">
						<path id="&lt;Path&gt;" class="s1" d="m2182.6 2447.6c-14.1 14.8-28.1 26.7-41.6 35.1-121.7 75-295.7 30-342-36.7l182.8-299.6c46-17.1 72.6-18.8 75.8-22.1l58.6 191.5c0 0-99.9 53.6-73.6 125.2 26.3 71.7 140 6.6 140 6.6z"/>
					</g>
					<g id="&lt;Group&gt;">
						<path id="&lt;Path&gt;" class="s2" d="m2012.6 2298.9l-6.4 7.9-28.3 34.6c0 0-100 21.3-140.8 22.5-24.8 0.8-83.2-8.7-127.3-18.1-28.3-6.1-50.8-12.2-54.7-15.6-10-8.8-93.7-47.5-93.7-47.5l-162.7-213.2c6.6 0.3 51.8-7.3 108.2-16.4 104.9-16.8 248.5-38.7 254.7-24.6 8.6 19.3 202.2 220 243.3 262.5 5 5.1 7.7 7.9 7.7 7.9z"/>
					</g>
					<g id="&lt;Group&gt;">
						<path id="&lt;Compound Path&gt;" fill-rule="evenodd" class="s1" d="m1994.4 2536.7c-90.7 0-175.6-35.9-207.7-82.1-4.8-6.8-3.1-16.2 3.7-20.9 6.8-4.7 16.2-3 20.9 3.8 43.3 62.3 208.2 102.4 321.8 32.4 117.4-72.3 272.1-434.1 259.7-531.3-11.5-89.8-160.3-154.2-180.8-159.9-7.7-1.7-12.9-9.2-11.7-17.1 1.3-8.2 9-13.7 17.2-12.4 12.7 2 190.6 73 205 185.6 8.3 64.8-40 197.9-84 292.2-61.9 133.1-132.8 233.4-189.6 268.5-47.4 29.1-102 41.2-154.5 41.2zm217.8-758q0.3 0.1 0.6 0.1-0.3-0.1-0.6-0.1z"/>
					</g>
					<g id="&lt;Group&gt;" style="opacity: .3">
						<path id="&lt;Path&gt;" class="s1" d="m2382.6 1877.9c-5.2-5.2-93.8-90.2-135.5 199.6 0 0-82.8 0.2-77.8-18.2 3.3-12.1-8.1-123.1-14-197.3l59.8-98c6 0.9 116.2 43.8 167.5 113.9z"/>
					</g>
					<g id="&lt;Group&gt;">
						<path id="&lt;Path&gt;" class="s2" d="m2340.3 2187.2c-1.6 3.8-3.3 7.6-5 11.3-19.9 44.7-42.9 88.5-68.5 131.8-16.2 27.4-50.8 37.5-79.4 23.6l-55.8-27.2c-28.9-14.2-42-48.4-29.8-78.3l1.9-4.5 55.8-98.1 23.1-40.6c0.2-0.4 0.7-1.3 1.5-2.5 17.2-25.7 51.4-33.9 78.8-19.5l49.4 25.8c28.3 14.8 40.7 48.9 28 78.2z"/>
					</g>
					<g id="&lt;Group&gt;">
						<path id="&lt;Compound Path&gt;" fill-rule="evenodd" class="s1" d="m2214.1 2372.5c-10.9 0-21.9-2.3-32.2-7.4l-55.7-27.2c-34.8-17-50.6-58.4-35.9-94.2l1.8-4.5c2.7-6.4 10-9.4 16.3-6.8 6.4 2.6 9.5 9.9 6.9 16.3l-1.9 4.5c-9.7 23.7 0.8 51 23.7 62.2l55.8 27.3c22.7 11 50.4 2.8 63.2-18.8 28.2-47.7 52.7-95.4 72.8-141.7 10-23 0.2-50.3-22.3-62.1l-49.4-25.9c-22.1-11.5-49.1-4.8-62.7 15.5q-0.3 0.4-0.5 0.7c-2.6 5.7-9.2 8.7-15.3 6.7-6.5-2.2-10.1-9.3-7.9-15.8 0.6-1.9 1.5-3.5 2.9-5.5 20.8-31 61.7-41.2 95-23.7l49.5 25.9c34 17.8 48.8 59.2 33.6 94.2-20.5 47.2-45.4 95.8-74.2 144.4-13.5 22.9-38.2 35.9-63.5 35.9zm-19.6-263.4q0 0 0 0 0 0 0 0z"/>
					</g>
					<g id="&lt;Group&gt;">
						<path id="&lt;Path&gt;" class="s1" d="m2295.1 2150c-6.8-0.3-13 1.4-18.4 3.8-5.3 2.7-9.9 6.3-13.6 10.8-3.8 4.4-7.1 9.2-9.8 14.5l-2 4-1.8 4.2-1.8 4.1-1.8 4.6q-7.5 18.3-16.6 35.9c-6.1 11.8-12.5 23.2-20.2 34.4l0.7-1.5c-1.3 3-2.5 6.9-3.5 10.4-1 3.6-1.8 7.3-2.3 10.9-1 7.4-0.8 15 3.6 22.1-3.7-2-6.7-5.4-8.8-9.3-2.3-3.8-3.2-8.2-4.1-12.5-0.8-4.3-1-8.7-0.9-13 0.2-4.4 0.6-8.5 1.5-13.1l0.7-1.5c5-11.7 10.3-23.7 15.7-35.5 5.4-11.8 11-23.5 16.8-35.2 5.9-11.8 13.7-25 25.8-33.5 5.9-4.4 13.1-7.5 20.3-8.3 7.2-0.9 14.6 0.3 20.5 3.7z"/>
					</g>
					<g id="&lt;Group&gt;">
						<path id="&lt;Path&gt;" class="s2" d="m1455.6 1550.5l-42.9 11.2-233.8 61-15.4-49.2q41.9-30.9 81.6-65.2c42.7-36.9 83.6-76.9 122.5-119.8l58.1 39.2z"/>
					</g>
					<g id="&lt;Group&gt;">
						<path id="&lt;Path&gt;" class="s3" d="m1655.1 2083.9l-336.1 22.2-40.1-138.4-100-345 345-90 7.8 32.8z"/>
					</g>
					<g id="&lt;Group&gt;" style="opacity: .3">
						<path id="&lt;Path&gt;" class="s1" d="m2335.3 2198.5c-19.9 44.7-42.9 88.5-68.5 131.8-16.2 27.4-50.8 37.5-79.4 23.6l-55.8-27.2c-28.9-14.2-42-48.4-29.8-78.3l1.9-4.5 55.8-98.1 23.1 7c-3 99.1 37.4 130.3 152.5 44.9 0 0 0.1 0.3 0.2 0.8z"/>
					</g>
					<g id="&lt;Group&gt;">
						<path id="&lt;Compound Path&gt;" fill-rule="evenodd" class="s1" d="m1319 2118.6c-5.5 0-10.4-3.7-12-9.1l-140.1-483.3c-0.9-3.3-0.5-6.8 1.1-9.7 1.7-2.9 4.5-5.1 7.7-5.9l345-90c3.3-0.9 6.8-0.4 9.6 1.4 2.9 1.7 5 4.5 5.8 7.8l131.2 551.2c0.9 3.6 0.1 7.4-2.1 10.4-2.2 2.9-5.6 4.8-9.2 5l-336.1 22.1q-0.5 0.1-0.9 0.1zm-124.5-487.1l133.7 461.4 311.4-20.5-124.9-524.4z"/>
					</g>
					<g id="&lt;Group&gt;">
						<path id="&lt;Path&gt;" class="s4" d="m1475 1748.9c0 47.4-38.5 85.9-85.9 85.9-47.4 0-85.9-38.5-85.9-85.9 0-26 11.5-49.2 29.7-65 15.1-13 34.7-20.9 56.2-20.9 0.9 0 1.7 0 2.6 0.1 46.2 1.3 83.3 39.2 83.3 85.8z"/>
					</g>
					<g id="&lt;Group&gt;" style="opacity: .3">
						<path id="&lt;Path&gt;" class="s1" d="m1475 1748.9c0 47.4-38.5 85.9-85.9 85.9-16.7 0-32.2-4.8-45.4-13q5.9 0.9 12.1 0.9c47.4 0 85.9-38.5 85.9-85.9 0-30.8-16.3-57.8-40.6-72.9 41.8 5.8 73.9 41.6 73.9 85z"/>
					</g>
					<g id="&lt;Group&gt;" style="opacity: .6">
						<path id="&lt;Path&gt;" class="s2" d="m1454.4 1693.2c-14-11.3-31.7-18.2-51-18.8-0.8-0.1-1.7-0.1-2.5-0.1-21.5 0-41.2 7.9-56.2 21-18.2 15.7-29.7 39-29.7 64.9 0 21.3 7.7 40.8 20.6 55.8-19.8-15.7-32.4-39.9-32.4-67.1 0-26 11.5-49.2 29.7-65 15.1-13 34.7-20.9 56.2-20.9 0.9 0 1.7 0 2.6 0.1 25.1 0.7 47.5 12.2 62.7 30.1z"/>
					</g>
					<g id="&lt;Group&gt;" style="opacity: .3">
						<path id="&lt;Path&gt;" class="s1" d="m1655.1 2083.9l-336.1 22.2-40.1-138.4c177.2-20.6 274.8-138.3 252.8-402.2z"/>
					</g>
					<g id="&lt;Group&gt;">
						<path id="&lt;Compound Path&gt;" fill-rule="evenodd" class="s1" d="m1389.1 1841.4c-51 0-92.5-41.5-92.5-92.5 0-26.9 11.6-52.4 32-70 16.8-14.5 38.3-22.5 60.5-22.5 1 0 2 0 3 0.1 50.2 1.5 89.5 42.1 89.5 92.4 0 51-41.5 92.5-92.5 92.5zm0.5-171.8q-0.2 0-0.5 0c-19.1 0-37.5 6.8-51.9 19.3-17.4 15.1-27.4 37-27.4 60 0 43.7 35.6 79.3 79.3 79.3 43.7 0 79.3-35.6 79.3-79.3 0-43.2-33.8-78-76.9-79.2q-0.3 0-0.5-0.1-0.7 0-1.4 0z"/>
					</g>
					<g id="&lt;Group&gt;">
						<path id="&lt;Compound Path&gt;" fill-rule="evenodd" class="s1" d="m1397.8 1682c0 8.4-3.1 16.7-8.7 23.1-5.6 6.5-13.8 11-22.8 11.8-8.9 1-18.5-1.8-25.6-8-7.2-6-11.8-15.3-12.1-24.7v-0.2c0-1.3 0.5-2.5 1.5-3.3 8.5-7.3 18.7-12.4 29.3-15.3 10.7-2.9 21.6-3.7 32.3-2.8 0.1 0 0.3 0.1 0.4 0.2 3.7 5.7 5.8 12.4 5.7 19.2zm0 0c-0.1-6.6-2.3-13.3-6.4-18.4-5.1 0-10.4 0.8-15.4 1.9-5.1 1.2-10.1 2.9-14.8 5-8.7 3.9-16.7 9.1-23.8 15.2 1 6.5 4 12.6 8.7 17.3 5.2 5.1 12.3 8.5 20.1 8.9 7.7 0.5 15.8-2.2 21.9-7.8 3-2.8 5.4-6.2 7.1-10 1.6-3.8 2.5-7.9 2.6-12.1zm-6.4-18.4q0.1 0 0.2 0l-0.3-0.2q0 0.1 0.1 0.2zm-54 22.1q-0.1-1-0.2-2l-1.5 3.5q0.8-0.8 1.7-1.5z"/>
					</g>
					<g id="&lt;Group&gt;">
						<path id="&lt;Compound Path&gt;" fill-rule="evenodd" class="s1" d="m1378.7 1768.6c0.1 6-2.2 12.1-6.3 16.7-4 4.6-10 7.9-16.6 8.5-6.6 0.6-13.7-1.6-18.9-6.3-5.3-4.6-8.5-11.7-8.5-18.9 0-7.1 3.2-14.2 8.4-18.9 5.3-4.7 12.4-6.9 19-6.2 6.6 0.6 12.6 3.8 16.6 8.5 4.1 4.6 6.4 10.6 6.3 16.6zm0 0c0-6-2.7-11.9-7.2-15.8-4.4-3.8-10.3-5.5-15.7-4.9-11.1 1.2-18.8 11-18.6 20.7-0.2 9.7 7.4 19.6 18.6 20.8 5.4 0.6 11.3-1.1 15.8-5 4.4-3.8 7.1-9.8 7.1-15.8z"/>
					</g>
					<g id="&lt;Group&gt;">
						<path id="&lt;Compound Path&gt;" fill-rule="evenodd" class="s1" d="m1457.6 1746.8c0.1 6.2-2.3 12.5-6.5 17.3-4.2 4.8-10.5 8.1-17.3 8.7-6.8 0.7-14.2-1.6-19.6-6.5-5.4-4.8-8.7-12.1-8.7-19.5 0-7.4 3.3-14.8 8.7-19.6 5.4-4.9 12.8-7.1 19.6-6.5 6.8 0.6 13.1 3.9 17.3 8.8 4.2 4.8 6.6 11 6.5 17.3zm0 0c0-6.3-2.8-12.4-7.4-16.5-4.6-4-10.8-5.8-16.4-5.2-11.6 1.2-19.7 11.5-19.5 21.7-0.2 10.2 7.9 20.5 19.5 21.7 5.6 0.6 11.8-1.2 16.4-5.3 4.6-4 7.4-10.2 7.4-16.4z"/>
					</g>
					<g id="&lt;Group&gt;">
						<path id="&lt;Path&gt;" class="s2" d="m2219.8 2049.2c-12.1 55.3-34.7 108.1-68.2 153.7-61.3 83.6-132.3 108.9-211.5 83.5-103.4-54.2-199.9-132.1-291.2-228.6-156.4 25-238.7-200.7-105.2-248.1 6.9-2.4 14.5-4.4 22.6-5.8l0.7-0.2v0.1c6.5-1.2 13.4-2 20.8-2.4l-10.6-44.9c79.3-20.6 135.5 48 177.9 170.3 84 29.7 159.7 63 222.8 101.7-2.7-72.9 7.8-136.4 43.9-181.7l76.7-30.1 62.6-24.5 5.1-2c1 0.6 2 1.3 3 2q93.2 61.6 50.6 257z"/>
					</g>
					<g id="&lt;Group&gt;">
						<path id="&lt;Path&gt;" class="s2" d="m2219.8 2049.2c-12.1 55.3-34.7 108.1-68.2 153.7-61.3 83.6-132.3 108.9-211.5 83.5-103.4-54.2-199.9-132.1-291.2-228.6-171.3 27.4-253.8-246-61.1-256.4l-7.5-31.9h-0.1l-3-13q0.1 0 0.3 0l-0.4-0.3-12.3-51.6c120.3-121.2 257.8-115.3 257.8-115.3l343.6 200.9q96.9 60.4 53.6 259z"/>
					</g>
					<g id="&lt;Group&gt;">
						<path id="&lt;Path&gt;" class="s5" d="m1799.4 1822.5c0 15.1-12.3 27.3-27.4 27.3-15.1 0-27.3-12.2-27.3-27.3 0-15.1 12.2-27.3 27.3-27.3 15.1 0 27.4 12.2 27.4 27.3z"/>
					</g>
					<g id="&lt;Group&gt;">
						<path id="&lt;Path&gt;" class="s1" d="m2026.5 1850.6c-8.8 12.5-15.8 26.2-21.1 40.5-5.2 14.4-8.9 29.2-11.3 44.4-2.4 15.1-3.6 30.5-3.9 46-0.4 15.5-0.1 31 0.9 46.5 0.5 7.2-5 13.4-12.2 13.9-2.6 0.2-5.2-0.5-7.3-1.7l-0.7-0.4c-17.4-10-35.2-19.3-53.3-28-18.1-8.9-36.4-17.3-54.8-25.7-18.3-8.3-36.9-16.4-55.7-23.8-18.8-7.6-37.8-14.5-56.9-21.3-4.5-1.6-7.7-5-9.2-9.1v-0.1c-7.5-21-15.5-41.7-24.8-61.6-9.6-19.7-20.3-38.8-33.2-55.6-12.9-16.6-28-31.2-45.6-39.3-17.6-7.9-37.1-9.2-56.4-4.2l10.8-18 10.7 44.8c1.9 8-3.1 16.1-11.2 18q-1.1 0.3-2.3 0.4h-0.3c-16.5 1.2-32.7 4.2-47 10.5-14.3 6.3-26.5 15.8-35 28.2-8.6 12.3-13.5 27.3-14.5 43-1.2 15.7 1.1 31.9 5.9 47.4 9.8 31 30.1 59.2 56.7 77.3 13.3 9.1 28.2 15.6 43.8 19 15.6 3.4 31.9 3.7 48 1.3l0.1-0.1c5-0.7 9.9 1.2 13.1 4.6 42.2 44.6 87 86.7 134.8 124.9 47.7 38.2 98.6 72.4 152.5 100.7l-2.4-1c20.3 6.5 41.3 9.6 61.9 8.3 20.6-1.1 40.5-7.5 58.8-17.5 36.8-20.1 65.9-54.6 89.3-91.3 23.3-37.2 39.7-78.7 49.5-121.6 9.6-43.5 16-88.1 13.2-131.3-1.5-21.5-5.6-42.7-13.7-61.6-8.2-18.9-20.2-35.6-36.3-47.8l-6.1-4.2-3.1-2.2-3.7-2.2-14.7-8.6-29.5-17.2-59.1-34.6-236.1-138 6.9 2c-2.1 0-5.2 0-7.9 0.1-2.8 0.1-5.7 0.3-8.5 0.5-5.6 0.4-11.4 0.9-17.1 1.8-11.4 1.4-22.7 3.7-34 6.3-22.5 5.3-44.5 13-65.5 22.7-21 9.8-41.5 20.9-60.3 34.6l-7.1 5-6.8 5.3-13.5 10.7-26.3 24.3 4.4-14.5 12.4 52c1.9 8-3.1 16.1-11.1 18-8.1 2-16.2-3-18.1-11.1l-12.4-51.9c-1.3-5.5 0.6-10.9 4.4-14.5l26.9-24.8 14.8-11.8 7.5-5.9 7.7-5.3c20.2-14.7 42.4-26.8 65-37.4 22.8-10.4 46.6-18.8 71-24.6 12.3-2.8 24.6-5.3 37.1-6.9 6.3-0.9 12.6-1.4 18.9-2 3.2-0.1 6.4-0.4 9.6-0.5 3.3-0.1 6.3-0.1 10.2 0 2.4 0 4.7 0.7 6.7 1.8l0.2 0.2 236.4 138.2 59.1 34.5 29.6 17.3 14.7 8.7 3.7 2.1 4 2.7 7.9 5.6c20.4 15.4 35.9 36.9 45.7 59.8 9.8 23 14.4 47.4 16 71.3 3 48-3.9 94.6-13.9 140.1-10.4 45.9-28 90.5-53.2 130.7-6.3 10.1-12.9 19.9-20.2 29.3-7.2 9.5-14.9 18.6-23.1 27.4-16.4 17.4-35.4 33.2-57.1 45.1-21.7 11.9-46.2 19.8-71.2 21.1-25 1.7-49.9-2.2-73-9.6-0.8-0.2-1.7-0.6-2.4-1-55.9-29.3-108.3-64.7-157.4-103.9-49-39.2-94.8-82.3-137.8-127.7l13.3 4.5c-19.4 2.9-39.6 2.7-59.1-1.6-19.4-4.2-38-12.3-54.3-23.5-32.7-22.4-56.5-55.8-68.4-93.1-5.9-18.7-8.7-38.6-7.2-58.7 1.3-20.1 7.7-40.5 19.7-57.7 11.8-17.3 29-30.6 47.6-38.6 18.6-8.2 38.2-11.7 57.5-13l-13.8 18.4-10.7-44.8-0.2-1.1c-1.8-7.4 2.8-14.9 10.3-16.7 0.2-0.1 0.5-0.1 0.7-0.2 6.3-1.1 12.5-2.7 19-3.3 6.5-0.3 13-1.3 19.5-0.3l9.9 0.9 9.6 2.3c6.6 1.1 12.4 4.2 18.6 6.5 3 1.2 5.7 3 8.5 4.5 2.8 1.7 5.8 3.1 8.3 5l7.7 5.6 3.8 2.9 3.5 3.1c4.5 4.3 9.3 8.4 13.2 13.1 4.1 4.6 8.2 9.1 11.7 14 14.8 19.2 26.4 39.9 36.6 61 9.9 21.2 18.3 42.8 26 64.6l-9.2-9.2c19.5 6.8 38.8 14.1 58 21.6 19.2 7.5 38.4 15.2 57.4 23.5 18.9 8.3 37.5 17.6 55.8 27.4 18.2 10 36.1 20.7 53.5 32l-20.2 11.8c-0.1-16.3 0.4-32.6 1.8-48.9 1.5-16.3 3.9-32.5 7.7-48.6 3.8-16 8.9-31.9 16-46.8 7.1-15 16.1-29.2 27-41.6 2.2-2.5 6-2.7 8.5-0.5 2.3 2 2.7 5.5 0.9 7.9z"/>
					</g>
					<g id="&lt;Group&gt;">
						<path id="&lt;Path&gt;" class="s1" d="m1836.7 1970.5c-3 0-6-1.1-8.4-3.2-5.1-4.6-5.5-12.5-0.9-17.7l60.9-67.8c3.2-3.6 4.8-8.3 4.5-13.1-0.4-4.9-2.6-9.3-6.3-12.5l-177.8-149.5c-7-5.8-17.2-5.5-23.8 0.7l-58.3 55.6c-5 4.7-12.9 4.5-17.7-0.5-4.7-5-4.5-12.9 0.5-17.6l58.3-55.6c15.8-15 40.4-15.8 57.1-1.7l177.8 149.5c8.9 7.5 14.3 18.1 15.1 29.8 0.8 11.7-3 22.9-10.8 31.6l-60.9 67.8c-2.5 2.8-5.9 4.2-9.3 4.2z"/>
					</g>
					<g id="&lt;Group&gt;">
						<path id="&lt;Path&gt;" class="s1" d="m1770.8 1942.5c-2.3 0-4.7-0.9-6.6-2.6-4.1-3.6-4.5-10-0.8-14.1l96.7-108.4c3.7-4.2 10-4.5 14.1-0.9 4.1 3.7 4.5 10 0.8 14.2l-96.7 108.4c-2 2.2-4.7 3.4-7.5 3.4z"/>
					</g>
					<g id="&lt;Group&gt;" style="opacity: .3">
						<path id="&lt;Path&gt;" class="s1" d="m1770.8 1932.5l96.8-108.5 27.8 26.5c9.8 9.2 10.8 24.4 2.4 34.8l-56.1 69.9"/>
					</g>
					<g id="&lt;Group&gt;">
						<path id="&lt;Path&gt;" class="s1" d="m1681.8 1795.2c-2 0-4-0.8-5.5-2.4-2.8-3.1-2.6-7.8 0.4-10.6l67.9-62.8c3.1-2.8 7.8-2.7 10.6 0.4 2.8 3 2.6 7.8-0.4 10.6l-67.9 62.8c-1.4 1.3-3.3 2-5.1 2z"/>
					</g>
					<g id="&lt;Group&gt;">
						<path id="&lt;Compound Path&gt;" fill-rule="evenodd" class="s1" d="m1772 1857.3c-19.2 0-34.8-15.6-34.8-34.8 0-19.2 15.6-34.8 34.8-34.8 19.2 0 34.9 15.6 34.9 34.8 0 19.2-15.7 34.8-34.9 34.8zm0-54.6c-10.9 0-19.8 8.9-19.8 19.8 0 10.9 8.9 19.8 19.8 19.8 11 0 19.9-8.9 19.9-19.8 0-10.9-8.9-19.8-19.9-19.8z"/>
					</g>
					<g id="&lt;Group&gt;">
						<path id="&lt;Path&gt;" class="s1" d="m1799 2205c-4.9 0-9.2-3.6-9.9-8.6-0.8-5.5 3.1-10.5 8.5-11.3 24.4-3.3 54.6-27.1 78.9-61.9 29.3-41.9 42.7-89.4 35.1-124.2-1.2-5.4 2.3-10.7 7.6-11.9 5.4-1.1 10.8 2.3 12 7.7 8.8 40.6-5.5 92.9-38.3 139.8-27.8 39.9-62.4 66.2-92.5 70.3q-0.7 0.1-1.4 0.1z"/>
					</g>
					<g id="&lt;Group&gt;">
						<path id="&lt;Path&gt;" class="s1" d="m1987.3 2020.3l47.9 66.6c1.6 2.3 1.1 5.4-1.2 7-2 1.4-4.7 1.2-6.4-0.4l-59.2-56.8c-5-4.8-5.1-12.7-0.3-17.7 4.8-5 12.7-5.2 17.7-0.4 0.6 0.5 1.1 1.1 1.5 1.7z"/>
					</g>
					<g id="&lt;Group&gt;">
						<g id="&lt;Group&gt;">
							<path id="&lt;Path&gt;" class="s2" d="m2743.3 1270c-36.3 322.9-334.4 554.6-665.9 517.4-157.7-17.8-294.4-93.1-390.7-202-106.1-120-162.9-280.8-143.9-450.2 12-107.1 52.9-204.1 114.1-284.7 123.5-162.3 330.2-257.5 551.8-232.6 331.5 37.2 570.9 329.1 534.6 652.1z"/>
						</g>
						<g id="&lt;Group&gt;" style="opacity: .3">
							<path id="&lt;Path&gt;" class="s1" d="m2743.3 1270c-36.3 322.9-334.4 554.6-665.9 517.4-157.7-17.8-294.4-93.1-390.7-202-49.2-55.7-87.9-120.1-113.2-190.1 13.9 20.4 29.2 40 45.7 58.5 96.2 109 233 184.3 390.7 202 331.5 37.2 629.6-194.4 665.9-517.4 10.2-90.7-1.4-179.1-30.7-259.9 76.2 111.4 114.3 248.4 98.2 391.5z"/>
						</g>
						<g id="&lt;Group&gt;">
							<path id="&lt;Path&gt;" class="s1" d="m2473.2 1325.6c-151.5 326.1-571.4 359-786.5 259.8-60.3-68.1-104.5-149.3-128.1-237.8-18.1-67.4-24-139.1-15.8-212.4 12-107.1 52.9-204.1 114.1-284.7q0.1 0 0.1 0c261.5-143.5 686.7-24.2 792.9 338.7l-0.1 0.1c12.4 42.1 20.5 87.6 23.4 136.3z"/>
						</g>
						<g id="&lt;Group&gt;">
							<path id="&lt;Path&gt;" class="s6" d="m2473.2 1325.6c-151.5 326.1-571.4 359-786.5 259.8-60.3-68.1-104.5-149.3-128.1-237.8 212.1 190 725.1 273 891.2-158.3 12.4 42.1 20.5 87.6 23.4 136.3z"/>
						</g>
						<g id="&lt;Group&gt;">
							<path id="&lt;Compound Path&gt;" fill-rule="evenodd" class="s1" d="m2147.8 1807.6c-24 0-48-1.3-72.2-4-155.6-17.5-297.8-90.9-400.4-206.6q-0.4-0.4-0.7-0.8c-112.7-127.4-166.6-296.1-147.9-462.8 11.9-106.3 52.5-207.5 117.4-292.7 130.8-172 347.9-263.6 566.5-239 339.9 38.1 586.2 338.7 549 670.1-18 160.6-99.1 304.4-228.4 404.8-110.2 85.6-244.1 131-383.3 131zm-449.6-233.8q0.4 0.4 0.7 0.8c97.4 110.1 232.4 179.9 380.3 196.5 156.1 17.6 309.5-25.2 431.9-120.2 122.2-95 198.9-230.9 216-382.7 35.2-313.5-198.2-598-520.2-634.1-207.3-23.3-413 63.4-537 226.3-61.3 80.5-99.6 176.2-110.9 276.6-17.6 157.2 33.1 316.4 139.2 436.8z"/>
						</g>
						<g id="&lt;Group&gt;">
							<path id="&lt;Path&gt;" class="s1" d="m1988.5 1716.1c-79.5 0-159.4-16-232.8-48.5-6.3-2.8-9.2-10.2-6.4-16.6 2.8-6.3 10.2-9.2 16.6-6.4 171.2 75.9 378.9 57.6 529.2-46.5 144.1-99.9 217.2-264.9 206.1-464.9-69.3-172.5-205.9-308.3-375-372.9-131.3-50.1-264.4-50.1-365.4 0.2-6.2 3.1-13.7 0.6-16.8-5.6-3.1-6.2-0.6-13.8 5.6-16.9 107.3-53.4 247.8-53.8 385.5-1.2 176.3 67.4 318.5 209.2 390.1 389q0.8 1.9 0.9 3.9c12.3 210-64.7 383.7-216.7 489-92.8 64.3-206.5 97.4-320.9 97.4z"/>
						</g>
						<g id="&lt;Group&gt;">
							<path id="&lt;Path&gt;" class="s1" d="m1935.6 1647.7c-92.3 0-182.1-17.2-254.3-50.5-6.6-3-9.4-10.7-6.4-17.2 3-6.6 10.7-9.4 17.2-6.4 112.1 51.7 268.7 62.7 408.6 28.8 165.7-40.2 293.2-139.3 359.3-279.3-12.9-196.2-111.2-354.6-277.1-446.1-165.8-91.4-369.8-97.4-519.7-15.1-6.3 3.4-14.2 1.1-17.6-5.1-3.5-6.3-1.2-14.2 5.1-17.7 157.6-86.4 371.4-80.5 544.8 15.2 174.8 96.5 278.1 263.6 290.7 470.5 0.1 2.2-0.3 4.3-1.2 6.3-69.2 148.8-203.5 254.1-378.2 296.5-55.6 13.5-113.9 20.1-171.2 20.1z"/>
						</g>
						<g id="&lt;Group&gt;">
							<path id="&lt;Path&gt;" class="s2" d="m2733.8 1354.9c-12.8 114-106.9 197-210.2 185.4-103.3-11.6-176.7-113.4-163.9-227.4 12.8-114 106.9-197 210.2-185.4 103.3 11.6 176.7 113.4 163.9 227.4z"/>
						</g>
						<g id="&lt;Group&gt;" style="opacity: .3">
							<path id="&lt;Path&gt;" class="s1" d="m2733.8 1354.9c-12.8 113.9-106.9 197-210.2 185.4-103.3-11.6-176.7-113.5-163.9-227.4 0.2-2.1 0.5-4.1 0.8-6.1 28 56.4 79.8 97 142.7 104.1 101.5 11.3 194.1-68.5 209.5-179.4 17.9 36.2 26.1 78.8 21.1 123.4z"/>
						</g>
						<g id="&lt;Group&gt;">
							<path id="&lt;Compound Path&gt;" fill-rule="evenodd" class="s1" d="m2543 1557.7q-10.6 0-21.3-1.2c-112-12.6-192-122.7-178.2-245.4 13.8-122.8 116.2-212.4 228.2-199.8 54.6 6.1 103.2 35.2 136.9 82 33.3 46.2 48 104.2 41.4 163.4-6.7 59.2-33.9 112.5-76.6 150.2-37.6 33.1-83.2 50.8-130.4 50.8zm7.7-415c-87.2 0-163.8 73.6-174.8 172-11.8 104.9 55.3 198.8 149.5 209.4 45.3 5 90.2-9.7 126.4-41.7 36.7-32.3 60-78.2 65.8-129.3q0 0 0 0c5.7-51.1-6.9-101.1-35.5-140.8-28.2-39.1-68.7-63.5-114-68.6q-8.8-1-17.4-1z"/>
						</g>
						<g id="&lt;Group&gt;">
							<path id="&lt;Path&gt;" class="s1" d="m2582.4 1538.9q-7.9 0-15.9-0.9c-44.9-5-84.6-30.8-111.8-72.6-26.7-41-38.1-92.7-32.1-145.5 12.3-109.9 96.9-190.9 188.7-180.7 24.3 2.8 47.1 11.5 67.6 26.1 5.6 4 7 11.8 2.9 17.5-4 5.6-11.8 7-17.4 3-17-12.1-35.8-19.4-55.9-21.6-78-8.7-150.2 62.4-161 158.5-5.3 47.1 4.8 92.9 28.3 129 23 35.4 56.2 57.2 93.5 61.4 19.9 2.2 39.8-0.7 59.1-8.6 6.4-2.6 13.7 0.5 16.3 6.9 2.7 6.4-0.4 13.7-6.8 16.4-18.2 7.4-36.8 11.1-55.5 11.1z"/>
						</g>
						<g id="&lt;Group&gt;" style="opacity: .3">
							<path id="&lt;Path&gt;" class="s2" d="m2043.2 912.5q-379 88.8-360.6 510.4c0.8 17.6-23.4 23.1-30.6 7-56.6-126.3-78.2-261.4-15.5-418 26.4-65.9 82.7-115.5 151.3-133.7 81.1-21.6 166.2-21.1 255.8 3.3 16 4.3 15.8 27.2-0.4 31z"/>
						</g>
						<g id="&lt;Group&gt;" style="opacity: .3">
							<path id="&lt;Path&gt;" class="s2" d="m2267.1 1092.9c24.4-0.4 42.6 17.4 54.3 54.1 14 43.8 10.5 91.8-10.7 132.6-25.6 49.1-57.1 54-92.8 27.8-17.5-12.8-25.1-35.2-19.9-56.4q12.9-53.8 18.2-108.8c2.6-26.7 24-48.8 50.9-49.3z"/>
						</g>
						<g id="&lt;Group&gt;" style="opacity: .3">
							<path id="&lt;Path&gt;" class="s2" d="m2242 1434.9q0 1-0.1 2c-2.1 47.4-30.7 90.4-74.3 109.2-39.1 16.9-75.9 8.9-86.9-24.1-6-17.9-0.6-37.5 12.5-51.2 19-20 37-42.2 54-66.2 29.6-41.7 96.2-20.8 94.8 30.3z"/>
						</g>
					</g>
					<g id="&lt;Group&gt;">
						<path id="&lt;Path&gt;" class="s1" d="m1178.9 1635.2c-5.3 0-10.3-3.4-11.9-8.8l-15.4-49.1c-1.6-5.1 0.2-10.7 4.5-13.8 72-53.2 140.1-114.9 202.3-183.4 4.2-4.6 11.1-5.4 16.2-1.9l58.1 39.1c2.6 1.8 4.4 4.4 5.1 7.4l30 122.8c1.6 6.7-2.5 13.5-9.2 15.1-6.7 1.7-13.5-2.4-15.1-9.1l-28.8-118.2-45.1-30.4c-59.3 64.3-123.6 122.5-191.5 173.4l12.7 40.6c2.1 6.6-1.6 13.6-8.2 15.7q-1.8 0.6-3.7 0.6z"/>
					</g>
					<g id="&lt;Group&gt;">
						<path id="&lt;Path&gt;" class="s2" d="m1512.6 1535.6c-24.1-62.9-95.6-46.3-95.6 25z"/>
					</g>
					<g id="&lt;Group&gt;" style="opacity: .3">
						<path id="&lt;Path&gt;" class="s1" d="m2219.8 2049.2c-12.1 55.3-34.7 108.1-68.2 153.7-61.3 83.6-132.3 108.9-211.5 83.5-103.4-54.2-199.9-132.1-291.2-228.6-156.4 25-238.7-200.7-105.2-248.1l22.6-5.8 0.7-0.2v0.1c-65.7 117.5 51 210.1 134.1 200.1 0 0 232.8 157.5 276.8 160 43.9 2.5 79.7-39.6 79.7-39.6 97.8-96.4 57.1-270.2 37.4-329.3l66.1-2.8h8.1q93.2 61.6 50.6 257z"/>
					</g>
					<g id="&lt;Group&gt;">
						<path id="&lt;Compound Path&gt;" fill-rule="evenodd" class="s1" d="m1417 1573.1c-2.7 0-5.4-0.9-7.6-2.6-3.1-2.4-4.9-6.1-4.9-9.9 0-45.7 25.8-70.9 51.4-75.6 28.8-5.3 55.6 12.8 68.3 46.2 1.3 3.3 1.1 7-0.5 10.2-1.7 3.1-4.6 5.4-8 6.3l-95.5 25q-1.6 0.4-3.2 0.4zm48.7-64q-2.6 0-5.2 0.4c-12.4 2.3-24.9 13.7-29.3 34.5l63.3-16.6c-7.5-11.7-17.8-18.3-28.8-18.3z"/>
					</g>
					<g id="&lt;Group&gt;">
						<path id="&lt;Path&gt;" class="s1" d="m1194.2 1628.7c-3.3 0-6.6-1.7-8.5-4.7-2.9-4.7-1.5-10.9 3.2-13.8 81-50.5 158.2-114.2 229.5-189.4 3.8-4 10.2-4.2 14.2-0.4 4 3.8 4.2 10.2 0.4 14.2-72.6 76.4-151.1 141.2-233.5 192.6-1.7 1-3.5 1.5-5.3 1.5z"/>
					</g>
					<g id="&lt;Group&gt;" style="opacity: .3">
						<path id="&lt;Path&gt;" class="s1" d="m1425.7 1523.2l-13 38.5-233.8 61-15.4-49.2q41.9-30.9 81.6-65.2c15.9 10.9 82.4 50 180.6 14.9z"/>
					</g>
					<g id="&lt;Group&gt;">
						<path id="&lt;Path&gt;" class="s1" d="m1580.3 1769.5h-0.1l-3-13z"/>
					</g>
					<g id="&lt;Group&gt;" style="opacity: .3">
						<path id="&lt;Path&gt;" class="s1" d="m1681.8 1690.3l54-37.6 57.3 44.9-23.7 37.3-44.6-39c0 0-21.1-15.7-43-5.6z"/>
					</g>
					<g id="&lt;Group&gt;" style="opacity: .3">
						<path id="&lt;Path&gt;" class="s1" d="m1905.3 1861c0 0 49.6 69.5-4.7 125.6l-53.6-28.6 48.1-57.8"/>
					</g>
					<g id="&lt;Group&gt;">
						<path id="&lt;Path&gt;" class="s2" d="m2021.4 2293.9c-60.5 264.6-517.9 370.4-773.6-38.7-60.8 69.9-131.2 130.6-208.7 184.6-27.8 19.4-64.1 22-94.2 6.4-78.9-40.9-151.4-89.8-215-150.4-5.1-4.8-10.1-9.7-15.1-14.7-23.6-23.7-28.3-60.3-11-88.9 56.5-93.7 144.2-68.2 242-4.5l112.4-135c203.5-212.8 337.2-150 448.7 0.4 39.1 52.6 75.4 116 111.1 182.1 40.5 26.8 84.9 48.7 129.1 64.8 102.8 37.4 205.2 43.4 259.1 6.8 5.6-3.8 10.7-8.1 15.2-12.9z"/>
					</g>
					<g id="&lt;Group&gt;" style="opacity: .3">
						<path id="&lt;Path&gt;" class="s1" d="m2021.4 2293.9c-60.5 264.6-517.9 370.4-773.6-38.7-60.8 69.9-131.2 130.6-208.7 184.6-27.8 19.4-64.1 22-94.2 6.4-78.9-40.9-151.4-89.8-215-150.4 120.8 96.6 212.9 115 257.7 5.2 89.3-48 174-118.1 253.8-210.8 0 0 100-43.9 157.3 121.8 37.9 109.5 223.9 187.4 311.1 133.8 16.6-10.2 29.7-25.3 37.3-45.8 6.7-17.7 9.4-39.4 7-65.6-28.1-24.3-68-59-90.7-79.3l-82.2 13.7-37.3-72.9 111.2-12 15-8.7 47.8 47.8 4.6-1 26.9 32.3 17 18.1c53.4 39.7 159.2 111.2 238.5 118.6 5 5.1 7.7 7.9 7.7 7.9l-6.4 7.9c5.6-3.8 10.7-8.1 15.2-12.9z"/>
					</g>
					<g id="&lt;Group&gt;">
						<path id="&lt;Path&gt;" class="s1" d="m2036.1 2297.2c-4.9 21.1-12.2 41.5-21.7 60.9-9.5 19.4-21.4 37.5-34.9 54.3-27.1 33.3-60.9 60.8-98.2 81.3-74.7 41.4-162.2 55.7-246 46.3-84.2-9.4-164.6-43.1-232.3-92.5-68.1-49.4-123.7-113.9-167.9-184.4l24.1 1.9c-57.7 66.3-124.1 124.5-195.1 175.5l-13.3 9.5-3.4 2.4-4 2.5c-2.6 1.8-5.4 3.2-8.2 4.7-11.2 5.7-23.4 9.5-35.9 11-12.5 1.4-25.2 0.8-37.5-2.3-6.1-1.3-12.1-3.5-17.9-6-6-2.7-10.5-5.2-15.4-7.8-38.7-20.5-76.4-43.2-112.2-68.6-35.9-25.4-70.1-53.4-101.7-84l-5.9-5.8-3-2.9-1.4-1.5-1.7-1.7c-4.5-4.7-8.3-10-11.8-15.6-6.5-11.2-10.9-23.8-11.9-36.8-1.3-13 0.5-26.3 5.1-38.5 1.1-3.1 2.4-6.1 3.9-9 1.5-2.8 3.1-5.9 4.7-8.2 3-4.9 6.4-9.7 9.9-14.5 7.2-9.4 15.4-18.3 24.9-26 9.6-7.7 20.5-14.1 32.2-18.4 23.6-8.9 49.2-8.7 72.1-4.1 23 4.6 44.4 13.1 64.6 22.9 20.2 9.9 39.2 21.3 57.7 33.3l-19.7 3 74.8-89.8 37.4-44.9c14-14.9 28-28.5 42.7-41.9 29.4-26.6 61.3-51.2 97.3-70.3 17.9-9.4 36.9-17.5 57-22.9 19.9-5.5 41-8.2 62.1-7.4 21.1 0.7 42 5.3 61.5 12.8 19.6 7.4 37.7 17.8 54.4 29.7 33.2 24 60.8 53.7 85.8 84.5 24.9 31 46.4 64.2 65.3 98.6 18.9 34.4 35.9 69.6 50.7 105.8 1.2 3.1-0.3 6.6-3.3 7.9-2.7 1.1-5.7 0.1-7.3-2.2-22.1-32.1-43-64.8-64.2-96.9-10.6-16.1-21.4-31.9-32.3-47.6-10.9-15.7-21.8-31.3-33.4-46.3-23-30.1-48.9-57.9-78.8-79.4-29.7-21.6-64-35.7-99.6-36.9-35.6-1.5-71.3 9.5-103.9 26.9-32.8 17.3-63 40.5-91.1 65.9-14.1 12.8-27.9 26.3-40.6 39.6l-37.1 44.7-74.3 89.3c-4.9 5.9-13.4 7.1-19.7 3-17.8-11.6-36-22.4-54.6-31.5-18.6-9.2-37.9-16.6-57.2-20.5-19.3-3.8-38.7-3.7-55.8 2.8-17.2 6.3-31.9 18.8-43.7 34.4-2.9 4-5.7 8-8.4 12.3-1.4 2.2-2.3 4-3.4 5.9-0.9 1.9-1.8 3.9-2.5 5.9-3 8-4.2 16.6-3.4 25.2 0.7 8.6 3.6 16.9 7.9 24.3 2.3 3.6 4.8 7.2 7.8 10.3l1.1 1.2 1.4 1.4 2.9 2.7 5.6 5.6c30.5 29.5 63.5 56.5 98.2 81.1 34.7 24.6 71.3 46.6 109 66.6 4.6 2.5 9.7 5.2 13.4 6.9 4.2 1.7 8.4 3.3 12.9 4.3 8.7 2.2 17.9 2.6 26.9 1.6 9-1 17.7-3.9 25.8-7.9 1.9-1.1 4-2.1 5.9-3.4l2.8-1.8 3.2-2.3 13.1-9.3c69.4-49.9 134-106.5 189.9-170.8 5.5-6.2 15-6.9 21.2-1.4 1.1 1 2.1 2.1 2.9 3.3 42.5 67.9 95.6 129.3 160 176 64.1 46.8 139.5 78.3 218 87 78.2 8.8 159.6-4.7 228.2-42.8 34.3-18.8 65-43.8 89.4-73.9 12.1-15.1 22.8-31.4 31.3-48.7 8.4-17.3 15-35.5 19.3-54.3l0.1-0.1c1.8-8 9.9-13.1 18-11.2 8 1.9 13.1 10 11.2 18z"/>
					</g>
					<g id="&lt;Group&gt;">
						<path id="&lt;Path&gt;" class="s1" d="m958.1 2185.1l11.2 88.2c0.4 2.7-1.6 5.3-4.3 5.6-2.5 0.3-4.8-1.2-5.5-3.5l-25.9-85.1c-2-6.6 1.7-13.6 8.4-15.7 6.6-2 13.6 1.8 15.6 8.4 0.2 0.7 0.4 1.4 0.5 2.1z"/>
					</g>
					<g id="&lt;Group&gt;">
						<path id="&lt;Path&gt;" class="s1" d="m1236.4 2278.1q-1.7 0-3.5-0.6c-178.2-65.9-197.9-201-198.6-206.7-0.7-5.4 3.1-10.5 8.6-11.2 5.4-0.7 10.5 3.1 11.2 8.6 0.7 5.5 19.5 129.1 185.8 190.5 5.1 2 7.8 7.7 5.9 12.9-1.5 4-5.3 6.5-9.4 6.5z"/>
					</g>
					<g id="&lt;Group&gt;">
						<path id="&lt;Path&gt;" class="s1" d="m1237.4 2248.3l62.7-82.2c1.7-2.2 4.9-2.6 7.1-1 2 1.6 2.5 4.3 1.3 6.5l-50.2 90.4c-3.3 6.1-11 8.3-17 4.9-6.1-3.4-8.3-11-4.9-17 0.3-0.6 0.7-1.1 1-1.6z"/>
					</g>
					<g id="&lt;Group&gt;">
						<path id="&lt;Path&gt;" class="s1" d="m1062.3 2427.7c-123.2 0-316.4-157.2-362.2-238.5-2.7-4.8-1-10.9 3.8-13.6 4.8-2.7 10.9-1 13.7 3.8 43.6 77.5 238.4 235.3 352 228.1 5.5-0.3 10.3 3.9 10.6 9.4 0.4 5.5-3.8 10.2-9.3 10.6q-4.3 0.2-8.6 0.2z"/>
					</g>
					<g id="&lt;Group&gt;">
						<path id="&lt;Path&gt;" class="s2" d="m1242.5 1842c12.5 43.2 3 90.5-27.2 123.7-87.7 96.2-224.2-62.3-261.4-226.7-53.8-191.3 177.1-293.5 235.8-79.1z"/>
					</g>
					<g id="&lt;Group&gt;" style="opacity: .3">
						<path id="&lt;Path&gt;" class="s1" d="m1215.2 1965.7c-86.9 95.5-222-59.8-260.4-222.8 57.7 114.5 154.3 191.5 221.8 117.4 30.3-33.3 39.7-80.5 27.2-123.7l-39.8-137.3c10.3 16.4 19.1 36.5 25.7 60.6l52.8 182.1c12.5 43.2 3 90.5-27.3 123.7z"/>
					</g>
					<g id="&lt;Group&gt;">
						<path id="&lt;Compound Path&gt;" fill-rule="evenodd" class="s1" d="m1154.8 2007.4q-12.2 0-24.9-3.3c-76.8-20.3-159.4-135.3-188.1-262-18.8-67.3-5.3-132.7 36.3-175.1 32.6-33.2 76.7-46.6 118-35.9 49.5 12.9 87 57.4 105.6 125.5l52.8 181.9q0 0 0 0c13.9 48.1 2.4 100-30 135.6-20.1 22.1-43.8 33.3-69.7 33.3zm-87-454.9c-25.8 0-51.5 11.2-71.9 32-35.2 36-46.4 92.5-30 151.1q0.1 0.3 0.2 0.7c26.3 116.5 102.7 225.8 170.2 243.6 26.3 7 49.7-0.7 69.7-22.6 26.6-29.2 36-72.1 24.5-111.8l-52.8-182.1c-16.2-59.3-47.4-97.6-87.9-108.1-7.3-1.9-14.6-2.8-22-2.8z"/>
					</g>
					<g id="&lt;Group&gt;">
						<path id="&lt;Path&gt;" class="s1" d="m945.9 1697.3c-4.3 0-8.2-2.7-9.6-7-1.6-5.3 1.4-10.9 6.7-12.5l223-68.7c5.2-1.6 10.8 1.4 12.5 6.7 1.6 5.2-1.4 10.8-6.7 12.5l-223 68.6q-1.4 0.4-2.9 0.4z"/>
					</g>
					<g id="&lt;Group&gt;">
						<path id="&lt;Path&gt;" class="s1" d="m964.4 1787.5c-4.3 0-8.2-2.8-9.5-7.1-1.6-5.3 1.3-10.9 6.6-12.5l238.3-72.6c5.3-1.6 10.9 1.4 12.5 6.7 1.6 5.2-1.4 10.8-6.7 12.4l-238.3 72.6q-1.4 0.5-2.9 0.5z"/>
					</g>
					<g id="&lt;Group&gt;">
						<path id="&lt;Path&gt;" class="s1" d="m1005 1879.9c-4.3 0-8.4-2.9-9.6-7.3-1.5-5.3 1.6-10.8 6.9-12.3l227.1-63.7c5.3-1.5 10.8 1.6 12.3 6.9 1.5 5.3-1.6 10.8-6.9 12.3l-227.1 63.7q-1.3 0.4-2.7 0.4z"/>
					</g>
					<g id="&lt;Group&gt;">
						<path id="&lt;Path&gt;" class="s1" d="m1058.2 1952.6c-4.3 0-8.3-2.9-9.6-7.3-1.5-5.3 1.5-10.8 6.8-12.3l183.2-53c5.3-1.6 10.9 1.5 12.4 6.8 1.5 5.3-1.5 10.9-6.8 12.4l-183.2 53q-1.4 0.4-2.8 0.4z"/>
					</g>
				</g>
			</g>
		</g>
	</g>
</svg>