<svg version="1.2" xmlns="http://www.w3.org/2000/svg" viewBox="0 0 257 244" width="257" height="244">
	<title>star</title>
	<defs>
		<radialGradient id="g1" cx="126.7" cy="118.7" r="68.7" gradientUnits="userSpaceOnUse">
			<stop offset="0" stop-color="#f8f387"/>
			<stop offset="1" stop-color="#faf59f" stop-opacity="0"/>
		</radialGradient>
	</defs>
	<style>
		.s0 { fill: #fff95d } 
		.s1 { opacity: .5;mix-blend-mode: overlay;fill: url(#g1) } 
	</style>
	<g id="&lt;Group&gt;">
		<g id="&lt;Group&gt;">
			<g id="&lt;Group&gt;">
				<g id="Layer0 7 FILL 5 ">
					<path id="&lt;Path&gt;" class="s0" d="m150.4 117.7l-10.6 8 0.9 12.9q0.1 2.8-1 3.3-1.2 0.6-3-0.9l-10.6-7.5-12.4 5q-1.2 0.7-2.6 0.6-1.5-0.1-0.7-3.5l4.1-12.8-7.6-8.9q-4.7-5.4 2.1-5.3l12-0.1 7.5-12.1q2-3.6 3.5-0.1l4.7 13.9 12.9 3.1q5 0.9 0.8 4.4z"/>
				</g>
			</g>
		</g>
		<path id="&lt;Path&gt;" class="s1" d="m192.3 139.5c-11.5 36.2-50.2 56.2-86.4 44.8-36.1-11.5-56.2-50.2-44.7-86.4 11.5-36.1 50.2-56.2 86.3-44.7 36.2 11.5 56.2 50.2 44.8 86.3z"/>
	</g>
</svg>