<svg version="1.2" xmlns="http://www.w3.org/2000/svg" viewBox="0 0 599 597" width="599" height="597">
	<title></title>
	<defs>
		<linearGradient id="g1" x1="265.2" y1="208.3" x2="266.4" y2="184.8" gradientUnits="userSpaceOnUse">
			<stop offset="0" stop-color="#2f0063"/>
			<stop offset="1" stop-color="#383e81"/>
		</linearGradient>
		<linearGradient id="g2" x1="245.1" y1="199.5" x2="245.6" y2="188.7" gradientUnits="userSpaceOnUse">
			<stop offset="0" stop-color="#007cde"/>
			<stop offset="1" stop-color="#0f4aa4"/>
		</linearGradient>
		<linearGradient id="g3" x1="321.7" y1="246.2" x2="321.7" y2="221.7" gradientUnits="userSpaceOnUse">
			<stop offset="0" stop-color="#a40540"/>
			<stop offset="1" stop-color="#c7224a"/>
		</linearGradient>
		<linearGradient id="g4" x1="257.2" y1="257.4" x2="257.2" y2="196" gradientUnits="userSpaceOnUse">
			<stop offset="0" stop-color="#9795ff"/>
			<stop offset="1" stop-color="#f4f1ff"/>
		</linearGradient>
		<linearGradient id="g5" x1="191.5" y1="260.4" x2="192.7" y2="192.5" gradientUnits="userSpaceOnUse">
			<stop offset="0" stop-color="#2f0063"/>
			<stop offset="1" stop-color="#383e81"/>
		</linearGradient>
		<linearGradient id="g6" x1="158.6" y1="254.2" x2="159.5" y2="198.8" gradientUnits="userSpaceOnUse">
			<stop offset="0" stop-color="#007cde"/>
			<stop offset="1" stop-color="#0f4aa4"/>
		</linearGradient>
		<linearGradient id="g7" x1="266.1" y1="253.1" x2="266.1" y2="209.5" gradientUnits="userSpaceOnUse">
			<stop offset="0" stop-color="#a40540"/>
			<stop offset="1" stop-color="#c7224a"/>
		</linearGradient>
		<linearGradient id="g8" x1="241.8" y1="202.7" x2="292.5" y2="202.7" gradientUnits="userSpaceOnUse">
			<stop offset="0" stop-color="#9579a7"/>
			<stop offset="1" stop-color="#ffffff"/>
		</linearGradient>
		<linearGradient id="g9" x1="270.8" y1="207.2" x2="270.8" y2="190.1" gradientUnits="userSpaceOnUse">
			<stop offset="0" stop-color="#9795ff"/>
			<stop offset="1" stop-color="#f4f1ff"/>
		</linearGradient>
	</defs>
	<style>
		.s0 { fill: #321255 } 
		.s1 { fill: #5a4d9c } 
		.s2 { fill: #4f2f5b } 
		.s3 { fill: url(#g1) } 
		.s4 { fill: #766bd5 } 
		.s5 { fill: url(#g2) } 
		.s6 { fill: url(#g3) } 
		.s7 { fill: url(#g4) } 
		.s8 { fill: url(#g5) } 
		.s9 { fill: url(#g6) } 
		.s10 { fill: #ffffff } 
		.s11 { fill: #ff4c4f } 
		.s12 { fill: url(#g7) } 
		.s13 { fill: #bebdff } 
		.s14 { opacity: .5;mix-blend-mode: soft-light;fill: #ffffff } 
		.s15 { fill: #53345f } 
		.s16 { mix-blend-mode: multiply;fill: url(#g8) } 
		.s17 { fill: url(#g9) } 
	</style>
	<g id="&lt;Group&gt;">
		<path id="&lt;Path&gt;" class="s0" d="m315.8 279.7l41.4 90h-2.8l-49.4-90z"/>
		<path id="&lt;Path&gt;" class="s0" d="m305 250.2l-1.4 6.6-9.9 0.3 1-6.2z"/>
		<path id="&lt;Path&gt;" class="s1" d="m293.7 257.1h-4.9l-0.8-7.5 4.4-0.3 0.1 1.8 2.2-0.2z"/>
		<path id="&lt;Path&gt;" class="s0" d="m300.5 256.9l-0.8 7.9h-6l-0.7-7.7z"/>
		<path id="&lt;Path&gt;" class="s1" d="m274.1 262.1l27.5-0.1v7.8h-27.5z"/>
		<path id="&lt;Path&gt;" class="s0" d="m301.6 262l16.9 1.4 2.5 6.4h-19.4z"/>
		<path id="&lt;Path&gt;" class="s0" d="m318.1 269.8l-2.3 9.9-36.9 1-1.6-10.9z"/>
		<path id="&lt;Path&gt;" class="s1" d="m283.4 280.7l-45.4 89h-2.2l42.1-95.7z"/>
		<path id="&lt;Path&gt;" class="s1" d="m297.7 280.2l4.3-6.2 6.8 5.9 21.1 89.8h-3.5z"/>
		<path id="&lt;Path&gt;" class="s0" d="m308.8 279.9l21.1 89.8h-1.5l-26.4-95.7z"/>
		<path id="&lt;Path&gt;" class="s0" d="m283.4 280.7l-45.4 89h-1l44.7-91.1z"/>
		<path id="&lt;Path&gt;" class="s1" d="m317.3 341.3l-65.8 0.5 0.9-2.1 64-1z"/>
		<path id="&lt;Path&gt;" class="s0" d="m322.5 338.2h18.8l2.2 2.1-21 0.9z"/>
		<path id="&lt;Path&gt;" class="s2" d="m258.3 206.2v-3.8l18.3 3.4-0.8 2.9z"/>
		<path id="&lt;Path&gt;" class="s3" d="m256.3 186l32.6 7c2.4 2.3 1.6 12.5-3.7 14.7l-30.3-4.2c0 0 4.6-7.1 1.4-17.5z"/>
		<path id="&lt;Path&gt;" class="s4" d="m258.2 194.9c-0.3 6.5-3.3 8.6-3.3 8.6-5.4-4.6-2.1-16.3 1.4-17.5 0 0 2.3 2.2 1.9 8.9z"/>
		<path id="&lt;Path&gt;" class="s0" d="m257.2 195.1c-0.2 2.9-1.1 4.4-1.7 5-0.3 0.4-0.5 0.5-0.5 0.5-2.2-1.1-3-8.7 0.6-12 0 0 0.3 0.3 0.6 0.9 0.5 1 1.2 2.8 1 5.6z"/>
		<path id="&lt;Path&gt;" class="s5" d="m257.2 195.1c-0.2 2.9-1.1 4.4-1.7 5-2.1-2.2-1.2-9.1 0.7-10.6 0.5 1 1.2 2.8 1 5.6z"/>
		<path id="&lt;Path&gt;" class="s6" d="m331.9 221.7l9.7 2.2c3.3 2.2 5.2 16.1-0.7 20.1l-11 2.2z"/>
		<path id="&lt;Path&gt;" class="s7" d="m207 196l123.3 21.6c5.5 1.3 8.5 24.2-2 30.6l-121.1 9.2c0 0 6-25.2-0.2-61.4z"/>
		<path id="&lt;Path&gt;" class="s8" d="m205.7 193.7l36.4 5.8c12 8.2 17 47.3-4.3 58.1l-35.5 3c0 0 20.6-28.7 3.4-66.9z"/>
		<path id="&lt;Path&gt;" class="s4" d="m216.7 226.4c-0.5 24-14.4 34.2-14.4 34.2-24.8-16.9-16.4-60 3.4-66.9 0 0 11.5 7.8 11 32.7z"/>
		<path id="&lt;Path&gt;" class="s0" d="m215.3 227.7c-0.7 14.6-6.2 24-9.9 27.4-1.8 1.6-3.1 2.3-3.1 2.3-14.4-5.1-21.5-44.6 1.1-61.4 0 0 1.7 1.3 3.8 4.1 3.7 4.8 8.7 13.8 8.1 27.6z"/>
		<path id="&lt;Path&gt;" class="s9" d="m215.3 227.7c-0.7 14.6-6.2 24-9.9 27.4-14.3-10.9-9.8-47.2 1.8-55 3.7 4.8 8.7 13.8 8.1 27.6z"/>
		<path id="&lt;Path&gt;" class="s10" d="m206.2 209.6l-2.3 6.8h-3.7c0.1-3.3 2.2-6.9 2.2-6.9z"/>
		<path id="&lt;Path&gt;" class="s11" d="m289.9 210.5l2.1-1c3.8 0 10 27.7 0.5 43.6l-3.2-1.9 2.7-0.2c0 0 10-19.7-0.2-40.1z"/>
		<path id="&lt;Path&gt;" class="s12" d="m307.3 211.9c7.7 9.6 5.3 34.8-1.4 40.2l-13.4 1c7.3-11.7 5.1-40.3-0.5-43.6z"/>
		<path id="&lt;Path&gt;" class="s13" d="m310.9 326.2l5.1-3.3 2 6.6-5.3 2.4z"/>
		<path id="&lt;Path&gt;" class="s1" d="m322.5 329.4l-4.5 0.1-2-6.6 5 0.8z"/>
		<path id="&lt;Path&gt;" class="s0" d="m322.5 329.4l-1.8 0.9h-3.1l-3.3 1.6h-1.6l5.3-2.4z"/>
		<path id="&lt;Path&gt;" class="s13" d="m254.7 323.9l3 1.5-2.7 5.1-2.6-1.1z"/>
		<path id="&lt;Path&gt;" class="s1" d="m257.7 325.4l3 2.1-2.4 4-3.3-1z"/>
		<path id="&lt;Path&gt;" class="s1" d="m329.3 325.7l7.5-2.8 1.8 5.1-6.7 2.4z"/>
		<path id="&lt;Path&gt;" class="s13" d="m313.8 283.6c-4.4 0-8-6.2-8-13.8 0-7.6 3.6-13.8 8-13.8 4.5 0 8 6.2 8 13.8 0 7.6-3.5 13.8-8 13.8z"/>
		<path id="&lt;Path&gt;" class="s13" d="m312.7 256.2c0 0 3.6-1.4 7.7 0l-1.1 27.4c0 0-3.3 1.1-6.6-0.2 0 0-7-16.5 0-27.2z"/>
		<path id="&lt;Path&gt;" class="s1" d="m319.3 283.6c-4.5 0-8.1-6.2-8.1-13.8 0-7.6 3.6-13.8 8.1-13.8 4.4 0 8 6.2 8 13.8 0 7.6-3.6 13.8-8 13.8z"/>
		<path id="&lt;Path&gt;" class="s0" d="m321 275.1c-1.7 0-3.1-2.4-3.1-5.4 0-2.9 1.4-5.3 3.1-5.3 1.8 0 3.1 2.4 3.1 5.3 0 3-1.3 5.4-3.1 5.4z"/>
		<path id="&lt;Path&gt;" class="s13" d="m320.2 273.7c-1.3 0-2.3-1.7-2.3-3.9 0-2.1 1-3.9 2.3-3.9 1.2 0 2.2 1.8 2.2 3.9 0 2.2-1 3.9-2.2 3.9z"/>
		<path id="&lt;Path&gt;" class="s14" d="m210.2 198.8c0 0 23 4.7 24.3 6.1 1.2 1.3-20.1 2.8-20.1 2.8 0 0-3-7.2-4.2-8.9z"/>
		<g id="&lt;Group&gt;">
			<path id="&lt;Path&gt;" class="s15" d="m295.5 240l-44.2-1.2v-0.2l44.2 1.2z"/>
		</g>
		<g id="&lt;Group&gt;">
			<path id="&lt;Path&gt;" class="s15" d="m333.5 221.4l-22.9-2.5 0.1-0.3 22.8 2.5z"/>
		</g>
		<path id="&lt;Path&gt;" class="s16" d="m245.4 202.7l1.9 0.3c0 0 11.9 21.5 2 49.7l43.2-1.6-0.5-0.1-50.2 3.8c0 0 20.1-19.5 3.6-52.1z"/>
		<path id="&lt;Path&gt;" class="s17" d="m271.2 205.8c0 0 7.3-4.1 4.2-15.7l8.4 1.8c0 0 4 8.2-2.3 15.3z"/>
		<path id="&lt;Path&gt;" class="s14" d="m205.2 253.5c-0.1 0.3 2-5.9 8.3-18 0 0-2.2 12.6-8.3 18z"/>
		<path id="&lt;Path&gt;" class="s10" d="m252.8 207.9l11.6 1.6 1.8 1.7-13.1-0.9z"/>
		<path id="&lt;Path&gt;" class="s10" d="m311.1 216.4l5.1 1.1 0.7 1.2-4.8-0.6z"/>
		<path id="&lt;Path&gt;" class="s10" d="m312.1 256.4c0 0 2.4 2.3 0.3 3.5-2.1 1.3-4.5 0.7-4.5 0.7 1.6-3.7 4.2-4.2 4.2-4.2z"/>
	</g>
</svg>