<svg version="1.2" xmlns="http://www.w3.org/2000/svg" viewBox="0 0 900 206" width="1920" height="439">
	<title>wave-haikei (bottompink)-svg</title>
	<style>
		.s0 { fill: #f414b0 } 
	</style>
	<path id="Layer" class="s0" d="m-4 14.8l43.6 10.1 43.5 5.1 43.6-2 42.6-10.2 43.6 1 43.5 17.3 43.6-10.2 43.6 7.1 43.5-17.2 43.6 18.2 42.6-3 43.6-13.2 43.5 19.3 43.6-30.4 43.6 15.2 43.5-5.1 43.6 7.1 42.6-13.2 43.6 13.2 43.5 15.2 43.6-11.1v180.3h-43.6-43.5-43.6-42.6-43.6-43.5-43.6-43.6-43.5-43.6-42.6-43.6-43.5-43.6-43.6-43.5-43.6-42.6-43.6-43.5-43.6z"/>
</svg>